<svg xmlns="http://www.w3.org/2000/svg" viewBox="0 0 36 36" preserveAspectRatio="xMidYMid slice"><path d="M35,30L36,30M35,30L35,31M33,31L34,31M33,31L33,32M34,31L35,31M31,32L32,32M31,32L31,33M32,32L33,32M28,33L29,33M28,33L28,34M29,33L30,33M30,33L31,33M24,34L25,34M24,34L24,35M25,34L26,34M26,34L27,34M27,34L28,34M22,35L23,35M22,35L22,36M23,35L24,35" stroke="currentColor" stroke-width="0.18" fill="none" opacity="0.10" shape-rendering="crispEdges"/><path d="M0,1L1,1M1,0L1,1M15,1L16,1M15,0L15,1M16,1L17,1M17,1L18,1M18,1L19,1M19,2L20,2M19,1L19,2M20,2L21,2M21,2L22,2M22,2L23,2M23,2L24,2M24,2L25,2M25,2L26,2M26,2L27,2M27,2L28,2M28,2L29,2M29,3L30,3M29,2L29,3M30,3L31,3M31,4L32,4M31,3L31,4M32,5L33,5M32,4L32,5M33,6L34,6M33,5L33,6M34,6L34,7M34,8L35,8M34,7L34,8M35,8L35,9M35,9L35,10M35,10L35,11M35,12L36,12M35,11L35,12M35,25L36,25M35,25L35,26M35,26L35,27M34,27L35,27M34,27L34,28M33,28L34,28M33,28L33,29M32,29L33,29M32,29L32,30M35,30L36,30M30,30L31,30M30,30L30,31M31,30L32,30M33,31L34,31M34,31L35,31M35,30L35,31M26,31L27,31M26,31L26,32M27,31L28,31M28,31L29,31M29,31L30,31M31,32L32,32M32,32L33,32M33,31L33,32M23,32L24,32M23,32L23,33M24,32L25,32M25,32L26,32M28,33L29,33M29,33L30,33M30,33L31,33M31,32L31,33M21,33L22,33M21,33L21,34M22,33L23,33M24,34L25,34M25,34L26,34M26,34L27,34M27,34L28,34M28,33L28,34M19,34L20,34M19,34L19,35M20,34L21,34M22,35L23,35M23,35L24,35M24,34L24,35M0,35L1,35M1,35L1,36M16,35L17,35M16,35L16,36M17,35L18,35M18,35L19,35M22,35L22,36" stroke="currentColor" stroke-width="0.18" fill="none" opacity="0.12" shape-rendering="crispEdges"/><path d="M1,0L1,1M5,1L6,1M6,1L7,1M7,1L8,1M8,1L9,1M9,1L10,1M10,1L11,1M15,0L15,1M0,1L1,1M3,2L4,2M4,2L5,2M5,1L5,2M11,2L12,2M11,1L11,2M12,2L13,2M13,2L14,2M14,2L15,2M15,1L16,1M16,1L17,1M17,1L18,1M18,1L19,1M19,1L19,2M2,3L3,3M3,2L3,3M15,3L16,3M15,2L15,3M16,3L17,3M17,3L18,3M19,2L20,2M20,2L21,2M21,2L22,2M22,2L23,2M23,2L24,2M24,2L25,2M25,2L26,2M26,2L27,2M27,2L28,2M28,2L29,2M29,2L29,3M1,4L2,4M2,3L2,4M18,4L19,4M18,3L18,4M19,4L20,4M20,4L21,4M29,3L30,3M30,3L31,3M31,3L31,4M0,5L1,5M1,4L1,5M21,5L22,5M21,4L21,5M22,5L23,5M23,5L24,5M24,5L25,5M31,4L32,4M32,4L32,5M25,6L26,6M25,5L25,6M26,6L27,6M27,6L28,6M32,5L33,5M33,5L33,6M28,7L29,7M28,6L28,7M33,6L34,6M34,6L34,7M29,8L30,8M29,7L29,8M30,8L31,8M34,7L34,8M31,9L32,9M31,8L31,9M34,8L35,8M35,8L35,9M32,9L32,10M35,9L35,10M32,11L33,11M32,10L32,11M35,10L35,11M33,11L33,12M35,11L35,12M33,12L33,13M35,12L36,12M33,14L34,14M33,13L33,14M34,14L34,15M34,15L34,16M34,16L34,17M34,17L34,18M34,18L34,19M34,19L34,20M34,20L34,21M34,21L34,22M34,22L34,23M34,23L34,24M33,24L34,24M33,24L33,25M35,25L36,25M33,25L33,26M35,25L35,26M32,26L33,26M32,26L32,27M34,27L35,27M35,26L35,27M31,27L32,27M31,27L31,28M33,28L34,28M34,27L34,28M30,28L31,28M30,28L30,29M32,29L33,29M33,28L33,29M27,29L28,29M27,29L27,30M28,29L29,29M29,29L30,29M30,30L31,30M31,30L32,30M32,29L32,30M24,30L25,30M24,30L24,31M25,30L26,30M26,30L27,30M26,31L27,31M27,31L28,31M28,31L29,31M29,31L30,31M30,30L30,31M0,31L1,31M1,31L1,32M21,31L22,31M21,31L21,32M22,31L23,31M23,31L24,31M23,32L24,32M24,32L25,32M25,32L26,32M26,31L26,32M1,32L1,33M19,32L20,32M19,32L19,33M20,32L21,32M21,33L22,33M22,33L23,33M23,32L23,33M1,33L2,33M2,33L2,34M16,33L17,33M16,33L16,34M17,33L18,33M18,33L19,33M19,34L20,34M20,34L21,34M21,33L21,34M0,35L1,35M2,34L3,34M3,34L4,34M4,34L5,34M5,34L6,34M6,34L7,34M7,34L8,34M8,34L9,34M9,34L9,35M12,34L13,34M12,34L12,35M13,34L14,34M14,34L15,34M15,34L16,34M16,35L17,35M17,35L18,35M18,35L19,35M19,34L19,35M1,35L1,36M9,35L10,35M10,35L11,35M11,35L12,35M16,35L16,36" stroke="currentColor" stroke-width="0.18" fill="none" opacity="0.16" shape-rendering="crispEdges"/><path d="M5,1L6,1M5,1L5,2M6,1L7,1M7,1L8,1M8,1L9,1M9,1L10,1M10,1L11,1M11,1L11,2M3,2L4,2M3,2L3,3M4,2L5,2M6,3L7,3M7,3L8,3M8,3L9,3M9,3L10,3M10,3L11,3M11,2L12,2M12,2L13,2M13,2L14,2M14,2L15,2M15,2L15,3M2,3L3,3M2,3L2,4M4,4L5,4M5,4L6,4M6,3L6,4M11,4L12,4M11,3L11,4M12,4L13,4M13,4L14,4M14,4L15,4M15,3L16,3M16,3L17,3M17,3L18,3M18,3L18,4M1,4L2,4M1,4L1,5M3,5L4,5M4,4L4,5M15,5L16,5M15,4L15,5M16,5L17,5M17,5L18,5M18,4L19,4M19,4L20,4M20,4L21,4M21,4L21,5M0,5L1,5M2,6L3,6M3,5L3,6M18,6L19,6M18,5L18,6M19,6L20,6M20,6L21,6M21,5L22,5M22,5L23,5M23,5L24,5M24,5L25,5M25,5L25,6M1,7L2,7M2,6L2,7M21,7L22,7M21,6L21,7M22,7L23,7M25,6L26,6M26,6L27,6M27,6L28,6M28,6L28,7M1,7L1,8M23,8L24,8M23,7L23,8M24,8L25,8M25,8L26,8M28,7L29,7M29,7L29,8M0,9L1,9M1,8L1,9M26,9L27,9M26,8L26,9M29,8L30,8M30,8L31,8M31,8L31,9M27,10L28,10M27,9L27,10M28,10L29,10M31,9L32,9M32,9L32,10M29,10L29,11M32,10L32,11M29,12L30,12M29,11L29,12M32,11L33,11M33,11L33,12M30,13L31,13M30,12L30,13M33,12L33,13M31,13L31,14M33,13L33,14M31,15L32,15M31,14L31,15M33,14L34,14M34,14L34,15M32,15L32,16M34,15L34,16M32,16L32,17M34,16L34,17M32,17L32,18M34,17L34,18M32,18L32,19M34,18L34,19M32,19L32,20M34,19L34,20M32,20L32,21M34,20L34,21M32,21L32,22M34,21L34,22M32,22L32,23M34,22L34,23M31,23L32,23M31,23L31,24M33,24L34,24M34,23L34,24M31,24L31,25M33,24L33,25M30,25L31,25M30,25L30,26M32,26L33,26M33,25L33,26M0,26L1,26M1,26L1,27M29,26L30,26M29,26L29,27M31,27L32,27M32,26L32,27M1,27L1,28M28,27L29,27M28,27L28,28M30,28L31,28M31,27L31,28M1,28L2,28M2,28L2,29M26,28L27,28M26,28L26,29M27,28L28,28M27,29L28,29M28,29L29,29M29,29L30,29M30,28L30,29M2,29L2,30M22,29L23,29M22,29L22,30M23,29L24,29M24,29L25,29M24,30L25,30M25,29L26,29M25,30L26,30M26,30L27,30M27,29L27,30M0,31L1,31M2,30L3,30M3,30L3,31M19,30L20,30M19,30L19,31M20,30L21,30M21,30L22,30M21,31L22,31M22,31L23,31M23,31L24,31M24,30L24,31M1,31L1,32M3,31L4,31M4,31L4,32M16,31L17,31M16,31L16,32M17,31L18,31M18,31L19,31M19,32L20,32M20,32L21,32M21,31L21,32M1,33L2,33M1,32L1,33M4,32L5,32M5,32L6,32M6,32L7,32M7,32L8,32M8,32L9,32M9,32L10,32M10,32L10,33M13,32L14,32M13,32L13,33M14,32L15,32M15,32L16,32M16,33L17,33M17,33L18,33M18,33L19,33M19,32L19,33M2,34L3,34M2,33L2,34M3,34L4,34M4,34L5,34M5,34L6,34M6,34L7,34M7,34L8,34M8,34L9,34M10,33L11,33M11,33L12,33M12,33L13,33M12,34L13,34M13,34L14,34M14,34L15,34M15,34L16,34M16,33L16,34M9,35L10,35M9,34L9,35M10,35L11,35M11,35L12,35M12,34L12,35" stroke="currentColor" stroke-width="0.18" fill="none" opacity="0.20" shape-rendering="crispEdges"/><path d="M6,3L7,3M6,3L6,4M7,3L8,3M8,3L9,3M9,3L10,3M10,3L11,3M11,3L11,4M4,4L5,4M4,4L4,5M5,4L6,4M11,4L12,4M12,4L13,4M13,4L14,4M14,4L15,4M15,4L15,5M3,5L4,5M3,5L3,6M6,6L7,6M7,6L8,6M8,6L9,6M9,6L10,6M10,6L11,6M11,6L12,6M12,6L13,6M13,6L14,6M14,6L15,6M15,5L16,5M16,5L17,5M17,5L18,5M18,5L18,6M2,6L3,6M2,6L2,7M4,7L5,7M5,7L6,7M6,6L6,7M15,7L16,7M15,6L15,7M16,7L17,7M17,7L18,7M18,6L19,6M19,6L20,6M20,6L21,6M21,6L21,7M1,7L2,7M1,7L1,8M3,8L4,8M4,7L4,8M18,8L19,8M18,7L18,8M19,8L20,8M20,8L21,8M21,7L22,7M22,7L23,7M23,7L23,8M1,8L1,9M2,9L3,9M3,8L3,9M21,9L22,9M21,8L21,9M22,9L23,9M23,8L24,8M24,8L25,8M25,8L26,8M26,8L26,9M0,9L1,9M2,9L2,10M23,10L24,10M23,9L23,10M24,10L25,10M26,9L27,9M27,9L27,10M2,10L2,11M25,11L26,11M25,10L25,11M27,10L28,10M28,10L29,10M29,10L29,11M1,12L2,12M2,11L2,12M26,12L27,12M26,11L26,12M29,11L29,12M1,12L1,13M27,13L28,13M27,12L27,13M29,12L30,12M30,12L30,13M1,13L1,14M28,14L29,14M28,13L28,14M30,13L31,13M31,13L31,14M1,14L1,15M29,15L30,15M29,14L29,15M31,14L31,15M1,15L1,16M30,15L30,16M31,15L32,15M32,15L32,16M1,16L1,17M30,16L30,17M32,16L32,17M1,17L1,18M30,17L30,18M32,17L32,18M1,18L1,19M30,18L30,19M32,18L32,19M1,19L1,20M29,19L30,19M29,19L29,20M32,19L32,20M1,20L1,21M29,20L29,21M32,20L32,21M1,21L1,22M29,21L29,22M32,21L32,22M1,22L1,23M29,22L29,23M31,23L32,23M32,22L32,23M1,23L1,24M28,23L29,23M28,23L28,24M31,23L31,24M1,24L2,24M2,24L2,25M28,24L28,25M30,25L31,25M31,24L31,25M0,26L1,26M2,25L2,26M27,25L28,25M27,25L27,26M29,26L30,26M30,25L30,26M1,26L1,27M2,26L3,26M3,26L3,27M26,26L27,26M26,26L26,27M28,27L29,27M29,26L29,27M1,28L2,28M1,27L1,28M3,27L3,28M24,27L25,27M24,27L24,28M25,27L26,27M26,28L27,28M27,28L28,28M28,27L28,28M2,28L2,29M3,28L4,28M4,28L4,29M21,28L22,28M21,28L21,29M22,28L23,28M22,29L23,29M23,28L24,28M23,29L24,29M24,29L25,29M25,29L26,29M26,28L26,29M2,30L3,30M2,29L2,30M4,29L5,29M5,29L5,30M17,29L18,29M17,29L17,30M18,29L19,29M19,29L20,29M19,30L20,30M20,29L21,29M20,30L21,30M21,30L22,30M22,29L22,30M3,31L4,31M3,30L3,31M5,30L6,30M6,30L7,30M7,30L8,30M8,30L8,31M14,30L15,30M14,30L14,31M15,30L16,30M16,30L17,30M16,31L17,31M17,31L18,31M18,31L19,31M19,30L19,31M4,32L5,32M4,31L4,32M5,32L6,32M6,32L7,32M7,32L8,32M8,31L9,31M8,32L9,32M9,31L10,31M9,32L10,32M10,31L11,31M11,31L12,31M12,31L13,31M13,31L14,31M13,32L14,32M14,32L15,32M15,32L16,32M16,31L16,32M10,33L11,33M10,32L10,33M11,33L12,33M12,33L13,33M13,32L13,33" stroke="currentColor" stroke-width="0.18" fill="none" opacity="0.25" shape-rendering="crispEdges"/><path d="M6,6L7,6M6,6L6,7M7,6L8,6M8,6L9,6M9,6L10,6M10,6L11,6M11,6L12,6M11,7L12,7M12,6L13,6M12,7L13,7M13,6L14,6M14,6L15,6M15,6L15,7M4,7L5,7M4,7L4,8M5,7L6,7M8,8L9,8M9,8L10,8M10,8L11,8M11,7L11,8M13,8L14,8M13,7L13,8M14,8L15,8M15,7L16,7M15,8L16,8M16,7L17,7M16,8L17,8M17,7L18,7M18,7L18,8M3,8L4,8M3,8L3,9M5,9L6,9M6,9L7,9M7,9L8,9M8,8L8,9M17,9L18,9M17,8L17,9M18,8L19,8M18,9L19,9M19,8L20,8M20,8L21,8M21,8L21,9M2,9L3,9M2,9L2,10M4,10L5,10M5,9L5,10M19,10L20,10M19,9L19,10M20,10L21,10M21,9L22,9M22,9L23,9M23,9L23,10M2,10L2,11M4,10L4,11M21,11L22,11M21,10L21,11M22,11L23,11M23,10L24,10M24,10L25,10M25,10L25,11M2,11L2,12M3,12L4,12M4,11L4,12M23,12L24,12M23,11L23,12M24,12L25,12M25,11L26,11M26,11L26,12M1,12L2,12M1,12L1,13M3,12L3,13M25,13L26,13M25,12L25,13M26,12L27,12M27,12L27,13M1,13L1,14M2,14L3,14M3,13L3,14M26,14L27,14M26,13L26,14M27,13L28,13M28,13L28,14M1,14L1,15M2,14L2,15M27,14L27,15M28,14L29,14M29,14L29,15M1,15L1,16M2,15L2,16M27,15L27,16M29,15L30,15M30,15L30,16M1,16L1,17M2,16L2,17M27,16L27,17M30,16L30,17M1,17L1,18M2,17L2,18M27,17L27,18M30,17L30,18M1,18L1,19M2,18L2,19M27,18L27,19M29,19L30,19M30,18L30,19M1,19L1,20M2,19L2,20M27,19L27,20M29,19L29,20M1,20L1,21M2,20L2,21M27,20L27,21M29,20L29,21M1,21L1,22M2,21L2,22M26,21L27,21M26,21L26,22M29,21L29,22M1,22L1,23M2,22L3,22M3,22L3,23M26,22L26,23M28,23L29,23M29,22L29,23M1,24L2,24M1,23L1,24M3,23L3,24M25,23L26,23M25,23L25,24M28,23L28,24M2,24L2,25M3,24L4,24M4,24L4,25M25,24L25,25M27,25L28,25M28,24L28,25M2,26L3,26M2,25L2,26M4,25L4,26M24,25L25,25M24,25L24,26M26,26L27,26M27,25L27,26M3,26L3,27M4,26L5,26M5,26L5,27M22,26L23,26M22,26L22,27M23,26L24,26M24,27L25,27M25,27L26,27M26,26L26,27M3,28L4,28M3,27L3,28M5,27L6,27M6,27L6,28M19,27L20,27M19,27L19,28M20,27L21,27M21,27L22,27M21,28L22,28M22,28L23,28M23,28L24,28M24,27L24,28M4,29L5,29M4,28L4,29M6,28L7,28M7,28L7,29M15,28L16,28M15,28L15,29M16,28L17,28M17,28L18,28M17,29L18,29M18,28L19,28M18,29L19,29M19,29L20,29M20,29L21,29M21,28L21,29M5,30L6,30M5,29L5,30M6,30L7,30M7,29L8,29M7,30L8,30M8,29L9,29M9,29L10,29M10,29L11,29M11,29L12,29M12,29L13,29M13,29L14,29M14,29L15,29M14,30L15,30M15,30L16,30M16,30L17,30M17,29L17,30M8,31L9,31M8,30L8,31M9,31L10,31M10,31L11,31M11,31L12,31M12,31L13,31M13,31L14,31M14,30L14,31" stroke="currentColor" stroke-width="0.18" fill="none" opacity="0.30" shape-rendering="crispEdges"/><path d="M11,7L12,7M11,7L11,8M12,7L13,7M13,7L13,8M8,8L9,8M8,8L8,9M9,8L10,8M10,8L11,8M10,9L11,9M11,9L12,9M12,9L13,9M13,8L14,8M13,9L14,9M14,8L15,8M14,9L15,9M15,8L16,8M16,8L17,8M17,8L17,9M5,9L6,9M5,9L5,10M6,9L7,9M7,9L8,9M8,10L9,10M9,10L10,10M10,9L10,10M15,10L16,10M15,9L15,10M16,10L17,10M17,9L18,9M18,9L19,9M19,9L19,10M4,10L5,10M4,10L4,11M7,11L8,11M8,10L8,11M17,11L18,11M17,10L17,11M19,10L20,10M20,10L21,10M21,10L21,11M4,11L4,12M6,12L7,12M7,11L7,12M18,12L19,12M18,11L18,12M19,12L20,12M21,11L22,11M22,11L23,11M23,11L23,12M3,12L4,12M3,12L3,13M5,13L6,13M6,12L6,13M20,13L21,13M20,12L20,13M21,13L22,13M22,13L23,13M23,12L24,12M24,12L25,12M25,12L25,13M3,13L3,14M4,14L5,14M5,13L5,14M23,14L24,14M23,13L23,14M25,13L26,13M26,13L26,14M2,14L3,14M2,14L2,15M4,14L4,15M24,15L25,15M24,14L24,15M26,14L27,14M27,14L27,15M2,15L2,16M4,15L4,16M25,15L25,16M27,15L27,16M2,16L2,17M4,16L4,17M25,16L25,17M27,16L27,17M2,17L2,18M4,17L4,18M25,17L25,18M27,17L27,18M2,18L2,19M4,18L4,19M25,18L25,19M27,18L27,19M2,19L2,20M4,19L4,20M25,19L25,20M27,19L27,20M2,20L2,21M4,20L4,21M24,20L25,20M24,20L24,21M26,21L27,21M27,20L27,21M2,22L3,22M2,21L2,22M4,21L4,22M24,21L24,22M26,21L26,22M3,22L3,23M4,22L5,22M5,22L5,23M23,22L24,22M23,22L23,23M25,23L26,23M26,22L26,23M3,24L4,24M3,23L3,24M5,23L5,24M23,23L23,24M25,23L25,24M4,24L4,25M5,24L6,24M6,24L6,25M22,24L23,24M22,24L22,25M24,25L25,25M25,24L25,25M4,26L5,26M4,25L4,26M6,25L6,26M20,25L21,25M20,25L20,26M21,25L22,25M22,26L23,26M23,26L24,26M24,25L24,26M5,27L6,27M5,26L5,27M6,26L7,26M7,26L8,26M8,26L8,27M17,26L18,26M17,26L17,27M18,26L19,26M19,26L20,26M19,27L20,27M20,27L21,27M21,27L22,27M22,26L22,27M6,28L7,28M6,27L6,28M8,27L9,27M9,27L10,27M10,27L11,27M11,27L12,27M12,27L13,27M13,27L14,27M14,27L15,27M15,27L16,27M15,28L16,28M16,27L17,27M16,28L17,28M17,28L18,28M18,28L19,28M19,27L19,28M7,29L8,29M7,28L7,29M8,29L9,29M9,29L10,29M10,29L11,29M11,29L12,29M12,29L13,29M13,29L14,29M14,29L15,29M15,28L15,29" stroke="currentColor" stroke-width="0.18" fill="none" opacity="0.35" shape-rendering="crispEdges"/><path d="M10,9L11,9M10,9L10,10M11,9L12,9M12,9L13,9M13,9L14,9M14,9L15,9M15,9L15,10M8,10L9,10M8,10L8,11M9,10L10,10M11,11L12,11M12,11L13,11M13,11L14,11M14,11L15,11M15,10L16,10M16,10L17,10M17,10L17,11M7,11L8,11M7,11L7,12M9,12L10,12M10,12L11,12M11,11L11,12M15,12L16,12M15,11L15,12M17,11L18,11M18,11L18,12M6,12L7,12M6,12L6,13M8,13L9,13M9,12L9,13M16,13L17,13M16,12L16,13M17,13L18,13M18,12L19,12M19,12L20,12M20,12L20,13M5,13L6,13M5,13L5,14M7,14L8,14M8,13L8,14M18,14L19,14M18,13L18,14M20,13L21,13M21,13L22,13M22,13L23,13M23,13L23,14M4,14L5,14M4,14L4,15M6,15L7,15M7,14L7,15M19,15L20,15M19,14L19,15M20,15L21,15M23,14L24,14M24,14L24,15M4,15L4,16M6,15L6,16M21,16L22,16M21,15L21,16M24,15L25,15M25,15L25,16M4,16L4,17M6,16L6,17M22,17L23,17M22,16L22,17M25,16L25,17M4,17L4,18M6,17L6,18M23,17L23,18M25,17L25,18M4,18L4,19M6,18L6,19M22,18L23,18M22,18L22,19M25,18L25,19M4,19L4,20M6,19L6,20M22,19L22,20M24,20L25,20M25,19L25,20M4,20L4,21M6,20L6,21M22,20L22,21M24,20L24,21M4,22L5,22M4,21L4,22M6,21L7,21M7,21L7,22M21,21L22,21M21,21L21,22M23,22L24,22M24,21L24,22M5,22L5,23M7,22L7,23M21,22L21,23M23,22L23,23M5,24L6,24M5,23L5,24M7,23L8,23M8,23L8,24M20,23L21,23M20,23L20,24M22,24L23,24M23,23L23,24M6,24L6,25M8,24L9,24M9,24L9,25M18,24L19,24M18,24L18,25M19,24L20,24M20,25L21,25M21,25L22,25M22,24L22,25M6,26L7,26M6,25L6,26M7,26L8,26M9,25L10,25M10,25L11,25M11,25L12,25M12,25L13,25M13,25L14,25M14,25L15,25M15,25L16,25M16,25L17,25M17,25L18,25M17,26L18,26M18,26L19,26M19,26L20,26M20,25L20,26M8,27L9,27M8,26L8,27M9,27L10,27M10,27L11,27M11,27L12,27M12,27L13,27M13,27L14,27M14,27L15,27M15,27L16,27M16,27L17,27M17,26L17,27" stroke="currentColor" stroke-width="0.18" fill="none" opacity="0.40" shape-rendering="crispEdges"/><path d="M11,11L12,11M11,11L11,12M12,11L13,11M13,11L14,11M14,11L15,11M15,11L15,12M9,12L10,12M9,12L9,13M10,12L11,12M11,13L12,13M12,13L13,13M13,13L14,13M15,12L16,12M16,12L16,13M8,13L9,13M8,13L8,14M10,14L11,14M11,13L11,14M14,14L15,14M14,13L14,14M15,14L16,14M16,13L17,13M17,13L18,13M18,13L18,14M7,14L8,14M7,14L7,15M9,15L10,15M10,14L10,15M16,15L17,15M16,14L16,15M18,14L19,14M19,14L19,15M6,15L7,15M6,15L6,16M9,15L9,16M17,16L18,16M17,15L17,16M19,15L20,15M20,15L21,15M21,15L21,16M6,16L6,17M9,16L9,17M18,17L19,17M18,16L18,17M21,16L22,16M22,16L22,17M6,17L6,18M9,17L9,18M19,18L20,18M19,17L19,18M22,17L23,17M22,18L23,18M23,17L23,18M6,18L6,19M9,18L9,19M20,18L20,19M22,18L22,19M6,19L6,20M9,19L9,20M20,19L20,20M22,19L22,20M6,21L7,21M6,20L6,21M9,20L10,20M10,20L10,21M20,20L20,21M21,21L22,21M22,20L22,21M7,21L7,22M10,21L11,21M11,21L11,22M19,21L20,21M19,21L19,22M21,21L21,22M7,23L8,23M7,22L7,23M11,22L12,22M12,22L13,22M13,22L14,22M14,22L14,23M18,22L19,22M18,22L18,23M20,23L21,23M21,22L21,23M8,24L9,24M8,23L8,24M14,23L15,23M15,23L16,23M16,23L17,23M17,23L18,23M18,24L19,24M19,24L20,24M20,23L20,24M9,25L10,25M9,24L9,25M10,25L11,25M11,25L12,25M12,25L13,25M13,25L14,25M14,25L15,25M15,25L16,25M16,25L17,25M17,25L18,25M18,24L18,25" stroke="currentColor" stroke-width="0.18" fill="none" opacity="0.46" shape-rendering="crispEdges"/><path d="M11,13L12,13M11,13L11,14M12,13L13,13M13,13L14,13M14,13L14,14M10,14L11,14M10,14L10,15M14,14L15,14M15,14L16,14M16,14L16,15M9,15L10,15M9,15L9,16M16,15L17,15M17,15L17,16M9,16L9,17M17,16L18,16M18,16L18,17M9,17L9,18M18,17L19,17M19,17L19,18M9,18L9,19M19,18L20,18M20,18L20,19M9,20L10,20M9,19L9,20M20,19L20,20M10,21L11,21M10,20L10,21M19,21L20,21M20,20L20,21M11,22L12,22M11,21L11,22M12,22L13,22M13,22L14,22M18,22L19,22M19,21L19,22M14,23L15,23M14,22L14,23M15,23L16,23M16,23L17,23M17,23L18,23M18,22L18,23" stroke="currentColor" stroke-width="0.18" fill="none" opacity="0.52" shape-rendering="crispEdges"/><rect x="1.28" y="2.57" width="2.59" height="0.86" fill="currentColor" opacity="0.40"/><rect x="7.28" y="2.57" width="0.86" height="0.86" fill="currentColor" opacity="0.40"/><rect x="12.37" y="2.51" width="0.98" height="0.98" fill="currentColor" opacity="0.47"/><rect x="17.49" y="2.49" width="1.02" height="1.02" fill="currentColor" opacity="0.50"/><rect x="22.66" y="2.51" width="0.98" height="0.98" fill="currentColor" opacity="0.47"/><rect x="27.85" y="2.57" width="0.86" height="0.86" fill="currentColor" opacity="0.40"/><rect x="32.13" y="2.57" width="2.59" height="0.86" fill="currentColor" opacity="0.40"/><rect x="2.14" y="8.56" width="0.87" height="0.87" fill="currentColor" opacity="0.40"/><rect x="6.08" y="8.46" width="3.27" height="1.09" fill="currentColor" opacity="0.54"/><rect x="12.23" y="8.37" width="1.26" height="1.26" fill="currentColor" opacity="0.65"/><rect x="17.33" y="8.33" width="1.33" height="1.33" fill="currentColor" opacity="0.70"/><rect x="22.51" y="8.37" width="1.26" height="1.26" fill="currentColor" opacity="0.65"/><rect x="27.74" y="8.46" width="1.09" height="1.09" fill="currentColor" opacity="0.54"/><rect x="32.99" y="8.56" width="0.87" height="0.87" fill="currentColor" opacity="0.40"/><rect x="2.08" y="14.51" width="0.98" height="0.98" fill="currentColor" opacity="0.48"/><rect x="5.85" y="14.38" width="3.73" height="1.24" fill="currentColor" opacity="0.64"/><rect x="12.11" y="14.25" width="1.49" height="1.49" fill="currentColor" opacity="0.80"/><rect x="15.53" y="14.18" width="4.93" height="1.64" fill="currentColor" opacity="0.90"/><rect x="22.40" y="14.25" width="1.49" height="1.49" fill="currentColor" opacity="0.80"/><rect x="27.66" y="14.38" width="1.24" height="1.24" fill="currentColor" opacity="0.64"/><rect x="32.94" y="14.51" width="0.98" height="0.98" fill="currentColor" opacity="0.48"/><rect x="2.08" y="20.51" width="0.98" height="0.98" fill="currentColor" opacity="0.48"/><rect x="5.85" y="20.38" width="3.73" height="1.24" fill="currentColor" opacity="0.64"/><rect x="10.62" y="20.25" width="4.47" height="1.49" fill="currentColor" opacity="0.80"/><rect x="17.18" y="20.18" width="1.64" height="1.64" fill="currentColor" opacity="0.90"/><rect x="20.91" y="20.25" width="4.47" height="1.49" fill="currentColor" opacity="0.80"/><rect x="26.42" y="20.38" width="3.73" height="1.24" fill="currentColor" opacity="0.64"/><rect x="32.94" y="20.51" width="0.98" height="0.98" fill="currentColor" opacity="0.48"/><rect x="1.26" y="26.56" width="2.61" height="0.87" fill="currentColor" opacity="0.40"/><rect x="7.17" y="26.46" width="1.09" height="1.09" fill="currentColor" opacity="0.54"/><rect x="12.23" y="26.37" width="1.26" height="1.26" fill="currentColor" opacity="0.65"/><rect x="17.33" y="26.33" width="1.33" height="1.33" fill="currentColor" opacity="0.70"/><rect x="22.51" y="26.37" width="1.26" height="1.26" fill="currentColor" opacity="0.65"/><rect x="27.74" y="26.46" width="1.09" height="1.09" fill="currentColor" opacity="0.54"/><rect x="32.99" y="26.56" width="0.87" height="0.87" fill="currentColor" opacity="0.40"/><rect x="2.14" y="32.57" width="0.86" height="0.86" fill="currentColor" opacity="0.40"/><rect x="6.42" y="32.57" width="2.59" height="0.86" fill="currentColor" opacity="0.40"/><rect x="12.37" y="32.51" width="0.98" height="0.98" fill="currentColor" opacity="0.47"/><rect x="17.49" y="32.49" width="1.02" height="1.02" fill="currentColor" opacity="0.50"/></svg>