<svg xmlns="http://www.w3.org/2000/svg" viewBox="0 0 36 36" preserveAspectRatio="xMidYMid slice"><path d="M34,1L35,1M34,0L34,1M35,1L36,1M32,32L33,32M32,32L32,33M33,32L34,32M34,32L35,32M35,32L36,32M24,33L25,33M24,33L24,34M25,33L26,33M26,33L27,33M27,33L28,33M28,33L29,33M29,33L30,33M30,33L31,33M31,33L32,33M21,34L22,34M21,34L21,35M22,34L23,34M23,34L24,34M19,35L20,35M19,35L19,36M20,35L21,35" stroke="currentColor" stroke-width="0.18" fill="none" opacity="0.10" shape-rendering="crispEdges"/><path d="M31,1L32,1M31,0L31,1M32,1L33,1M34,0L34,1M33,2L34,2M33,1L33,2M34,1L35,1M35,1L36,1M34,3L35,3M34,2L34,3M35,4L36,4M35,3L35,4M35,28L36,28M35,28L35,29M33,29L34,29M33,29L33,30M34,29L35,29M29,30L30,30M29,30L29,31M30,30L31,30M31,30L32,30M32,30L33,30M22,31L23,31M22,31L22,32M23,31L24,31M24,31L25,31M25,31L26,31M26,31L27,31M27,31L28,31M28,31L29,31M32,32L33,32M33,32L34,32M34,32L35,32M35,32L36,32M19,32L20,32M19,32L19,33M20,32L21,32M21,32L22,32M24,33L25,33M25,33L26,33M26,33L27,33M27,33L28,33M28,33L29,33M29,33L30,33M30,33L31,33M31,33L32,33M32,32L32,33M18,33L19,33M18,33L18,34M21,34L22,34M22,34L23,34M23,34L24,34M24,33L24,34M16,34L17,34M16,34L16,35M17,34L18,34M19,35L20,35M20,35L21,35M21,34L21,35M15,35L16,35M15,35L15,36M19,35L19,36" stroke="currentColor" stroke-width="0.18" fill="none" opacity="0.12" shape-rendering="crispEdges"/><path d="M1,1L2,1M2,1L3,1M3,0L3,1M27,1L28,1M27,0L27,1M28,1L29,1M31,0L31,1M0,2L1,2M1,1L1,2M29,2L30,2M29,1L29,2M30,2L31,2M31,1L32,1M32,1L33,1M33,1L33,2M31,3L32,3M31,2L31,3M33,2L34,2M34,2L34,3M32,4L33,4M32,3L32,4M34,3L35,3M35,3L35,4M33,5L34,5M33,4L33,5M35,4L36,4M34,6L35,6M34,5L34,6M35,6L35,7M35,8L36,8M35,7L35,8M35,25L36,25M35,25L35,26M34,26L35,26M34,26L34,27M32,27L33,27M32,27L32,28M33,27L34,27M35,28L36,28M29,28L30,28M29,28L29,29M30,28L31,28M31,28L32,28M33,29L34,29M34,29L35,29M35,28L35,29M23,29L24,29M23,29L23,30M24,29L25,29M25,29L26,29M26,29L27,29M27,29L28,29M28,29L29,29M29,30L30,30M30,30L31,30M31,30L32,30M32,30L33,30M33,29L33,30M19,30L20,30M19,30L19,31M20,30L21,30M21,30L22,30M22,30L23,30M22,31L23,31M23,31L24,31M24,31L25,31M25,31L26,31M26,31L27,31M27,31L28,31M28,31L29,31M29,30L29,31M17,31L18,31M17,31L17,32M18,31L19,31M19,32L20,32M20,32L21,32M21,32L22,32M22,31L22,32M16,32L17,32M16,32L16,33M18,33L19,33M19,32L19,33M14,33L15,33M14,33L14,34M15,33L16,33M16,34L17,34M17,34L18,34M18,33L18,34M13,34L14,34M13,34L13,35M15,35L16,35M16,34L16,35M0,35L1,35M1,35L1,36M11,35L12,35M11,35L11,36M12,35L13,35M15,35L15,36" stroke="currentColor" stroke-width="0.18" fill="none" opacity="0.16" shape-rendering="crispEdges"/><path d="M3,0L3,1M5,1L6,1M6,1L7,1M7,0L7,1M23,1L24,1M23,0L23,1M24,1L25,1M25,1L26,1M27,0L27,1M1,1L2,1M1,1L1,2M2,1L3,1M3,2L4,2M4,2L5,2M5,1L5,2M26,2L27,2M26,1L26,2M27,1L28,1M27,2L28,2M28,1L29,1M29,1L29,2M0,2L1,2M2,3L3,3M3,2L3,3M28,3L29,3M28,2L28,3M29,2L30,2M29,3L30,3M30,2L31,2M31,2L31,3M1,4L2,4M2,3L2,4M30,4L31,4M30,3L30,4M31,3L32,3M32,3L32,4M0,5L1,5M1,4L1,5M31,5L32,5M31,4L31,5M32,4L33,4M33,4L33,5M32,6L33,6M32,5L32,6M33,5L34,5M34,5L34,6M33,7L34,7M33,6L33,7M34,6L35,6M35,6L35,7M34,7L34,8M35,7L35,8M34,9L35,9M34,8L34,9M35,8L36,8M35,9L35,10M35,10L35,11M35,12L36,12M35,11L35,12M35,20L36,20M35,20L35,21M35,21L35,22M34,22L35,22M34,22L34,23M33,23L34,23M33,23L33,24M32,24L33,24M32,24L32,25M35,25L36,25M31,25L32,25M31,25L31,26M34,26L35,26M35,25L35,26M30,26L31,26M30,26L30,27M32,27L33,27M33,27L34,27M34,26L34,27M26,27L27,27M26,27L26,28M27,27L28,27M28,27L29,27M29,27L30,27M29,28L30,28M30,28L31,28M31,28L32,28M32,27L32,28M21,28L22,28M21,28L21,29M22,28L23,28M23,28L24,28M23,29L24,29M24,28L25,28M24,29L25,29M25,28L26,28M25,29L26,29M26,29L27,29M27,29L28,29M28,29L29,29M29,28L29,29M18,29L19,29M18,29L18,30M19,29L20,29M19,30L20,30M20,29L21,29M20,30L21,30M21,30L22,30M22,30L23,30M23,29L23,30M16,30L17,30M16,30L16,31M17,30L18,30M17,31L18,31M18,31L19,31M19,30L19,31M14,31L15,31M14,31L14,32M15,31L16,31M16,32L17,32M17,31L17,32M0,32L1,32M1,32L1,33M12,32L13,32M12,32L12,33M13,32L14,32M14,33L15,33M15,33L16,33M16,32L16,33M1,33L2,33M2,33L2,34M10,33L11,33M10,33L10,34M11,33L12,33M13,34L14,34M14,33L14,34M0,35L1,35M2,34L3,34M3,34L4,34M4,34L5,34M5,34L5,35M7,34L8,34M7,34L7,35M8,34L9,34M9,34L10,34M11,35L12,35M12,35L13,35M13,34L13,35M1,35L1,36M5,35L6,35M6,35L7,35M11,35L11,36" stroke="currentColor" stroke-width="0.18" fill="none" opacity="0.20" shape-rendering="crispEdges"/><path d="M7,0L7,1M10,1L11,1M11,1L12,1M17,1L18,1M18,1L19,1M19,1L20,1M20,1L21,1M23,0L23,1M5,1L6,1M5,1L5,2M6,1L7,1M7,2L8,2M8,2L9,2M9,2L10,2M10,1L10,2M12,2L13,2M12,1L12,2M13,2L14,2M14,2L15,2M15,2L16,2M16,2L17,2M17,1L17,2M21,2L22,2M21,1L21,2M22,2L23,2M23,1L24,1M23,2L24,2M24,1L25,1M24,2L25,2M25,1L26,1M26,1L26,2M3,2L4,2M3,2L3,3M4,2L5,2M5,3L6,3M6,3L7,3M7,2L7,3M25,3L26,3M25,2L25,3M26,2L27,2M26,3L27,3M27,2L28,2M28,2L28,3M2,3L3,3M2,3L2,4M4,4L5,4M5,3L5,4M27,4L28,4M27,3L27,4M28,3L29,3M29,3L30,3M30,3L30,4M1,4L2,4M1,4L1,5M3,5L4,5M4,4L4,5M28,5L29,5M28,4L28,5M30,4L31,4M31,4L31,5M0,5L1,5M2,6L3,6M3,5L3,6M29,6L30,6M29,5L29,6M31,5L32,5M32,5L32,6M2,6L2,7M30,7L31,7M30,6L30,7M32,6L33,6M33,6L33,7M1,8L2,8M2,7L2,8M31,8L32,8M31,7L31,8M33,7L34,7M34,7L34,8M0,9L1,9M1,8L1,9M32,9L33,9M32,8L32,9M34,8L34,9M33,9L33,10M34,9L35,9M35,9L35,10M33,11L34,11M33,10L33,11M35,10L35,11M34,11L34,12M35,11L35,12M34,12L34,13M35,12L36,12M34,13L34,14M34,14L34,15M34,15L34,16M34,16L34,17M34,17L34,18M34,18L34,19M33,19L34,19M33,19L33,20M35,20L36,20M33,20L33,21M35,20L35,21M32,21L33,21M32,21L32,22M34,22L35,22M35,21L35,22M31,22L32,22M31,22L31,23M33,23L34,23M34,22L34,23M31,23L31,24M32,24L33,24M33,23L33,24M29,24L30,24M29,24L29,25M30,24L31,24M31,25L32,25M32,24L32,25M28,25L29,25M28,25L28,26M30,26L31,26M31,25L31,26M24,26L25,26M24,26L24,27M25,26L26,26M26,26L27,26M26,27L27,27M27,26L28,26M27,27L28,27M28,27L29,27M29,27L30,27M30,26L30,27M19,27L20,27M19,27L19,28M20,27L21,27M21,27L22,27M21,28L22,28M22,27L23,27M22,28L23,28M23,27L24,27M23,28L24,28M24,28L25,28M25,28L26,28M26,27L26,28M0,28L1,28M1,28L1,29M16,28L17,28M16,28L16,29M17,28L18,28M18,28L19,28M18,29L19,29M19,29L20,29M20,29L21,29M21,28L21,29M1,29L1,30M14,29L15,29M14,29L14,30M15,29L16,29M16,30L17,30M17,30L18,30M18,29L18,30M1,30L2,30M2,30L2,31M12,30L13,30M12,30L12,31M13,30L14,30M14,31L15,31M15,31L16,31M16,30L16,31M0,32L1,32M2,31L3,31M3,31L4,31M4,31L4,32M10,31L11,31M10,31L10,32M11,31L12,31M12,32L13,32M13,32L14,32M14,31L14,32M1,33L2,33M1,32L1,33M4,32L5,32M5,32L6,32M6,32L7,32M7,32L8,32M8,32L9,32M9,32L10,32M10,33L11,33M11,33L12,33M12,32L12,33M2,34L3,34M2,33L2,34M3,34L4,34M4,34L5,34M7,34L8,34M8,34L9,34M9,34L10,34M10,33L10,34M5,35L6,35M5,34L5,35M6,35L7,35M7,34L7,35" stroke="currentColor" stroke-width="0.18" fill="none" opacity="0.25" shape-rendering="crispEdges"/><path d="M10,1L11,1M10,1L10,2M11,1L12,1M12,1L12,2M17,1L18,1M17,1L17,2M18,1L19,1M19,1L20,1M20,1L21,1M21,1L21,2M7,2L8,2M7,2L7,3M8,2L9,2M9,2L10,2M9,3L10,3M10,3L11,3M11,3L12,3M12,2L13,2M12,3L13,3M13,2L14,2M13,3L14,3M14,2L15,2M14,3L15,3M15,2L16,2M15,3L16,3M16,2L17,2M16,3L17,3M17,3L18,3M18,3L19,3M19,3L20,3M20,3L21,3M21,2L22,2M21,3L22,3M22,2L23,2M22,3L23,3M23,2L24,2M24,2L25,2M25,2L25,3M5,3L6,3M5,3L5,4M6,3L7,3M7,4L8,4M8,4L9,4M9,3L9,4M23,4L24,4M23,3L23,4M24,4L25,4M25,3L26,3M26,3L27,3M27,3L27,4M4,4L5,4M4,4L4,5M6,5L7,5M7,4L7,5M25,5L26,5M25,4L25,5M27,4L28,4M28,4L28,5M3,5L4,5M3,5L3,6M5,6L6,6M6,5L6,6M26,6L27,6M26,5L26,6M28,5L29,5M29,5L29,6M2,6L3,6M2,6L2,7M4,7L5,7M5,6L5,7M27,7L28,7M27,6L27,7M29,6L30,6M30,6L30,7M2,7L2,8M3,8L4,8M4,7L4,8M28,8L29,8M28,7L28,8M30,7L31,7M31,7L31,8M1,8L2,8M1,8L1,9M3,8L3,9M29,9L30,9M29,8L29,9M31,8L32,8M32,8L32,9M0,9L1,9M2,10L3,10M3,9L3,10M30,10L31,10M30,9L30,10M32,9L33,9M33,9L33,10M2,10L2,11M31,11L32,11M31,10L31,11M33,10L33,11M1,12L2,12M2,11L2,12M32,11L32,12M33,11L34,11M34,11L34,12M1,12L1,13M32,12L32,13M34,12L34,13M1,13L1,14M32,13L32,14M34,13L34,14M1,14L1,15M32,14L32,15M34,14L34,15M1,15L1,16M32,15L32,16M34,15L34,16M1,16L1,17M32,16L32,17M34,16L34,17M1,17L1,18M32,17L32,18M34,17L34,18M1,18L1,19M32,18L32,19M33,19L34,19M34,18L34,19M1,19L1,20M31,19L32,19M31,19L31,20M33,19L33,20M1,20L1,21M31,20L31,21M32,21L33,21M33,20L33,21M1,21L1,22M30,21L31,21M30,21L30,22M31,22L32,22M32,21L32,22M1,22L1,23M29,22L30,22M29,22L29,23M31,22L31,23M1,23L1,24M27,23L28,23M27,23L27,24M28,23L29,23M29,24L30,24M30,24L31,24M31,23L31,24M1,24L1,25M25,24L26,24M25,24L25,25M26,24L27,24M28,25L29,25M29,24L29,25M1,25L2,25M2,25L2,26M21,25L22,25M21,25L21,26M22,25L23,25M23,25L24,25M24,25L25,25M24,26L25,26M25,26L26,26M26,26L27,26M27,26L28,26M28,25L28,26M2,26L2,27M18,26L19,26M18,26L18,27M19,26L20,26M19,27L20,27M20,26L21,26M20,27L21,27M21,27L22,27M22,27L23,27M23,27L24,27M24,26L24,27M0,28L1,28M2,27L3,27M3,27L3,28M15,27L16,27M15,27L15,28M16,27L17,27M16,28L17,28M17,27L18,27M17,28L18,28M18,28L19,28M19,27L19,28M1,28L1,29M3,28L4,28M4,28L4,29M13,28L14,28M13,28L13,29M14,28L15,28M14,29L15,29M15,29L16,29M16,28L16,29M1,30L2,30M1,29L1,30M4,29L5,29M5,29L5,30M10,29L11,29M10,29L10,30M11,29L12,29M12,29L13,29M12,30L13,30M13,30L14,30M14,29L14,30M2,31L3,31M2,30L2,31M3,31L4,31M5,30L6,30M6,30L7,30M7,30L8,30M8,30L9,30M9,30L10,30M10,31L11,31M11,31L12,31M12,30L12,31M4,32L5,32M4,31L4,32M5,32L6,32M6,32L7,32M7,32L8,32M8,32L9,32M9,32L10,32M10,31L10,32" stroke="currentColor" stroke-width="0.18" fill="none" opacity="0.30" shape-rendering="crispEdges"/><path d="M9,3L10,3M9,3L9,4M10,3L11,3M11,3L12,3M12,3L13,3M13,3L14,3M14,3L15,3M15,3L16,3M16,3L17,3M17,3L18,3M18,3L19,3M19,3L20,3M20,3L21,3M21,3L22,3M22,3L23,3M23,3L23,4M7,4L8,4M7,4L7,5M8,4L9,4M9,5L10,5M10,5L11,5M11,5L12,5M12,5L13,5M13,5L14,5M14,5L15,5M15,5L16,5M16,5L17,5M17,5L18,5M18,5L19,5M19,5L20,5M20,5L21,5M21,5L22,5M22,5L23,5M23,4L24,4M24,4L25,4M25,4L25,5M6,5L7,5M6,5L6,6M7,6L8,6M8,6L9,6M9,5L9,6M23,6L24,6M23,5L23,6M25,5L26,5M26,5L26,6M5,6L6,6M5,6L5,7M6,7L7,7M7,6L7,7M24,7L25,7M24,6L24,7M26,6L27,6M27,6L27,7M4,7L5,7M4,7L4,8M5,8L6,8M6,7L6,8M25,8L26,8M25,7L25,8M27,7L28,7M28,7L28,8M3,8L4,8M3,8L3,9M5,8L5,9M26,9L27,9M26,8L26,9M28,8L29,8M29,8L29,9M3,9L3,10M4,10L5,10M5,9L5,10M27,10L28,10M27,9L27,10M29,9L30,9M30,9L30,10M2,10L3,10M2,10L2,11M4,10L4,11M28,11L29,11M28,10L28,11M30,10L31,10M31,10L31,11M2,11L2,12M4,11L4,12M29,11L29,12M31,11L32,11M32,11L32,12M1,12L2,12M1,12L1,13M3,13L4,13M4,12L4,13M29,13L30,13M29,12L29,13M32,12L32,13M1,13L1,14M3,13L3,14M30,13L30,14M32,13L32,14M1,14L1,15M3,14L3,15M30,14L30,15M32,14L32,15M1,15L1,16M3,15L3,16M30,15L30,16M32,15L32,16M1,16L1,17M3,16L3,17M30,16L30,17M32,16L32,17M1,17L1,18M3,17L3,18M30,17L30,18M32,17L32,18M1,18L1,19M3,18L3,19M30,18L30,19M31,19L32,19M32,18L32,19M1,19L1,20M3,19L3,20M29,19L30,19M29,19L29,20M31,19L31,20M1,20L1,21M3,20L3,21M28,20L29,20M28,20L28,21M30,21L31,21M31,20L31,21M1,21L1,22M3,21L3,22M27,21L28,21M27,21L27,22M29,22L30,22M30,21L30,22M1,22L1,23M3,22L3,23M25,22L26,22M25,22L25,23M26,22L27,22M27,23L28,23M28,23L29,23M29,22L29,23M1,23L1,24M3,23L3,24M21,23L22,23M21,23L21,24M22,23L23,23M23,23L24,23M24,23L25,23M25,24L26,24M26,24L27,24M27,23L27,24M1,25L2,25M1,24L1,25M3,24L4,24M4,24L4,25M18,24L19,24M18,24L18,25M19,24L20,24M20,24L21,24M21,25L22,25M22,25L23,25M23,25L24,25M24,25L25,25M25,24L25,25M2,25L2,26M4,25L4,26M16,25L17,25M16,25L16,26M17,25L18,25M18,26L19,26M19,26L20,26M20,26L21,26M21,25L21,26M2,27L3,27M2,26L2,27M4,26L5,26M5,26L5,27M13,26L14,26M13,26L13,27M14,26L15,26M15,26L16,26M15,27L16,27M16,27L17,27M17,27L18,27M18,26L18,27M3,28L4,28M3,27L3,28M5,27L6,27M6,27L7,27M7,27L7,28M11,27L12,27M11,27L11,28M12,27L13,27M13,28L14,28M14,28L15,28M15,27L15,28M4,29L5,29M4,28L4,29M7,28L8,28M8,28L9,28M9,28L10,28M10,28L11,28M10,29L11,29M11,29L12,29M12,29L13,29M13,28L13,29M5,30L6,30M5,29L5,30M6,30L7,30M7,30L8,30M8,30L9,30M9,30L10,30M10,29L10,30" stroke="currentColor" stroke-width="0.18" fill="none" opacity="0.35" shape-rendering="crispEdges"/><path d="M9,5L10,5M9,5L9,6M10,5L11,5M11,5L12,5M12,5L13,5M13,5L14,5M14,5L15,5M15,5L16,5M16,5L17,5M17,5L18,5M18,5L19,5M19,5L20,5M20,5L21,5M21,5L22,5M22,5L23,5M23,5L23,6M7,6L8,6M7,6L7,7M8,6L9,6M9,7L10,7M10,7L11,7M11,7L12,7M12,7L13,7M13,7L14,7M14,7L15,7M15,7L16,7M16,7L17,7M17,7L18,7M18,7L19,7M19,7L20,7M20,7L21,7M23,6L24,6M24,6L24,7M6,7L7,7M6,7L6,8M8,8L9,8M9,7L9,8M21,8L22,8M21,7L21,8M24,7L25,7M25,7L25,8M5,8L6,8M5,8L5,9M7,9L8,9M8,8L8,9M22,9L23,9M22,8L22,9M25,8L26,8M26,8L26,9M5,9L5,10M6,10L7,10M7,9L7,10M23,10L24,10M23,9L23,10M26,9L27,9M27,9L27,10M4,10L5,10M4,10L4,11M6,10L6,11M24,11L25,11M24,10L24,11M27,10L28,10M28,10L28,11M4,11L4,12M6,11L6,12M25,12L26,12M25,11L25,12M28,11L29,11M29,11L29,12M4,12L4,13M5,13L6,13M6,12L6,13M26,13L27,13M26,12L26,13M29,12L29,13M3,13L4,13M3,13L3,14M5,13L5,14M27,13L27,14M29,13L30,13M30,13L30,14M3,14L3,15M5,14L5,15M27,15L28,15M27,14L27,15M30,14L30,15M3,15L3,16M5,15L5,16M28,15L28,16M30,15L30,16M3,16L3,17M5,16L5,17M28,16L28,17M30,16L30,17M3,17L3,18M5,17L5,18M28,17L28,18M30,17L30,18M3,18L3,19M5,18L5,19M27,18L28,18M27,18L27,19M29,19L30,19M30,18L30,19M3,19L3,20M5,19L5,20M26,19L27,19M26,19L26,20M28,20L29,20M29,19L29,20M3,20L3,21M5,20L5,21M24,20L25,20M24,20L24,21M25,20L26,20M27,21L28,21M28,20L28,21M3,21L3,22M5,21L5,22M21,21L22,21M21,21L21,22M22,21L23,21M23,21L24,21M25,22L26,22M26,22L27,22M27,21L27,22M3,22L3,23M5,22L6,22M6,22L6,23M15,22L16,22M15,22L15,23M16,22L17,22M17,22L18,22M18,22L19,22M19,22L20,22M20,22L21,22M21,23L22,23M22,23L23,23M23,23L24,23M24,23L25,23M25,22L25,23M3,24L4,24M3,23L3,24M6,23L6,24M14,23L15,23M14,23L14,24M18,24L19,24M19,24L20,24M20,24L21,24M21,23L21,24M4,24L4,25M6,24L7,24M7,24L7,25M13,24L14,24M13,24L13,25M16,25L17,25M17,25L18,25M18,24L18,25M4,26L5,26M4,25L4,26M7,25L8,25M8,25L9,25M9,25L9,26M10,25L11,25M10,25L10,26M11,25L12,25M12,25L13,25M13,26L14,26M14,26L15,26M15,26L16,26M16,25L16,26M5,27L6,27M5,26L5,27M6,27L7,27M9,26L10,26M11,27L12,27M12,27L13,27M13,26L13,27M7,28L8,28M7,27L7,28M8,28L9,28M9,28L10,28M10,28L11,28M11,27L11,28" stroke="currentColor" stroke-width="0.18" fill="none" opacity="0.40" shape-rendering="crispEdges"/><path d="M9,7L10,7M9,7L9,8M10,7L11,7M11,7L12,7M12,7L13,7M13,7L14,7M14,7L15,7M14,8L15,8M15,7L16,7M15,8L16,8M16,7L17,7M17,7L18,7M18,7L19,7M19,7L20,7M20,7L21,7M21,7L21,8M8,8L9,8M8,8L8,9M10,9L11,9M11,9L12,9M12,9L13,9M13,9L14,9M14,8L14,9M16,9L17,9M16,8L16,9M17,9L18,9M18,9L19,9M21,8L22,8M22,8L22,9M7,9L8,9M7,9L7,10M9,10L10,10M10,9L10,10M19,10L20,10M19,9L19,10M22,9L23,9M23,9L23,10M6,10L7,10M6,10L6,11M8,11L9,11M9,10L9,11M20,11L21,11M20,10L20,11M23,10L24,10M24,10L24,11M6,11L6,12M8,11L8,12M21,12L22,12M21,11L21,12M24,11L25,11M25,11L25,12M6,12L6,13M8,12L8,13M22,13L23,13M22,12L22,13M25,12L26,12M26,12L26,13M5,13L6,13M5,13L5,14M7,14L8,14M8,13L8,14M23,14L24,14M23,13L23,14M26,13L27,13M27,13L27,14M5,14L5,15M7,14L7,15M24,15L25,15M24,14L24,15M27,14L27,15M5,15L5,16M7,15L7,16M25,15L25,16M27,15L28,15M28,15L28,16M5,16L5,17M7,16L7,17M25,16L25,17M28,16L28,17M5,17L5,18M7,17L7,18M24,17L25,17M24,17L24,18M27,18L28,18M28,17L28,18M5,18L5,19M7,18L7,19M14,18L15,18M14,18L14,19M15,18L16,18M16,18L17,18M17,18L18,18M18,18L18,19M23,18L24,18M23,18L23,19M26,19L27,19M27,18L27,19M5,19L5,20M7,19L7,20M12,19L13,19M12,19L12,20M13,19L14,19M18,19L19,19M19,19L20,19M20,19L21,19M21,19L22,19M22,19L23,19M24,20L25,20M25,20L26,20M26,19L26,20M5,20L5,21M7,20L8,20M8,20L8,21M11,20L12,20M11,20L11,21M21,21L22,21M22,21L23,21M23,21L24,21M24,20L24,21M5,22L6,22M5,21L5,22M8,21L9,21M9,21L10,21M10,21L11,21M15,22L16,22M16,22L17,22M17,22L18,22M18,22L19,22M19,22L20,22M20,22L21,22M21,21L21,22M6,22L6,23M14,23L15,23M15,22L15,23M6,24L7,24M6,23L6,24M13,24L14,24M14,23L14,24M7,25L8,25M7,24L7,25M8,25L9,25M10,25L11,25M11,25L12,25M12,25L13,25M13,24L13,25M9,26L10,26M9,25L9,26M10,25L10,26" stroke="currentColor" stroke-width="0.18" fill="none" opacity="0.46" shape-rendering="crispEdges"/><path d="M14,8L15,8M14,8L14,9M15,8L16,8M16,8L16,9M10,9L11,9M10,9L10,10M11,9L12,9M12,9L13,9M13,9L14,9M16,9L17,9M17,9L18,9M18,9L19,9M19,9L19,10M9,10L10,10M9,10L9,11M19,10L20,10M20,10L20,11M8,11L9,11M8,11L8,12M20,11L21,11M21,11L21,12M8,12L8,13M21,12L22,12M22,12L22,13M8,13L8,14M22,13L23,13M23,13L23,14M7,14L8,14M7,14L7,15M23,14L24,14M24,14L24,15M7,15L7,16M24,15L25,15M25,15L25,16M7,16L7,17M24,17L25,17M25,16L25,17M7,17L7,18M14,18L15,18M15,18L16,18M16,18L17,18M17,18L18,18M23,18L24,18M24,17L24,18M7,18L7,19M12,19L13,19M13,19L14,19M14,18L14,19M18,19L19,19M18,18L18,19M19,19L20,19M20,19L21,19M21,19L22,19M22,19L23,19M23,18L23,19M7,20L8,20M7,19L7,20M11,20L12,20M12,19L12,20M8,21L9,21M8,20L8,21M9,21L10,21M10,21L11,21M11,20L11,21" stroke="currentColor" stroke-width="0.18" fill="none" opacity="0.52" shape-rendering="crispEdges"/><rect x="1.44" y="3.08" width="3.11" height="1.04" fill="currentColor" opacity="0.40"/><rect x="8.45" y="3.05" width="1.10" height="1.10" fill="currentColor" opacity="0.43"/><rect x="13.14" y="2.98" width="3.73" height="1.24" fill="currentColor" opacity="0.51"/><rect x="20.38" y="2.98" width="1.24" height="1.24" fill="currentColor" opacity="0.51"/><rect x="26.45" y="3.05" width="1.10" height="1.10" fill="currentColor" opacity="0.43"/><rect x="32.48" y="3.08" width="1.04" height="1.04" fill="currentColor" opacity="0.40"/><rect x="1.32" y="10.24" width="3.37" height="1.12" fill="currentColor" opacity="0.45"/><rect x="8.28" y="10.08" width="1.44" height="1.44" fill="currentColor" opacity="0.62"/><rect x="14.16" y="9.96" width="1.67" height="1.67" fill="currentColor" opacity="0.74"/><rect x="18.49" y="9.96" width="5.02" height="1.67" fill="currentColor" opacity="0.74"/><rect x="24.84" y="10.08" width="4.32" height="1.44" fill="currentColor" opacity="0.62"/><rect x="32.44" y="10.24" width="1.12" height="1.12" fill="currentColor" opacity="0.45"/><rect x="1.16" y="17.39" width="3.67" height="1.22" fill="currentColor" opacity="0.50"/><rect x="8.20" y="17.20" width="1.60" height="1.60" fill="currentColor" opacity="0.70"/><rect x="12.04" y="17.01" width="5.92" height="1.97" fill="currentColor" opacity="0.90"/><rect x="20.01" y="17.01" width="1.97" height="1.97" fill="currentColor" opacity="0.90"/><rect x="26.20" y="17.20" width="1.60" height="1.60" fill="currentColor" opacity="0.70"/><rect x="31.16" y="17.39" width="3.67" height="1.22" fill="currentColor" opacity="0.50"/><rect x="1.32" y="24.64" width="3.37" height="1.12" fill="currentColor" opacity="0.45"/><rect x="8.28" y="24.48" width="1.44" height="1.44" fill="currentColor" opacity="0.62"/><rect x="14.16" y="24.36" width="1.67" height="1.67" fill="currentColor" opacity="0.74"/><rect x="20.16" y="24.36" width="1.67" height="1.67" fill="currentColor" opacity="0.74"/><rect x="26.28" y="24.48" width="1.44" height="1.44" fill="currentColor" opacity="0.62"/><rect x="31.32" y="24.64" width="3.37" height="1.12" fill="currentColor" opacity="0.45"/><rect x="1.44" y="31.88" width="3.11" height="1.04" fill="currentColor" opacity="0.40"/><rect x="7.35" y="31.85" width="3.30" height="1.10" fill="currentColor" opacity="0.43"/></svg>