<svg xmlns="http://www.w3.org/2000/svg" viewBox="0 0 36 36" preserveAspectRatio="xMidYMid slice"><path d="M34,29L35,29M34,29L34,30M35,29L36,29M30,30L31,30M30,30L30,31M31,30L32,30M32,30L33,30M33,30L34,30M26,31L27,31M26,31L26,32M27,31L28,31M28,31L29,31M29,31L30,31M23,32L24,32M23,32L23,33M24,32L25,32M25,32L26,32M20,33L21,33M20,33L20,34M21,33L22,33M22,33L23,33M19,34L20,34M19,34L19,35M17,35L18,35M17,35L17,36M18,35L19,35" stroke="currentColor" stroke-width="0.18" fill="none" opacity="0.10" shape-rendering="crispEdges"/><path d="M34,26L35,26M34,26L34,27M35,26L36,26M31,27L32,27M31,27L31,28M32,27L33,27M33,27L34,27M27,28L28,28M27,28L27,29M28,28L29,28M29,28L30,28M30,28L31,28M34,29L35,29M35,29L36,29M23,29L24,29M23,29L23,30M24,29L25,29M25,29L26,29M26,29L27,29M30,30L31,30M31,30L32,30M32,30L33,30M33,30L34,30M34,29L34,30M20,30L21,30M20,30L20,31M21,30L22,30M22,30L23,30M26,31L27,31M27,31L28,31M28,31L29,31M29,31L30,31M30,30L30,31M18,31L19,31M18,31L18,32M19,31L20,31M23,32L24,32M24,32L25,32M25,32L26,32M26,31L26,32M17,32L18,32M17,32L17,33M20,33L21,33M21,33L22,33M22,33L23,33M23,32L23,33M15,33L16,33M15,33L15,34M16,33L17,33M19,34L20,34M20,33L20,34M14,34L15,34M14,34L14,35M17,35L18,35M18,35L19,35M19,34L19,35M0,35L1,35M1,35L2,35M2,35L2,36M11,35L12,35M11,35L11,36M12,35L13,35M13,35L14,35M17,35L17,36" stroke="currentColor" stroke-width="0.18" fill="none" opacity="0.12" shape-rendering="crispEdges"/><path d="M35,1L36,1M35,0L35,1M35,22L36,22M35,22L35,23M34,23L35,23M34,23L34,24M33,24L34,24M33,24L33,25M30,25L31,25M30,25L30,26M31,25L32,25M32,25L33,25M34,26L35,26M35,26L36,26M27,26L28,26M27,26L27,27M28,26L29,26M29,26L30,26M31,27L32,27M32,27L33,27M33,27L34,27M34,26L34,27M23,27L24,27M23,27L23,28M24,27L25,27M25,27L26,27M26,27L27,27M27,28L28,28M28,28L29,28M29,28L30,28M30,28L31,28M31,27L31,28M20,28L21,28M20,28L20,29M21,28L22,28M22,28L23,28M23,29L24,29M24,29L25,29M25,29L26,29M26,29L27,29M27,28L27,29M18,29L19,29M18,29L18,30M19,29L20,29M20,30L21,30M21,30L22,30M22,30L23,30M23,29L23,30M16,30L17,30M16,30L16,31M17,30L18,30M18,31L19,31M19,31L20,31M20,30L20,31M14,31L15,31M14,31L14,32M15,31L16,31M17,32L18,32M18,31L18,32M0,32L1,32M1,32L1,33M13,32L14,32M13,32L13,33M15,33L16,33M16,33L17,33M17,32L17,33M1,33L2,33M2,33L3,33M3,33L3,34M11,33L12,33M11,33L11,34M12,33L13,33M14,34L15,34M15,33L15,34M0,35L1,35M1,35L2,35M3,34L4,34M4,34L5,34M5,34L6,34M6,34L7,34M7,34L8,34M8,34L9,34M9,34L10,34M10,34L11,34M11,35L12,35M12,35L13,35M13,35L14,35M14,34L14,35M2,35L2,36M11,35L11,36" stroke="currentColor" stroke-width="0.18" fill="none" opacity="0.16" shape-rendering="crispEdges"/><path d="M31,1L32,1M31,0L31,1M32,1L33,1M35,0L35,1M33,2L34,2M33,1L33,2M35,1L36,1M34,3L35,3M34,2L34,3M35,4L36,4M35,3L35,4M35,13L36,13M35,13L35,14M35,14L35,15M35,15L35,16M34,16L35,16M34,16L34,17M34,17L34,18M34,18L34,19M33,19L34,19M33,19L33,20M33,20L33,21M32,21L33,21M32,21L32,22M35,22L36,22M31,22L32,22M31,22L31,23M34,23L35,23M35,22L35,23M30,23L31,23M30,23L30,24M33,24L34,24M34,23L34,24M27,24L28,24M27,24L27,25M28,24L29,24M29,24L30,24M30,25L31,25M31,25L32,25M32,25L33,25M33,24L33,25M24,25L25,25M24,25L24,26M25,25L26,25M26,25L27,25M27,26L28,26M28,26L29,26M29,26L30,26M30,25L30,26M21,26L22,26M21,26L21,27M22,26L23,26M23,26L24,26M23,27L24,27M24,27L25,27M25,27L26,27M26,27L27,27M27,26L27,27M18,27L19,27M18,27L18,28M19,27L20,27M20,27L21,27M20,28L21,28M21,28L22,28M22,28L23,28M23,27L23,28M16,28L17,28M16,28L16,29M17,28L18,28M18,29L19,29M19,29L20,29M20,28L20,29M14,29L15,29M14,29L14,30M15,29L16,29M16,30L17,30M17,30L18,30M18,29L18,30M0,30L1,30M1,30L2,30M2,30L2,31M13,30L14,30M13,30L13,31M14,31L15,31M15,31L16,31M16,30L16,31M0,32L1,32M2,31L3,31M3,31L3,32M11,31L12,31M11,31L11,32M12,31L13,31M13,32L14,32M14,31L14,32M1,33L2,33M1,32L1,33M2,33L3,33M3,32L4,32M4,32L5,32M5,32L6,32M6,32L7,32M7,32L8,32M8,32L9,32M9,32L10,32M10,32L11,32M11,33L12,33M12,33L13,33M13,32L13,33M3,34L4,34M3,33L3,34M4,34L5,34M5,34L6,34M6,34L7,34M7,34L8,34M8,34L9,34M9,34L10,34M10,34L11,34M11,33L11,34" stroke="currentColor" stroke-width="0.18" fill="none" opacity="0.20" shape-rendering="crispEdges"/><path d="M1,1L2,1M2,0L2,1M22,1L23,1M22,0L22,1M23,1L24,1M24,1L25,1M31,0L31,1M0,2L1,2M1,1L1,2M25,2L26,2M25,1L25,2M26,2L27,2M27,2L28,2M28,2L29,2M31,1L32,1M32,1L33,1M33,1L33,2M29,3L30,3M29,2L29,3M30,3L31,3M33,2L34,2M34,2L34,3M31,4L32,4M31,3L31,4M34,3L35,3M35,3L35,4M32,5L33,5M32,4L32,5M35,4L36,4M33,5L33,6M33,6L33,7M33,7L33,8M33,8L33,9M33,9L33,10M33,10L33,11M33,11L33,12M33,12L33,13M35,13L36,13M32,13L33,13M32,13L32,14M35,13L35,14M32,14L32,15M35,14L35,15M32,15L32,16M34,16L35,16M35,15L35,16M31,16L32,16M31,16L31,17M34,16L34,17M31,17L31,18M34,17L34,18M31,18L31,19M33,19L34,19M34,18L34,19M30,19L31,19M30,19L30,20M33,19L33,20M29,20L30,20M29,20L29,21M32,21L33,21M33,20L33,21M28,21L29,21M28,21L28,22M31,22L32,22M32,21L32,22M27,22L28,22M27,22L27,23M30,23L31,23M31,22L31,23M25,23L26,23M25,23L25,24M26,23L27,23M27,24L28,24M28,24L29,24M29,24L30,24M30,23L30,24M22,24L23,24M22,24L22,25M23,24L24,24M24,24L25,24M24,25L25,25M25,25L26,25M26,25L27,25M27,24L27,25M19,25L20,25M19,25L19,26M20,25L21,25M21,25L22,25M21,26L22,26M22,26L23,26M23,26L24,26M24,25L24,26M17,26L18,26M17,26L17,27M18,26L19,26M18,27L19,27M19,27L20,27M20,27L21,27M21,26L21,27M0,27L1,27M1,27L2,27M2,27L2,28M15,27L16,27M15,27L15,28M16,27L17,27M16,28L17,28M17,28L18,28M18,27L18,28M2,28L3,28M3,28L3,29M12,28L13,28M12,28L12,29M13,28L14,28M14,28L15,28M14,29L15,29M15,29L16,29M16,28L16,29M0,30L1,30M1,30L2,30M3,29L4,29M4,29L5,29M5,29L5,30M10,29L11,29M10,29L10,30M11,29L12,29M13,30L14,30M14,29L14,30M2,31L3,31M2,30L2,31M5,30L6,30M6,30L7,30M7,30L8,30M8,30L9,30M9,30L10,30M11,31L12,31M12,31L13,31M13,30L13,31M3,32L4,32M3,31L3,32M4,32L5,32M5,32L6,32M6,32L7,32M7,32L8,32M8,32L9,32M9,32L10,32M10,32L11,32M11,31L11,32" stroke="currentColor" stroke-width="0.18" fill="none" opacity="0.25" shape-rendering="crispEdges"/><path d="M2,0L2,1M5,1L6,1M6,1L7,1M7,1L8,1M8,0L8,1M16,1L17,1M16,0L16,1M17,1L18,1M18,1L19,1M19,1L20,1M22,0L22,1M1,1L2,1M1,1L1,2M3,2L4,2M4,2L5,2M5,1L5,2M20,2L21,2M20,1L20,2M21,2L22,2M22,1L23,1M23,1L24,1M24,1L25,1M25,1L25,2M0,2L1,2M1,3L2,3M2,3L3,3M3,2L3,3M22,3L23,3M22,2L22,3M23,3L24,3M25,2L26,2M26,2L27,2M27,2L28,2M28,2L29,2M29,2L29,3M0,4L1,4M1,3L1,4M24,4L25,4M24,3L24,4M29,3L30,3M30,3L31,3M31,3L31,4M25,5L26,5M25,4L25,5M26,5L27,5M31,4L32,4M32,4L32,5M27,6L28,6M27,5L27,6M28,6L29,6M32,5L33,5M33,5L33,6M29,7L30,7M29,6L29,7M33,6L33,7M30,7L30,8M33,7L33,8M30,8L30,9M33,8L33,9M30,9L30,10M33,9L33,10M30,10L30,11M33,10L33,11M30,11L30,12M33,11L33,12M30,12L30,13M32,13L33,13M33,12L33,13M30,13L30,14M32,13L32,14M29,14L30,14M29,14L29,15M32,14L32,15M29,15L29,16M31,16L32,16M32,15L32,16M28,16L29,16M28,16L28,17M31,16L31,17M28,17L28,18M31,17L31,18M27,18L28,18M27,18L27,19M30,19L31,19M31,18L31,19M26,19L27,19M26,19L26,20M29,20L30,20M30,19L30,20M25,20L26,20M25,20L25,21M28,21L29,21M29,20L29,21M24,21L25,21M24,21L24,22M27,22L28,22M28,21L28,22M22,22L23,22M22,22L22,23M23,22L24,22M25,23L26,23M26,23L27,23M27,22L27,23M20,23L21,23M20,23L20,24M21,23L22,23M22,24L23,24M23,24L24,24M24,24L25,24M25,23L25,24M0,24L1,24M1,24L1,25M18,24L19,24M18,24L18,25M19,24L20,24M19,25L20,25M20,25L21,25M21,25L22,25M22,24L22,25M1,25L2,25M2,25L3,25M3,25L3,26M16,25L17,25M16,25L16,26M17,25L18,25M17,26L18,26M18,26L19,26M19,25L19,26M0,27L1,27M1,27L2,27M3,26L4,26M4,26L4,27M13,26L14,26M13,26L13,27M14,26L15,26M15,26L16,26M15,27L16,27M16,27L17,27M17,26L17,27M2,28L3,28M2,27L2,28M4,27L5,27M5,27L6,27M6,27L7,27M7,27L8,27M8,27L8,28M9,27L10,27M9,27L9,28M10,27L11,27M11,27L12,27M12,27L13,27M12,28L13,28M13,28L14,28M14,28L15,28M15,27L15,28M3,29L4,29M3,28L3,29M4,29L5,29M8,28L9,28M10,29L11,29M11,29L12,29M12,28L12,29M5,30L6,30M5,29L5,30M6,30L7,30M7,30L8,30M8,30L9,30M9,30L10,30M10,29L10,30" stroke="currentColor" stroke-width="0.18" fill="none" opacity="0.30" shape-rendering="crispEdges"/><path d="M8,0L8,1M16,0L16,1M5,1L6,1M5,1L5,2M6,1L7,1M7,1L8,1M7,2L8,2M8,2L9,2M9,2L10,2M10,2L11,2M11,2L12,2M12,2L13,2M13,2L14,2M14,2L15,2M15,2L16,2M16,1L17,1M16,2L17,2M17,1L18,1M17,2L18,2M18,1L19,1M19,1L20,1M20,1L20,2M3,2L4,2M3,2L3,3M4,2L5,2M5,3L6,3M6,3L7,3M7,2L7,3M18,3L19,3M18,2L18,3M19,3L20,3M20,2L21,2M21,2L22,2M22,2L22,3M1,3L2,3M1,3L1,4M2,3L3,3M3,4L4,4M4,4L5,4M5,3L5,4M20,4L21,4M20,3L20,4M22,3L23,3M23,3L24,3M24,3L24,4M0,4L1,4M2,5L3,5M3,4L3,5M21,5L22,5M21,4L21,5M24,4L25,4M25,4L25,5M1,6L2,6M2,5L2,6M22,6L23,6M22,5L22,6M23,6L24,6M25,5L26,5M26,5L27,5M27,5L27,6M0,7L1,7M1,6L1,7M24,7L25,7M24,6L24,7M27,6L28,6M28,6L29,6M29,6L29,7M25,8L26,8M25,7L25,8M29,7L30,7M30,7L30,8M26,9L27,9M26,8L26,9M30,8L30,9M27,9L27,10M30,9L30,10M27,10L27,11M30,10L30,11M27,11L27,12M30,11L30,12M27,12L27,13M30,12L30,13M27,13L27,14M29,14L30,14M30,13L30,14M27,14L27,15M29,14L29,15M26,15L27,15M26,15L26,16M28,16L29,16M29,15L29,16M26,16L26,17M28,16L28,17M25,17L26,17M25,17L25,18M27,18L28,18M28,17L28,18M24,18L25,18M24,18L24,19M26,19L27,19M27,18L27,19M23,19L24,19M23,19L23,20M25,20L26,20M26,19L26,20M21,20L22,20M21,20L21,21M22,20L23,20M24,21L25,21M25,20L25,21M0,21L1,21M1,21L1,22M20,21L21,21M20,21L20,22M22,22L23,22M23,22L24,22M24,21L24,22M1,22L2,22M2,22L2,23M19,22L20,22M19,22L19,23M20,23L21,23M21,23L22,23M22,22L22,23M0,24L1,24M2,23L3,23M3,23L4,23M4,23L4,24M17,23L18,23M17,23L17,24M18,23L19,23M18,24L19,24M19,24L20,24M20,23L20,24M1,25L2,25M1,24L1,25M2,25L3,25M4,24L5,24M5,24L5,25M14,24L15,24M14,24L14,25M15,24L16,24M16,24L17,24M16,25L17,25M17,25L18,25M18,24L18,25M3,26L4,26M3,25L3,26M5,25L6,25M6,25L7,25M7,25L8,25M8,25L8,26M11,25L12,25M11,25L11,26M12,25L13,25M13,25L14,25M13,26L14,26M14,26L15,26M15,26L16,26M16,25L16,26M4,27L5,27M4,26L4,27M5,27L6,27M6,27L7,27M7,27L8,27M8,26L9,26M9,26L10,26M9,27L10,27M10,26L11,26M10,27L11,27M11,27L12,27M12,27L13,27M13,26L13,27M8,28L9,28M8,27L8,28M9,27L9,28" stroke="currentColor" stroke-width="0.18" fill="none" opacity="0.35" shape-rendering="crispEdges"/><path d="M7,2L8,2M7,2L7,3M8,2L9,2M9,2L10,2M9,3L10,3M10,2L11,2M10,3L11,3M11,2L12,2M11,3L12,3M12,2L13,2M12,3L13,3M13,2L14,2M13,3L14,3M14,2L15,2M15,2L16,2M16,2L17,2M17,2L18,2M18,2L18,3M5,3L6,3M5,3L5,4M6,3L7,3M7,4L8,4M8,4L9,4M9,3L9,4M14,4L15,4M14,3L14,4M15,4L16,4M16,4L17,4M17,4L18,4M18,3L19,3M19,3L20,3M20,3L20,4M3,4L4,4M3,4L3,5M4,4L5,4M5,5L6,5M6,5L7,5M7,4L7,5M18,5L19,5M18,4L18,5M20,4L21,4M21,4L21,5M2,5L3,5M2,5L2,6M4,6L5,6M5,5L5,6M19,6L20,6M19,5L19,6M21,5L22,5M22,5L22,6M1,6L2,6M1,6L1,7M3,7L4,7M4,6L4,7M20,7L21,7M20,6L20,7M22,6L23,6M23,6L24,6M24,6L24,7M0,7L1,7M2,8L3,8M3,7L3,8M21,8L22,8M21,7L21,8M24,7L25,7M25,7L25,8M1,9L2,9M2,8L2,9M22,9L23,9M22,8L22,9M25,8L26,8M26,8L26,9M1,9L1,10M23,10L24,10M23,9L23,10M26,9L27,9M27,9L27,10M0,11L1,11M1,10L1,11M24,10L24,11M27,10L27,11M24,12L25,12M24,11L24,12M27,11L27,12M25,12L25,13M27,12L27,13M24,13L25,13M24,13L24,14M27,13L27,14M24,14L24,15M26,15L27,15M27,14L27,15M23,15L24,15M23,15L23,16M26,15L26,16M0,16L1,16M1,16L1,17M22,16L23,16M22,16L22,17M25,17L26,17M26,16L26,17M1,17L1,18M21,17L22,17M21,17L21,18M24,18L25,18M25,17L25,18M1,18L2,18M2,18L2,19M20,18L21,18M20,18L20,19M23,19L24,19M24,18L24,19M2,19L2,20M19,19L20,19M19,19L19,20M21,20L22,20M22,20L23,20M23,19L23,20M0,21L1,21M2,20L3,20M3,20L3,21M18,20L19,20M18,20L18,21M20,21L21,21M21,20L21,21M1,22L2,22M1,21L1,22M3,21L4,21M4,21L4,22M16,21L17,21M16,21L16,22M17,21L18,21M19,22L20,22M20,21L20,22M2,23L3,23M2,22L2,23M3,23L4,23M4,22L5,22M5,22L6,22M6,22L6,23M15,22L16,22M15,22L15,23M17,23L18,23M18,23L19,23M19,22L19,23M4,24L5,24M4,23L4,24M6,23L7,23M7,23L8,23M8,23L8,24M12,23L13,23M12,23L12,24M13,23L14,23M14,23L15,23M14,24L15,24M15,24L16,24M16,24L17,24M17,23L17,24M5,25L6,25M5,24L5,25M6,25L7,25M7,25L8,25M8,24L9,24M9,24L10,24M10,24L11,24M11,24L12,24M11,25L12,25M12,25L13,25M13,25L14,25M14,24L14,25M8,26L9,26M8,25L8,26M9,26L10,26M10,26L11,26M11,25L11,26" stroke="currentColor" stroke-width="0.18" fill="none" opacity="0.40" shape-rendering="crispEdges"/><path d="M9,3L10,3M9,3L9,4M10,3L11,3M11,3L12,3M12,3L13,3M13,3L14,3M14,3L14,4M7,4L8,4M7,4L7,5M8,4L9,4M10,5L11,5M11,5L12,5M12,5L13,5M14,4L15,4M15,4L16,4M16,4L17,4M17,4L18,4M18,4L18,5M5,5L6,5M5,5L5,6M6,5L7,5M8,6L9,6M9,6L10,6M10,5L10,6M13,6L14,6M13,5L13,6M14,6L15,6M15,6L16,6M18,5L19,5M19,5L19,6M4,6L5,6M4,6L4,7M6,7L7,7M7,7L8,7M8,6L8,7M16,7L17,7M16,6L16,7M19,6L20,6M20,6L20,7M3,7L4,7M3,7L3,8M5,8L6,8M6,7L6,8M17,8L18,8M17,7L17,8M20,7L21,7M21,7L21,8M2,8L3,8M2,8L2,9M4,9L5,9M5,8L5,9M18,9L19,9M18,8L18,9M21,8L22,8M22,8L22,9M1,9L2,9M1,9L1,10M4,9L4,10M19,10L20,10M19,9L19,10M22,9L23,9M23,9L23,10M1,10L1,11M3,11L4,11M4,10L4,11M20,11L21,11M20,10L20,11M23,10L24,10M24,10L24,11M0,11L1,11M3,11L3,12M21,11L21,12M24,11L24,12M3,12L3,13M21,12L21,13M24,12L25,12M24,13L25,13M25,12L25,13M3,13L3,14M21,13L21,14M24,13L24,14M3,14L3,15M20,14L21,14M20,14L20,15M23,15L24,15M24,14L24,15M0,16L1,16M3,15L3,16M20,15L20,16M22,16L23,16M23,15L23,16M1,16L1,17M3,16L3,17M18,16L19,16M18,16L18,17M19,16L20,16M21,17L22,17M22,16L22,17M1,18L2,18M1,17L1,18M3,17L4,17M4,17L4,18M17,17L18,17M17,17L17,18M20,18L21,18M21,17L21,18M2,18L2,19M4,18L5,18M5,18L5,19M16,18L17,18M16,18L16,19M19,19L20,19M20,18L20,19M2,20L3,20M2,19L2,20M5,19L6,19M6,19L6,20M14,19L15,19M14,19L14,20M15,19L16,19M18,20L19,20M19,19L19,20M3,21L4,21M3,20L3,21M6,20L7,20M7,20L7,21M13,20L14,20M13,20L13,21M16,21L17,21M17,21L18,21M18,20L18,21M4,22L5,22M4,21L4,22M5,22L6,22M7,21L8,21M8,21L9,21M9,21L10,21M10,21L11,21M11,21L12,21M12,21L13,21M15,22L16,22M16,21L16,22M6,23L7,23M6,22L6,23M7,23L8,23M12,23L13,23M13,23L14,23M14,23L15,23M15,22L15,23M8,24L9,24M8,23L8,24M9,24L10,24M10,24L11,24M11,24L12,24M12,23L12,24" stroke="currentColor" stroke-width="0.18" fill="none" opacity="0.46" shape-rendering="crispEdges"/><path d="M10,5L11,5M10,5L10,6M11,5L12,5M12,5L13,5M13,5L13,6M8,6L9,6M8,6L8,7M9,6L10,6M13,6L14,6M14,6L15,6M15,6L16,6M16,6L16,7M6,7L7,7M6,7L6,8M7,7L8,7M16,7L17,7M17,7L17,8M5,8L6,8M5,8L5,9M17,8L18,8M18,8L18,9M4,9L5,9M4,9L4,10M18,9L19,9M19,9L19,10M4,10L4,11M19,10L20,10M20,10L20,11M3,11L4,11M3,11L3,12M20,11L21,11M21,11L21,12M3,12L3,13M21,12L21,13M3,13L3,14M20,14L21,14M21,13L21,14M3,14L3,15M20,14L20,15M3,15L3,16M18,16L19,16M19,16L20,16M20,15L20,16M3,17L4,17M3,16L3,17M17,17L18,17M18,16L18,17M4,18L5,18M4,17L4,18M16,18L17,18M17,17L17,18M5,19L6,19M5,18L5,19M14,19L15,19M15,19L16,19M16,18L16,19M6,20L7,20M6,19L6,20M13,20L14,20M14,19L14,20M7,21L8,21M7,20L7,21M8,21L9,21M9,21L10,21M10,21L11,21M11,21L12,21M12,21L13,21M13,20L13,21" stroke="currentColor" stroke-width="0.18" fill="none" opacity="0.52" shape-rendering="crispEdges"/><rect x="1.66" y="3.85" width="3.89" height="1.30" fill="currentColor" opacity="0.40"/><rect x="10.05" y="3.75" width="1.51" height="1.51" fill="currentColor" opacity="0.49"/><rect x="17.18" y="3.68" width="1.65" height="1.65" fill="currentColor" opacity="0.55"/><rect x="22.94" y="3.75" width="4.52" height="1.51" fill="currentColor" opacity="0.49"/><rect x="31.75" y="3.85" width="1.30" height="1.30" fill="currentColor" opacity="0.40"/><rect x="1.32" y="12.74" width="4.57" height="1.52" fill="currentColor" opacity="0.50"/><rect x="7.74" y="12.48" width="6.11" height="2.04" fill="currentColor" opacity="0.72"/><rect x="16.83" y="12.33" width="2.35" height="2.35" fill="currentColor" opacity="0.85"/><rect x="24.18" y="12.48" width="2.04" height="2.04" fill="currentColor" opacity="0.72"/><rect x="30.12" y="12.74" width="4.57" height="1.52" fill="currentColor" opacity="0.50"/><rect x="1.32" y="21.74" width="4.57" height="1.52" fill="currentColor" opacity="0.50"/><rect x="9.78" y="21.48" width="2.04" height="2.04" fill="currentColor" opacity="0.72"/><rect x="16.83" y="21.33" width="2.35" height="2.35" fill="currentColor" opacity="0.85"/><rect x="24.18" y="21.48" width="2.04" height="2.04" fill="currentColor" opacity="0.72"/><rect x="31.64" y="21.74" width="1.52" height="1.52" fill="currentColor" opacity="0.50"/><rect x="2.95" y="30.85" width="1.30" height="1.30" fill="currentColor" opacity="0.40"/><rect x="10.05" y="30.75" width="1.51" height="1.51" fill="currentColor" opacity="0.49"/></svg>