<svg xmlns="http://www.w3.org/2000/svg" viewBox="0 0 36 36" preserveAspectRatio="xMidYMid slice"><path d="M34,1L35,1M34,0L34,1M35,2L36,2M35,1L35,2M35,30L36,30M35,30L35,31M34,31L35,31M34,31L34,32M33,32L34,32M33,32L33,33M31,33L32,33M31,33L31,34M32,33L33,33M29,34L30,34M29,34L29,35M30,34L31,34M26,35L27,35M26,35L26,36M27,35L28,35M28,35L29,35" stroke="currentColor" stroke-width="0.18" fill="none" opacity="0.10" shape-rendering="crispEdges"/><path d="M29,1L30,1M29,0L29,1M30,1L31,1M34,0L34,1M31,2L32,2M31,1L31,2M34,1L35,1M35,1L35,2M32,3L33,3M32,2L32,3M35,2L36,2M33,4L34,4M33,3L33,4M34,5L35,5M34,4L34,5M35,5L35,6M35,7L36,7M35,6L35,7M35,27L36,27M35,27L35,28M34,28L35,28M34,28L34,29M32,29L33,29M32,29L32,30M33,29L34,29M35,30L36,30M31,30L32,30M31,30L31,31M34,31L35,31M35,30L35,31M28,31L29,31M28,31L28,32M29,31L30,31M30,31L31,31M33,32L34,32M34,31L34,32M0,32L1,32M1,32L2,32M2,32L2,33M25,32L26,32M25,32L25,33M26,32L27,32M27,32L28,32M31,33L32,33M32,33L33,33M33,32L33,33M2,33L3,33M3,33L4,33M4,33L4,34M20,33L21,33M20,33L20,34M21,33L22,33M22,33L23,33M23,33L24,33M24,33L25,33M29,34L30,34M30,34L31,34M31,33L31,34M4,34L5,34M5,34L6,34M6,34L7,34M7,34L8,34M8,34L9,34M9,34L10,34M10,34L11,34M11,34L12,34M12,34L13,34M13,34L14,34M14,34L15,34M15,34L16,34M16,34L17,34M17,34L18,34M18,34L19,34M19,34L20,34M26,35L27,35M27,35L28,35M28,35L29,35M29,34L29,35M26,35L26,36" stroke="currentColor" stroke-width="0.18" fill="none" opacity="0.12" shape-rendering="crispEdges"/><path d="M25,1L26,1M25,0L25,1M26,1L27,1M29,0L29,1M27,2L28,2M27,1L27,2M28,2L29,2M29,1L30,1M30,1L31,1M31,1L31,2M29,3L30,3M29,2L29,3M31,2L32,2M32,2L32,3M30,4L31,4M30,3L30,4M32,3L33,3M33,3L33,4M31,5L32,5M31,4L31,5M33,4L34,4M34,4L34,5M32,6L33,6M32,5L32,6M34,5L35,5M35,5L35,6M33,6L33,7M35,6L35,7M33,8L34,8M33,7L33,8M35,7L36,7M34,8L34,9M34,10L35,10M34,9L34,10M35,10L35,11M35,12L36,12M35,11L35,12M35,22L36,22M35,22L35,23M35,23L35,24M34,24L35,24M34,24L34,25M34,25L34,26M33,26L34,26M33,26L33,27M35,27L36,27M31,27L32,27M31,27L31,28M32,27L33,27M34,28L35,28M35,27L35,28M0,28L1,28M1,28L1,29M29,28L30,28M29,28L29,29M30,28L31,28M32,29L33,29M33,29L34,29M34,28L34,29M1,29L2,29M2,29L3,29M3,29L3,30M27,29L28,29M27,29L27,30M28,29L29,29M31,30L32,30M32,29L32,30M3,30L4,30M4,30L5,30M5,30L5,31M23,30L24,30M23,30L23,31M24,30L25,30M25,30L26,30M26,30L27,30M28,31L29,31M29,31L30,31M30,31L31,31M31,30L31,31M0,32L1,32M1,32L2,32M5,31L6,31M6,31L7,31M7,31L8,31M8,31L9,31M9,31L10,31M10,31L11,31M11,31L12,31M12,31L13,31M13,31L14,31M14,31L15,31M15,31L16,31M16,31L17,31M17,31L18,31M18,31L19,31M19,31L20,31M20,31L21,31M21,31L22,31M22,31L23,31M25,32L26,32M26,32L27,32M27,32L28,32M28,31L28,32M2,33L3,33M2,32L2,33M3,33L4,33M20,33L21,33M21,33L22,33M22,33L23,33M23,33L24,33M24,33L25,33M25,32L25,33M4,34L5,34M4,33L4,34M5,34L6,34M6,34L7,34M7,34L8,34M8,34L9,34M9,34L10,34M10,34L11,34M11,34L12,34M12,34L13,34M13,34L14,34M14,34L15,34M15,34L16,34M16,34L17,34M17,34L18,34M18,34L19,34M19,34L20,34M20,33L20,34" stroke="currentColor" stroke-width="0.18" fill="none" opacity="0.16" shape-rendering="crispEdges"/><path d="M22,1L23,1M22,0L22,1M23,1L24,1M25,0L25,1M24,2L25,2M24,1L24,2M25,1L26,1M25,2L26,2M26,1L27,1M27,1L27,2M26,3L27,3M26,2L26,3M27,2L28,2M28,2L29,2M29,2L29,3M27,4L28,4M27,3L27,4M29,3L30,3M30,3L30,4M28,5L29,5M28,4L28,5M30,4L31,4M31,4L31,5M29,6L30,6M29,5L29,6M31,5L32,5M32,5L32,6M30,7L31,7M30,6L30,7M32,6L33,6M33,6L33,7M31,7L31,8M33,7L33,8M31,9L32,9M31,8L31,9M33,8L34,8M34,8L34,9M32,10L33,10M32,9L32,10M34,9L34,10M33,10L33,11M34,10L35,10M35,10L35,11M33,12L34,12M33,11L33,12M35,11L35,12M34,12L34,13M35,12L36,12M34,13L34,14M34,14L34,15M34,15L34,16M34,16L34,17M34,17L34,18M34,18L34,19M34,19L34,20M34,20L34,21M34,21L34,22M35,22L36,22M33,22L34,22M33,22L33,23M35,22L35,23M33,23L33,24M34,24L35,24M35,23L35,24M32,24L33,24M32,24L32,25M34,24L34,25M0,25L1,25M1,25L1,26M30,25L31,25M30,25L30,26M31,25L32,25M33,26L34,26M34,25L34,26M1,26L2,26M2,26L2,27M28,26L29,26M28,26L28,27M29,26L30,26M31,27L32,27M32,27L33,27M33,26L33,27M0,28L1,28M2,27L3,27M3,27L4,27M4,27L4,28M25,27L26,27M25,27L25,28M26,27L27,27M27,27L28,27M29,28L30,28M30,28L31,28M31,27L31,28M1,29L2,29M1,28L1,29M2,29L3,29M4,28L5,28M5,28L6,28M6,28L7,28M7,28L7,29M22,28L23,28M22,28L22,29M23,28L24,28M24,28L25,28M27,29L28,29M28,29L29,29M29,28L29,29M3,30L4,30M3,29L3,30M4,30L5,30M7,29L8,29M8,29L9,29M9,29L10,29M10,29L11,29M11,29L12,29M12,29L13,29M13,29L14,29M14,29L15,29M15,29L16,29M16,29L17,29M17,29L18,29M18,29L19,29M19,29L20,29M20,29L21,29M21,29L22,29M23,30L24,30M24,30L25,30M25,30L26,30M26,30L27,30M27,29L27,30M5,31L6,31M5,30L5,31M6,31L7,31M7,31L8,31M8,31L9,31M9,31L10,31M10,31L11,31M11,31L12,31M12,31L13,31M13,31L14,31M14,31L15,31M15,31L16,31M16,31L17,31M17,31L18,31M18,31L19,31M19,31L20,31M20,31L21,31M21,31L22,31M22,31L23,31M23,30L23,31" stroke="currentColor" stroke-width="0.18" fill="none" opacity="0.20" shape-rendering="crispEdges"/><path d="M3,1L4,1M4,0L4,1M17,1L18,1M17,0L17,1M18,1L19,1M19,1L20,1M22,0L22,1M1,2L2,2M2,2L3,2M3,1L3,2M20,2L21,2M20,1L20,2M21,2L22,2M22,1L23,1M23,1L24,1M24,1L24,2M0,3L1,3M1,2L1,3M22,3L23,3M22,2L22,3M23,3L24,3M24,2L25,2M25,2L26,2M26,2L26,3M24,4L25,4M24,3L24,4M26,3L27,3M27,3L27,4M25,5L26,5M25,4L25,5M27,4L28,4M28,4L28,5M26,6L27,6M26,5L26,6M28,5L29,5M29,5L29,6M27,7L28,7M27,6L27,7M29,6L30,6M30,6L30,7M28,8L29,8M28,7L28,8M30,7L31,7M31,7L31,8M29,8L29,9M31,8L31,9M29,10L30,10M29,9L29,10M31,9L32,9M32,9L32,10M30,11L31,11M30,10L30,11M32,10L33,10M33,10L33,11M31,11L31,12M33,11L33,12M31,12L31,13M33,12L34,12M34,12L34,13M31,14L32,14M31,13L31,14M34,13L34,14M32,14L32,15M34,14L34,15M32,15L32,16M34,15L34,16M32,16L32,17M34,16L34,17M32,17L32,18M34,17L34,18M32,18L32,19M34,18L34,19M32,19L32,20M34,19L34,20M31,20L32,20M31,20L31,21M34,20L34,21M31,21L31,22M33,22L34,22M34,21L34,22M0,22L1,22M1,22L1,23M30,22L31,22M30,22L30,23M33,22L33,23M1,23L2,23M2,23L2,24M29,23L30,23M29,23L29,24M32,24L33,24M33,23L33,24M0,25L1,25M2,24L3,24M3,24L3,25M27,24L28,24M27,24L27,25M28,24L29,24M30,25L31,25M31,25L32,25M32,24L32,25M1,26L2,26M1,25L1,26M3,25L4,25M4,25L4,26M25,25L26,25M25,25L25,26M26,25L27,25M28,26L29,26M29,26L30,26M30,25L30,26M2,27L3,27M2,26L2,27M3,27L4,27M4,26L5,26M5,26L6,26M6,26L6,27M23,26L24,26M23,26L23,27M24,26L25,26M25,27L26,27M26,27L27,27M27,27L28,27M28,26L28,27M4,28L5,28M4,27L4,28M5,28L6,28M6,27L7,27M6,28L7,28M7,27L8,27M8,27L9,27M9,27L10,27M10,27L11,27M11,27L11,28M19,27L20,27M19,27L19,28M20,27L21,27M21,27L22,27M22,27L23,27M22,28L23,28M23,28L24,28M24,28L25,28M25,27L25,28M7,29L8,29M7,28L7,29M8,29L9,29M9,29L10,29M10,29L11,29M11,28L12,28M11,29L12,29M12,28L13,28M12,29L13,29M13,28L14,28M13,29L14,29M14,28L15,28M14,29L15,29M15,28L16,28M15,29L16,29M16,28L17,28M16,29L17,29M17,28L18,28M17,29L18,29M18,28L19,28M18,29L19,29M19,29L20,29M20,29L21,29M21,29L22,29M22,28L22,29" stroke="currentColor" stroke-width="0.18" fill="none" opacity="0.25" shape-rendering="crispEdges"/><path d="M4,0L4,1M8,1L9,1M9,1L10,1M10,1L11,1M11,1L12,1M12,1L13,1M13,1L14,1M17,0L17,1M3,1L4,1M3,1L3,2M5,2L6,2M6,2L7,2M7,2L8,2M8,1L8,2M14,2L15,2M14,1L14,2M15,2L16,2M16,2L17,2M17,1L18,1M17,2L18,2M18,1L19,1M18,2L19,2M19,1L20,1M20,1L20,2M1,2L2,2M1,2L1,3M2,2L3,2M3,3L4,3M4,3L5,3M5,2L5,3M19,3L20,3M19,2L19,3M20,2L21,2M20,3L21,3M21,2L22,2M22,2L22,3M0,3L1,3M2,4L3,4M3,3L3,4M21,4L22,4M21,3L21,4M22,3L23,3M23,3L24,3M24,3L24,4M2,4L2,5M22,5L23,5M22,4L22,5M23,5L24,5M24,4L25,4M25,4L25,5M1,6L2,6M2,5L2,6M24,5L24,6M25,5L26,5M26,5L26,6M1,6L1,7M24,7L25,7M24,6L24,7M26,6L27,6M27,6L27,7M0,8L1,8M1,7L1,8M25,8L26,8M25,7L25,8M27,7L28,7M28,7L28,8M26,8L26,9M28,8L29,8M29,8L29,9M26,10L27,10M26,9L26,10M29,9L29,10M27,10L27,11M29,10L30,10M30,10L30,11M27,12L28,12M27,11L27,12M30,11L31,11M31,11L31,12M28,12L28,13M31,12L31,13M28,14L29,14M28,13L28,14M31,13L31,14M29,14L29,15M31,14L32,14M32,14L32,15M0,15L1,15M1,15L1,16M29,15L29,16M32,15L32,16M1,16L1,17M29,16L29,17M32,16L32,17M1,17L1,18M29,17L29,18M32,17L32,18M1,18L1,19M28,18L29,18M28,18L28,19M32,18L32,19M1,19L2,19M2,19L2,20M28,19L28,20M31,20L32,20M32,19L32,20M2,20L2,21M27,20L28,20M27,20L27,21M31,20L31,21M0,22L1,22M2,21L3,21M3,21L3,22M27,21L27,22M30,22L31,22M31,21L31,22M1,23L2,23M1,22L1,23M3,22L3,23M25,22L26,22M25,22L25,23M26,22L27,22M29,23L30,23M30,22L30,23M2,24L3,24M2,23L2,24M3,23L4,23M4,23L4,24M24,23L25,23M24,23L24,24M27,24L28,24M28,24L29,24M29,23L29,24M3,25L4,25M3,24L3,25M4,24L5,24M5,24L6,24M6,24L6,25M23,24L24,24M23,24L23,25M25,25L26,25M26,25L27,25M27,24L27,25M4,26L5,26M4,25L4,26M5,26L6,26M6,25L7,25M7,25L8,25M8,25L9,25M9,25L9,26M20,25L21,25M20,25L20,26M21,25L22,25M22,25L23,25M23,26L24,26M24,26L25,26M25,25L25,26M6,27L7,27M6,26L6,27M7,27L8,27M8,27L9,27M9,26L10,26M9,27L10,27M10,26L11,26M10,27L11,27M11,26L12,26M12,26L13,26M13,26L14,26M14,26L15,26M15,26L16,26M16,26L17,26M17,26L18,26M18,26L19,26M19,26L20,26M19,27L20,27M20,27L21,27M21,27L22,27M22,27L23,27M23,26L23,27M11,28L12,28M11,27L11,28M12,28L13,28M13,28L14,28M14,28L15,28M15,28L16,28M16,28L17,28M17,28L18,28M18,28L19,28M19,27L19,28" stroke="currentColor" stroke-width="0.18" fill="none" opacity="0.30" shape-rendering="crispEdges"/><path d="M8,1L9,1M8,1L8,2M9,1L10,1M10,1L11,1M11,1L12,1M12,1L13,1M13,1L14,1M14,1L14,2M5,2L6,2M5,2L5,3M6,2L7,2M7,2L8,2M9,3L10,3M10,3L11,3M11,3L12,3M12,3L13,3M13,3L14,3M14,2L15,2M14,3L15,3M15,2L16,2M15,3L16,3M16,2L17,2M17,2L18,2M18,2L19,2M19,2L19,3M3,3L4,3M3,3L3,4M4,3L5,3M6,4L7,4M7,4L8,4M8,4L9,4M9,3L9,4M16,4L17,4M16,3L16,4M17,4L18,4M18,4L19,4M19,3L20,3M20,3L21,3M21,3L21,4M2,4L3,4M2,4L2,5M5,5L6,5M6,4L6,5M19,5L20,5M19,4L19,5M20,5L21,5M21,4L22,4M22,4L22,5M2,5L2,6M4,6L5,6M5,5L5,6M21,6L22,6M21,5L21,6M22,5L23,5M23,5L24,5M24,5L24,6M1,6L2,6M1,6L1,7M3,7L4,7M4,6L4,7M22,7L23,7M22,6L22,7M24,6L24,7M1,7L1,8M3,7L3,8M23,7L23,8M24,7L25,7M25,7L25,8M0,8L1,8M2,9L3,9M3,8L3,9M23,9L24,9M23,8L23,9M25,8L26,8M26,8L26,9M2,9L2,10M24,9L24,10M26,9L26,10M2,10L2,11M24,11L25,11M24,10L24,11M26,10L27,10M27,10L27,11M2,11L2,12M25,11L25,12M27,11L27,12M2,12L2,13M25,12L25,13M27,12L28,12M28,12L28,13M2,13L2,14M25,13L25,14M28,13L28,14M0,15L1,15M2,14L3,14M3,14L3,15M25,14L25,15M28,14L29,14M29,14L29,15M1,15L1,16M3,15L3,16M25,15L25,16M29,15L29,16M1,16L1,17M3,16L3,17M25,16L25,17M29,16L29,17M1,17L1,18M3,17L3,18M25,17L25,18M28,18L29,18M29,17L29,18M1,19L2,19M1,18L1,19M3,18L4,18M4,18L4,19M25,18L25,19M28,18L28,19M2,19L2,20M4,19L4,20M24,19L25,19M24,19L24,20M27,20L28,20M28,19L28,20M2,21L3,21M2,20L2,21M4,20L5,20M5,20L5,21M24,20L24,21M27,20L27,21M3,21L3,22M5,21L5,22M23,21L24,21M23,21L23,22M25,22L26,22M26,22L27,22M27,21L27,22M3,23L4,23M3,22L3,23M5,22L6,22M6,22L7,22M7,22L7,23M22,22L23,22M22,22L22,23M24,23L25,23M25,22L25,23M4,24L5,24M4,23L4,24M5,24L6,24M7,23L8,23M8,23L8,24M21,23L22,23M21,23L21,24M23,24L24,24M24,23L24,24M6,25L7,25M6,24L6,25M7,25L8,25M8,24L9,24M8,25L9,25M9,24L10,24M10,24L11,24M11,24L12,24M12,24L13,24M13,24L13,25M18,24L19,24M18,24L18,25M19,24L20,24M20,24L21,24M20,25L21,25M21,25L22,25M22,25L23,25M23,24L23,25M9,26L10,26M9,25L9,26M10,26L11,26M11,26L12,26M12,26L13,26M13,25L14,25M13,26L14,26M14,25L15,25M14,26L15,26M15,25L16,25M15,26L16,26M16,25L17,25M16,26L17,26M17,25L18,25M17,26L18,26M18,26L19,26M19,26L20,26M20,25L20,26" stroke="currentColor" stroke-width="0.18" fill="none" opacity="0.35" shape-rendering="crispEdges"/><path d="M9,3L10,3M9,3L9,4M10,3L11,3M11,3L12,3M12,3L13,3M13,3L14,3M14,3L15,3M15,3L16,3M16,3L16,4M6,4L7,4M6,4L6,5M7,4L8,4M8,4L9,4M12,5L13,5M13,5L14,5M14,5L15,5M15,5L16,5M16,4L17,4M17,4L18,4M18,4L19,4M19,4L19,5M5,5L6,5M5,5L5,6M8,6L9,6M9,6L10,6M10,6L11,6M11,6L12,6M12,5L12,6M16,6L17,6M16,5L16,6M17,6L18,6M19,5L20,5M20,5L21,5M21,5L21,6M4,6L5,6M4,6L4,7M7,7L8,7M8,6L8,7M18,7L19,7M18,6L18,7M19,7L20,7M21,6L22,6M22,6L22,7M3,7L4,7M3,7L3,8M6,8L7,8M7,7L7,8M20,8L21,8M20,7L20,8M22,7L23,7M23,7L23,8M3,8L3,9M5,9L6,9M6,8L6,9M21,8L21,9M23,8L23,9M2,9L3,9M2,9L2,10M5,9L5,10M21,10L22,10M21,9L21,10M23,9L24,9M24,9L24,10M2,10L2,11M5,10L5,11M22,10L22,11M24,10L24,11M2,11L2,12M5,11L5,12M22,12L23,12M22,11L22,12M24,11L25,11M25,11L25,12M2,12L2,13M5,12L5,13M23,12L23,13M25,12L25,13M2,14L3,14M2,13L2,14M5,13L5,14M23,13L23,14M25,13L25,14M3,14L3,15M5,14L5,15M23,14L23,15M25,14L25,15M3,15L3,16M5,15L6,15M6,15L6,16M23,15L23,16M25,15L25,16M3,16L3,17M6,16L6,17M23,16L23,17M25,16L25,17M3,18L4,18M3,17L3,18M6,17L6,18M23,17L23,18M25,17L25,18M4,18L4,19M6,18L7,18M7,18L7,19M22,18L23,18M22,18L22,19M24,19L25,19M25,18L25,19M4,20L5,20M4,19L4,20M7,19L7,20M22,19L22,20M24,19L24,20M5,20L5,21M7,20L8,20M8,20L8,21M21,20L22,20M21,20L21,21M23,21L24,21M24,20L24,21M5,22L6,22M5,21L5,22M6,22L7,22M8,21L9,21M9,21L10,21M10,21L10,22M20,21L21,21M20,21L20,22M22,22L23,22M23,21L23,22M7,23L8,23M7,22L7,23M10,22L11,22M11,22L12,22M12,22L12,23M18,22L19,22M18,22L18,23M19,22L20,22M21,23L22,23M22,22L22,23M8,24L9,24M8,23L8,24M9,24L10,24M10,24L11,24M11,24L12,24M12,23L13,23M12,24L13,24M13,23L14,23M14,23L15,23M15,23L16,23M16,23L17,23M17,23L18,23M18,24L19,24M19,24L20,24M20,24L21,24M21,23L21,24M13,25L14,25M13,24L13,25M14,25L15,25M15,25L16,25M16,25L17,25M17,25L18,25M18,24L18,25" stroke="currentColor" stroke-width="0.18" fill="none" opacity="0.40" shape-rendering="crispEdges"/><path d="M12,5L13,5M12,5L12,6M13,5L14,5M14,5L15,5M15,5L16,5M16,5L16,6M8,6L9,6M8,6L8,7M9,6L10,6M10,6L11,6M11,6L12,6M16,6L17,6M17,6L18,6M18,6L18,7M7,7L8,7M7,7L7,8M13,8L14,8M14,8L15,8M15,8L16,8M16,8L17,8M18,7L19,7M19,7L20,7M20,7L20,8M6,8L7,8M6,8L6,9M10,9L11,9M11,9L12,9M12,9L13,9M13,8L13,9M17,9L18,9M17,8L17,9M20,8L21,8M21,8L21,9M5,9L6,9M5,9L5,10M9,10L10,10M10,9L10,10M18,10L19,10M18,9L18,10M21,9L21,10M5,10L5,11M9,10L9,11M19,11L20,11M19,10L19,11M21,10L22,10M22,10L22,11M5,11L5,12M9,11L9,12M20,11L20,12M22,11L22,12M5,12L5,13M9,12L9,13M20,13L21,13M20,12L20,13M22,12L23,12M23,12L23,13M5,13L5,14M9,13L9,14M21,13L21,14M23,13L23,14M5,15L6,15M5,14L5,15M9,14L9,15M21,14L21,15M23,14L23,15M6,15L6,16M9,15L10,15M10,15L10,16M21,15L21,16M23,15L23,16M6,16L6,17M10,16L10,17M20,16L21,16M20,16L20,17M23,16L23,17M6,18L7,18M6,17L6,18M10,17L11,17M11,17L11,18M20,17L20,18M22,18L23,18M23,17L23,18M7,18L7,19M11,18L12,18M12,18L12,19M19,18L20,18M19,18L19,19M22,18L22,19M7,20L8,20M7,19L7,20M12,19L13,19M13,19L13,20M18,19L19,19M18,19L18,20M21,20L22,20M22,19L22,20M8,21L9,21M8,20L8,21M9,21L10,21M13,20L14,20M14,20L15,20M15,20L16,20M16,20L17,20M17,20L18,20M20,21L21,21M21,20L21,21M10,22L11,22M10,21L10,22M11,22L12,22M18,22L19,22M19,22L20,22M20,21L20,22M12,23L13,23M12,22L12,23M13,23L14,23M14,23L15,23M15,23L16,23M16,23L17,23M17,23L18,23M18,22L18,23" stroke="currentColor" stroke-width="0.18" fill="none" opacity="0.46" shape-rendering="crispEdges"/><path d="M13,8L14,8M13,8L13,9M14,8L15,8M15,8L16,8M16,8L17,8M17,8L17,9M10,9L11,9M10,9L10,10M11,9L12,9M12,9L13,9M17,9L18,9M18,9L18,10M9,10L10,10M9,10L9,11M18,10L19,10M19,10L19,11M9,11L9,12M19,11L20,11M20,11L20,12M9,12L9,13M20,12L20,13M9,13L9,14M20,13L21,13M21,13L21,14M9,15L10,15M9,14L9,15M21,14L21,15M10,15L10,16M20,16L21,16M21,15L21,16M10,17L11,17M10,16L10,17M20,16L20,17M11,18L12,18M11,17L11,18M19,18L20,18M20,17L20,18M12,19L13,19M12,18L12,19M18,19L19,19M19,18L19,19M13,20L14,20M13,19L13,20M14,20L15,20M15,20L16,20M16,20L17,20M17,20L18,20M18,19L18,20" stroke="currentColor" stroke-width="0.18" fill="none" opacity="0.52" shape-rendering="crispEdges"/><rect x="1.66" y="3.85" width="3.89" height="1.30" fill="currentColor" opacity="0.40"/><rect x="8.54" y="3.75" width="4.52" height="1.51" fill="currentColor" opacity="0.49"/><rect x="17.18" y="3.68" width="1.65" height="1.65" fill="currentColor" opacity="0.55"/><rect x="24.45" y="3.75" width="1.51" height="1.51" fill="currentColor" opacity="0.49"/><rect x="31.75" y="3.85" width="1.30" height="1.30" fill="currentColor" opacity="0.40"/><rect x="1.32" y="12.74" width="4.57" height="1.52" fill="currentColor" opacity="0.50"/><rect x="7.74" y="12.48" width="6.11" height="2.04" fill="currentColor" opacity="0.72"/><rect x="16.83" y="12.33" width="2.35" height="2.35" fill="currentColor" opacity="0.85"/><rect x="22.14" y="12.48" width="6.11" height="2.04" fill="currentColor" opacity="0.72"/><rect x="31.64" y="12.74" width="1.52" height="1.52" fill="currentColor" opacity="0.50"/><rect x="2.84" y="21.74" width="1.52" height="1.52" fill="currentColor" opacity="0.50"/><rect x="9.78" y="21.48" width="2.04" height="2.04" fill="currentColor" opacity="0.72"/><rect x="16.83" y="21.33" width="2.35" height="2.35" fill="currentColor" opacity="0.85"/><rect x="22.14" y="21.48" width="6.11" height="2.04" fill="currentColor" opacity="0.72"/><rect x="31.64" y="21.74" width="1.52" height="1.52" fill="currentColor" opacity="0.50"/><rect x="1.66" y="30.85" width="3.89" height="1.30" fill="currentColor" opacity="0.40"/></svg>