<svg xmlns="http://www.w3.org/2000/svg" viewBox="0 0 36 36" preserveAspectRatio="xMidYMid slice"><path d="M3,1L4,1M4,1L5,1M5,0L5,1M35,1L36,1M35,0L35,1M2,2L3,2M3,1L3,2M2,2L2,3M1,4L2,4M2,3L2,4M1,4L1,5M0,6L1,6M1,5L1,6M0,31L1,31M1,31L1,32M1,32L2,32M2,32L2,33M35,32L36,32M35,32L35,33M2,33L3,33M3,33L4,33M4,33L5,33M5,33L5,34M33,33L34,33M33,33L33,34M34,33L35,33M5,34L6,34M6,34L7,34M7,34L8,34M8,34L9,34M9,34L10,34M10,34L11,34M11,34L11,35M31,34L32,34M31,34L31,35M32,34L33,34M11,35L12,35M12,35L13,35M13,35L14,35M14,35L15,35M15,35L16,35M16,35L17,35M17,35L17,36M27,35L28,35M27,35L27,36M28,35L29,35M29,35L30,35M30,35L31,35" stroke="currentColor" stroke-width="0.18" fill="none" opacity="0.10" shape-rendering="crispEdges"/><path d="M5,0L5,1M7,1L8,1M8,1L9,1M9,0L9,1M31,1L32,1M31,0L31,1M32,1L33,1M35,0L35,1M3,1L4,1M3,1L3,2M4,1L5,1M6,2L7,2M7,1L7,2M33,2L34,2M33,1L33,2M35,1L36,1M2,2L3,2M2,2L2,3M5,3L6,3M6,2L6,3M34,3L35,3M34,2L34,3M2,3L2,4M4,4L5,4M5,3L5,4M35,4L36,4M35,3L35,4M1,4L2,4M1,4L1,5M3,5L4,5M4,4L4,5M1,5L1,6M3,5L3,6M0,6L1,6M2,7L3,7M3,6L3,7M2,7L2,8M2,8L2,9M1,10L2,10M2,9L2,10M1,10L1,11M0,12L1,12M1,11L1,12M0,25L1,25M1,25L1,26M1,26L1,27M1,27L2,27M2,27L2,28M2,28L2,29M2,29L3,29M3,29L4,29M4,29L4,30M0,31L1,31M4,30L5,30M5,30L6,30M6,30L7,30M7,30L7,31M35,30L36,30M35,30L35,31M1,32L2,32M1,31L1,32M7,31L8,31M8,31L9,31M9,31L10,31M10,31L10,32M33,31L34,31M33,31L33,32M34,31L35,31M35,32L36,32M2,33L3,33M2,32L2,33M3,33L4,33M4,33L5,33M10,32L11,32M11,32L12,32M12,32L13,32M13,32L13,33M31,32L32,32M31,32L31,33M32,32L33,32M33,33L34,33M34,33L35,33M35,32L35,33M5,34L6,34M5,33L5,34M6,34L7,34M7,34L8,34M8,34L9,34M9,34L10,34M10,34L11,34M13,33L14,33M14,33L15,33M15,33L16,33M16,33L17,33M17,33L18,33M18,33L19,33M19,33L19,34M27,33L28,33M27,33L27,34M28,33L29,33M29,33L30,33M30,33L31,33M31,34L32,34M32,34L33,34M33,33L33,34M11,35L12,35M11,34L11,35M12,35L13,35M13,35L14,35M14,35L15,35M15,35L16,35M16,35L17,35M19,34L20,34M20,34L21,34M21,34L22,34M22,34L23,34M23,34L24,34M24,34L25,34M25,34L26,34M26,34L27,34M27,35L28,35M28,35L29,35M29,35L30,35M30,35L31,35M31,34L31,35M17,35L17,36M27,35L27,36" stroke="currentColor" stroke-width="0.18" fill="none" opacity="0.12" shape-rendering="crispEdges"/><path d="M9,0L9,1M12,1L13,1M13,1L14,1M14,0L14,1M24,1L25,1M24,0L24,1M25,1L26,1M26,1L27,1M27,1L28,1M28,1L29,1M31,0L31,1M7,1L8,1M7,1L7,2M8,1L9,1M10,2L11,2M11,2L12,2M12,1L12,2M29,2L30,2M29,1L29,2M30,2L31,2M31,1L32,1M32,1L33,1M33,1L33,2M6,2L7,2M6,2L6,3M8,3L9,3M9,3L10,3M10,2L10,3M31,3L32,3M31,2L31,3M33,2L34,2M34,2L34,3M5,3L6,3M5,3L5,4M7,4L8,4M8,3L8,4M32,4L33,4M32,3L32,4M33,4L34,4M34,3L35,3M35,3L35,4M4,4L5,4M4,4L4,5M6,5L7,5M7,4L7,5M34,4L34,5M35,4L36,4M3,5L4,5M3,5L3,6M5,6L6,6M6,5L6,6M34,6L35,6M34,5L34,6M3,6L3,7M5,6L5,7M35,7L36,7M35,6L35,7M2,7L3,7M2,7L2,8M4,8L5,8M5,7L5,8M2,8L2,9M4,8L4,9M2,9L2,10M3,10L4,10M4,9L4,10M1,10L2,10M1,10L1,11M3,10L3,11M1,11L1,12M3,11L3,12M0,12L1,12M2,13L3,13M3,12L3,13M2,13L2,14M2,14L2,15M2,15L2,16M2,16L2,17M2,17L2,18M2,18L2,19M2,19L2,20M2,20L2,21M2,21L3,21M3,21L3,22M3,22L3,23M3,23L3,24M0,25L1,25M3,24L3,25M1,25L1,26M3,25L4,25M4,25L4,26M1,27L2,27M1,26L1,27M4,26L5,26M5,26L5,27M2,27L2,28M5,27L6,27M6,27L7,27M7,27L7,28M2,29L3,29M2,28L2,29M3,29L4,29M7,28L8,28M8,28L9,28M9,28L9,29M35,28L36,28M35,28L35,29M4,30L5,30M4,29L4,30M5,30L6,30M6,30L7,30M9,29L10,29M10,29L10,30M33,29L34,29M33,29L33,30M34,29L35,29M35,30L36,30M7,31L8,31M7,30L7,31M8,31L9,31M9,31L10,31M10,30L11,30M11,30L12,30M12,30L13,30M13,30L13,31M31,30L32,30M31,30L31,31M32,30L33,30M33,31L34,31M34,31L35,31M35,30L35,31M10,32L11,32M10,31L10,32M11,32L12,32M12,32L13,32M13,31L14,31M14,31L15,31M15,31L16,31M16,31L17,31M17,31L18,31M18,31L19,31M19,31L19,32M28,31L29,31M28,31L28,32M29,31L30,31M30,31L31,31M31,32L32,32M32,32L33,32M33,31L33,32M13,33L14,33M13,32L13,33M14,33L15,33M15,33L16,33M16,33L17,33M17,33L18,33M18,33L19,33M19,32L20,32M20,32L21,32M21,32L22,32M22,32L23,32M23,32L24,32M24,32L25,32M25,32L26,32M26,32L27,32M27,32L28,32M27,33L28,33M28,33L29,33M29,33L30,33M30,33L31,33M31,32L31,33M19,34L20,34M19,33L19,34M20,34L21,34M21,34L22,34M22,34L23,34M23,34L24,34M24,34L25,34M25,34L26,34M26,34L27,34M27,33L27,34" stroke="currentColor" stroke-width="0.18" fill="none" opacity="0.16" shape-rendering="crispEdges"/><path d="M14,0L14,1M17,1L18,1M18,1L19,1M19,1L20,1M24,0L24,1M12,1L13,1M12,1L12,2M13,1L14,1M14,2L15,2M15,2L16,2M16,2L17,2M17,1L17,2M20,2L21,2M20,1L20,2M21,2L22,2M22,2L23,2M23,2L24,2M24,1L25,1M24,2L25,2M25,1L26,1M26,1L27,1M27,1L28,1M28,1L29,1M29,1L29,2M10,2L11,2M10,2L10,3M11,2L12,2M12,3L13,3M13,3L14,3M14,2L14,3M25,3L26,3M25,2L25,3M26,3L27,3M27,3L28,3M28,3L29,3M29,2L30,2M30,2L31,2M31,2L31,3M8,3L9,3M8,3L8,4M9,3L10,3M11,4L12,4M12,3L12,4M29,4L30,4M29,3L29,4M30,4L31,4M31,3L32,3M32,3L32,4M7,4L8,4M7,4L7,5M9,5L10,5M10,5L11,5M11,4L11,5M31,5L32,5M31,4L31,5M32,4L33,4M33,4L34,4M34,4L34,5M6,5L7,5M6,5L6,6M8,6L9,6M9,5L9,6M32,6L33,6M32,5L32,6M34,5L34,6M5,6L6,6M5,6L5,7M7,7L8,7M8,6L8,7M33,7L34,7M33,6L33,7M34,6L35,6M35,6L35,7M5,7L5,8M7,7L7,8M34,7L34,8M35,7L36,7M4,8L5,8M4,8L4,9M6,9L7,9M7,8L7,9M34,9L35,9M34,8L34,9M4,9L4,10M6,9L6,10M35,10L36,10M35,9L35,10M3,10L4,10M3,10L3,11M5,11L6,11M6,10L6,11M3,11L3,12M5,11L5,12M3,12L3,13M5,12L5,13M2,13L3,13M2,13L2,14M5,13L5,14M2,14L2,15M4,15L5,15M5,14L5,15M2,15L2,16M4,15L4,16M2,16L2,17M4,16L4,17M2,17L2,18M4,17L4,18M2,18L2,19M4,18L4,19M2,19L2,20M4,19L5,19M5,19L5,20M2,21L3,21M2,20L2,21M5,20L5,21M3,21L3,22M5,21L5,22M3,22L3,23M5,22L5,23M3,23L3,24M5,23L6,23M6,23L6,24M3,25L4,25M3,24L3,25M6,24L7,24M7,24L7,25M4,26L5,26M4,25L4,26M7,25L8,25M8,25L8,26M35,25L36,25M35,25L35,26M5,27L6,27M5,26L5,27M6,27L7,27M8,26L9,26M9,26L9,27M35,26L35,27M7,28L8,28M7,27L7,28M8,28L9,28M9,27L10,27M10,27L11,27M11,27L11,28M34,27L35,27M34,27L34,28M35,28L36,28M9,29L10,29M9,28L9,29M11,28L12,28M12,28L13,28M13,28L13,29M32,28L33,28M32,28L32,29M33,28L34,28M33,29L34,29M34,29L35,29M35,28L35,29M10,30L11,30M10,29L10,30M11,30L12,30M12,30L13,30M13,29L14,29M14,29L15,29M15,29L16,29M16,29L17,29M17,29L18,29M18,29L18,30M29,29L30,29M29,29L29,30M30,29L31,29M31,29L32,29M31,30L32,30M32,30L33,30M33,29L33,30M13,31L14,31M13,30L13,31M14,31L15,31M15,31L16,31M16,31L17,31M17,31L18,31M18,30L19,30M18,31L19,31M19,30L20,30M20,30L21,30M21,30L22,30M22,30L22,31M25,30L26,30M25,30L25,31M26,30L27,30M27,30L28,30M28,30L29,30M28,31L29,31M29,31L30,31M30,31L31,31M31,30L31,31M19,32L20,32M19,31L19,32M20,32L21,32M21,32L22,32M22,31L23,31M22,32L23,32M23,31L24,31M23,32L24,32M24,31L25,31M24,32L25,32M25,32L26,32M26,32L27,32M27,32L28,32M28,31L28,32" stroke="currentColor" stroke-width="0.18" fill="none" opacity="0.20" shape-rendering="crispEdges"/><path d="M17,1L18,1M17,1L17,2M18,1L19,1M19,1L20,1M20,1L20,2M14,2L15,2M14,2L14,3M15,2L16,2M16,2L17,2M16,3L17,3M17,3L18,3M18,3L19,3M19,3L20,3M20,2L21,2M20,3L21,3M21,2L22,2M22,2L23,2M23,2L24,2M24,2L25,2M25,2L25,3M12,3L13,3M12,3L12,4M13,3L14,3M14,4L15,4M15,4L16,4M16,3L16,4M21,4L22,4M21,3L21,4M22,4L23,4M23,4L24,4M24,4L25,4M25,3L26,3M25,4L26,4M26,3L27,3M27,3L28,3M28,3L29,3M29,3L29,4M11,4L12,4M11,4L11,5M13,5L14,5M14,4L14,5M26,5L27,5M26,4L26,5M27,5L28,5M28,5L29,5M29,4L30,4M30,4L31,4M31,4L31,5M9,5L10,5M9,5L9,6M10,5L11,5M12,6L13,6M13,5L13,6M29,6L30,6M29,5L29,6M30,6L31,6M31,5L32,5M32,5L32,6M8,6L9,6M8,6L8,7M10,7L11,7M11,7L12,7M12,6L12,7M31,7L32,7M31,6L31,7M32,6L33,6M33,6L33,7M7,7L8,7M7,7L7,8M9,8L10,8M10,7L10,8M32,7L32,8M33,7L34,7M34,7L34,8M7,8L7,9M9,8L9,9M32,9L33,9M32,8L32,9M34,8L34,9M6,9L7,9M6,9L6,10M8,10L9,10M9,9L9,10M33,10L34,10M33,9L33,10M34,9L35,9M35,9L35,10M6,10L6,11M8,10L8,11M34,10L34,11M35,10L36,10M5,11L6,11M5,11L5,12M8,11L8,12M34,12L35,12M34,11L34,12M5,12L5,13M8,12L8,13M35,12L35,13M5,13L5,14M7,14L8,14M8,13L8,14M35,14L36,14M35,13L35,14M5,14L5,15M7,14L7,15M4,15L5,15M4,15L4,16M7,15L7,16M4,16L4,17M7,16L7,17M4,17L4,18M7,17L7,18M4,19L5,19M4,18L4,19M7,18L7,19M5,19L5,20M7,19L7,20M5,20L5,21M7,20L7,21M5,21L5,22M7,21L7,22M35,21L36,21M35,21L35,22M5,23L6,23M5,22L5,23M7,22L8,22M8,22L8,23M35,22L35,23M6,24L7,24M6,23L6,24M8,23L9,23M9,23L9,24M35,23L35,24M7,25L8,25M7,24L7,25M9,24L10,24M10,24L10,25M34,24L35,24M34,24L34,25M35,25L36,25M8,26L9,26M8,25L8,26M10,25L11,25M11,25L11,26M33,25L34,25M33,25L33,26M35,25L35,26M9,27L10,27M9,26L9,27M10,27L11,27M11,26L12,26M12,26L13,26M13,26L13,27M32,26L33,26M32,26L32,27M34,27L35,27M35,26L35,27M11,28L12,28M11,27L11,28M12,28L13,28M13,27L14,27M14,27L15,27M15,27L16,27M16,27L17,27M17,27L17,28M31,27L32,27M31,27L31,28M32,28L33,28M33,28L34,28M34,27L34,28M13,29L14,29M13,28L13,29M14,29L15,29M15,29L16,29M16,29L17,29M17,28L18,28M17,29L18,29M18,28L19,28M19,28L20,28M20,28L20,29M28,28L29,28M28,28L28,29M29,28L30,28M29,29L30,29M30,28L31,28M30,29L31,29M31,29L32,29M32,28L32,29M18,30L19,30M18,29L18,30M19,30L20,30M20,29L21,29M20,30L21,30M21,29L22,29M21,30L22,30M22,29L23,29M23,29L24,29M24,29L25,29M25,29L26,29M25,30L26,30M26,29L27,29M26,30L27,30M27,29L28,29M27,30L28,30M28,30L29,30M29,29L29,30M22,31L23,31M22,30L22,31M23,31L24,31M24,31L25,31M25,30L25,31" stroke="currentColor" stroke-width="0.18" fill="none" opacity="0.25" shape-rendering="crispEdges"/><path d="M16,3L17,3M16,3L16,4M17,3L18,3M18,3L19,3M19,3L20,3M20,3L21,3M21,3L21,4M14,4L15,4M14,4L14,5M15,4L16,4M16,5L17,5M17,5L18,5M18,5L19,5M19,5L20,5M20,5L21,5M21,4L22,4M21,5L22,5M22,4L23,4M23,4L24,4M24,4L25,4M25,4L26,4M26,4L26,5M13,5L14,5M13,5L13,6M15,6L16,6M16,5L16,6M22,6L23,6M22,5L22,6M23,6L24,6M24,6L25,6M25,6L26,6M26,5L27,5M26,6L27,6M27,5L28,5M28,5L29,5M29,5L29,6M12,6L13,6M12,6L12,7M14,7L15,7M15,6L15,7M27,7L28,7M27,6L27,7M28,7L29,7M29,6L30,6M30,6L31,6M31,6L31,7M10,7L11,7M10,7L10,8M11,7L12,7M13,8L14,8M14,7L14,8M29,8L30,8M29,7L29,8M31,7L32,7M32,7L32,8M9,8L10,8M9,8L9,9M12,9L13,9M13,8L13,9M30,9L31,9M30,8L30,9M32,8L32,9M9,9L9,10M11,10L12,10M12,9L12,10M31,10L32,10M31,9L31,10M32,9L33,9M33,9L33,10M8,10L9,10M8,10L8,11M10,11L11,11M11,10L11,11M32,11L33,11M32,10L32,11M33,10L34,10M34,10L34,11M8,11L8,12M10,11L10,12M33,11L33,12M34,11L34,12M8,12L8,13M10,12L10,13M33,13L34,13M33,12L33,13M34,12L35,12M35,12L35,13M8,13L8,14M10,13L10,14M34,13L34,14M35,13L35,14M7,14L8,14M7,14L7,15M10,14L10,15M34,14L34,15M35,14L36,14M7,15L7,16M9,16L10,16M10,15L10,16M34,16L35,16M34,15L34,16M7,16L7,17M9,16L9,17M35,16L35,17M7,17L7,18M9,17L9,18M35,17L35,18M7,18L7,19M9,18L9,19M35,18L35,19M7,19L7,20M9,19L9,20M34,19L35,19M34,19L34,20M7,20L7,21M9,20L10,20M10,20L10,21M34,20L34,21M35,21L36,21M7,22L8,22M7,21L7,22M10,21L10,22M34,21L34,22M35,21L35,22M8,23L9,23M8,22L8,23M10,22L11,22M11,22L11,23M33,22L34,22M33,22L33,23M35,22L35,23M9,24L10,24M9,23L9,24M11,23L12,23M12,23L12,24M33,23L33,24M34,24L35,24M35,23L35,24M10,25L11,25M10,24L10,25M12,24L13,24M13,24L14,24M14,24L14,25M32,24L33,24M32,24L32,25M33,25L34,25M34,24L34,25M11,26L12,26M11,25L11,26M12,26L13,26M14,25L15,25M15,25L16,25M16,25L16,26M31,25L32,25M31,25L31,26M32,26L33,26M33,25L33,26M13,27L14,27M13,26L13,27M14,27L15,27M15,27L16,27M16,26L17,26M16,27L17,27M17,26L18,26M18,26L19,26M19,26L19,27M29,26L30,26M29,26L29,27M30,26L31,26M31,27L32,27M32,26L32,27M17,28L18,28M17,27L17,28M18,28L19,28M19,27L20,27M19,28L20,28M20,27L21,27M21,27L21,28M26,27L27,27M26,27L26,28M27,27L28,27M28,27L29,27M28,28L29,28M29,28L30,28M30,28L31,28M31,27L31,28M20,29L21,29M20,28L20,29M21,28L22,28M21,29L22,29M22,28L23,28M22,29L23,29M23,28L24,28M23,29L24,29M24,28L25,28M24,29L25,29M25,28L26,28M25,29L26,29M26,29L27,29M27,29L28,29M28,28L28,29" stroke="currentColor" stroke-width="0.18" fill="none" opacity="0.30" shape-rendering="crispEdges"/><path d="M16,5L17,5M16,5L16,6M17,5L18,5M18,5L19,5M19,5L20,5M20,5L21,5M21,5L22,5M22,5L22,6M15,6L16,6M15,6L15,7M17,7L18,7M18,7L19,7M19,7L20,7M20,7L21,7M21,7L22,7M22,6L23,6M23,6L24,6M24,6L25,6M25,6L26,6M26,6L27,6M27,6L27,7M14,7L15,7M14,7L14,8M16,8L17,8M17,7L17,8M22,8L23,8M22,7L22,8M23,8L24,8M24,8L25,8M25,8L26,8M26,8L27,8M27,7L28,7M27,8L28,8M28,7L29,7M29,7L29,8M13,8L14,8M13,8L13,9M15,9L16,9M16,8L16,9M28,9L29,9M28,8L28,9M29,8L30,8M30,8L30,9M12,9L13,9M12,9L12,10M14,10L15,10M15,9L15,10M29,10L30,10M29,9L29,10M30,9L31,9M31,9L31,10M11,10L12,10M11,10L11,11M13,11L14,11M14,10L14,11M30,11L31,11M30,10L30,11M31,10L32,10M32,10L32,11M10,11L11,11M10,11L10,12M13,11L13,12M31,11L31,12M32,11L33,11M33,11L33,12M10,12L10,13M12,13L13,13M13,12L13,13M31,13L32,13M31,12L31,13M33,12L33,13M10,13L10,14M12,13L12,14M32,13L32,14M33,13L34,13M34,13L34,14M10,14L10,15M12,14L12,15M32,15L33,15M32,14L32,15M34,14L34,15M10,15L10,16M12,15L12,16M33,15L33,16M34,15L34,16M9,16L10,16M9,16L9,17M12,16L12,17M33,16L33,17M34,16L35,16M35,16L35,17M9,17L9,18M12,17L12,18M33,17L33,18M35,17L35,18M9,18L9,19M12,18L12,19M33,18L33,19M34,19L35,19M35,18L35,19M9,20L10,20M9,19L9,20M12,19L12,20M33,19L33,20M34,19L34,20M10,20L10,21M12,20L13,20M13,20L13,21M32,20L33,20M32,20L32,21M34,20L34,21M10,22L11,22M10,21L10,22M13,21L13,22M32,21L32,22M33,22L34,22M34,21L34,22M11,23L12,23M11,22L11,23M13,22L14,22M14,22L14,23M31,22L32,22M31,22L31,23M33,22L33,23M12,24L13,24M12,23L12,24M13,24L14,24M14,23L15,23M15,23L16,23M16,23L16,24M30,23L31,23M30,23L30,24M32,24L33,24M33,23L33,24M14,25L15,25M14,24L14,25M15,25L16,25M16,24L17,24M17,24L18,24M18,24L19,24M19,24L19,25M29,24L30,24M29,24L29,25M31,25L32,25M32,24L32,25M16,26L17,26M16,25L16,26M17,26L18,26M18,26L19,26M19,25L20,25M20,25L21,25M21,25L21,26M27,25L28,25M27,25L27,26M28,25L29,25M29,26L30,26M30,26L31,26M31,25L31,26M19,27L20,27M19,26L19,27M20,27L21,27M21,26L22,26M22,26L23,26M23,26L24,26M24,26L25,26M25,26L26,26M26,26L27,26M26,27L27,27M27,27L28,27M28,27L29,27M29,26L29,27M21,28L22,28M21,27L21,28M22,28L23,28M23,28L24,28M24,28L25,28M25,28L26,28M26,27L26,28" stroke="currentColor" stroke-width="0.18" fill="none" opacity="0.35" shape-rendering="crispEdges"/><path d="M17,7L18,7M17,7L17,8M18,7L19,7M19,7L20,7M20,7L21,7M21,7L22,7M22,7L22,8M16,8L17,8M16,8L16,9M18,9L19,9M19,9L20,9M20,9L21,9M22,8L23,8M23,8L24,8M24,8L25,8M25,8L26,8M26,8L27,8M27,8L28,8M28,8L28,9M15,9L16,9M15,9L15,10M17,10L18,10M18,9L18,10M21,10L22,10M21,9L21,10M22,10L23,10M23,10L24,10M24,10L25,10M25,10L26,10M26,10L27,10M28,9L29,9M29,9L29,10M14,10L15,10M14,10L14,11M17,10L17,11M27,11L28,11M27,10L27,11M29,10L30,10M30,10L30,11M13,11L14,11M13,11L13,12M16,12L17,12M17,11L17,12M28,12L29,12M28,11L28,12M30,11L31,11M31,11L31,12M13,12L13,13M15,13L16,13M16,12L16,13M29,13L30,13M29,12L29,13M31,12L31,13M12,13L13,13M12,13L12,14M15,13L15,14M30,13L30,14M31,13L32,13M32,13L32,14M12,14L12,15M15,14L15,15M30,15L31,15M30,14L30,15M32,14L32,15M12,15L12,16M15,15L15,16M31,15L31,16M32,15L33,15M33,15L33,16M12,16L12,17M15,16L15,17M31,16L31,17M33,16L33,17M12,17L12,18M15,17L15,18M31,17L31,18M33,17L33,18M12,18L12,19M15,18L15,19M31,18L31,19M33,18L33,19M12,20L13,20M12,19L12,20M15,19L15,20M31,19L31,20M32,20L33,20M33,19L33,20M13,20L13,21M15,20L16,20M16,20L16,21M30,20L31,20M30,20L30,21M32,20L32,21M13,22L14,22M13,21L13,22M16,21L17,21M17,21L17,22M30,21L30,22M31,22L32,22M32,21L32,22M14,23L15,23M14,22L14,23M15,23L16,23M17,22L18,22M18,22L18,23M29,22L30,22M29,22L29,23M30,23L31,23M31,22L31,23M16,24L17,24M16,23L16,24M17,24L18,24M18,23L19,23M18,24L19,24M19,23L20,23M20,23L21,23M21,23L21,24M27,23L28,23M27,23L27,24M28,23L29,23M29,24L30,24M30,23L30,24M19,25L20,25M19,24L19,25M20,25L21,25M21,24L22,24M22,24L23,24M23,24L24,24M24,24L25,24M25,24L26,24M26,24L27,24M27,25L28,25M28,25L29,25M29,24L29,25M21,26L22,26M21,25L21,26M22,26L23,26M23,26L24,26M24,26L25,26M25,26L26,26M26,26L27,26M27,25L27,26" stroke="currentColor" stroke-width="0.18" fill="none" opacity="0.40" shape-rendering="crispEdges"/><path d="M18,9L19,9M18,9L18,10M19,9L20,9M20,9L21,9M21,9L21,10M17,10L18,10M17,10L17,11M21,10L22,10M22,10L23,10M23,10L24,10M24,10L25,10M25,10L26,10M26,10L27,10M27,10L27,11M17,11L17,12M21,12L22,12M22,12L23,12M23,12L24,12M24,12L25,12M25,12L26,12M27,11L28,11M28,11L28,12M16,12L17,12M16,12L16,13M20,13L21,13M21,12L21,13M26,13L27,13M26,12L26,13M28,12L29,12M29,12L29,13M15,13L16,13M15,13L15,14M19,14L20,14M20,13L20,14M27,14L28,14M27,13L27,14M29,13L30,13M30,13L30,14M15,14L15,15M19,14L19,15M28,14L28,15M30,14L30,15M15,15L15,16M19,15L19,16M28,16L29,16M28,15L28,16M30,15L31,15M31,15L31,16M15,16L15,17M19,16L19,17M29,16L29,17M31,16L31,17M15,17L15,18M19,17L19,18M29,17L29,18M31,17L31,18M15,18L15,19M19,18L19,19M28,18L29,18M28,18L28,19M31,18L31,19M15,20L16,20M15,19L15,20M19,19L19,20M28,19L28,20M30,20L31,20M31,19L31,20M16,21L17,21M16,20L16,21M19,20L20,20M20,20L21,20M21,20L21,21M27,20L28,20M27,20L27,21M30,20L30,21M17,22L18,22M17,21L17,22M21,21L22,21M22,21L23,21M23,21L24,21M24,21L25,21M25,21L26,21M26,21L27,21M29,22L30,22M30,21L30,22M18,23L19,23M18,22L18,23M19,23L20,23M20,23L21,23M27,23L28,23M28,23L29,23M29,22L29,23M21,24L22,24M21,23L21,24M22,24L23,24M23,24L24,24M24,24L25,24M25,24L26,24M26,24L27,24M27,23L27,24" stroke="currentColor" stroke-width="0.18" fill="none" opacity="0.46" shape-rendering="crispEdges"/><path d="M21,12L22,12M21,12L21,13M22,12L23,12M23,12L24,12M24,12L25,12M25,12L26,12M26,12L26,13M20,13L21,13M20,13L20,14M26,13L27,13M27,13L27,14M19,14L20,14M19,14L19,15M27,14L28,14M28,14L28,15M19,15L19,16M28,15L28,16M19,16L19,17M28,16L29,16M29,16L29,17M19,17L19,18M28,18L29,18M29,17L29,18M19,18L19,19M28,18L28,19M19,20L20,20M19,19L19,20M20,20L21,20M27,20L28,20M28,19L28,20M21,21L22,21M21,20L21,21M22,21L23,21M23,21L24,21M24,21L25,21M25,21L26,21M26,21L27,21M27,20L27,21" stroke="currentColor" stroke-width="0.18" fill="none" opacity="0.52" shape-rendering="crispEdges"/><rect x="2.14" y="2.57" width="0.86" height="0.86" fill="currentColor" opacity="0.40"/><rect x="7.28" y="2.57" width="0.86" height="0.86" fill="currentColor" opacity="0.40"/><rect x="11.39" y="2.51" width="2.93" height="0.98" fill="currentColor" opacity="0.47"/><rect x="17.49" y="2.49" width="1.02" height="1.02" fill="currentColor" opacity="0.50"/><rect x="21.68" y="2.51" width="2.93" height="0.98" fill="currentColor" opacity="0.47"/><rect x="27.85" y="2.57" width="0.86" height="0.86" fill="currentColor" opacity="0.40"/><rect x="33.00" y="2.57" width="0.86" height="0.86" fill="currentColor" opacity="0.40"/><rect x="2.14" y="8.56" width="0.87" height="0.87" fill="currentColor" opacity="0.40"/><rect x="7.17" y="8.46" width="1.09" height="1.09" fill="currentColor" opacity="0.54"/><rect x="10.97" y="8.37" width="3.78" height="1.26" fill="currentColor" opacity="0.65"/><rect x="17.33" y="8.33" width="1.33" height="1.33" fill="currentColor" opacity="0.70"/><rect x="21.25" y="8.37" width="3.78" height="1.26" fill="currentColor" opacity="0.65"/><rect x="27.74" y="8.46" width="1.09" height="1.09" fill="currentColor" opacity="0.54"/><rect x="32.12" y="8.56" width="2.61" height="0.87" fill="currentColor" opacity="0.40"/><rect x="2.08" y="14.51" width="0.98" height="0.98" fill="currentColor" opacity="0.48"/><rect x="5.85" y="14.38" width="3.73" height="1.24" fill="currentColor" opacity="0.64"/><rect x="12.11" y="14.25" width="1.49" height="1.49" fill="currentColor" opacity="0.80"/><rect x="15.53" y="14.18" width="4.93" height="1.64" fill="currentColor" opacity="0.90"/><rect x="22.40" y="14.25" width="1.49" height="1.49" fill="currentColor" opacity="0.80"/><rect x="26.42" y="14.38" width="3.73" height="1.24" fill="currentColor" opacity="0.64"/><rect x="31.95" y="14.51" width="2.95" height="0.98" fill="currentColor" opacity="0.48"/><rect x="1.10" y="20.51" width="2.95" height="0.98" fill="currentColor" opacity="0.48"/><rect x="7.09" y="20.38" width="1.24" height="1.24" fill="currentColor" opacity="0.64"/><rect x="12.11" y="20.25" width="1.49" height="1.49" fill="currentColor" opacity="0.80"/><rect x="17.18" y="20.18" width="1.64" height="1.64" fill="currentColor" opacity="0.90"/><rect x="20.91" y="20.25" width="4.47" height="1.49" fill="currentColor" opacity="0.80"/><rect x="26.42" y="20.38" width="3.73" height="1.24" fill="currentColor" opacity="0.64"/><rect x="31.95" y="20.51" width="2.95" height="0.98" fill="currentColor" opacity="0.48"/><rect x="2.14" y="26.56" width="0.87" height="0.87" fill="currentColor" opacity="0.40"/><rect x="6.08" y="26.46" width="3.27" height="1.09" fill="currentColor" opacity="0.54"/><rect x="12.23" y="26.37" width="1.26" height="1.26" fill="currentColor" opacity="0.65"/><rect x="16.00" y="26.33" width="4.00" height="1.33" fill="currentColor" opacity="0.70"/><rect x="22.51" y="26.37" width="1.26" height="1.26" fill="currentColor" opacity="0.65"/><rect x="26.65" y="26.46" width="3.27" height="1.09" fill="currentColor" opacity="0.54"/><rect x="32.99" y="26.56" width="0.87" height="0.87" fill="currentColor" opacity="0.40"/><rect x="2.14" y="32.57" width="0.86" height="0.86" fill="currentColor" opacity="0.40"/></svg>