<svg xmlns="http://www.w3.org/2000/svg" viewBox="0 0 36 36" preserveAspectRatio="xMidYMid slice"><path d="M35,31L36,31M35,31L35,32M34,32L35,32M34,32L34,33M33,33L34,33M33,33L33,34M32,34L33,34M32,34L32,35M0,35L1,35M1,35L1,36M31,35L32,35M31,35L31,36" stroke="currentColor" stroke-width="0.18" fill="none" opacity="0.10" shape-rendering="crispEdges"/><path d="M0,1L1,1M1,0L1,1M32,1L33,1M32,0L32,1M33,1L34,1M34,2L35,2M34,1L34,2M35,3L36,3M35,2L35,3M35,27L36,27M35,27L35,28M0,28L1,28M1,28L1,29M35,28L35,29M1,29L1,30M34,29L35,29M34,29L34,30M1,30L2,30M2,30L2,31M33,30L34,30M33,30L33,31M35,31L36,31M2,31L3,31M3,31L3,32M32,31L33,31M32,31L32,32M34,32L35,32M35,31L35,32M3,32L4,32M4,32L4,33M31,32L32,32M31,32L31,33M33,33L34,33M34,32L34,33M4,33L5,33M5,33L5,34M30,33L31,33M30,33L30,34M32,34L33,34M33,33L33,34M0,35L1,35M5,34L6,34M6,34L7,34M7,34L8,34M8,34L9,34M9,34L9,35M29,34L30,34M29,34L29,35M31,35L32,35M32,34L32,35M1,35L1,36M9,35L10,35M10,35L11,35M11,35L12,35M12,35L13,35M13,35L14,35M14,35L15,35M15,35L15,36M27,35L28,35M27,35L27,36M28,35L29,35M31,35L31,36" stroke="currentColor" stroke-width="0.18" fill="none" opacity="0.12" shape-rendering="crispEdges"/><path d="M1,0L1,1M3,1L4,1M4,0L4,1M28,1L29,1M28,0L28,1M29,1L30,1M32,0L32,1M0,1L1,1M2,2L3,2M3,1L3,2M30,2L31,2M30,1L30,2M31,2L32,2M32,1L33,1M33,1L34,1M34,1L34,2M1,3L2,3M2,2L2,3M32,3L33,3M32,2L32,3M34,2L35,2M35,2L35,3M1,3L1,4M33,4L34,4M33,3L33,4M35,3L36,3M0,5L1,5M1,4L1,5M34,5L35,5M34,4L34,5M35,5L35,6M35,6L35,7M35,7L35,8M35,9L36,9M35,8L35,9M0,18L1,18M1,18L1,19M1,19L1,20M1,20L1,21M1,21L2,21M2,21L2,22M2,22L3,22M3,22L3,23M35,22L36,22M35,22L35,23M3,23L3,24M35,23L35,24M3,24L3,25M35,24L35,25M3,25L4,25M4,25L4,26M34,25L35,25M34,25L34,26M4,26L4,27M34,26L34,27M35,27L36,27M0,28L1,28M4,27L4,28M33,27L34,27M33,27L33,28M35,27L35,28M1,28L1,29M4,28L5,28M5,28L5,29M32,28L33,28M32,28L32,29M34,29L35,29M35,28L35,29M1,30L2,30M1,29L1,30M5,29L6,29M6,29L6,30M31,29L32,29M31,29L31,30M33,30L34,30M34,29L34,30M2,31L3,31M2,30L2,31M6,30L7,30M7,30L7,31M30,30L31,30M30,30L30,31M32,31L33,31M33,30L33,31M3,32L4,32M3,31L3,32M7,31L8,31M8,31L9,31M9,31L9,32M30,31L30,32M31,32L32,32M32,31L32,32M4,33L5,33M4,32L4,33M9,32L10,32M10,32L11,32M11,32L11,33M29,32L30,32M29,32L29,33M30,33L31,33M31,32L31,33M5,34L6,34M5,33L5,34M6,34L7,34M7,34L8,34M8,34L9,34M11,33L12,33M12,33L13,33M13,33L14,33M14,33L15,33M15,33L15,34M26,33L27,33M26,33L26,34M27,33L28,33M28,33L29,33M29,34L30,34M30,33L30,34M9,35L10,35M9,34L9,35M10,35L11,35M11,35L12,35M12,35L13,35M13,35L14,35M14,35L15,35M15,34L16,34M16,34L17,34M17,34L18,34M18,34L19,34M19,34L20,34M20,34L21,34M21,34L22,34M22,34L23,34M23,34L24,34M24,34L25,34M25,34L26,34M27,35L28,35M28,35L29,35M29,34L29,35M15,35L15,36M27,35L27,36" stroke="currentColor" stroke-width="0.18" fill="none" opacity="0.16" shape-rendering="crispEdges"/><path d="M4,0L4,1M6,1L7,1M7,0L7,1M25,1L26,1M25,0L25,1M26,1L27,1M28,0L28,1M3,1L4,1M3,1L3,2M4,2L5,2M5,2L6,2M6,1L6,2M27,2L28,2M27,1L27,2M28,1L29,1M29,1L30,1M30,1L30,2M2,2L3,2M2,2L2,3M3,3L4,3M4,2L4,3M28,3L29,3M28,2L28,3M29,3L30,3M30,2L31,2M31,2L32,2M32,2L32,3M1,3L2,3M1,3L1,4M3,3L3,4M30,4L31,4M30,3L30,4M32,3L33,3M33,3L33,4M1,4L1,5M2,5L3,5M3,4L3,5M31,5L32,5M31,4L31,5M33,4L34,4M34,4L34,5M0,5L1,5M2,5L2,6M32,6L33,6M32,5L32,6M34,5L35,5M35,5L35,6M2,6L2,7M33,6L33,7M35,6L35,7M2,7L2,8M33,7L33,8M35,7L35,8M2,8L2,9M33,9L34,9M33,8L33,9M35,8L35,9M2,9L2,10M34,9L34,10M35,9L36,9M2,10L2,11M34,10L34,11M2,11L2,12M34,11L34,12M2,12L2,13M34,12L34,13M2,13L2,14M34,13L34,14M2,14L2,15M34,14L34,15M2,15L2,16M34,15L34,16M2,16L2,17M34,16L34,17M0,18L1,18M2,17L3,17M3,17L3,18M34,17L34,18M1,18L1,19M3,18L3,19M34,18L34,19M1,19L1,20M3,19L3,20M34,19L34,20M1,21L2,21M1,20L1,21M3,20L4,20M4,20L4,21M34,20L34,21M2,22L3,22M2,21L2,22M4,21L5,21M5,21L5,22M33,21L34,21M33,21L33,22M35,22L36,22M3,22L3,23M5,22L5,23M33,22L33,23M35,22L35,23M3,23L3,24M5,23L6,23M6,23L6,24M33,23L33,24M35,23L35,24M3,25L4,25M3,24L3,25M6,24L6,25M33,24L33,25M34,25L35,25M35,24L35,25M4,25L4,26M6,25L7,25M7,25L7,26M32,25L33,25M32,25L32,26M34,25L34,26M4,26L4,27M7,26L7,27M31,26L32,26M31,26L31,27M33,27L34,27M34,26L34,27M4,28L5,28M4,27L4,28M7,27L8,27M8,27L8,28M30,27L31,27M30,27L30,28M32,28L33,28M33,27L33,28M5,29L6,29M5,28L5,29M8,28L9,28M9,28L10,28M10,28L10,29M29,28L30,28M29,28L29,29M31,29L32,29M32,28L32,29M6,30L7,30M6,29L6,30M10,29L11,29M11,29L12,29M12,29L12,30M28,29L29,29M28,29L28,30M30,30L31,30M31,29L31,30M7,31L8,31M7,30L7,31M8,31L9,31M12,30L13,30M13,30L13,31M27,30L28,30M27,30L27,31M30,30L30,31M9,32L10,32M9,31L9,32M10,32L11,32M13,31L14,31M14,31L15,31M15,31L15,32M25,31L26,31M25,31L25,32M26,31L27,31M29,32L30,32M30,31L30,32M11,33L12,33M11,32L11,33M12,33L13,33M13,33L14,33M14,33L15,33M15,32L16,32M16,32L17,32M17,32L18,32M18,32L19,32M19,32L20,32M20,32L21,32M21,32L22,32M22,32L23,32M23,32L24,32M24,32L25,32M26,33L27,33M27,33L28,33M28,33L29,33M29,32L29,33M15,34L16,34M15,33L15,34M16,34L17,34M17,34L18,34M18,34L19,34M19,34L20,34M20,34L21,34M21,34L22,34M22,34L23,34M23,34L24,34M24,34L25,34M25,34L26,34M26,33L26,34" stroke="currentColor" stroke-width="0.18" fill="none" opacity="0.20" shape-rendering="crispEdges"/><path d="M7,0L7,1M9,1L10,1M10,1L11,1M11,1L12,1M12,0L12,1M21,1L22,1M21,0L21,1M22,1L23,1M23,1L24,1M25,0L25,1M6,1L7,1M6,1L6,2M7,2L8,2M8,2L9,2M9,1L9,2M24,2L25,2M24,1L24,2M25,1L26,1M25,2L26,2M26,1L27,1M27,1L27,2M4,2L5,2M4,2L4,3M5,2L6,2M6,3L7,3M7,2L7,3M26,3L27,3M26,2L26,3M27,2L28,2M28,2L28,3M3,3L4,3M3,3L3,4M5,4L6,4M6,3L6,4M27,4L28,4M27,3L27,4M28,3L29,3M29,3L30,3M30,3L30,4M3,4L3,5M4,5L5,5M5,4L5,5M28,5L29,5M28,4L28,5M30,4L31,4M31,4L31,5M2,5L3,5M2,5L2,6M4,5L4,6M29,6L30,6M29,5L29,6M31,5L32,5M32,5L32,6M2,6L2,7M4,6L4,7M30,7L31,7M30,6L30,7M32,6L33,6M33,6L33,7M2,7L2,8M4,7L4,8M31,8L32,8M31,7L31,8M33,7L33,8M2,8L2,9M4,8L4,9M32,8L32,9M33,8L33,9M2,9L2,10M4,9L4,10M32,9L32,10M33,9L34,9M34,9L34,10M2,10L2,11M4,10L4,11M32,10L32,11M34,10L34,11M2,11L2,12M4,11L4,12M32,12L33,12M32,11L32,12M34,11L34,12M2,12L2,13M4,12L4,13M33,12L33,13M34,12L34,13M2,13L2,14M4,13L4,14M33,13L33,14M34,13L34,14M2,14L2,15M4,14L4,15M33,14L33,15M34,14L34,15M2,15L2,16M4,15L4,16M33,15L33,16M34,15L34,16M2,17L3,17M2,16L2,17M4,16L5,16M5,16L5,17M33,16L33,17M34,16L34,17M3,17L3,18M5,17L5,18M32,17L33,17M32,17L32,18M34,17L34,18M3,18L3,19M5,18L5,19M32,18L32,19M34,18L34,19M3,20L4,20M3,19L3,20M5,19L6,19M6,19L6,20M32,19L32,20M34,19L34,20M4,21L5,21M4,20L4,21M6,20L7,20M7,20L7,21M32,20L32,21M33,21L34,21M34,20L34,21M5,21L5,22M7,21L7,22M31,21L32,21M31,21L31,22M33,21L33,22M5,23L6,23M5,22L5,23M7,22L8,22M8,22L8,23M31,22L31,23M33,22L33,23M6,23L6,24M8,23L8,24M30,23L31,23M30,23L30,24M33,23L33,24M6,25L7,25M6,24L6,25M8,24L9,24M9,24L9,25M30,24L30,25M32,25L33,25M33,24L33,25M7,25L7,26M9,25L10,25M10,25L10,26M29,25L30,25M29,25L29,26M31,26L32,26M32,25L32,26M7,27L8,27M7,26L7,27M10,26L11,26M11,26L11,27M28,26L29,26M28,26L28,27M30,27L31,27M31,26L31,27M8,28L9,28M8,27L8,28M9,28L10,28M11,27L12,27M12,27L13,27M13,27L13,28M27,27L28,27M27,27L27,28M29,28L30,28M30,27L30,28M10,29L11,29M10,28L10,29M11,29L12,29M13,28L14,28M14,28L15,28M15,28L15,29M26,28L27,28M26,28L26,29M28,29L29,29M29,28L29,29M12,30L13,30M12,29L12,30M15,29L16,29M16,29L17,29M17,29L18,29M18,29L18,30M24,29L25,29M24,29L24,30M25,29L26,29M27,30L28,30M28,29L28,30M13,31L14,31M13,30L13,31M14,31L15,31M18,30L19,30M19,30L20,30M20,30L21,30M21,30L22,30M22,30L23,30M23,30L24,30M25,31L26,31M26,31L27,31M27,30L27,31M15,32L16,32M15,31L15,32M16,32L17,32M17,32L18,32M18,32L19,32M19,32L20,32M20,32L21,32M21,32L22,32M22,32L23,32M23,32L24,32M24,32L25,32M25,31L25,32" stroke="currentColor" stroke-width="0.18" fill="none" opacity="0.25" shape-rendering="crispEdges"/><path d="M12,0L12,1M15,1L16,1M16,1L17,1M21,0L21,1M9,1L10,1M9,1L9,2M10,1L11,1M11,1L12,1M11,2L12,2M12,2L13,2M13,2L14,2M14,2L15,2M15,1L15,2M17,2L18,2M17,1L17,2M18,2L19,2M19,2L20,2M20,2L21,2M21,1L22,1M21,2L22,2M22,1L23,1M22,2L23,2M23,1L24,1M24,1L24,2M7,2L8,2M7,2L7,3M8,2L9,2M9,3L10,3M10,3L11,3M11,2L11,3M23,3L24,3M23,2L23,3M24,2L25,2M24,3L25,3M25,2L26,2M26,2L26,3M6,3L7,3M6,3L6,4M8,4L9,4M9,3L9,4M25,4L26,4M25,3L25,4M26,3L27,3M27,3L27,4M5,4L6,4M5,4L5,5M7,5L8,5M8,4L8,5M26,5L27,5M26,4L26,5M27,4L28,4M28,4L28,5M4,5L5,5M4,5L4,6M6,6L7,6M7,5L7,6M27,6L28,6M27,5L27,6M28,5L29,5M29,5L29,6M4,6L4,7M6,6L6,7M28,7L29,7M28,6L28,7M29,6L30,6M30,6L30,7M4,7L4,8M6,7L6,8M29,8L30,8M29,7L29,8M30,7L31,7M31,7L31,8M4,8L4,9M6,8L6,9M30,8L30,9M31,8L32,8M32,8L32,9M4,9L4,10M6,9L6,10M30,10L31,10M30,9L30,10M32,9L32,10M4,10L4,11M6,10L6,11M31,10L31,11M32,10L32,11M4,11L4,12M6,11L6,12M31,11L31,12M32,11L32,12M4,12L4,13M6,12L6,13M31,12L31,13M32,12L33,12M33,12L33,13M4,13L4,14M6,13L6,14M31,13L31,14M33,13L33,14M4,14L4,15M6,14L6,15M31,14L31,15M33,14L33,15M4,16L5,16M4,15L4,16M6,15L7,15M7,15L7,16M31,15L31,16M33,15L33,16M5,16L5,17M7,16L7,17M31,16L31,17M32,17L33,17M33,16L33,17M5,17L5,18M7,17L7,18M31,17L31,18M32,17L32,18M5,19L6,19M5,18L5,19M7,18L8,18M8,18L8,19M31,18L31,19M32,18L32,19M6,20L7,20M6,19L6,20M8,19L8,20M30,19L31,19M30,19L30,20M32,19L32,20M7,20L7,21M8,20L9,20M9,20L9,21M30,20L30,21M31,21L32,21M32,20L32,21M7,22L8,22M7,21L7,22M9,21L10,21M10,21L10,22M29,21L30,21M29,21L29,22M31,21L31,22M8,22L8,23M10,22L11,22M11,22L11,23M29,22L29,23M30,23L31,23M31,22L31,23M8,24L9,24M8,23L8,24M11,23L11,24M28,23L29,23M28,23L28,24M30,23L30,24M9,25L10,25M9,24L9,25M11,24L12,24M12,24L12,25M27,24L28,24M27,24L27,25M29,25L30,25M30,24L30,25M10,26L11,26M10,25L10,26M12,25L13,25M13,25L14,25M14,25L14,26M26,25L27,25M26,25L26,26M28,26L29,26M29,25L29,26M11,27L12,27M11,26L11,27M12,27L13,27M14,26L15,26M15,26L16,26M16,26L17,26M17,26L17,27M26,26L26,27M27,27L28,27M28,26L28,27M13,28L14,28M13,27L13,28M14,28L15,28M17,27L18,27M18,27L19,27M19,27L20,27M20,27L20,28M24,27L25,27M24,27L24,28M25,27L26,27M26,28L27,28M27,27L27,28M15,29L16,29M15,28L15,29M16,29L17,29M17,29L18,29M20,28L21,28M21,28L22,28M22,28L23,28M23,28L24,28M24,29L25,29M25,29L26,29M26,28L26,29M18,30L19,30M18,29L18,30M19,30L20,30M20,30L21,30M21,30L22,30M22,30L23,30M23,30L24,30M24,29L24,30" stroke="currentColor" stroke-width="0.18" fill="none" opacity="0.30" shape-rendering="crispEdges"/><path d="M15,1L16,1M15,1L15,2M16,1L17,1M17,1L17,2M11,2L12,2M11,2L11,3M12,2L13,2M13,2L14,2M13,3L14,3M14,2L15,2M14,3L15,3M15,3L16,3M16,3L17,3M17,2L18,2M17,3L18,3M18,2L19,2M18,3L19,3M19,2L20,2M19,3L20,3M20,2L21,2M20,3L21,3M21,2L22,2M21,3L22,3M22,2L23,2M23,2L23,3M9,3L10,3M9,3L9,4M10,3L11,3M11,4L12,4M12,4L13,4M13,3L13,4M22,4L23,4M22,3L22,4M23,3L24,3M23,4L24,4M24,3L25,3M25,3L25,4M8,4L9,4M8,4L8,5M9,5L10,5M10,5L11,5M11,4L11,5M24,5L25,5M24,4L24,5M25,4L26,4M26,4L26,5M7,5L8,5M7,5L7,6M9,5L9,6M25,6L26,6M25,5L25,6M26,5L27,5M27,5L27,6M6,6L7,6M6,6L6,7M8,7L9,7M9,6L9,7M26,7L27,7M26,6L26,7M27,6L28,6M28,6L28,7M6,7L6,8M8,7L8,8M27,8L28,8M27,7L27,8M28,7L29,7M29,7L29,8M6,8L6,9M8,8L8,9M28,8L28,9M29,8L30,8M30,8L30,9M6,9L6,10M8,9L8,10M28,10L29,10M28,9L28,10M30,9L30,10M6,10L6,11M8,10L8,11M29,10L29,11M30,10L31,10M31,10L31,11M6,11L6,12M8,11L8,12M29,11L29,12M31,11L31,12M6,12L6,13M8,12L8,13M29,12L29,13M31,12L31,13M6,13L6,14M8,13L8,14M29,13L29,14M31,13L31,14M6,15L7,15M6,14L6,15M8,14L8,15M29,14L29,15M31,14L31,15M7,15L7,16M8,15L9,15M9,15L9,16M29,15L29,16M31,15L31,16M7,16L7,17M9,16L9,17M29,16L29,17M31,16L31,17M7,18L8,18M7,17L7,18M9,17L9,18M29,17L29,18M31,17L31,18M8,18L8,19M9,18L10,18M10,18L10,19M29,18L29,19M30,19L31,19M31,18L31,19M8,20L9,20M8,19L8,20M10,19L11,19M11,19L11,20M28,19L29,19M28,19L28,20M30,19L30,20M9,21L10,21M9,20L9,21M11,20L12,20M12,20L12,21M28,20L28,21M29,21L30,21M30,20L30,21M10,22L11,22M10,21L10,22M12,21L13,21M13,21L13,22M27,21L28,21M27,21L27,22M29,21L29,22M11,22L11,23M13,22L14,22M14,22L14,23M26,22L27,22M26,22L26,23M28,23L29,23M29,22L29,23M11,24L12,24M11,23L11,24M14,23L15,23M15,23L16,23M16,23L16,24M26,23L26,24M27,24L28,24M28,23L28,24M12,25L13,25M12,24L12,25M13,25L14,25M16,24L17,24M17,24L18,24M18,24L19,24M19,24L19,25M25,24L26,24M25,24L25,25M26,25L27,25M27,24L27,25M14,26L15,26M14,25L14,26M15,26L16,26M16,26L17,26M19,25L20,25M20,25L21,25M21,25L21,26M24,25L25,25M24,25L24,26M26,25L26,26M17,27L18,27M17,26L17,27M18,27L19,27M19,27L20,27M21,26L22,26M22,26L23,26M23,26L24,26M24,27L25,27M25,27L26,27M26,26L26,27M20,28L21,28M20,27L20,28M21,28L22,28M22,28L23,28M23,28L24,28M24,27L24,28" stroke="currentColor" stroke-width="0.18" fill="none" opacity="0.35" shape-rendering="crispEdges"/><path d="M13,3L14,3M13,3L13,4M14,3L15,3M15,3L16,3M16,3L17,3M17,3L18,3M18,3L19,3M19,3L20,3M20,3L21,3M21,3L22,3M22,3L22,4M11,4L12,4M11,4L11,5M12,4L13,4M13,5L14,5M14,5L15,5M15,5L16,5M16,5L17,5M17,5L18,5M18,5L19,5M19,5L20,5M20,5L21,5M21,5L22,5M22,4L23,4M23,4L24,4M24,4L24,5M9,5L10,5M9,5L9,6M10,5L11,5M11,6L12,6M12,6L13,6M13,5L13,6M22,6L23,6M22,5L22,6M24,5L25,5M25,5L25,6M9,6L9,7M10,7L11,7M11,6L11,7M23,7L24,7M23,6L23,7M25,6L26,6M26,6L26,7M8,7L9,7M8,7L8,8M10,7L10,8M24,8L25,8M24,7L24,8M26,7L27,7M27,7L27,8M8,8L8,9M10,8L10,9M25,9L26,9M25,8L25,9M27,8L28,8M28,8L28,9M8,9L8,10M9,10L10,10M10,9L10,10M26,9L26,10M28,9L28,10M8,10L8,11M9,10L9,11M26,11L27,11M26,10L26,11M28,10L29,10M29,10L29,11M8,11L8,12M9,11L10,11M10,11L10,12M27,11L27,12M29,11L29,12M8,12L8,13M10,12L10,13M27,12L27,13M29,12L29,13M8,13L8,14M10,13L10,14M27,13L27,14M29,13L29,14M8,15L9,15M8,14L8,15M10,14L10,15M27,14L27,15M29,14L29,15M9,15L9,16M10,15L11,15M11,15L11,16M27,15L27,16M29,15L29,16M9,16L9,17M11,16L11,17M27,16L27,17M29,16L29,17M9,18L10,18M9,17L9,18M11,17L11,18M27,17L27,18M29,17L29,18M10,19L11,19M10,18L10,19M11,18L12,18M12,18L12,19M27,18L27,19M28,19L29,19M29,18L29,19M11,20L12,20M11,19L11,20M12,19L13,19M13,19L14,19M14,19L14,20M26,19L27,19M26,19L26,20M28,19L28,20M12,21L13,21M12,20L12,21M14,20L15,20M15,20L16,20M16,20L16,21M25,20L26,20M25,20L25,21M27,21L28,21M28,20L28,21M13,22L14,22M13,21L13,22M16,21L17,21M17,21L18,21M18,21L19,21M19,21L19,22M24,21L25,21M24,21L24,22M26,22L27,22M27,21L27,22M14,23L15,23M14,22L14,23M15,23L16,23M19,22L20,22M20,22L21,22M21,22L21,23M23,22L24,22M23,22L23,23M26,22L26,23M16,24L17,24M16,23L16,24M17,24L18,24M18,24L19,24M21,23L22,23M22,23L23,23M25,24L26,24M26,23L26,24M19,25L20,25M19,24L19,25M20,25L21,25M24,25L25,25M25,24L25,25M21,26L22,26M21,25L21,26M22,26L23,26M23,26L24,26M24,25L24,26" stroke="currentColor" stroke-width="0.18" fill="none" opacity="0.40" shape-rendering="crispEdges"/><path d="M13,5L14,5M13,5L13,6M14,5L15,5M15,5L16,5M16,5L17,5M17,5L18,5M18,5L19,5M19,5L20,5M20,5L21,5M21,5L22,5M22,5L22,6M11,6L12,6M11,6L11,7M12,6L13,6M13,7L14,7M14,7L15,7M15,7L16,7M16,7L17,7M17,7L18,7M18,7L19,7M19,7L20,7M22,6L23,6M23,6L23,7M10,7L11,7M10,7L10,8M12,8L13,8M13,7L13,8M20,8L21,8M20,7L20,8M23,7L24,7M24,7L24,8M10,8L10,9M11,9L12,9M12,8L12,9M21,9L22,9M21,8L21,9M24,8L25,8M25,8L25,9M10,9L10,10M11,9L11,10M22,10L23,10M22,9L22,10M25,9L26,9M26,9L26,10M9,10L10,10M9,11L10,11M9,10L9,11M11,10L11,11M23,10L23,11M26,10L26,11M10,11L10,12M11,11L11,12M23,12L24,12M23,11L23,12M26,11L27,11M27,11L27,12M10,12L10,13M11,12L12,12M12,12L12,13M24,12L24,13M27,12L27,13M10,13L10,14M12,13L12,14M24,13L24,14M27,13L27,14M10,15L11,15M10,14L10,15M12,14L13,14M13,14L13,15M24,15L25,15M24,14L24,15M27,14L27,15M11,15L11,16M13,15L13,16M25,15L25,16M27,15L27,16M11,16L11,17M13,16L14,16M14,16L14,17M25,16L25,17M27,16L27,17M11,18L12,18M11,17L11,18M14,17L15,17M15,17L16,17M16,17L16,18M25,17L25,18M27,17L27,18M12,19L13,19M12,18L12,19M13,19L14,19M16,18L17,18M17,18L18,18M18,18L19,18M19,18L19,19M24,18L25,18M24,18L24,19M26,19L27,19M27,18L27,19M14,20L15,20M14,19L14,20M15,20L16,20M19,19L20,19M20,19L21,19M21,19L21,20M23,19L24,19M23,19L23,20M25,20L26,20M26,19L26,20M16,21L17,21M16,20L16,21M17,21L18,21M18,21L19,21M21,20L22,20M22,20L23,20M24,21L25,21M25,20L25,21M19,22L20,22M19,21L19,22M20,22L21,22M23,22L24,22M24,21L24,22M21,23L22,23M21,22L21,23M22,23L23,23M23,22L23,23" stroke="currentColor" stroke-width="0.18" fill="none" opacity="0.46" shape-rendering="crispEdges"/><path d="M13,7L14,7M13,7L13,8M14,7L15,7M15,7L16,7M16,7L17,7M17,7L18,7M18,7L19,7M19,7L20,7M20,7L20,8M12,8L13,8M12,8L12,9M20,8L21,8M21,8L21,9M11,9L12,9M11,9L11,10M21,9L22,9M22,9L22,10M11,10L11,11M22,10L23,10M23,10L23,11M11,12L12,12M11,11L11,12M23,11L23,12M12,12L12,13M23,12L24,12M24,12L24,13M12,14L13,14M12,13L12,14M24,13L24,14M13,14L13,15M24,14L24,15M13,16L14,16M13,15L13,16M24,15L25,15M25,15L25,16M14,17L15,17M14,16L14,17M15,17L16,17M25,16L25,17M16,18L17,18M16,17L16,18M17,18L18,18M18,18L19,18M24,18L25,18M25,17L25,18M19,19L20,19M19,18L19,19M20,19L21,19M23,19L24,19M24,18L24,19M21,20L22,20M21,19L21,20M22,20L23,20M23,19L23,20" stroke="currentColor" stroke-width="0.18" fill="none" opacity="0.52" shape-rendering="crispEdges"/><rect x="2.05" y="3.08" width="1.04" height="1.04" fill="currentColor" opacity="0.40"/><rect x="6.13" y="3.07" width="3.17" height="1.06" fill="currentColor" opacity="0.41"/><rect x="11.05" y="3.00" width="3.62" height="1.21" fill="currentColor" opacity="0.49"/><rect x="16.11" y="2.97" width="3.78" height="1.26" fill="currentColor" opacity="0.52"/><rect x="22.54" y="3.00" width="1.21" height="1.21" fill="currentColor" opacity="0.49"/><rect x="26.70" y="3.07" width="3.17" height="1.06" fill="currentColor" opacity="0.41"/><rect x="32.91" y="3.08" width="1.04" height="1.04" fill="currentColor" opacity="0.40"/><rect x="0.93" y="10.25" width="3.29" height="1.10" fill="currentColor" opacity="0.43"/><rect x="5.65" y="10.11" width="4.13" height="1.38" fill="currentColor" opacity="0.58"/><rect x="12.05" y="10.00" width="1.61" height="1.61" fill="currentColor" opacity="0.71"/><rect x="15.43" y="9.94" width="5.13" height="1.71" fill="currentColor" opacity="0.76"/><rect x="20.73" y="10.00" width="4.82" height="1.61" fill="currentColor" opacity="0.71"/><rect x="27.60" y="10.11" width="1.38" height="1.38" fill="currentColor" opacity="0.58"/><rect x="31.78" y="10.25" width="3.29" height="1.10" fill="currentColor" opacity="0.43"/><rect x="1.97" y="17.40" width="1.20" height="1.20" fill="currentColor" opacity="0.49"/><rect x="6.96" y="17.24" width="1.52" height="1.52" fill="currentColor" opacity="0.66"/><rect x="11.94" y="17.08" width="1.84" height="1.84" fill="currentColor" opacity="0.83"/><rect x="14.76" y="16.92" width="6.48" height="2.16" fill="currentColor" opacity="1.00"/><rect x="22.22" y="17.08" width="1.84" height="1.84" fill="currentColor" opacity="0.83"/><rect x="27.53" y="17.24" width="1.52" height="1.52" fill="currentColor" opacity="0.66"/><rect x="31.63" y="17.40" width="3.59" height="1.20" fill="currentColor" opacity="0.49"/><rect x="0.93" y="24.65" width="3.29" height="1.10" fill="currentColor" opacity="0.43"/><rect x="7.03" y="24.51" width="1.38" height="1.38" fill="currentColor" opacity="0.58"/><rect x="12.05" y="24.40" width="1.61" height="1.61" fill="currentColor" opacity="0.71"/><rect x="15.43" y="24.34" width="5.13" height="1.71" fill="currentColor" opacity="0.76"/><rect x="22.34" y="24.40" width="1.61" height="1.61" fill="currentColor" opacity="0.71"/><rect x="26.22" y="24.51" width="4.13" height="1.38" fill="currentColor" opacity="0.58"/><rect x="32.88" y="24.65" width="1.10" height="1.10" fill="currentColor" opacity="0.43"/><rect x="1.02" y="31.88" width="3.11" height="1.04" fill="currentColor" opacity="0.40"/><rect x="7.19" y="31.87" width="1.06" height="1.06" fill="currentColor" opacity="0.41"/><rect x="12.25" y="31.80" width="1.21" height="1.21" fill="currentColor" opacity="0.49"/><rect x="17.37" y="31.77" width="1.26" height="1.26" fill="currentColor" opacity="0.52"/><rect x="21.33" y="31.80" width="3.62" height="1.21" fill="currentColor" opacity="0.49"/><rect x="27.76" y="31.87" width="1.06" height="1.06" fill="currentColor" opacity="0.41"/></svg>