<svg xmlns="http://www.w3.org/2000/svg" viewBox="0 0 36 36" preserveAspectRatio="xMidYMid slice"><path d="M0,31L1,31M1,31L1,32M1,32L1,33M1,33L2,33M2,33L2,34M2,34L3,34M3,34L3,35M3,35L4,35M4,35L5,35M5,35L5,36" stroke="currentColor" stroke-width="0.18" fill="none" opacity="0.10" shape-rendering="crispEdges"/><path d="M2,1L3,1M3,0L3,1M32,1L33,1M32,0L32,1M33,1L34,1M1,2L2,2M2,1L2,2M34,2L35,2M34,1L34,2M1,2L1,3M35,2L35,3M0,4L1,4M1,3L1,4M35,4L36,4M35,3L35,4M0,27L1,27M1,27L1,28M1,28L1,29M1,29L2,29M2,29L2,30M0,31L1,31M2,30L2,31M35,30L36,30M35,30L35,31M1,31L1,32M2,31L3,31M3,31L3,32M35,31L35,32M1,33L2,33M1,32L1,33M3,32L4,32M4,32L4,33M35,32L35,33M2,34L3,34M2,33L2,34M4,33L5,33M5,33L5,34M34,33L35,33M34,33L34,34M3,35L4,35M3,34L3,35M4,35L5,35M5,34L6,34M6,34L7,34M7,34L7,35M33,34L34,34M33,34L33,35M5,35L5,36M7,35L8,35M8,35L9,35M9,35L9,36M33,35L33,36" stroke="currentColor" stroke-width="0.18" fill="none" opacity="0.12" shape-rendering="crispEdges"/><path d="M3,0L3,1M6,1L7,1M7,0L7,1M27,1L28,1M27,0L27,1M28,1L29,1M32,0L32,1M2,1L3,1M2,1L2,2M4,2L5,2M5,2L6,2M6,1L6,2M29,2L30,2M29,1L29,2M30,2L31,2M32,1L33,1M33,1L34,1M34,1L34,2M1,2L2,2M1,2L1,3M4,2L4,3M31,3L32,3M31,2L31,3M34,2L35,2M35,2L35,3M1,3L1,4M3,4L4,4M4,3L4,4M32,4L33,4M32,3L32,4M35,3L35,4M0,4L1,4M2,5L3,5M3,4L3,5M33,4L33,5M35,4L36,4M2,5L2,6M33,6L34,6M33,5L33,6M1,7L2,7M2,6L2,7M34,6L34,7M1,7L1,8M34,7L34,8M1,8L1,9M34,8L34,9M1,9L1,10M34,9L34,10M1,10L1,11M34,10L34,11M1,11L1,12M34,11L34,12M1,12L1,13M34,12L34,13M0,14L1,14M1,13L1,14M34,13L34,14M34,14L34,15M34,15L34,16M34,16L34,17M34,17L34,18M34,18L34,19M34,19L34,20M0,20L1,20M1,20L1,21M34,20L34,21M1,21L1,22M34,21L34,22M1,22L1,23M34,22L34,23M1,23L1,24M34,23L34,24M1,24L1,25M34,24L34,25M1,25L2,25M2,25L2,26M34,25L34,26M0,27L1,27M2,26L2,27M34,26L34,27M1,27L1,28M2,27L3,27M3,27L3,28M34,27L34,28M1,29L2,29M1,28L1,29M3,28L3,29M34,28L34,29M2,29L2,30M3,29L4,29M4,29L4,30M34,29L34,30M35,30L36,30M2,31L3,31M2,30L2,31M4,30L5,30M5,30L5,31M33,30L34,30M33,30L33,31M35,30L35,31M3,32L4,32M3,31L3,32M5,31L6,31M6,31L6,32M33,31L33,32M35,31L35,32M4,33L5,33M4,32L4,33M6,32L7,32M7,32L7,33M32,32L33,32M32,32L32,33M34,33L35,33M35,32L35,33M5,34L6,34M5,33L5,34M6,34L7,34M7,33L8,33M8,33L9,33M9,33L9,34M31,33L32,33M31,33L31,34M33,34L34,34M34,33L34,34M7,35L8,35M7,34L7,35M8,35L9,35M9,34L10,34M10,34L11,34M11,34L11,35M30,34L31,34M30,34L30,35M33,34L33,35M9,35L9,36M11,35L12,35M12,35L13,35M13,35L13,36M28,35L29,35M28,35L28,36M29,35L30,35M33,35L33,36" stroke="currentColor" stroke-width="0.18" fill="none" opacity="0.16" shape-rendering="crispEdges"/><path d="M7,0L7,1M9,1L10,1M10,1L11,1M11,1L12,1M12,0L12,1M19,1L20,1M19,0L19,1M20,1L21,1M21,1L22,1M22,1L23,1M23,1L24,1M24,1L25,1M27,0L27,1M6,1L7,1M6,1L6,2M7,2L8,2M8,2L9,2M9,1L9,2M25,2L26,2M25,1L25,2M26,2L27,2M27,1L28,1M28,1L29,1M29,1L29,2M4,2L5,2M4,2L4,3M5,2L6,2M6,3L7,3M7,2L7,3M27,3L28,3M27,2L27,3M29,2L30,2M30,2L31,2M31,2L31,3M4,3L4,4M5,4L6,4M6,3L6,4M28,4L29,4M28,3L28,4M31,3L32,3M32,3L32,4M3,4L4,4M3,4L3,5M4,5L5,5M5,4L5,5M29,5L30,5M29,4L29,5M32,4L33,4M33,4L33,5M2,5L3,5M2,5L2,6M4,5L4,6M30,6L31,6M30,5L30,6M33,5L33,6M2,6L2,7M3,7L4,7M4,6L4,7M31,6L31,7M33,6L34,6M34,6L34,7M1,7L2,7M1,7L1,8M3,7L3,8M31,7L31,8M34,7L34,8M1,8L1,9M3,8L3,9M31,8L31,9M34,8L34,9M1,9L1,10M2,10L3,10M3,9L3,10M31,10L32,10M31,9L31,10M34,9L34,10M1,10L1,11M2,10L2,11M32,10L32,11M34,10L34,11M1,11L1,12M2,11L2,12M32,11L32,12M34,11L34,12M1,12L1,13M2,12L2,13M32,12L32,13M34,12L34,13M1,13L1,14M2,13L2,14M32,13L32,14M34,13L34,14M0,14L1,14M2,14L2,15M32,14L32,15M34,14L34,15M2,15L2,16M32,15L32,16M34,15L34,16M2,16L2,17M32,16L32,17M34,16L34,17M2,17L2,18M32,17L32,18M34,17L34,18M2,18L2,19M32,18L32,19M34,18L34,19M0,20L1,20M2,19L2,20M32,19L32,20M34,19L34,20M1,20L1,21M2,20L2,21M32,20L32,21M34,20L34,21M1,21L1,22M2,21L2,22M32,21L32,22M34,21L34,22M1,22L1,23M2,22L2,23M32,22L32,23M34,22L34,23M1,23L1,24M2,23L3,23M3,23L3,24M32,23L32,24M34,23L34,24M1,25L2,25M1,24L1,25M3,24L3,25M32,24L32,25M34,24L34,25M2,25L2,26M3,25L4,25M4,25L4,26M32,25L32,26M34,25L34,26M2,27L3,27M2,26L2,27M4,26L4,27M32,26L32,27M34,26L34,27M3,27L3,28M4,27L5,27M5,27L5,28M32,27L32,28M34,27L34,28M3,29L4,29M3,28L3,29M5,28L6,28M6,28L6,29M32,28L32,29M34,28L34,29M4,30L5,30M4,29L4,30M6,29L7,29M7,29L7,30M31,29L32,29M31,29L31,30M33,30L34,30M34,29L34,30M5,31L6,31M5,30L5,31M7,30L8,30M8,30L8,31M31,30L31,31M33,30L33,31M6,32L7,32M6,31L6,32M8,31L9,31M9,31L9,32M30,31L31,31M30,31L30,32M32,32L33,32M33,31L33,32M7,33L8,33M7,32L7,33M8,33L9,33M9,32L10,32M10,32L10,33M29,32L30,32M29,32L29,33M31,33L32,33M32,32L32,33M9,34L10,34M9,33L9,34M10,33L11,33M10,34L11,34M11,33L12,33M12,33L12,34M28,33L29,33M28,33L28,34M30,34L31,34M31,33L31,34M11,35L12,35M11,34L11,35M12,34L13,34M12,35L13,35M13,34L14,34M14,34L15,34M15,34L16,34M16,34L17,34M17,34L17,35M26,34L27,34M26,34L26,35M27,34L28,34M28,35L29,35M29,35L30,35M30,34L30,35M13,35L13,36M17,35L18,35M18,35L19,35M19,35L20,35M20,35L21,35M21,35L22,35M22,35L23,35M23,35L24,35M24,35L25,35M25,35L26,35M28,35L28,36" stroke="currentColor" stroke-width="0.18" fill="none" opacity="0.20" shape-rendering="crispEdges"/><path d="M12,0L12,1M19,0L19,1M9,1L10,1M9,1L9,2M10,1L11,1M11,1L12,1M11,2L12,2M12,2L13,2M13,2L14,2M14,2L15,2M15,2L16,2M16,2L17,2M17,2L18,2M18,2L19,2M19,1L20,1M19,2L20,2M20,1L21,1M20,2L21,2M21,1L22,1M21,2L22,2M22,1L23,1M22,2L23,2M23,1L24,1M24,1L25,1M25,1L25,2M7,2L8,2M7,2L7,3M8,2L9,2M9,3L10,3M10,3L11,3M11,2L11,3M23,3L24,3M23,2L23,3M24,3L25,3M25,2L26,2M26,2L27,2M27,2L27,3M6,3L7,3M6,3L6,4M8,4L9,4M9,3L9,4M25,4L26,4M25,3L25,4M27,3L28,3M28,3L28,4M5,4L6,4M5,4L5,5M7,5L8,5M8,4L8,5M26,5L27,5M26,4L26,5M28,4L29,4M29,4L29,5M4,5L5,5M4,5L4,6M6,6L7,6M7,5L7,6M27,6L28,6M27,5L27,6M29,5L30,5M30,5L30,6M4,6L4,7M5,7L6,7M6,6L6,7M28,6L28,7M30,6L31,6M31,6L31,7M3,7L4,7M3,7L3,8M5,7L5,8M28,8L29,8M28,7L28,8M31,7L31,8M3,8L3,9M4,9L5,9M5,8L5,9M29,8L29,9M31,8L31,9M3,9L3,10M4,9L4,10M29,9L29,10M31,9L31,10M2,10L3,10M2,10L2,11M4,10L4,11M29,11L30,11M29,10L29,11M31,10L32,10M32,10L32,11M2,11L2,12M4,11L4,12M30,11L30,12M32,11L32,12M2,12L2,13M4,12L4,13M30,12L30,13M32,12L32,13M2,13L2,14M3,14L4,14M4,13L4,14M30,13L30,14M32,13L32,14M2,14L2,15M3,14L3,15M30,14L30,15M32,14L32,15M2,15L2,16M3,15L3,16M30,15L30,16M32,15L32,16M2,16L2,17M3,16L3,17M30,16L30,17M32,16L32,17M2,17L2,18M3,17L3,18M30,17L30,18M32,17L32,18M2,18L2,19M3,18L3,19M29,18L30,18M29,18L29,19M32,18L32,19M2,19L2,20M3,19L3,20M29,19L29,20M32,19L32,20M2,20L2,21M3,20L4,20M4,20L4,21M29,20L29,21M32,20L32,21M2,21L2,22M4,21L4,22M29,21L29,22M32,21L32,22M2,23L3,23M2,22L2,23M4,22L4,23M29,22L29,23M32,22L32,23M3,23L3,24M4,23L4,24M29,24L30,24M29,23L29,24M32,23L32,24M3,25L4,25M3,24L3,25M4,24L5,24M5,24L5,25M30,24L30,25M32,24L32,25M4,25L4,26M5,25L6,25M6,25L6,26M30,25L30,26M32,25L32,26M4,27L5,27M4,26L4,27M6,26L6,27M30,26L30,27M32,26L32,27M5,28L6,28M5,27L5,28M6,27L7,27M7,27L7,28M30,27L30,28M32,27L32,28M6,29L7,29M6,28L6,29M7,28L8,28M8,28L8,29M29,28L30,28M29,28L29,29M31,29L32,29M32,28L32,29M7,30L8,30M7,29L7,30M8,29L9,29M9,29L9,30M29,29L29,30M31,29L31,30M8,31L9,31M8,30L8,31M9,30L10,30M10,30L10,31M28,30L29,30M28,30L28,31M30,31L31,31M31,30L31,31M9,32L10,32M9,31L9,32M10,31L11,31M11,31L11,32M27,31L28,31M27,31L27,32M29,32L30,32M30,31L30,32M10,33L11,33M10,32L10,33M11,32L12,32M11,33L12,33M12,32L13,32M13,32L14,32M14,32L14,33M26,32L27,32M26,32L26,33M28,33L29,33M29,32L29,33M12,34L13,34M12,33L12,34M13,34L14,34M14,33L15,33M14,34L15,34M15,33L16,33M15,34L16,34M16,33L17,33M16,34L17,34M17,33L18,33M18,33L19,33M19,33L20,33M20,33L21,33M21,33L21,34M23,33L24,33M23,33L23,34M24,33L25,33M25,33L26,33M26,34L27,34M27,34L28,34M28,33L28,34M17,35L18,35M17,34L17,35M18,35L19,35M19,35L20,35M20,35L21,35M21,34L22,34M21,35L22,35M22,34L23,34M22,35L23,35M23,35L24,35M24,35L25,35M25,35L26,35M26,34L26,35" stroke="currentColor" stroke-width="0.18" fill="none" opacity="0.25" shape-rendering="crispEdges"/><path d="M11,2L12,2M11,2L11,3M12,2L13,2M13,2L14,2M13,3L14,3M14,2L15,2M14,3L15,3M15,2L16,2M15,3L16,3M16,2L17,2M17,2L18,2M18,2L19,2M19,2L20,2M20,2L21,2M21,2L22,2M22,2L23,2M23,2L23,3M9,3L10,3M9,3L9,4M10,3L11,3M11,4L12,4M12,4L13,4M13,3L13,4M16,4L17,4M16,3L16,4M17,4L18,4M18,4L19,4M19,4L20,4M20,4L21,4M21,4L22,4M22,4L23,4M23,3L24,3M24,3L25,3M25,3L25,4M8,4L9,4M8,4L8,5M9,5L10,5M10,5L11,5M11,4L11,5M23,5L24,5M23,4L23,5M25,4L26,4M26,4L26,5M7,5L8,5M7,5L7,6M8,6L9,6M9,5L9,6M24,6L25,6M24,5L24,6M26,5L27,5M27,5L27,6M6,6L7,6M6,6L6,7M7,7L8,7M8,6L8,7M25,7L26,7M25,6L25,7M27,6L28,6M28,6L28,7M5,7L6,7M5,7L5,8M6,8L7,8M7,7L7,8M26,7L26,8M28,7L28,8M5,8L5,9M6,8L6,9M26,9L27,9M26,8L26,9M28,8L29,8M29,8L29,9M4,9L5,9M4,9L4,10M6,9L6,10M27,9L27,10M29,9L29,10M4,10L4,11M6,10L6,11M27,11L28,11M27,10L27,11M29,10L29,11M4,11L4,12M5,12L6,12M6,11L6,12M28,11L28,12M29,11L30,11M30,11L30,12M4,12L4,13M5,12L5,13M28,12L28,13M30,12L30,13M4,13L4,14M5,13L5,14M28,13L28,14M30,13L30,14M3,14L4,14M3,14L3,15M5,14L5,15M28,14L28,15M30,14L30,15M3,15L3,16M5,15L5,16M28,15L28,16M30,15L30,16M3,16L3,17M5,16L5,17M28,16L28,17M30,16L30,17M3,17L3,18M5,17L5,18M28,17L28,18M29,18L30,18M30,17L30,18M3,18L3,19M5,18L5,19M27,18L28,18M27,18L27,19M29,18L29,19M3,20L4,20M3,19L3,20M5,19L5,20M27,19L27,20M29,19L29,20M4,20L4,21M5,20L5,21M27,20L27,21M29,20L29,21M4,21L4,22M5,21L6,21M6,21L6,22M27,21L27,22M29,21L29,22M4,22L4,23M6,22L6,23M27,22L27,23M29,22L29,23M4,24L5,24M4,23L4,24M6,23L6,24M27,23L27,24M29,23L29,24M5,25L6,25M5,24L5,25M6,24L7,24M7,24L7,25M27,24L27,25M29,24L30,24M30,24L30,25M6,25L6,26M7,25L8,25M8,25L8,26M27,25L27,26M30,25L30,26M6,27L7,27M6,26L6,27M8,26L8,27M27,26L27,27M30,26L30,27M7,28L8,28M7,27L7,28M8,27L9,27M9,27L9,28M27,27L27,28M29,28L30,28M30,27L30,28M8,29L9,29M8,28L8,29M9,28L10,28M10,28L10,29M26,28L27,28M26,28L26,29M29,28L29,29M9,30L10,30M9,29L9,30M10,29L11,29M11,29L11,30M25,29L26,29M25,29L25,30M28,30L29,30M29,29L29,30M10,31L11,31M10,30L10,31M11,30L12,30M12,30L13,30M13,30L13,31M24,30L25,30M24,30L24,31M27,31L28,31M28,30L28,31M11,32L12,32M11,31L11,32M12,32L13,32M13,31L14,31M13,32L14,32M14,31L15,31M15,31L16,31M16,31L17,31M17,31L18,31M18,31L19,31M19,31L20,31M20,31L21,31M21,31L22,31M22,31L23,31M23,31L24,31M26,32L27,32M27,31L27,32M14,33L15,33M14,32L14,33M15,33L16,33M16,33L17,33M17,33L18,33M18,33L19,33M19,33L20,33M20,33L21,33M23,33L24,33M24,33L25,33M25,33L26,33M26,32L26,33M21,34L22,34M21,33L21,34M22,34L23,34M23,33L23,34" stroke="currentColor" stroke-width="0.18" fill="none" opacity="0.30" shape-rendering="crispEdges"/><path d="M13,3L14,3M13,3L13,4M14,3L15,3M15,3L16,3M16,3L16,4M11,4L12,4M11,4L11,5M12,4L13,4M16,4L17,4M17,4L18,4M18,4L19,4M19,4L20,4M20,4L21,4M21,4L22,4M22,4L23,4M23,4L23,5M9,5L10,5M9,5L9,6M10,5L11,5M11,6L12,6M12,6L13,6M13,6L14,6M14,6L15,6M15,6L16,6M16,6L17,6M17,6L18,6M18,6L19,6M19,6L20,6M20,6L21,6M21,6L22,6M23,5L24,5M24,5L24,6M8,6L9,6M8,6L8,7M10,7L11,7M11,6L11,7M22,7L23,7M22,6L22,7M23,7L24,7M24,6L25,6M25,6L25,7M7,7L8,7M7,7L7,8M9,8L10,8M10,7L10,8M24,7L24,8M25,7L26,7M26,7L26,8M6,8L7,8M6,8L6,9M8,9L9,9M9,8L9,9M24,9L25,9M24,8L24,9M26,8L26,9M6,9L6,10M8,9L8,10M25,9L25,10M26,9L27,9M27,9L27,10M6,10L6,11M7,11L8,11M8,10L8,11M25,10L25,11M27,10L27,11M6,11L6,12M7,11L7,12M25,12L26,12M25,11L25,12M27,11L28,11M28,11L28,12M5,12L6,12M5,12L5,13M7,12L7,13M26,12L26,13M28,12L28,13M5,13L5,14M7,13L7,14M26,13L26,14M28,13L28,14M5,14L5,15M7,14L7,15M26,14L26,15M28,14L28,15M5,15L5,16M7,15L7,16M26,15L26,16M28,15L28,16M5,16L5,17M7,16L7,17M26,16L26,17M28,16L28,17M5,17L5,18M7,17L7,18M26,17L26,18M27,18L28,18M28,17L28,18M5,18L5,19M7,18L7,19M26,18L26,19M27,18L27,19M5,19L5,20M7,19L7,20M25,19L26,19M25,19L25,20M27,19L27,20M5,21L6,21M5,20L5,21M7,20L7,21M25,20L25,21M27,20L27,21M6,21L6,22M7,21L8,21M8,21L8,22M25,21L25,22M27,21L27,22M6,22L6,23M8,22L8,23M25,22L25,23M27,22L27,23M6,24L7,24M6,23L6,24M8,23L9,23M9,23L9,24M25,23L25,24M27,23L27,24M7,25L8,25M7,24L7,25M9,24L9,25M25,24L25,25M27,24L27,25M8,25L8,26M9,25L10,25M10,25L10,26M24,25L25,25M24,25L24,26M27,25L27,26M8,27L9,27M8,26L8,27M10,26L10,27M24,26L24,27M27,26L27,27M9,28L10,28M9,27L9,28M10,27L11,27M11,27L11,28M23,27L24,27M23,27L23,28M26,28L27,28M27,27L27,28M10,29L11,29M10,28L10,29M11,28L12,28M12,28L13,28M13,28L13,29M21,28L22,28M21,28L21,29M22,28L23,28M25,29L26,29M26,28L26,29M11,30L12,30M11,29L11,30M12,30L13,30M13,29L14,29M14,29L15,29M15,29L16,29M16,29L17,29M17,29L18,29M18,29L19,29M19,29L20,29M20,29L21,29M24,30L25,30M25,29L25,30M13,31L14,31M13,30L13,31M14,31L15,31M15,31L16,31M16,31L17,31M17,31L18,31M18,31L19,31M19,31L20,31M20,31L21,31M21,31L22,31M22,31L23,31M23,31L24,31M24,30L24,31" stroke="currentColor" stroke-width="0.18" fill="none" opacity="0.35" shape-rendering="crispEdges"/><path d="M11,6L12,6M11,6L11,7M12,6L13,6M13,6L14,6M14,6L15,6M15,6L16,6M16,6L17,6M17,6L18,6M18,6L19,6M19,6L20,6M20,6L21,6M21,6L22,6M22,6L22,7M10,7L11,7M10,7L10,8M13,8L14,8M14,8L15,8M15,8L16,8M16,8L17,8M17,8L18,8M22,7L23,7M23,7L24,7M24,7L24,8M9,8L10,8M9,8L9,9M11,9L12,9M12,9L13,9M13,8L13,9M18,9L19,9M18,8L18,9M19,9L20,9M20,9L21,9M21,9L22,9M24,8L24,9M8,9L9,9M8,9L8,10M10,10L11,10M11,9L11,10M22,9L22,10M24,9L25,9M25,9L25,10M8,10L8,11M10,10L10,11M22,11L23,11M22,10L22,11M25,10L25,11M7,11L8,11M7,11L7,12M9,12L10,12M10,11L10,12M23,11L23,12M25,11L25,12M7,12L7,13M9,12L9,13M23,13L24,13M23,12L23,13M25,12L26,12M26,12L26,13M7,13L7,14M9,13L9,14M24,13L24,14M26,13L26,14M7,14L7,15M9,14L9,15M24,14L24,15M26,14L26,15M7,15L7,16M9,15L9,16M24,15L24,16M26,15L26,16M7,16L7,17M9,16L9,17M24,16L24,17M26,16L26,17M7,17L7,18M9,17L9,18M24,17L24,18M26,17L26,18M7,18L7,19M9,18L9,19M24,18L24,19M25,19L26,19M26,18L26,19M7,19L7,20M9,19L9,20M24,19L24,20M25,19L25,20M7,21L8,21M7,20L7,21M9,20L9,21M24,20L24,21M25,20L25,21M8,21L8,22M9,21L10,21M10,21L10,22M23,21L24,21M23,21L23,22M25,21L25,22M8,23L9,23M8,22L8,23M10,22L10,23M23,22L23,23M25,22L25,23M9,23L9,24M10,23L11,23M11,23L11,24M23,23L23,24M25,23L25,24M9,25L10,25M9,24L9,25M11,24L11,25M22,24L23,24M22,24L22,25M24,25L25,25M25,24L25,25M10,25L10,26M11,25L12,25M12,25L12,26M20,25L21,25M20,25L20,26M21,25L22,25M24,25L24,26M10,27L11,27M10,26L10,27M12,26L13,26M13,26L13,27M18,26L19,26M18,26L18,27M19,26L20,26M23,27L24,27M24,26L24,27M11,28L12,28M11,27L11,28M12,28L13,28M13,27L14,27M14,27L15,27M15,27L16,27M16,27L17,27M17,27L18,27M21,28L22,28M22,28L23,28M23,27L23,28M13,29L14,29M13,28L13,29M14,29L15,29M15,29L16,29M16,29L17,29M17,29L18,29M18,29L19,29M19,29L20,29M20,29L21,29M21,28L21,29" stroke="currentColor" stroke-width="0.18" fill="none" opacity="0.40" shape-rendering="crispEdges"/><path d="M13,8L14,8M13,8L13,9M14,8L15,8M15,8L16,8M16,8L17,8M17,8L18,8M18,8L18,9M11,9L12,9M11,9L11,10M12,9L13,9M18,9L19,9M19,9L20,9M20,9L21,9M21,9L22,9M22,9L22,10M10,10L11,10M10,10L10,11M13,11L14,11M14,11L15,11M15,11L16,11M22,10L22,11M10,11L10,12M12,12L13,12M13,11L13,12M16,12L17,12M16,11L16,12M17,12L18,12M22,11L23,11M23,11L23,12M9,12L10,12M9,12L9,13M11,13L12,13M12,12L12,13M18,13L19,13M18,12L18,13M23,12L23,13M9,13L9,14M11,13L11,14M19,14L20,14M19,13L19,14M23,13L24,13M24,13L24,14M9,14L9,15M10,15L11,15M11,14L11,15M20,14L20,15M24,14L24,15M9,15L9,16M10,15L10,16M20,15L20,16M24,15L24,16M9,16L9,17M10,16L10,17M20,17L21,17M20,16L20,17M24,16L24,17M9,17L9,18M10,17L11,17M11,17L11,18M21,17L21,18M24,17L24,18M9,18L9,19M11,18L11,19M21,18L21,19M24,18L24,19M9,19L9,20M11,19L11,20M21,19L21,20M24,19L24,20M9,21L10,21M9,20L9,21M11,20L12,20M12,20L12,21M21,20L21,21M23,21L24,21M24,20L24,21M10,21L10,22M12,21L12,22M21,21L21,22M23,21L23,22M10,23L11,23M10,22L10,23M12,22L13,22M13,22L13,23M20,22L21,22M20,22L20,23M23,22L23,23M11,23L11,24M13,23L14,23M14,23L14,24M19,23L20,23M19,23L19,24M22,24L23,24M23,23L23,24M11,25L12,25M11,24L11,25M14,24L15,24M15,24L16,24M16,24L17,24M17,24L18,24M18,24L19,24M20,25L21,25M21,25L22,25M22,24L22,25M12,26L13,26M12,25L12,26M18,26L19,26M19,26L20,26M20,25L20,26M13,27L14,27M13,26L13,27M14,27L15,27M15,27L16,27M16,27L17,27M17,27L18,27M18,26L18,27" stroke="currentColor" stroke-width="0.18" fill="none" opacity="0.46" shape-rendering="crispEdges"/><path d="M13,11L14,11M13,11L13,12M14,11L15,11M15,11L16,11M16,11L16,12M12,12L13,12M12,12L12,13M16,12L17,12M17,12L18,12M18,12L18,13M11,13L12,13M11,13L11,14M18,13L19,13M19,13L19,14M11,14L11,15M19,14L20,14M20,14L20,15M10,15L11,15M10,15L10,16M20,15L20,16M10,17L11,17M10,16L10,17M20,16L20,17M11,17L11,18M20,17L21,17M21,17L21,18M11,18L11,19M21,18L21,19M11,20L12,20M11,19L11,20M21,19L21,20M12,20L12,21M21,20L21,21M12,22L13,22M12,21L12,22M20,22L21,22M21,21L21,22M13,23L14,23M13,22L13,23M19,23L20,23M20,22L20,23M14,24L15,24M14,23L14,24M15,24L16,24M16,24L17,24M17,24L18,24M18,24L19,24M19,23L19,24" stroke="currentColor" stroke-width="0.18" fill="none" opacity="0.52" shape-rendering="crispEdges"/><rect x="1.28" y="2.57" width="2.59" height="0.86" fill="currentColor" opacity="0.40"/><rect x="6.42" y="2.57" width="2.59" height="0.86" fill="currentColor" opacity="0.40"/><rect x="12.37" y="2.51" width="0.98" height="0.98" fill="currentColor" opacity="0.47"/><rect x="16.47" y="2.49" width="3.06" height="1.02" fill="currentColor" opacity="0.50"/><rect x="22.66" y="2.51" width="0.98" height="0.98" fill="currentColor" opacity="0.47"/><rect x="26.99" y="2.57" width="2.59" height="0.86" fill="currentColor" opacity="0.40"/><rect x="33.00" y="2.57" width="0.86" height="0.86" fill="currentColor" opacity="0.40"/><rect x="2.14" y="8.56" width="0.87" height="0.87" fill="currentColor" opacity="0.40"/><rect x="7.17" y="8.46" width="1.09" height="1.09" fill="currentColor" opacity="0.54"/><rect x="10.97" y="8.37" width="3.78" height="1.26" fill="currentColor" opacity="0.65"/><rect x="16.00" y="8.33" width="4.00" height="1.33" fill="currentColor" opacity="0.70"/><rect x="22.51" y="8.37" width="1.26" height="1.26" fill="currentColor" opacity="0.65"/><rect x="26.65" y="8.46" width="3.27" height="1.09" fill="currentColor" opacity="0.54"/><rect x="32.12" y="8.56" width="2.61" height="0.87" fill="currentColor" opacity="0.40"/><rect x="2.08" y="14.51" width="0.98" height="0.98" fill="currentColor" opacity="0.48"/><rect x="5.85" y="14.38" width="3.73" height="1.24" fill="currentColor" opacity="0.64"/><rect x="12.11" y="14.25" width="1.49" height="1.49" fill="currentColor" opacity="0.80"/><rect x="15.53" y="14.18" width="4.93" height="1.64" fill="currentColor" opacity="0.90"/><rect x="22.40" y="14.25" width="1.49" height="1.49" fill="currentColor" opacity="0.80"/><rect x="27.66" y="14.38" width="1.24" height="1.24" fill="currentColor" opacity="0.64"/><rect x="32.94" y="14.51" width="0.98" height="0.98" fill="currentColor" opacity="0.48"/><rect x="2.08" y="20.51" width="0.98" height="0.98" fill="currentColor" opacity="0.48"/><rect x="5.85" y="20.38" width="3.73" height="1.24" fill="currentColor" opacity="0.64"/><rect x="10.62" y="20.25" width="4.47" height="1.49" fill="currentColor" opacity="0.80"/><rect x="17.18" y="20.18" width="1.64" height="1.64" fill="currentColor" opacity="0.90"/><rect x="22.40" y="20.25" width="1.49" height="1.49" fill="currentColor" opacity="0.80"/><rect x="26.42" y="20.38" width="3.73" height="1.24" fill="currentColor" opacity="0.64"/><rect x="32.94" y="20.51" width="0.98" height="0.98" fill="currentColor" opacity="0.48"/><rect x="2.14" y="26.56" width="0.87" height="0.87" fill="currentColor" opacity="0.40"/><rect x="6.08" y="26.46" width="3.27" height="1.09" fill="currentColor" opacity="0.54"/><rect x="12.23" y="26.37" width="1.26" height="1.26" fill="currentColor" opacity="0.65"/><rect x="16.00" y="26.33" width="4.00" height="1.33" fill="currentColor" opacity="0.70"/><rect x="21.25" y="26.37" width="3.78" height="1.26" fill="currentColor" opacity="0.65"/><rect x="27.74" y="26.46" width="1.09" height="1.09" fill="currentColor" opacity="0.54"/><rect x="32.99" y="26.56" width="0.87" height="0.87" fill="currentColor" opacity="0.40"/><rect x="2.14" y="32.57" width="0.86" height="0.86" fill="currentColor" opacity="0.40"/><rect x="7.28" y="32.57" width="0.86" height="0.86" fill="currentColor" opacity="0.40"/><rect x="12.37" y="32.51" width="0.98" height="0.98" fill="currentColor" opacity="0.47"/><rect x="16.47" y="32.49" width="3.06" height="1.02" fill="currentColor" opacity="0.50"/><rect x="22.66" y="32.51" width="0.98" height="0.98" fill="currentColor" opacity="0.47"/><rect x="26.99" y="32.57" width="2.59" height="0.86" fill="currentColor" opacity="0.40"/><rect x="32.13" y="32.57" width="2.59" height="0.86" fill="currentColor" opacity="0.40"/></svg>