<svg xmlns="http://www.w3.org/2000/svg" viewBox="0 0 36 36" preserveAspectRatio="xMidYMid slice"><path d="M34,27L35,27M34,27L34,28M35,27L36,27M32,28L33,28M32,28L32,29M33,28L34,28M30,29L31,29M30,29L30,30M31,29L32,29M28,30L29,30M28,30L28,31M29,30L30,30M27,31L28,31M27,31L27,32M26,32L27,32M26,32L26,33M25,33L26,33M25,33L25,34M23,34L24,34M23,34L23,35M24,34L25,34M22,35L23,35M22,35L22,36" stroke="currentColor" stroke-width="0.18" fill="none" opacity="0.10" shape-rendering="crispEdges"/><path d="M35,23L36,23M35,23L35,24M34,24L35,24M34,24L34,25M32,25L33,25M32,25L32,26M33,25L34,25M30,26L31,26M30,26L30,27M31,26L32,26M34,27L35,27M35,27L36,27M28,27L29,27M28,27L28,28M29,27L30,27M32,28L33,28M33,28L34,28M34,27L34,28M26,28L27,28M26,28L26,29M27,28L28,28M30,29L31,29M31,29L32,29M32,28L32,29M24,29L25,29M24,29L24,30M25,29L26,29M28,30L29,30M29,30L30,30M30,29L30,30M23,30L24,30M23,30L23,31M27,31L28,31M28,30L28,31M23,31L23,32M26,32L27,32M27,31L27,32M21,32L22,32M21,32L21,33M22,32L23,32M25,33L26,33M26,32L26,33M20,33L21,33M20,33L20,34M23,34L24,34M24,34L25,34M25,33L25,34M18,34L19,34M18,34L18,35M19,34L20,34M22,35L23,35M23,34L23,35M15,35L16,35M15,35L15,36M16,35L17,35M17,35L18,35M22,35L22,36" stroke="currentColor" stroke-width="0.18" fill="none" opacity="0.12" shape-rendering="crispEdges"/><path d="M34,1L35,1M34,0L34,1M35,1L35,2M35,3L36,3M35,2L35,3M35,18L36,18M35,18L35,19M35,19L35,20M34,20L35,20M34,20L34,21M34,21L34,22M33,22L34,22M33,22L33,23M35,23L36,23M32,23L33,23M32,23L32,24M34,24L35,24M35,23L35,24M30,24L31,24M30,24L30,25M31,24L32,24M32,25L33,25M33,25L34,25M34,24L34,25M28,25L29,25M28,25L28,26M29,25L30,25M30,26L31,26M31,26L32,26M32,25L32,26M25,26L26,26M25,26L25,27M26,26L27,26M27,26L28,26M28,27L29,27M29,27L30,27M30,26L30,27M23,27L24,27M23,27L23,28M24,27L25,27M26,28L27,28M27,28L28,28M28,27L28,28M22,28L23,28M22,28L22,29M24,29L25,29M25,29L26,29M26,28L26,29M21,29L22,29M21,29L21,30M23,30L24,30M24,29L24,30M20,30L21,30M20,30L20,31M23,30L23,31M18,31L19,31M18,31L18,32M19,31L20,31M21,32L22,32M22,32L23,32M23,31L23,32M17,32L18,32M17,32L17,33M20,33L21,33M21,32L21,33M15,33L16,33M15,33L15,34M16,33L17,33M18,34L19,34M19,34L20,34M20,33L20,34M0,34L1,34M1,34L2,34M2,34L2,35M12,34L13,34M12,34L12,35M13,34L14,34M14,34L15,34M15,35L16,35M16,35L17,35M17,35L18,35M18,34L18,35M2,35L3,35M3,35L4,35M4,35L5,35M5,35L6,35M6,35L7,35M7,35L8,35M8,35L9,35M9,35L10,35M10,35L11,35M11,35L12,35M15,35L15,36" stroke="currentColor" stroke-width="0.18" fill="none" opacity="0.16" shape-rendering="crispEdges"/><path d="M2,1L3,1M3,1L4,1M4,0L4,1M30,1L31,1M30,0L30,1M31,1L32,1M34,0L34,1M1,2L2,2M2,1L2,2M32,2L33,2M32,1L32,2M34,1L35,1M35,1L35,2M1,2L1,3M33,2L33,3M35,2L35,3M0,4L1,4M1,3L1,4M33,4L34,4M33,3L33,4M35,3L36,3M34,4L34,5M34,6L35,6M34,5L34,6M35,6L35,7M35,7L35,8M35,8L35,9M35,10L36,10M35,9L35,10M35,13L36,13M35,13L35,14M35,14L35,15M35,15L35,16M34,16L35,16M34,16L34,17M33,17L34,17M33,17L33,18M35,18L36,18M33,18L33,19M35,18L35,19M32,19L33,19M32,19L32,20M34,20L35,20M35,19L35,20M31,20L32,20M31,20L31,21M34,20L34,21M31,21L31,22M33,22L34,22M34,21L34,22M30,22L31,22M30,22L30,23M32,23L33,23M33,22L33,23M28,23L29,23M28,23L28,24M29,23L30,23M30,24L31,24M31,24L32,24M32,23L32,24M26,24L27,24M26,24L26,25M27,24L28,24M28,25L29,25M29,25L30,25M30,24L30,25M24,25L25,25M24,25L24,26M25,25L26,25M25,26L26,26M26,26L27,26M27,26L28,26M28,25L28,26M21,26L22,26M21,26L21,27M22,26L23,26M23,26L24,26M23,27L24,27M24,27L25,27M25,26L25,27M20,27L21,27M20,27L20,28M22,28L23,28M23,27L23,28M18,28L19,28M18,28L18,29M19,28L20,28M21,29L22,29M22,28L22,29M17,29L18,29M17,29L17,30M20,30L21,30M21,29L21,30M0,30L1,30M1,30L1,31M15,30L16,30M15,30L15,31M16,30L17,30M18,31L19,31M19,31L20,31M20,30L20,31M1,31L2,31M2,31L2,32M14,31L15,31M14,31L14,32M17,32L18,32M18,31L18,32M2,32L3,32M3,32L4,32M4,32L4,33M12,32L13,32M12,32L12,33M13,32L14,32M15,33L16,33M16,33L17,33M17,32L17,33M0,34L1,34M1,34L2,34M4,33L5,33M5,33L6,33M6,33L7,33M7,33L8,33M8,33L9,33M9,33L10,33M10,33L11,33M11,33L12,33M12,34L13,34M13,34L14,34M14,34L15,34M15,33L15,34M2,35L3,35M2,34L2,35M3,35L4,35M4,35L5,35M5,35L6,35M6,35L7,35M7,35L8,35M8,35L9,35M9,35L10,35M10,35L11,35M11,35L12,35M12,34L12,35" stroke="currentColor" stroke-width="0.18" fill="none" opacity="0.20" shape-rendering="crispEdges"/><path d="M4,0L4,1M7,1L8,1M8,1L9,1M9,0L9,1M25,1L26,1M25,0L25,1M26,1L27,1M27,1L28,1M30,0L30,1M2,1L3,1M2,1L2,2M3,1L4,1M5,2L6,2M6,2L7,2M7,1L7,2M28,2L29,2M28,1L28,2M29,2L30,2M30,1L31,1M31,1L32,1M32,1L32,2M1,2L2,2M1,2L1,3M4,3L5,3M5,2L5,3M30,3L31,3M30,2L30,3M32,2L33,2M33,2L33,3M1,3L1,4M3,4L4,4M4,3L4,4M31,3L31,4M33,3L33,4M0,4L1,4M2,5L3,5M3,4L3,5M31,5L32,5M31,4L31,5M33,4L34,4M34,4L34,5M1,6L2,6M2,5L2,6M32,5L32,6M34,5L34,6M1,6L1,7M32,7L33,7M32,6L32,7M34,6L35,6M35,6L35,7M0,8L1,8M1,7L1,8M33,7L33,8M35,7L35,8M33,8L33,9M35,8L35,9M33,10L34,10M33,9L33,10M35,9L35,10M34,10L34,11M35,10L36,10M34,11L34,12M34,12L34,13M35,13L36,13M33,13L34,13M33,13L33,14M35,13L35,14M33,14L33,15M35,14L35,15M32,15L33,15M32,15L32,16M34,16L35,16M35,15L35,16M32,16L32,17M33,17L34,17M34,16L34,17M31,17L32,17M31,17L31,18M33,17L33,18M30,18L31,18M30,18L30,19M32,19L33,19M33,18L33,19M29,19L30,19M29,19L29,20M31,20L32,20M32,19L32,20M28,20L29,20M28,20L28,21M31,20L31,21M27,21L28,21M27,21L27,22M30,22L31,22M31,21L31,22M26,22L27,22M26,22L26,23M28,23L29,23M29,23L30,23M30,22L30,23M24,23L25,23M24,23L24,24M25,23L26,23M26,24L27,24M27,24L28,24M28,23L28,24M22,24L23,24M22,24L22,25M23,24L24,24M24,25L25,25M25,25L26,25M26,24L26,25M20,25L21,25M20,25L20,26M21,25L22,25M21,26L22,26M22,26L23,26M23,26L24,26M24,25L24,26M0,26L1,26M1,26L1,27M17,26L18,26M17,26L17,27M18,26L19,26M19,26L20,26M20,27L21,27M21,26L21,27M1,27L2,27M2,27L2,28M16,27L17,27M16,27L16,28M18,28L19,28M19,28L20,28M20,27L20,28M2,28L2,29M14,28L15,28M14,28L14,29M15,28L16,28M17,29L18,29M18,28L18,29M0,30L1,30M2,29L3,29M3,29L4,29M4,29L4,30M12,29L13,29M12,29L12,30M13,29L14,29M15,30L16,30M16,30L17,30M17,29L17,30M1,31L2,31M1,30L1,31M4,30L5,30M5,30L6,30M6,30L6,31M10,30L11,30M10,30L10,31M11,30L12,30M14,31L15,31M15,30L15,31M2,32L3,32M2,31L2,32M3,32L4,32M6,31L7,31M7,31L8,31M8,31L9,31M9,31L10,31M12,32L13,32M13,32L14,32M14,31L14,32M4,33L5,33M4,32L4,33M5,33L6,33M6,33L7,33M7,33L8,33M8,33L9,33M9,33L10,33M10,33L11,33M11,33L12,33M12,32L12,33" stroke="currentColor" stroke-width="0.18" fill="none" opacity="0.25" shape-rendering="crispEdges"/><path d="M9,0L9,1M13,1L14,1M14,1L15,1M15,1L16,1M16,1L17,1M17,1L18,1M25,0L25,1M7,1L8,1M7,1L7,2M8,1L9,1M10,2L11,2M11,2L12,2M12,2L13,2M13,1L13,2M18,2L19,2M18,1L18,2M19,2L20,2M20,2L21,2M21,2L22,2M22,2L23,2M23,2L24,2M24,2L25,2M25,1L26,1M25,2L26,2M26,1L27,1M27,1L28,1M28,1L28,2M5,2L6,2M5,2L5,3M6,2L7,2M8,3L9,3M9,3L10,3M10,2L10,3M26,3L27,3M26,2L26,3M27,3L28,3M28,2L29,2M29,2L30,2M30,2L30,3M4,3L5,3M4,3L4,4M6,4L7,4M7,4L8,4M8,3L8,4M28,4L29,4M28,3L28,4M30,3L31,3M31,3L31,4M3,4L4,4M3,4L3,5M5,5L6,5M6,4L6,5M29,5L30,5M29,4L29,5M31,4L31,5M2,5L3,5M2,5L2,6M4,6L5,6M5,5L5,6M30,5L30,6M31,5L32,5M32,5L32,6M1,6L2,6M1,6L1,7M3,7L4,7M4,6L4,7M30,7L31,7M30,6L30,7M32,6L32,7M1,7L1,8M3,7L3,8M31,7L31,8M32,7L33,7M33,7L33,8M0,8L1,8M2,9L3,9M3,8L3,9M31,8L31,9M33,8L33,9M2,9L2,10M31,9L31,10M33,9L33,10M1,11L2,11M2,10L2,11M31,10L31,11M33,10L34,10M34,10L34,11M1,11L1,12M31,11L31,12M34,11L34,12M1,12L1,13M31,12L31,13M33,13L34,13M34,12L34,13M1,13L1,14M31,13L31,14M33,13L33,14M1,14L1,15M30,14L31,14M30,14L30,15M32,15L33,15M33,14L33,15M1,15L1,16M29,15L30,15M29,15L29,16M32,15L32,16M1,16L1,17M28,16L29,16M28,16L28,17M31,17L32,17M32,16L32,17M1,17L1,18M28,17L28,18M30,18L31,18M31,17L31,18M1,18L1,19M27,18L28,18M27,18L27,19M29,19L30,19M30,18L30,19M1,19L1,20M26,19L27,19M26,19L26,20M28,20L29,20M29,19L29,20M1,20L1,21M25,20L26,20M25,20L25,21M27,21L28,21M28,20L28,21M1,21L1,22M24,21L25,21M24,21L24,22M26,22L27,22M27,21L27,22M1,22L2,22M2,22L2,23M22,22L23,22M22,22L22,23M23,22L24,22M24,23L25,23M25,23L26,23M26,22L26,23M2,23L2,24M20,23L21,23M20,23L20,24M21,23L22,23M22,24L23,24M23,24L24,24M24,23L24,24M2,24L3,24M3,24L3,25M18,24L19,24M18,24L18,25M19,24L20,24M20,25L21,25M21,25L22,25M22,24L22,25M0,26L1,26M3,25L4,25M4,25L4,26M16,25L17,25M16,25L16,26M17,25L18,25M17,26L18,26M18,26L19,26M19,26L20,26M20,25L20,26M1,27L2,27M1,26L1,27M4,26L5,26M5,26L5,27M13,26L14,26M13,26L13,27M14,26L15,26M15,26L16,26M16,27L17,27M17,26L17,27M2,27L2,28M5,27L6,27M6,27L7,27M7,27L7,28M9,27L10,27M9,27L9,28M10,27L11,27M11,27L12,27M12,27L13,27M14,28L15,28M15,28L16,28M16,27L16,28M2,29L3,29M2,28L2,29M3,29L4,29M7,28L8,28M8,28L9,28M12,29L13,29M13,29L14,29M14,28L14,29M4,30L5,30M4,29L4,30M5,30L6,30M10,30L11,30M11,30L12,30M12,29L12,30M6,31L7,31M6,30L6,31M7,31L8,31M8,31L9,31M9,31L10,31M10,30L10,31" stroke="currentColor" stroke-width="0.18" fill="none" opacity="0.30" shape-rendering="crispEdges"/><path d="M13,1L14,1M13,1L13,2M14,1L15,1M15,1L16,1M16,1L17,1M17,1L18,1M18,1L18,2M10,2L11,2M10,2L10,3M11,2L12,2M12,2L13,2M12,3L13,3M13,3L14,3M14,3L15,3M15,3L16,3M16,3L17,3M17,3L18,3M18,2L19,2M18,3L19,3M19,2L20,2M20,2L21,2M21,2L22,2M22,2L23,2M23,2L24,2M24,2L25,2M25,2L26,2M26,2L26,3M8,3L9,3M8,3L8,4M9,3L10,3M10,4L11,4M11,4L12,4M12,3L12,4M19,4L20,4M19,3L19,4M20,4L21,4M21,4L22,4M22,4L23,4M23,4L24,4M24,4L25,4M26,3L27,3M27,3L28,3M28,3L28,4M6,4L7,4M6,4L6,5M7,4L8,4M9,5L10,5M10,4L10,5M25,5L26,5M25,4L25,5M26,5L27,5M28,4L29,4M29,4L29,5M5,5L6,5M5,5L5,6M7,6L8,6M8,6L9,6M9,5L9,6M27,6L28,6M27,5L27,6M29,5L30,5M30,5L30,6M4,6L5,6M4,6L4,7M6,7L7,7M7,6L7,7M28,6L28,7M30,6L30,7M3,7L4,7M3,7L3,8M5,8L6,8M6,7L6,8M28,7L28,8M30,7L31,7M31,7L31,8M3,8L3,9M4,9L5,9M5,8L5,9M28,8L28,9M31,8L31,9M2,9L3,9M2,9L2,10M4,9L4,10M28,9L28,10M31,9L31,10M2,10L2,11M3,11L4,11M4,10L4,11M28,10L28,11M31,10L31,11M1,11L2,11M1,11L1,12M3,11L3,12M28,11L28,12M31,11L31,12M1,12L1,13M2,13L3,13M3,12L3,13M28,12L28,13M31,12L31,13M1,13L1,14M2,13L2,14M27,13L28,13M27,13L27,14M30,14L31,14M31,13L31,14M1,14L1,15M2,14L2,15M27,14L27,15M29,15L30,15M30,14L30,15M1,15L1,16M2,15L2,16M26,15L27,15M26,15L26,16M28,16L29,16M29,15L29,16M1,16L1,17M2,16L3,16M3,16L3,17M25,16L26,16M25,16L25,17M28,16L28,17M1,17L1,18M3,17L3,18M24,17L25,17M24,17L24,18M27,18L28,18M28,17L28,18M1,18L1,19M3,18L3,19M23,18L24,18M23,18L23,19M26,19L27,19M27,18L27,19M1,19L1,20M3,19L3,20M23,19L23,20M25,20L26,20M26,19L26,20M1,20L1,21M3,20L4,20M4,20L4,21M22,20L23,20M22,20L22,21M24,21L25,21M25,20L25,21M1,22L2,22M1,21L1,22M4,21L4,22M20,21L21,21M20,21L20,22M21,21L22,21M22,22L23,22M23,22L24,22M24,21L24,22M2,22L2,23M4,22L5,22M5,22L5,23M18,22L19,22M18,22L18,23M19,22L20,22M20,23L21,23M21,23L22,23M22,22L22,23M2,24L3,24M2,23L2,24M5,23L6,23M6,23L6,24M16,23L17,23M16,23L16,24M17,23L18,23M18,24L19,24M19,24L20,24M20,23L20,24M3,25L4,25M3,24L3,25M6,24L7,24M7,24L8,24M8,24L9,24M9,24L10,24M10,24L11,24M11,24L12,24M12,24L13,24M13,24L14,24M14,24L15,24M15,24L16,24M16,25L17,25M17,25L18,25M18,24L18,25M4,26L5,26M4,25L4,26M13,26L14,26M14,26L15,26M15,26L16,26M16,25L16,26M5,27L6,27M5,26L5,27M6,27L7,27M9,27L10,27M10,27L11,27M11,27L12,27M12,27L13,27M13,26L13,27M7,28L8,28M7,27L7,28M8,28L9,28M9,27L9,28" stroke="currentColor" stroke-width="0.18" fill="none" opacity="0.35" shape-rendering="crispEdges"/><path d="M12,3L13,3M12,3L12,4M13,3L14,3M14,3L15,3M15,3L16,3M16,3L17,3M17,3L18,3M18,3L19,3M19,3L19,4M10,4L11,4M10,4L10,5M11,4L12,4M13,5L14,5M14,5L15,5M15,5L16,5M16,5L17,5M17,5L18,5M18,5L19,5M19,4L20,4M20,4L21,4M21,4L22,4M22,4L23,4M23,4L24,4M24,4L25,4M25,4L25,5M9,5L10,5M9,5L9,6M11,6L12,6M12,6L13,6M13,5L13,6M19,6L20,6M19,5L19,6M20,6L21,6M25,5L26,5M26,5L27,5M27,5L27,6M7,6L8,6M7,6L7,7M8,6L9,6M10,7L11,7M11,6L11,7M21,7L22,7M21,6L21,7M22,7L23,7M23,7L24,7M27,6L28,6M28,6L28,7M6,7L7,7M6,7L6,8M9,8L10,8M10,7L10,8M24,8L25,8M24,7L24,8M28,7L28,8M5,8L6,8M5,8L5,9M8,9L9,9M9,8L9,9M25,8L25,9M28,8L28,9M4,9L5,9M4,9L4,10M7,10L8,10M8,9L8,10M25,9L25,10M28,9L28,10M4,10L4,11M6,11L7,11M7,10L7,11M25,10L25,11M28,10L28,11M3,11L4,11M3,11L3,12M6,11L6,12M25,11L25,12M28,11L28,12M3,12L3,13M5,13L6,13M6,12L6,13M24,12L25,12M24,12L24,13M27,13L28,13M28,12L28,13M2,13L3,13M2,13L2,14M5,13L5,14M24,13L24,14M27,13L27,14M2,14L2,15M5,14L5,15M23,14L24,14M23,14L23,15M26,15L27,15M27,14L27,15M2,16L3,16M2,15L2,16M5,15L5,16M22,15L23,15M22,15L22,16M25,16L26,16M26,15L26,16M3,16L3,17M5,16L5,17M21,16L22,16M21,16L21,17M24,17L25,17M25,16L25,17M3,17L3,18M5,17L6,17M6,17L6,18M20,17L21,17M20,17L20,18M23,18L24,18M24,17L24,18M3,18L3,19M6,18L7,18M7,18L7,19M19,18L20,18M19,18L19,19M23,18L23,19M3,20L4,20M3,19L3,20M7,19L8,19M8,19L8,20M18,19L19,19M18,19L18,20M22,20L23,20M23,19L23,20M4,20L4,21M8,20L9,20M9,20L9,21M17,20L18,20M17,20L17,21M20,21L21,21M21,21L22,21M22,20L22,21M4,22L5,22M4,21L4,22M9,21L10,21M10,21L11,21M11,21L11,22M15,21L16,21M15,21L15,22M16,21L17,21M18,22L19,22M19,22L20,22M20,21L20,22M5,23L6,23M5,22L5,23M11,22L12,22M12,22L13,22M13,22L14,22M14,22L15,22M16,23L17,23M17,23L18,23M18,22L18,23M6,24L7,24M6,23L6,24M7,24L8,24M8,24L9,24M9,24L10,24M10,24L11,24M11,24L12,24M12,24L13,24M13,24L14,24M14,24L15,24M15,24L16,24M16,23L16,24" stroke="currentColor" stroke-width="0.18" fill="none" opacity="0.40" shape-rendering="crispEdges"/><path d="M13,5L14,5M13,5L13,6M14,5L15,5M15,5L16,5M16,5L17,5M17,5L18,5M18,5L19,5M19,5L19,6M11,6L12,6M11,6L11,7M12,6L13,6M19,6L20,6M20,6L21,6M21,6L21,7M10,7L11,7M10,7L10,8M13,8L14,8M14,8L15,8M15,8L16,8M16,8L17,8M17,8L18,8M21,7L22,7M22,7L23,7M23,7L24,7M24,7L24,8M9,8L10,8M9,8L9,9M12,9L13,9M13,8L13,9M18,9L19,9M18,8L18,9M24,8L25,8M25,8L25,9M8,9L9,9M8,9L8,10M11,10L12,10M12,9L12,10M19,10L20,10M19,9L19,10M25,9L25,10M7,10L8,10M7,10L7,11M10,11L11,11M11,10L11,11M20,10L20,11M25,10L25,11M6,11L7,11M6,11L6,12M10,11L10,12M20,11L20,12M24,12L25,12M25,11L25,12M6,12L6,13M10,12L10,13M20,12L20,13M24,12L24,13M5,13L6,13M5,13L5,14M10,13L10,14M20,13L20,14M23,14L24,14M24,13L24,14M5,14L5,15M10,14L10,15M19,14L20,14M19,14L19,15M22,15L23,15M23,14L23,15M5,15L5,16M10,15L10,16M19,15L19,16M21,16L22,16M22,15L22,16M5,17L6,17M5,16L5,17M10,16L11,16M11,16L11,17M18,16L19,16M18,16L18,17M20,17L21,17M21,16L21,17M6,18L7,18M6,17L6,18M11,17L12,17M12,17L12,18M16,17L17,17M16,17L16,18M17,17L18,17M19,18L20,18M20,17L20,18M7,19L8,19M7,18L7,19M12,18L13,18M13,18L14,18M14,18L15,18M15,18L16,18M18,19L19,19M19,18L19,19M8,20L9,20M8,19L8,20M17,20L18,20M18,19L18,20M9,21L10,21M9,20L9,21M10,21L11,21M15,21L16,21M16,21L17,21M17,20L17,21M11,22L12,22M11,21L11,22M12,22L13,22M13,22L14,22M14,22L15,22M15,21L15,22" stroke="currentColor" stroke-width="0.18" fill="none" opacity="0.46" shape-rendering="crispEdges"/><path d="M13,8L14,8M13,8L13,9M14,8L15,8M15,8L16,8M16,8L17,8M17,8L18,8M18,8L18,9M12,9L13,9M12,9L12,10M18,9L19,9M19,9L19,10M11,10L12,10M11,10L11,11M19,10L20,10M20,10L20,11M10,11L11,11M10,11L10,12M20,11L20,12M10,12L10,13M20,12L20,13M10,13L10,14M19,14L20,14M20,13L20,14M10,14L10,15M19,14L19,15M10,16L11,16M10,15L10,16M18,16L19,16M19,15L19,16M11,17L12,17M11,16L11,17M16,17L17,17M17,17L18,17M18,16L18,17M12,18L13,18M12,17L12,18M13,18L14,18M14,18L15,18M15,18L16,18M16,17L16,18" stroke="currentColor" stroke-width="0.18" fill="none" opacity="0.52" shape-rendering="crispEdges"/><rect x="1.06" y="3.85" width="3.89" height="1.30" fill="currentColor" opacity="0.40"/><rect x="6.85" y="3.78" width="4.30" height="1.43" fill="currentColor" opacity="0.46"/><rect x="14.19" y="3.69" width="1.62" height="1.62" fill="currentColor" opacity="0.54"/><rect x="18.57" y="3.69" width="4.86" height="1.62" fill="currentColor" opacity="0.54"/><rect x="26.28" y="3.78" width="1.43" height="1.43" fill="currentColor" opacity="0.46"/><rect x="31.06" y="3.85" width="3.89" height="1.30" fill="currentColor" opacity="0.40"/><rect x="2.26" y="12.76" width="1.48" height="1.48" fill="currentColor" opacity="0.48"/><rect x="6.13" y="12.54" width="5.75" height="1.92" fill="currentColor" opacity="0.66"/><rect x="13.86" y="12.36" width="2.28" height="2.28" fill="currentColor" opacity="0.82"/><rect x="17.58" y="12.36" width="6.83" height="2.28" fill="currentColor" opacity="0.82"/><rect x="24.13" y="12.54" width="5.75" height="1.92" fill="currentColor" opacity="0.66"/><rect x="32.26" y="12.76" width="1.48" height="1.48" fill="currentColor" opacity="0.48"/><rect x="0.78" y="21.76" width="4.44" height="1.48" fill="currentColor" opacity="0.48"/><rect x="6.13" y="21.54" width="5.75" height="1.92" fill="currentColor" opacity="0.66"/><rect x="13.86" y="21.36" width="2.28" height="2.28" fill="currentColor" opacity="0.82"/><rect x="19.86" y="21.36" width="2.28" height="2.28" fill="currentColor" opacity="0.82"/><rect x="26.04" y="21.54" width="1.92" height="1.92" fill="currentColor" opacity="0.66"/><rect x="32.26" y="21.76" width="1.48" height="1.48" fill="currentColor" opacity="0.48"/><rect x="1.06" y="30.85" width="3.89" height="1.30" fill="currentColor" opacity="0.40"/><rect x="8.28" y="30.78" width="1.43" height="1.43" fill="currentColor" opacity="0.46"/><rect x="14.19" y="30.69" width="1.62" height="1.62" fill="currentColor" opacity="0.54"/><rect x="20.19" y="30.69" width="1.62" height="1.62" fill="currentColor" opacity="0.54"/></svg>