<svg xmlns="http://www.w3.org/2000/svg" viewBox="0 0 36 36" preserveAspectRatio="xMidYMid slice"><path d="M33,1L34,1M33,0L33,1M34,2L35,2M34,1L34,2M35,3L36,3M35,2L35,3M34,31L35,31M34,31L34,32M35,31L36,31M32,32L33,32M32,32L32,33M33,32L34,32M29,33L30,33M29,33L29,34M30,33L31,33M31,33L32,33M0,34L1,34M1,34L2,34M2,34L2,35M25,34L26,34M25,34L25,35M26,34L27,34M27,34L28,34M28,34L29,34M2,35L3,35M3,35L4,35M4,35L5,35M5,35L6,35M6,35L7,35M7,35L7,36M19,35L20,35M19,35L19,36M20,35L21,35M21,35L22,35M22,35L23,35M23,35L24,35M24,35L25,35" stroke="currentColor" stroke-width="0.18" fill="none" opacity="0.10" shape-rendering="crispEdges"/><path d="M1,1L2,1M2,0L2,1M28,1L29,1M28,0L28,1M33,0L33,1M0,2L1,2M1,1L1,2M29,2L30,2M29,1L29,2M30,2L31,2M33,1L34,1M34,1L34,2M31,3L32,3M31,2L31,3M34,2L35,2M35,2L35,3M32,3L32,4M35,3L36,3M32,5L33,5M32,4L32,5M33,6L34,6M33,5L33,6M34,7L35,7M34,6L34,7M35,8L36,8M35,7L35,8M35,26L36,26M35,26L35,27M34,27L35,27M34,27L34,28M33,28L34,28M33,28L33,29M32,29L33,29M32,29L32,30M0,30L1,30M1,30L1,31M30,30L31,30M30,30L30,31M31,30L32,30M34,31L35,31M35,31L36,31M1,31L2,31M2,31L2,32M27,31L28,31M27,31L27,32M28,31L29,31M29,31L30,31M32,32L33,32M33,32L34,32M34,31L34,32M2,32L3,32M3,32L4,32M4,32L4,33M23,32L24,32M23,32L23,33M24,32L25,32M25,32L26,32M26,32L27,32M29,33L30,33M30,33L31,33M31,33L32,33M32,32L32,33M0,34L1,34M1,34L2,34M4,33L5,33M5,33L6,33M6,33L7,33M7,33L8,33M8,33L9,33M9,33L10,33M10,33L11,33M11,33L12,33M12,33L13,33M13,33L14,33M14,33L15,33M15,33L16,33M16,33L17,33M17,33L18,33M18,33L19,33M19,33L20,33M20,33L21,33M21,33L22,33M22,33L23,33M25,34L26,34M26,34L27,34M27,34L28,34M28,34L29,34M29,33L29,34M2,35L3,35M2,34L2,35M3,35L4,35M4,35L5,35M5,35L6,35M6,35L7,35M19,35L20,35M20,35L21,35M21,35L22,35M22,35L23,35M23,35L24,35M24,35L25,35M25,34L25,35M7,35L7,36M19,35L19,36" stroke="currentColor" stroke-width="0.18" fill="none" opacity="0.12" shape-rendering="crispEdges"/><path d="M2,0L2,1M3,1L4,1M4,1L5,1M5,0L5,1M23,1L24,1M23,0L23,1M24,1L25,1M28,0L28,1M1,1L2,1M1,1L1,2M2,2L3,2M3,1L3,2M25,2L26,2M25,1L25,2M26,2L27,2M28,1L29,1M29,1L29,2M0,2L1,2M2,2L2,3M27,3L28,3M27,2L27,3M29,2L30,2M30,2L31,2M31,2L31,3M1,4L2,4M2,3L2,4M28,4L29,4M28,3L28,4M31,3L32,3M32,3L32,4M1,4L1,5M29,5L30,5M29,4L29,5M32,4L32,5M0,6L1,6M1,5L1,6M30,6L31,6M30,5L30,6M32,5L33,5M33,5L33,6M31,7L32,7M31,6L31,7M33,6L34,6M34,6L34,7M32,8L33,8M32,7L32,8M34,7L35,7M35,7L35,8M33,8L33,9M35,8L36,8M33,10L34,10M33,9L33,10M34,10L34,11M34,12L35,12M34,11L34,12M35,12L35,13M35,13L35,14M35,14L35,15M35,15L35,16M35,16L35,17M35,17L35,18M35,18L35,19M35,19L35,20M35,20L35,21M35,21L35,22M34,22L35,22M34,22L34,23M34,23L34,24M33,24L34,24M33,24L33,25M0,25L1,25M1,25L1,26M33,25L33,26M35,26L36,26M1,26L1,27M32,26L33,26M32,26L32,27M34,27L35,27M35,26L35,27M1,27L2,27M2,27L2,28M31,27L32,27M31,27L31,28M33,28L34,28M34,27L34,28M2,28L3,28M3,28L3,29M29,28L30,28M29,28L29,29M30,28L31,28M32,29L33,29M33,28L33,29M0,30L1,30M3,29L4,29M4,29L4,30M27,29L28,29M27,29L27,30M28,29L29,29M30,30L31,30M31,30L32,30M32,29L32,30M1,31L2,31M1,30L1,31M4,30L5,30M5,30L6,30M6,30L6,31M23,30L24,30M23,30L23,31M24,30L25,30M25,30L26,30M26,30L27,30M27,31L28,31M28,31L29,31M29,31L30,31M30,30L30,31M2,32L3,32M2,31L2,32M3,32L4,32M6,31L7,31M7,31L8,31M8,31L9,31M9,31L10,31M10,31L11,31M11,31L12,31M12,31L12,32M16,31L17,31M16,31L16,32M17,31L18,31M18,31L19,31M19,31L20,31M20,31L21,31M21,31L22,31M22,31L23,31M23,32L24,32M24,32L25,32M25,32L26,32M26,32L27,32M27,31L27,32M4,33L5,33M4,32L4,33M5,33L6,33M6,33L7,33M7,33L8,33M8,33L9,33M9,33L10,33M10,33L11,33M11,33L12,33M12,32L13,32M12,33L13,33M13,32L14,32M13,33L14,33M14,32L15,32M14,33L15,33M15,32L16,32M15,33L16,33M16,33L17,33M17,33L18,33M18,33L19,33M19,33L20,33M20,33L21,33M21,33L22,33M22,33L23,33M23,32L23,33" stroke="currentColor" stroke-width="0.18" fill="none" opacity="0.16" shape-rendering="crispEdges"/><path d="M5,0L5,1M7,1L8,1M8,1L9,1M9,1L10,1M10,0L10,1M18,1L19,1M18,0L18,1M19,1L20,1M20,1L21,1M23,0L23,1M3,1L4,1M3,1L3,2M4,1L5,1M5,2L6,2M6,2L7,2M7,1L7,2M21,2L22,2M21,1L21,2M22,2L23,2M23,1L24,1M24,1L25,1M25,1L25,2M2,2L3,2M2,2L2,3M4,3L5,3M5,2L5,3M23,3L24,3M23,2L23,3M24,3L25,3M25,2L26,2M26,2L27,2M27,2L27,3M2,3L2,4M3,4L4,4M4,3L4,4M25,4L26,4M25,3L25,4M27,3L28,3M28,3L28,4M1,4L2,4M1,4L1,5M2,5L3,5M3,4L3,5M26,5L27,5M26,4L26,5M28,4L29,4M29,4L29,5M1,5L1,6M2,5L2,6M27,6L28,6M27,5L27,6M29,5L30,5M30,5L30,6M0,6L1,6M2,6L2,7M28,7L29,7M28,6L28,7M30,6L31,6M31,6L31,7M1,8L2,8M2,7L2,8M29,8L30,8M29,7L29,8M31,7L32,7M32,7L32,8M1,8L1,9M30,9L31,9M30,8L30,9M32,8L33,8M33,8L33,9M0,10L1,10M1,9L1,10M31,9L31,10M33,9L33,10M31,11L32,11M31,10L31,11M33,10L34,10M34,10L34,11M32,11L32,12M34,11L34,12M32,12L32,13M34,12L35,12M35,12L35,13M32,13L32,14M35,13L35,14M32,14L32,15M35,14L35,15M32,16L33,16M32,15L32,16M35,15L35,16M33,16L33,17M35,16L35,17M33,17L33,18M35,17L35,18M33,18L33,19M35,18L35,19M32,19L33,19M32,19L32,20M35,19L35,20M0,20L1,20M1,20L1,21M32,20L32,21M35,20L35,21M1,21L1,22M32,21L32,22M34,22L35,22M35,21L35,22M1,22L1,23M32,22L32,23M34,22L34,23M1,23L2,23M2,23L2,24M31,23L32,23M31,23L31,24M33,24L34,24M34,23L34,24M0,25L1,25M2,24L2,25M31,24L31,25M33,24L33,25M1,25L1,26M2,25L3,25M3,25L3,26M30,25L31,25M30,25L30,26M32,26L33,26M33,25L33,26M1,27L2,27M1,26L1,27M3,26L4,26M4,26L4,27M29,26L30,26M29,26L29,27M31,27L32,27M32,26L32,27M2,28L3,28M2,27L2,28M4,27L5,27M5,27L5,28M27,27L28,27M27,27L27,28M28,27L29,27M29,28L30,28M30,28L31,28M31,27L31,28M3,29L4,29M3,28L3,29M5,28L6,28M6,28L6,29M25,28L26,28M25,28L25,29M26,28L27,28M27,29L28,29M28,29L29,29M29,28L29,29M4,30L5,30M4,29L4,30M5,30L6,30M6,29L7,29M7,29L8,29M8,29L9,29M9,29L9,30M20,29L21,29M20,29L20,30M21,29L22,29M22,29L23,29M23,29L24,29M23,30L24,30M24,29L25,29M24,30L25,30M25,30L26,30M26,30L27,30M27,29L27,30M6,31L7,31M6,30L6,31M7,31L8,31M8,31L9,31M9,30L10,30M9,31L10,31M10,30L11,30M10,31L11,31M11,30L12,30M11,31L12,31M12,30L13,30M13,30L14,30M14,30L15,30M15,30L16,30M16,30L17,30M16,31L17,31M17,30L18,30M17,31L18,31M18,30L19,30M18,31L19,31M19,30L20,30M19,31L20,31M20,31L21,31M21,31L22,31M22,31L23,31M23,30L23,31M12,32L13,32M12,31L12,32M13,32L14,32M14,32L15,32M15,32L16,32M16,31L16,32" stroke="currentColor" stroke-width="0.18" fill="none" opacity="0.20" shape-rendering="crispEdges"/><path d="M10,0L10,1M18,0L18,1M7,1L8,1M7,1L7,2M8,1L9,1M9,1L10,1M10,2L11,2M11,2L12,2M12,2L13,2M13,2L14,2M14,2L15,2M15,2L16,2M16,2L17,2M17,2L18,2M18,1L19,1M18,2L19,2M19,1L20,1M20,1L21,1M21,1L21,2M5,2L6,2M5,2L5,3M6,2L7,2M7,3L8,3M8,3L9,3M9,3L10,3M10,2L10,3M19,3L20,3M19,2L19,3M20,3L21,3M21,2L22,2M22,2L23,2M23,2L23,3M4,3L5,3M4,3L4,4M6,4L7,4M7,3L7,4M21,4L22,4M21,3L21,4M22,4L23,4M23,3L24,3M24,3L25,3M25,3L25,4M3,4L4,4M3,4L3,5M5,5L6,5M6,4L6,5M23,5L24,5M23,4L23,5M25,4L26,4M26,4L26,5M2,5L3,5M2,5L2,6M4,6L5,6M5,5L5,6M24,6L25,6M24,5L24,6M26,5L27,5M27,5L27,6M2,6L2,7M3,7L4,7M4,6L4,7M25,7L26,7M25,6L25,7M27,6L28,6M28,6L28,7M2,7L2,8M3,7L3,8M26,8L27,8M26,7L26,8M28,7L29,7M29,7L29,8M1,8L2,8M1,8L1,9M2,9L3,9M3,8L3,9M27,9L28,9M27,8L27,9M29,8L30,8M30,8L30,9M1,9L1,10M2,9L2,10M28,10L29,10M28,9L28,10M30,9L31,9M31,9L31,10M0,10L1,10M2,10L2,11M29,10L29,11M31,10L31,11M2,11L2,12M29,12L30,12M29,11L29,12M31,11L32,11M32,11L32,12M2,12L2,13M30,12L30,13M32,12L32,13M2,13L2,14M30,13L30,14M32,13L32,14M2,14L2,15M30,14L30,15M32,14L32,15M2,15L2,16M30,15L30,16M32,15L32,16M2,16L2,17M30,16L30,17M32,16L33,16M33,16L33,17M2,17L2,18M30,17L30,18M33,17L33,18M2,18L2,19M30,18L30,19M32,19L33,19M33,18L33,19M0,20L1,20M2,19L2,20M30,19L30,20M32,19L32,20M1,20L1,21M2,20L3,20M3,20L3,21M30,20L30,21M32,20L32,21M1,21L1,22M3,21L3,22M30,21L30,22M32,21L32,22M1,23L2,23M1,22L1,23M3,22L3,23M29,22L30,22M29,22L29,23M31,23L32,23M32,22L32,23M2,23L2,24M3,23L4,23M4,23L4,24M29,23L29,24M31,23L31,24M2,25L3,25M2,24L2,25M4,24L5,24M5,24L5,25M28,24L29,24M28,24L28,25M30,25L31,25M31,24L31,25M3,26L4,26M3,25L3,26M5,25L5,26M27,25L28,25M27,25L27,26M29,26L30,26M30,25L30,26M4,27L5,27M4,26L4,27M5,26L6,26M6,26L6,27M25,26L26,26M25,26L25,27M26,26L27,26M27,27L28,27M28,27L29,27M29,26L29,27M5,28L6,28M5,27L5,28M6,27L7,27M7,27L8,27M8,27L8,28M23,27L24,27M23,27L23,28M24,27L25,27M25,28L26,28M26,28L27,28M27,27L27,28M6,29L7,29M6,28L6,29M7,29L8,29M8,28L9,28M8,29L9,29M9,28L10,28M10,28L11,28M11,28L12,28M12,28L13,28M13,28L14,28M14,28L15,28M15,28L16,28M16,28L17,28M17,28L18,28M18,28L19,28M19,28L20,28M20,28L21,28M20,29L21,29M21,28L22,28M21,29L22,29M22,28L23,28M22,29L23,29M23,29L24,29M24,29L25,29M25,28L25,29M9,30L10,30M9,29L9,30M10,30L11,30M11,30L12,30M12,30L13,30M13,30L14,30M14,30L15,30M15,30L16,30M16,30L17,30M17,30L18,30M18,30L19,30M19,30L20,30M20,29L20,30" stroke="currentColor" stroke-width="0.18" fill="none" opacity="0.25" shape-rendering="crispEdges"/><path d="M10,2L11,2M10,2L10,3M11,2L12,2M12,2L13,2M13,2L14,2M14,2L15,2M15,2L16,2M16,2L17,2M17,2L18,2M18,2L19,2M19,2L19,3M7,3L8,3M7,3L7,4M8,3L9,3M9,3L10,3M10,4L11,4M11,4L12,4M12,4L13,4M13,4L14,4M14,4L15,4M15,4L16,4M16,4L17,4M17,4L18,4M18,4L19,4M19,3L20,3M20,3L21,3M21,3L21,4M6,4L7,4M6,4L6,5M8,5L9,5M9,5L10,5M10,4L10,5M19,5L20,5M19,4L19,5M20,5L21,5M21,4L22,4M22,4L23,4M23,4L23,5M5,5L6,5M5,5L5,6M6,6L7,6M7,6L8,6M8,5L8,6M21,6L22,6M21,5L21,6M22,6L23,6M23,5L24,5M24,5L24,6M4,6L5,6M4,6L4,7M6,6L6,7M23,7L24,7M23,6L23,7M24,6L25,6M25,6L25,7M3,7L4,7M3,7L3,8M5,8L6,8M6,7L6,8M24,8L25,8M24,7L24,8M25,7L26,7M26,7L26,8M3,8L3,9M4,9L5,9M5,8L5,9M25,9L26,9M25,8L25,9M26,8L27,8M27,8L27,9M2,9L3,9M2,9L2,10M4,9L4,10M26,9L26,10M27,9L28,9M28,9L28,10M2,10L2,11M4,10L4,11M26,11L27,11M26,10L26,11M28,10L29,10M29,10L29,11M2,11L2,12M3,12L4,12M4,11L4,12M27,11L27,12M29,11L29,12M2,12L2,13M3,12L3,13M27,13L28,13M27,12L27,13M29,12L30,12M30,12L30,13M2,13L2,14M3,13L3,14M28,13L28,14M30,13L30,14M2,14L2,15M3,14L3,15M28,14L28,15M30,14L30,15M2,15L2,16M3,15L3,16M28,15L28,16M30,15L30,16M2,16L2,17M3,16L3,17M28,16L28,17M30,16L30,17M2,17L2,18M3,17L3,18M28,17L28,18M30,17L30,18M2,18L2,19M3,18L4,18M4,18L4,19M28,18L28,19M30,18L30,19M2,20L3,20M2,19L2,20M4,19L4,20M28,19L28,20M30,19L30,20M3,20L3,21M4,20L4,21M28,20L28,21M30,20L30,21M3,21L3,22M4,21L5,21M5,21L5,22M28,21L28,22M29,22L30,22M30,21L30,22M3,23L4,23M3,22L3,23M5,22L5,23M27,22L28,22M27,22L27,23M29,22L29,23M4,24L5,24M4,23L4,24M5,23L6,23M6,23L6,24M26,23L27,23M26,23L26,24M28,24L29,24M29,23L29,24M5,24L5,25M6,24L7,24M7,24L7,25M25,24L26,24M25,24L25,25M27,25L28,25M28,24L28,25M5,26L6,26M5,25L5,26M7,25L8,25M8,25L8,26M24,25L25,25M24,25L24,26M25,26L26,26M26,26L27,26M27,25L27,26M6,27L7,27M6,26L6,27M7,27L8,27M8,26L9,26M9,26L10,26M10,26L10,27M21,26L22,26M21,26L21,27M22,26L23,26M23,26L24,26M23,27L24,27M24,27L25,27M25,26L25,27M8,28L9,28M8,27L8,28M9,28L10,28M10,27L11,27M10,28L11,28M11,27L12,27M11,28L12,28M12,27L13,27M12,28L13,28M13,27L14,27M13,28L14,28M14,27L15,27M14,28L15,28M15,27L16,27M15,28L16,28M16,27L17,27M16,28L17,28M17,27L18,27M17,28L18,28M18,27L19,27M18,28L19,28M19,27L20,27M19,28L20,28M20,27L21,27M20,28L21,28M21,28L22,28M22,28L23,28M23,27L23,28" stroke="currentColor" stroke-width="0.18" fill="none" opacity="0.30" shape-rendering="crispEdges"/><path d="M10,4L11,4M10,4L10,5M11,4L12,4M12,4L13,4M13,4L14,4M14,4L15,4M15,4L16,4M16,4L17,4M17,4L18,4M18,4L19,4M19,4L19,5M8,5L9,5M8,5L8,6M9,5L10,5M10,6L11,6M11,6L12,6M12,6L13,6M13,6L14,6M14,6L15,6M15,6L16,6M16,6L17,6M17,6L18,6M18,6L19,6M19,5L20,5M20,5L21,5M21,5L21,6M6,6L7,6M6,6L6,7M7,6L8,6M8,7L9,7M9,7L10,7M10,6L10,7M19,7L20,7M19,6L19,7M20,7L21,7M21,6L22,6M22,6L23,6M23,6L23,7M6,7L6,8M7,8L8,8M8,7L8,8M21,8L22,8M21,7L21,8M23,7L24,7M24,7L24,8M5,8L6,8M5,8L5,9M6,9L7,9M7,8L7,9M22,9L23,9M22,8L22,9M24,8L25,8M25,8L25,9M4,9L5,9M4,9L4,10M6,9L6,10M23,10L24,10M23,9L23,10M25,9L26,9M26,9L26,10M4,10L4,11M5,11L6,11M6,10L6,11M24,11L25,11M24,10L24,11M26,10L26,11M4,11L4,12M5,11L5,12M25,11L25,12M26,11L27,11M27,11L27,12M3,12L4,12M3,12L3,13M5,12L5,13M25,12L25,13M27,12L27,13M3,13L3,14M5,13L5,14M25,14L26,14M25,13L25,14M27,13L28,13M28,13L28,14M3,14L3,15M5,14L5,15M26,14L26,15M28,14L28,15M3,15L3,16M5,15L5,16M26,15L26,16M28,15L28,16M3,16L3,17M5,16L5,17M26,16L26,17M28,16L28,17M3,18L4,18M3,17L3,18M5,17L5,18M26,17L26,18M28,17L28,18M4,18L4,19M5,18L5,19M26,18L26,19M28,18L28,19M4,19L4,20M5,19L5,20M26,19L26,20M28,19L28,20M4,21L5,21M4,20L4,21M5,20L6,20M6,20L6,21M25,20L26,20M25,20L25,21M28,20L28,21M5,21L5,22M6,21L6,22M25,21L25,22M27,22L28,22M28,21L28,22M5,23L6,23M5,22L5,23M6,22L7,22M7,22L7,23M24,22L25,22M24,22L24,23M26,23L27,23M27,22L27,23M6,24L7,24M6,23L6,24M7,23L8,23M8,23L8,24M23,23L24,23M23,23L23,24M25,24L26,24M26,23L26,24M7,25L8,25M7,24L7,25M8,24L9,24M9,24L9,25M21,24L22,24M21,24L21,25M22,24L23,24M24,25L25,25M25,24L25,25M8,26L9,26M8,25L8,26M9,25L10,25M9,26L10,26M10,25L11,25M11,25L12,25M12,25L13,25M13,25L14,25M14,25L15,25M15,25L16,25M16,25L17,25M17,25L18,25M18,25L19,25M19,25L20,25M20,25L21,25M21,26L22,26M22,26L23,26M23,26L24,26M24,25L24,26M10,27L11,27M10,26L10,27M11,27L12,27M12,27L13,27M13,27L14,27M14,27L15,27M15,27L16,27M16,27L17,27M17,27L18,27M18,27L19,27M19,27L20,27M20,27L21,27M21,26L21,27" stroke="currentColor" stroke-width="0.18" fill="none" opacity="0.35" shape-rendering="crispEdges"/><path d="M10,6L11,6M10,6L10,7M11,6L12,6M12,6L13,6M13,6L14,6M14,6L15,6M15,6L16,6M16,6L17,6M17,6L18,6M18,6L19,6M19,6L19,7M8,7L9,7M8,7L8,8M9,7L10,7M11,8L12,8M12,8L13,8M13,8L14,8M14,8L15,8M15,8L16,8M16,8L17,8M17,8L18,8M18,8L19,8M19,7L20,7M20,7L21,7M21,7L21,8M7,8L8,8M7,8L7,9M9,9L10,9M10,9L11,9M11,8L11,9M19,9L20,9M19,8L19,9M20,9L21,9M21,8L22,8M22,8L22,9M6,9L7,9M6,9L6,10M8,10L9,10M9,9L9,10M21,10L22,10M21,9L21,10M22,9L23,9M23,9L23,10M6,10L6,11M8,10L8,11M22,10L22,11M23,10L24,10M24,10L24,11M5,11L6,11M5,11L5,12M7,12L8,12M8,11L8,12M22,12L23,12M22,11L22,12M24,11L25,11M25,11L25,12M5,12L5,13M7,12L7,13M23,12L23,13M25,12L25,13M5,13L5,14M7,13L7,14M23,13L23,14M25,13L25,14M5,14L5,15M7,14L7,15M23,14L23,15M25,14L26,14M26,14L26,15M5,15L5,16M6,16L7,16M7,15L7,16M23,15L23,16M26,15L26,16M5,16L5,17M6,16L6,17M23,16L23,17M26,16L26,17M5,17L5,18M6,17L7,17M7,17L7,18M23,17L23,18M26,17L26,18M5,18L5,19M7,18L7,19M23,18L23,19M26,18L26,19M5,20L6,20M5,19L5,20M7,19L7,20M22,19L23,19M22,19L22,20M25,20L26,20M26,19L26,20M6,20L6,21M7,20L8,20M8,20L8,21M22,20L22,21M25,20L25,21M6,22L7,22M6,21L6,22M8,21L8,22M21,21L22,21M21,21L21,22M24,22L25,22M25,21L25,22M7,23L8,23M7,22L7,23M8,22L9,22M9,22L10,22M10,22L10,23M20,22L21,22M20,22L20,23M23,23L24,23M24,22L24,23M8,24L9,24M8,23L8,24M10,23L11,23M11,23L12,23M12,23L13,23M13,23L14,23M14,23L15,23M15,23L16,23M16,23L17,23M17,23L18,23M18,23L19,23M19,23L20,23M21,24L22,24M22,24L23,24M23,23L23,24M9,25L10,25M9,24L9,25M10,25L11,25M11,25L12,25M12,25L13,25M13,25L14,25M14,25L15,25M15,25L16,25M16,25L17,25M17,25L18,25M18,25L19,25M19,25L20,25M20,25L21,25M21,24L21,25" stroke="currentColor" stroke-width="0.18" fill="none" opacity="0.40" shape-rendering="crispEdges"/><path d="M11,8L12,8M11,8L11,9M12,8L13,8M13,8L14,8M14,8L15,8M15,8L16,8M16,8L17,8M17,8L18,8M18,8L19,8M19,8L19,9M9,9L10,9M9,9L9,10M10,9L11,9M13,10L14,10M14,10L15,10M15,10L16,10M16,10L17,10M19,9L20,9M20,9L21,9M21,9L21,10M8,10L9,10M8,10L8,11M11,11L12,11M12,11L13,11M13,10L13,11M17,11L18,11M17,10L17,11M18,11L19,11M21,10L22,10M22,10L22,11M8,11L8,12M10,12L11,12M11,11L11,12M19,12L20,12M19,11L19,12M22,11L22,12M7,12L8,12M7,12L7,13M9,13L10,13M10,12L10,13M20,12L20,13M22,12L23,12M23,12L23,13M7,13L7,14M9,13L9,14M20,13L20,14M23,13L23,14M7,14L7,15M8,15L9,15M9,14L9,15M20,14L20,15M23,14L23,15M7,15L7,16M8,15L8,16M20,15L20,16M23,15L23,16M6,16L7,16M6,17L7,17M6,16L6,17M8,16L8,17M20,16L20,17M23,16L23,17M7,17L7,18M8,17L8,18M20,17L20,18M23,17L23,18M7,18L7,19M8,18L9,18M9,18L9,19M19,18L20,18M19,18L19,19M22,19L23,19M23,18L23,19M7,20L8,20M7,19L7,20M9,19L9,20M18,19L19,19M18,19L18,20M22,19L22,20M8,20L8,21M9,20L10,20M10,20L11,20M11,20L11,21M16,20L17,20M16,20L16,21M17,20L18,20M21,21L22,21M22,20L22,21M8,22L9,22M8,21L8,22M9,22L10,22M11,21L12,21M12,21L13,21M13,21L14,21M14,21L15,21M15,21L16,21M20,22L21,22M21,21L21,22M10,23L11,23M10,22L10,23M11,23L12,23M12,23L13,23M13,23L14,23M14,23L15,23M15,23L16,23M16,23L17,23M17,23L18,23M18,23L19,23M19,23L20,23M20,22L20,23" stroke="currentColor" stroke-width="0.18" fill="none" opacity="0.46" shape-rendering="crispEdges"/><path d="M13,10L14,10M13,10L13,11M14,10L15,10M15,10L16,10M16,10L17,10M17,10L17,11M11,11L12,11M11,11L11,12M12,11L13,11M17,11L18,11M18,11L19,11M19,11L19,12M10,12L11,12M10,12L10,13M19,12L20,12M20,12L20,13M9,13L10,13M9,13L9,14M20,13L20,14M9,14L9,15M20,14L20,15M8,15L9,15M8,15L8,16M20,15L20,16M8,16L8,17M20,16L20,17M8,18L9,18M8,17L8,18M19,18L20,18M20,17L20,18M9,18L9,19M18,19L19,19M19,18L19,19M9,20L10,20M9,19L9,20M10,20L11,20M16,20L17,20M17,20L18,20M18,19L18,20M11,21L12,21M11,20L11,21M12,21L13,21M13,21L14,21M14,21L15,21M15,21L16,21M16,20L16,21" stroke="currentColor" stroke-width="0.18" fill="none" opacity="0.52" shape-rendering="crispEdges"/><rect x="2.48" y="3.08" width="1.04" height="1.04" fill="currentColor" opacity="0.40"/><rect x="7.35" y="3.05" width="3.30" height="1.10" fill="currentColor" opacity="0.43"/><rect x="13.14" y="2.98" width="3.73" height="1.24" fill="currentColor" opacity="0.51"/><rect x="20.38" y="2.98" width="1.24" height="1.24" fill="currentColor" opacity="0.51"/><rect x="26.45" y="3.05" width="1.10" height="1.10" fill="currentColor" opacity="0.43"/><rect x="31.44" y="3.08" width="3.11" height="1.04" fill="currentColor" opacity="0.40"/><rect x="2.44" y="10.24" width="1.12" height="1.12" fill="currentColor" opacity="0.45"/><rect x="6.84" y="10.08" width="4.32" height="1.44" fill="currentColor" opacity="0.62"/><rect x="12.49" y="9.96" width="5.02" height="1.67" fill="currentColor" opacity="0.74"/><rect x="20.16" y="9.96" width="1.67" height="1.67" fill="currentColor" opacity="0.74"/><rect x="26.28" y="10.08" width="1.44" height="1.44" fill="currentColor" opacity="0.62"/><rect x="32.44" y="10.24" width="1.12" height="1.12" fill="currentColor" opacity="0.45"/><rect x="1.16" y="17.39" width="3.67" height="1.22" fill="currentColor" opacity="0.50"/><rect x="8.20" y="17.20" width="1.60" height="1.60" fill="currentColor" opacity="0.70"/><rect x="12.04" y="17.01" width="5.92" height="1.97" fill="currentColor" opacity="0.90"/><rect x="18.04" y="17.01" width="5.92" height="1.97" fill="currentColor" opacity="0.90"/><rect x="26.20" y="17.20" width="1.60" height="1.60" fill="currentColor" opacity="0.70"/><rect x="31.16" y="17.39" width="3.67" height="1.22" fill="currentColor" opacity="0.50"/><rect x="1.32" y="24.64" width="3.37" height="1.12" fill="currentColor" opacity="0.45"/><rect x="8.28" y="24.48" width="1.44" height="1.44" fill="currentColor" opacity="0.62"/><rect x="12.49" y="24.36" width="5.02" height="1.67" fill="currentColor" opacity="0.74"/><rect x="20.16" y="24.36" width="1.67" height="1.67" fill="currentColor" opacity="0.74"/><rect x="26.28" y="24.48" width="1.44" height="1.44" fill="currentColor" opacity="0.62"/><rect x="31.32" y="24.64" width="3.37" height="1.12" fill="currentColor" opacity="0.45"/><rect x="2.48" y="31.88" width="1.04" height="1.04" fill="currentColor" opacity="0.40"/></svg>