<svg xmlns="http://www.w3.org/2000/svg" viewBox="0 0 36 36" preserveAspectRatio="xMidYMid slice"><path d="M31,1L32,1M31,0L31,1M32,2L33,2M32,1L32,2M33,3L34,3M33,2L33,3M34,4L35,4M34,3L34,4M35,4L35,5M35,5L35,6M35,7L36,7M35,6L35,7M35,31L36,31M35,31L35,32M35,32L35,33M34,33L35,33M34,33L34,34M0,34L1,34M1,34L1,35M34,34L34,35M1,35L2,35M2,35L3,35M3,35L3,36M33,35L34,35M33,35L33,36" stroke="currentColor" stroke-width="0.18" fill="none" opacity="0.10" shape-rendering="crispEdges"/><path d="M0,1L1,1M1,0L1,1M27,1L28,1M27,0L27,1M31,0L31,1M28,2L29,2M28,1L28,2M29,2L30,2M31,1L32,1M32,1L32,2M30,3L31,3M30,2L30,3M32,2L33,2M33,2L33,3M31,3L31,4M33,3L34,3M34,3L34,4M31,5L32,5M31,4L31,5M34,4L35,4M35,4L35,5M32,6L33,6M32,5L32,6M35,5L35,6M33,6L33,7M35,6L35,7M33,7L33,8M35,7L36,7M33,9L34,9M33,8L33,9M34,9L34,10M34,10L34,11M34,11L34,12M34,12L34,13M34,14L35,14M34,13L34,14M35,14L35,15M35,15L35,16M35,16L35,17M35,17L35,18M35,18L35,19M35,19L35,20M35,20L35,21M34,21L35,21M34,21L34,22M34,22L34,23M34,23L34,24M34,24L34,25M34,25L34,26M34,26L34,27M33,27L34,27M33,27L33,28M33,28L33,29M32,29L33,29M32,29L32,30M0,30L1,30M1,30L1,31M32,30L32,31M35,31L36,31M1,31L2,31M2,31L2,32M31,31L32,31M31,31L31,32M35,31L35,32M2,32L3,32M3,32L4,32M4,32L4,33M31,32L31,33M34,33L35,33M35,32L35,33M0,34L1,34M4,33L5,33M5,33L5,34M30,33L31,33M30,33L30,34M34,33L34,34M1,35L2,35M1,34L1,35M2,35L3,35M5,34L6,34M6,34L7,34M7,34L7,35M29,34L30,34M29,34L29,35M33,35L34,35M34,34L34,35M3,35L3,36M7,35L8,35M8,35L9,35M9,35L10,35M10,35L11,35M11,35L12,35M12,35L12,36M20,35L21,35M20,35L20,36M21,35L22,35M22,35L23,35M23,35L24,35M24,35L24,36M25,35L26,35M25,35L25,36M26,35L27,35M27,35L28,35M28,35L29,35M33,35L33,36" stroke="currentColor" stroke-width="0.18" fill="none" opacity="0.12" shape-rendering="crispEdges"/><path d="M1,0L1,1M3,1L4,1M4,1L5,1M5,0L5,1M23,1L24,1M23,0L23,1M24,1L25,1M27,0L27,1M0,1L1,1M2,2L3,2M3,1L3,2M25,2L26,2M25,1L25,2M27,1L28,1M28,1L28,2M1,3L2,3M2,2L2,3M26,3L27,3M26,2L26,3M28,2L29,2M29,2L30,2M30,2L30,3M0,4L1,4M1,3L1,4M27,4L28,4M27,3L27,4M30,3L31,3M31,3L31,4M28,5L29,5M28,4L28,5M31,4L31,5M29,6L30,6M29,5L29,6M31,5L32,5M32,5L32,6M30,6L30,7M32,6L33,6M33,6L33,7M30,8L31,8M30,7L30,8M33,7L33,8M31,8L31,9M33,8L33,9M31,10L32,10M31,9L31,10M33,9L34,9M34,9L34,10M32,10L32,11M34,10L34,11M32,11L32,12M34,11L34,12M32,12L32,13M34,12L34,13M32,13L32,14M34,13L34,14M32,15L33,15M32,14L32,15M34,14L35,14M35,14L35,15M33,15L33,16M35,15L35,16M33,16L33,17M35,16L35,17M33,17L33,18M35,17L35,18M33,18L33,19M35,18L35,19M32,19L33,19M32,19L32,20M35,19L35,20M32,20L32,21M34,21L35,21M35,20L35,21M32,21L32,22M34,21L34,22M32,22L32,23M34,22L34,23M32,23L32,24M34,23L34,24M32,24L32,25M34,24L34,25M31,25L32,25M31,25L31,26M34,25L34,26M31,26L31,27M33,27L34,27M34,26L34,27M0,27L1,27M1,27L1,28M30,27L31,27M30,27L30,28M33,27L33,28M1,28L2,28M2,28L2,29M30,28L30,29M32,29L33,29M33,28L33,29M0,30L1,30M2,29L3,29M3,29L4,29M4,29L4,30M29,29L30,29M29,29L29,30M32,29L32,30M1,31L2,31M1,30L1,31M4,30L5,30M5,30L5,31M28,30L29,30M28,30L28,31M31,31L32,31M32,30L32,31M2,32L3,32M2,31L2,32M3,32L4,32M5,31L6,31M6,31L7,31M7,31L7,32M27,31L28,31M27,31L27,32M31,31L31,32M4,33L5,33M4,32L4,33M7,32L8,32M8,32L9,32M9,32L9,33M22,32L23,32M22,32L22,33M23,32L24,32M24,32L25,32M25,32L26,32M26,32L27,32M30,33L31,33M31,32L31,33M5,34L6,34M5,33L5,34M6,34L7,34M9,33L10,33M10,33L11,33M11,33L12,33M12,33L13,33M13,33L14,33M14,33L14,34M16,33L17,33M16,33L16,34M17,33L18,33M18,33L19,33M19,33L20,33M20,33L21,33M21,33L22,33M29,34L30,34M30,33L30,34M7,35L8,35M7,34L7,35M8,35L9,35M9,35L10,35M10,35L11,35M11,35L12,35M14,34L15,34M15,34L16,34M20,35L21,35M21,35L22,35M22,35L23,35M23,35L24,35M25,35L26,35M26,35L27,35M27,35L28,35M28,35L29,35M29,34L29,35M12,35L12,36M20,35L20,36M24,35L24,36M25,35L25,36" stroke="currentColor" stroke-width="0.18" fill="none" opacity="0.16" shape-rendering="crispEdges"/><path d="M5,0L5,1M7,1L8,1M8,1L9,1M9,1L10,1M10,0L10,1M17,1L18,1M17,0L17,1M18,1L19,1M19,1L20,1M20,1L21,1M23,0L23,1M3,1L4,1M3,1L3,2M4,1L5,1M5,2L6,2M6,2L7,2M7,1L7,2M21,2L22,2M21,1L21,2M22,2L23,2M23,1L24,1M24,1L25,1M25,1L25,2M2,2L3,2M2,2L2,3M3,3L4,3M4,3L5,3M5,2L5,3M23,3L24,3M23,2L23,3M24,3L25,3M25,2L26,2M26,2L26,3M1,3L2,3M1,3L1,4M2,4L3,4M3,3L3,4M25,4L26,4M25,3L25,4M26,3L27,3M27,3L27,4M0,4L1,4M2,4L2,5M26,5L27,5M26,4L26,5M27,4L28,4M28,4L28,5M1,6L2,6M2,5L2,6M27,5L27,6M28,5L29,5M29,5L29,6M1,6L1,7M27,7L28,7M27,6L27,7M29,6L30,6M30,6L30,7M0,8L1,8M1,7L1,8M28,7L28,8M30,7L30,8M28,9L29,9M28,8L28,9M30,8L31,8M31,8L31,9M29,9L29,10M31,9L31,10M29,10L29,11M31,10L32,10M32,10L32,11M29,12L30,12M29,11L29,12M32,11L32,12M30,12L30,13M32,12L32,13M30,13L30,14M32,13L32,14M30,15L31,15M30,14L30,15M32,14L32,15M31,15L31,16M32,15L33,15M33,15L33,16M31,16L31,17M33,16L33,17M31,17L31,18M33,17L33,18M31,18L31,19M32,19L33,19M33,18L33,19M30,19L31,19M30,19L30,20M32,19L32,20M30,20L30,21M32,20L32,21M30,21L30,22M32,21L32,22M0,22L1,22M1,22L1,23M30,22L30,23M32,22L32,23M1,23L1,24M29,23L30,23M29,23L29,24M32,23L32,24M1,24L1,25M29,24L29,25M31,25L32,25M32,24L32,25M1,25L2,25M2,25L2,26M29,25L29,26M31,25L31,26M0,27L1,27M2,26L3,26M3,26L3,27M28,26L29,26M28,26L28,27M30,27L31,27M31,26L31,27M1,28L2,28M1,27L1,28M3,27L4,27M4,27L4,28M27,27L28,27M27,27L27,28M30,27L30,28M2,29L3,29M2,28L2,29M3,29L4,29M4,28L5,28M5,28L6,28M6,28L6,29M26,28L27,28M26,28L26,29M29,29L30,29M30,28L30,29M4,30L5,30M4,29L4,30M6,29L7,29M7,29L7,30M24,29L25,29M24,29L24,30M25,29L26,29M28,30L29,30M29,29L29,30M5,31L6,31M5,30L5,31M6,31L7,31M7,30L8,30M8,30L9,30M9,30L10,30M10,30L10,31M20,30L21,30M20,30L20,31M21,30L22,30M22,30L23,30M23,30L24,30M27,31L28,31M28,30L28,31M7,32L8,32M7,31L7,32M8,32L9,32M10,31L11,31M11,31L12,31M12,31L13,31M13,31L14,31M14,31L15,31M15,31L16,31M16,31L17,31M17,31L18,31M18,31L19,31M19,31L20,31M22,32L23,32M23,32L24,32M24,32L25,32M25,32L26,32M26,32L27,32M27,31L27,32M9,33L10,33M9,32L9,33M10,33L11,33M11,33L12,33M12,33L13,33M13,33L14,33M16,33L17,33M17,33L18,33M18,33L19,33M19,33L20,33M20,33L21,33M21,33L22,33M22,32L22,33M14,34L15,34M14,33L14,34M15,34L16,34M16,33L16,34" stroke="currentColor" stroke-width="0.18" fill="none" opacity="0.20" shape-rendering="crispEdges"/><path d="M10,0L10,1M17,0L17,1M7,1L8,1M7,1L7,2M8,1L9,1M9,1L10,1M9,2L10,2M10,2L11,2M11,2L12,2M12,2L13,2M13,2L14,2M14,2L15,2M15,2L16,2M16,2L17,2M17,1L18,1M17,2L18,2M18,1L19,1M18,2L19,2M19,1L20,1M20,1L21,1M21,1L21,2M5,2L6,2M5,2L5,3M6,2L7,2M7,3L8,3M8,3L9,3M9,2L9,3M19,3L20,3M19,2L19,3M20,3L21,3M21,2L22,2M21,3L22,3M22,2L23,2M23,2L23,3M3,3L4,3M3,3L3,4M4,3L5,3M5,4L6,4M6,4L7,4M7,3L7,4M22,4L23,4M22,3L22,4M23,3L24,3M24,3L25,3M25,3L25,4M2,4L3,4M2,4L2,5M4,5L5,5M5,4L5,5M23,5L24,5M23,4L23,5M25,4L26,4M26,4L26,5M2,5L2,6M3,6L4,6M4,5L4,6M24,6L25,6M24,5L24,6M26,5L27,5M27,5L27,6M1,6L2,6M1,6L1,7M3,6L3,7M25,7L26,7M25,6L25,7M27,6L27,7M1,7L1,8M2,8L3,8M3,7L3,8M26,7L26,8M27,7L28,7M28,7L28,8M0,8L1,8M2,8L2,9M26,9L27,9M26,8L26,9M28,8L28,9M2,9L2,10M27,9L27,10M28,9L29,9M29,9L29,10M1,11L2,11M2,10L2,11M27,10L27,11M29,10L29,11M1,11L1,12M27,12L28,12M27,11L27,12M29,11L29,12M1,12L1,13M28,12L28,13M29,12L30,12M30,12L30,13M1,13L1,14M28,13L28,14M30,13L30,14M1,14L1,15M28,15L29,15M28,14L28,15M30,14L30,15M1,15L1,16M29,15L29,16M30,15L31,15M31,15L31,16M1,16L1,17M29,16L29,17M31,16L31,17M1,17L1,18M29,17L29,18M31,17L31,18M1,18L1,19M29,18L29,19M30,19L31,19M31,18L31,19M1,19L2,19M2,19L2,20M28,19L29,19M28,19L28,20M30,19L30,20M2,20L2,21M28,20L28,21M30,20L30,21M0,22L1,22M2,21L2,22M28,21L28,22M30,21L30,22M1,22L1,23M2,22L3,22M3,22L3,23M27,22L28,22M27,22L27,23M29,23L30,23M30,22L30,23M1,23L1,24M3,23L3,24M27,23L27,24M29,23L29,24M1,25L2,25M1,24L1,25M3,24L4,24M4,24L4,25M26,24L27,24M26,24L26,25M29,24L29,25M2,26L3,26M2,25L2,26M4,25L5,25M5,25L5,26M26,25L26,26M28,26L29,26M29,25L29,26M3,27L4,27M3,26L3,27M5,26L6,26M6,26L6,27M25,26L26,26M25,26L25,27M27,27L28,27M28,26L28,27M4,28L5,28M4,27L4,28M5,28L6,28M6,27L7,27M7,27L8,27M8,27L8,28M23,27L24,27M23,27L23,28M24,27L25,27M26,28L27,28M27,27L27,28M6,29L7,29M6,28L6,29M8,28L9,28M9,28L10,28M10,28L10,29M20,28L21,28M20,28L20,29M21,28L22,28M22,28L23,28M24,29L25,29M25,29L26,29M26,28L26,29M7,30L8,30M7,29L7,30M8,30L9,30M9,30L10,30M10,29L11,29M11,29L12,29M12,29L13,29M13,29L14,29M14,29L15,29M15,29L16,29M16,29L17,29M17,29L18,29M18,29L19,29M19,29L20,29M20,30L21,30M21,30L22,30M22,30L23,30M23,30L24,30M24,29L24,30M10,31L11,31M10,30L10,31M11,31L12,31M12,31L13,31M13,31L14,31M14,31L15,31M15,31L16,31M16,31L17,31M17,31L18,31M18,31L19,31M19,31L20,31M20,30L20,31" stroke="currentColor" stroke-width="0.18" fill="none" opacity="0.25" shape-rendering="crispEdges"/><path d="M9,2L10,2M9,2L9,3M10,2L11,2M11,2L12,2M12,2L13,2M13,2L14,2M14,2L15,2M15,2L16,2M16,2L17,2M17,2L18,2M18,2L19,2M19,2L19,3M7,3L8,3M7,3L7,4M8,3L9,3M9,4L10,4M10,4L11,4M11,4L12,4M12,4L13,4M13,4L14,4M14,4L15,4M15,4L16,4M16,4L17,4M17,4L18,4M18,4L19,4M19,3L20,3M19,4L20,4M20,3L21,3M21,3L22,3M22,3L22,4M5,4L6,4M5,4L5,5M6,4L7,4M7,5L8,5M8,5L9,5M9,4L9,5M20,5L21,5M20,4L20,5M21,5L22,5M22,4L23,4M23,4L23,5M4,5L5,5M4,5L4,6M5,6L6,6M6,6L7,6M7,5L7,6M22,6L23,6M22,5L22,6M23,5L24,5M24,5L24,6M3,6L4,6M3,6L3,7M5,6L5,7M23,7L24,7M23,6L23,7M24,6L25,6M25,6L25,7M3,7L3,8M4,8L5,8M5,7L5,8M24,7L24,8M25,7L26,7M26,7L26,8M2,8L3,8M2,8L2,9M4,8L4,9M24,9L25,9M24,8L24,9M26,8L26,9M2,9L2,10M3,10L4,10M4,9L4,10M25,9L25,10M26,9L27,9M27,9L27,10M2,10L2,11M3,10L3,11M25,11L26,11M25,10L25,11M27,10L27,11M1,11L2,11M1,11L1,12M3,11L3,12M26,11L26,12M27,11L27,12M1,12L1,13M3,12L3,13M26,12L26,13M27,12L28,12M28,12L28,13M1,13L1,14M3,13L3,14M26,13L26,14M28,13L28,14M1,14L1,15M3,14L3,15M26,15L27,15M26,14L26,15M28,14L28,15M1,15L1,16M3,15L3,16M27,15L27,16M28,15L29,15M29,15L29,16M1,16L1,17M3,16L3,17M27,16L27,17M29,16L29,17M1,17L1,18M3,17L3,18M27,17L27,18M29,17L29,18M1,19L2,19M1,18L1,19M3,18L3,19M27,18L27,19M28,19L29,19M29,18L29,19M2,19L2,20M3,19L4,19M4,19L4,20M26,19L27,19M26,19L26,20M28,19L28,20M2,20L2,21M4,20L4,21M26,20L26,21M28,20L28,21M2,22L3,22M2,21L2,22M4,21L4,22M25,21L26,21M25,21L25,22M27,22L28,22M28,21L28,22M3,22L3,23M4,22L5,22M5,22L5,23M25,22L25,23M27,22L27,23M3,24L4,24M3,23L3,24M5,23L5,24M24,23L25,23M24,23L24,24M26,24L27,24M27,23L27,24M4,25L5,25M4,24L4,25M5,24L6,24M6,24L6,25M24,24L24,25M26,24L26,25M5,26L6,26M5,25L5,26M6,25L7,25M7,25L8,25M8,25L8,26M22,25L23,25M22,25L22,26M23,25L24,25M25,26L26,26M26,25L26,26M6,27L7,27M6,26L6,27M7,27L8,27M8,26L9,26M9,26L10,26M10,26L10,27M20,26L21,26M20,26L20,27M21,26L22,26M23,27L24,27M24,27L25,27M25,26L25,27M8,28L9,28M8,27L8,28M9,28L10,28M10,27L11,27M11,27L12,27M12,27L13,27M13,27L14,27M14,27L15,27M15,27L16,27M16,27L17,27M17,27L18,27M18,27L19,27M19,27L20,27M20,28L21,28M21,28L22,28M22,28L23,28M23,27L23,28M10,29L11,29M10,28L10,29M11,29L12,29M12,29L13,29M13,29L14,29M14,29L15,29M15,29L16,29M16,29L17,29M17,29L18,29M18,29L19,29M19,29L20,29M20,28L20,29" stroke="currentColor" stroke-width="0.18" fill="none" opacity="0.30" shape-rendering="crispEdges"/><path d="M9,4L10,4M9,4L9,5M10,4L11,4M11,4L12,4M12,4L13,4M12,5L13,5M13,4L14,4M13,5L14,5M14,4L15,4M14,5L15,5M15,4L16,4M15,5L16,5M16,4L17,4M17,4L18,4M18,4L19,4M19,4L20,4M20,4L20,5M7,5L8,5M7,5L7,6M8,5L9,5M8,6L9,6M9,6L10,6M10,6L11,6M11,6L12,6M12,5L12,6M16,6L17,6M16,5L16,6M17,6L18,6M18,6L19,6M19,6L20,6M20,5L21,5M21,5L22,5M22,5L22,6M5,6L6,6M5,6L5,7M6,6L7,6M7,7L8,7M8,6L8,7M20,7L21,7M20,6L20,7M22,6L23,6M23,6L23,7M5,7L5,8M6,8L7,8M7,7L7,8M21,8L22,8M21,7L21,8M23,7L24,7M24,7L24,8M4,8L5,8M4,8L4,9M5,9L6,9M6,8L6,9M22,9L23,9M22,8L22,9M24,8L24,9M4,9L4,10M5,9L5,10M23,10L24,10M23,9L23,10M24,9L25,9M25,9L25,10M3,10L4,10M3,10L3,11M5,10L5,11M24,10L24,11M25,10L25,11M3,11L3,12M4,12L5,12M5,11L5,12M24,11L24,12M25,11L26,11M26,11L26,12M3,12L3,13M4,12L4,13M24,12L24,13M26,12L26,13M3,13L3,14M4,13L4,14M24,14L25,14M24,13L24,14M26,13L26,14M3,14L3,15M4,14L4,15M25,14L25,15M26,14L26,15M3,15L3,16M4,15L4,16M25,15L25,16M26,15L27,15M27,15L27,16M3,16L3,17M4,16L5,16M5,16L5,17M25,16L25,17M27,16L27,17M3,17L3,18M5,17L5,18M24,17L25,17M24,17L24,18M27,17L27,18M3,19L4,19M3,18L3,19M5,18L5,19M24,18L24,19M26,19L27,19M27,18L27,19M4,19L4,20M5,19L6,19M6,19L6,20M24,19L24,20M26,19L26,20M4,20L4,21M6,20L6,21M23,20L24,20M23,20L23,21M25,21L26,21M26,20L26,21M4,22L5,22M4,21L4,22M6,21L7,21M7,21L7,22M23,21L23,22M25,21L25,22M5,22L5,23M7,22L7,23M22,22L23,22M22,22L22,23M24,23L25,23M25,22L25,23M5,24L6,24M5,23L5,24M7,23L8,23M8,23L8,24M21,23L22,23M21,23L21,24M24,23L24,24M6,25L7,25M6,24L6,25M7,25L8,25M8,24L9,24M9,24L10,24M10,24L10,25M20,24L21,24M20,24L20,25M22,25L23,25M23,25L24,25M24,24L24,25M8,26L9,26M8,25L8,26M9,26L10,26M10,25L11,25M11,25L12,25M12,25L13,25M13,25L13,26M17,25L18,25M17,25L17,26M18,25L19,25M19,25L20,25M20,26L21,26M21,26L22,26M22,25L22,26M10,27L11,27M10,26L10,27M11,27L12,27M12,27L13,27M13,26L14,26M13,27L14,27M14,26L15,26M14,27L15,27M15,26L16,26M15,27L16,27M16,26L17,26M16,27L17,27M17,27L18,27M18,27L19,27M19,27L20,27M20,26L20,27" stroke="currentColor" stroke-width="0.18" fill="none" opacity="0.35" shape-rendering="crispEdges"/><path d="M12,5L13,5M12,5L12,6M13,5L14,5M14,5L15,5M15,5L16,5M16,5L16,6M8,6L9,6M8,6L8,7M9,6L10,6M10,6L11,6M10,7L11,7M11,6L12,6M11,7L12,7M12,7L13,7M13,7L14,7M14,7L15,7M15,7L16,7M16,6L17,6M16,7L17,7M17,6L18,6M18,6L19,6M19,6L20,6M20,6L20,7M7,7L8,7M7,7L7,8M8,8L9,8M9,8L10,8M10,7L10,8M17,8L18,8M17,7L17,8M18,8L19,8M19,8L20,8M20,7L21,7M21,7L21,8M6,8L7,8M6,8L6,9M7,9L8,9M8,8L8,9M20,9L21,9M20,8L20,9M21,8L22,8M22,8L22,9M5,9L6,9M5,9L5,10M7,9L7,10M21,10L22,10M21,9L21,10M22,9L23,9M23,9L23,10M5,10L5,11M6,11L7,11M7,10L7,11M22,10L22,11M23,10L24,10M24,10L24,11M5,11L5,12M6,11L6,12M22,11L22,12M24,11L24,12M4,12L5,12M4,12L4,13M6,12L6,13M22,13L23,13M22,12L22,13M24,12L24,13M4,13L4,14M6,13L6,14M23,13L23,14M24,13L24,14M4,14L4,15M6,14L6,15M23,14L23,15M24,14L25,14M25,14L25,15M4,16L5,16M4,15L4,16M6,15L6,16M22,15L23,15M22,15L22,16M25,15L25,16M5,16L5,17M6,16L7,16M7,16L7,17M22,16L22,17M24,17L25,17M25,16L25,17M5,17L5,18M7,17L7,18M22,17L22,18M24,17L24,18M5,19L6,19M5,18L5,19M7,18L8,18M8,18L8,19M21,18L22,18M21,18L21,19M24,18L24,19M6,19L6,20M8,19L8,20M21,19L21,20M23,20L24,20M24,19L24,20M6,21L7,21M6,20L6,21M8,20L9,20M9,20L9,21M20,20L21,20M20,20L20,21M23,20L23,21M7,21L7,22M9,21L10,21M10,21L10,22M19,21L20,21M19,21L19,22M22,22L23,22M23,21L23,22M7,23L8,23M7,22L7,23M10,22L11,22M11,22L11,23M18,22L19,22M18,22L18,23M21,23L22,23M22,22L22,23M8,24L9,24M8,23L8,24M9,24L10,24M11,23L12,23M12,23L13,23M13,23L14,23M14,23L15,23M15,23L16,23M16,23L17,23M17,23L18,23M20,24L21,24M21,23L21,24M10,25L11,25M10,24L10,25M11,25L12,25M12,25L13,25M17,25L18,25M18,25L19,25M19,25L20,25M20,24L20,25M13,26L14,26M13,25L13,26M14,26L15,26M15,26L16,26M16,26L17,26M17,25L17,26" stroke="currentColor" stroke-width="0.18" fill="none" opacity="0.40" shape-rendering="crispEdges"/><path d="M10,7L11,7M10,7L10,8M11,7L12,7M12,7L13,7M13,7L14,7M14,7L15,7M15,7L16,7M16,7L17,7M17,7L17,8M8,8L9,8M8,8L8,9M9,8L10,8M11,9L12,9M12,9L13,9M13,9L14,9M14,9L15,9M17,8L18,8M18,8L19,8M19,8L20,8M20,8L20,9M7,9L8,9M7,9L7,10M9,10L10,10M10,10L11,10M11,9L11,10M15,10L16,10M15,9L15,10M16,10L17,10M17,10L18,10M18,10L19,10M20,9L21,9M21,9L21,10M7,10L7,11M8,11L9,11M9,10L9,11M19,11L20,11M19,10L19,11M21,10L22,10M22,10L22,11M6,11L7,11M6,11L6,12M8,11L8,12M20,11L20,12M22,11L22,12M6,12L6,13M8,12L8,13M20,12L20,13M22,12L22,13M6,13L6,14M8,13L8,14M20,13L20,14M22,13L23,13M23,13L23,14M6,14L6,15M8,14L8,15M20,14L20,15M22,15L23,15M23,14L23,15M6,16L7,16M6,15L6,16M8,15L9,15M9,15L9,16M20,15L20,16M22,15L22,16M7,16L7,17M9,16L9,17M19,16L20,16M19,16L19,17M22,16L22,17M7,18L8,18M7,17L7,18M9,17L10,17M10,17L10,18M19,17L19,18M21,18L22,18M22,17L22,18M8,18L8,19M10,18L11,18M11,18L11,19M18,18L19,18M18,18L18,19M21,18L21,19M8,20L9,20M8,19L8,20M11,19L12,19M12,19L12,20M16,19L17,19M16,19L16,20M17,19L18,19M20,20L21,20M21,19L21,20M9,21L10,21M9,20L9,21M12,20L13,20M13,20L14,20M14,20L15,20M15,20L16,20M19,21L20,21M20,20L20,21M10,22L11,22M10,21L10,22M18,22L19,22M19,21L19,22M11,23L12,23M11,22L11,23M12,23L13,23M13,23L14,23M14,23L15,23M15,23L16,23M16,23L17,23M17,23L18,23M18,22L18,23" stroke="currentColor" stroke-width="0.18" fill="none" opacity="0.46" shape-rendering="crispEdges"/><path d="M11,9L12,9M11,9L11,10M12,9L13,9M13,9L14,9M14,9L15,9M15,9L15,10M9,10L10,10M9,10L9,11M10,10L11,10M15,10L16,10M16,10L17,10M17,10L18,10M18,10L19,10M19,10L19,11M8,11L9,11M8,11L8,12M19,11L20,11M20,11L20,12M8,12L8,13M20,12L20,13M8,13L8,14M20,13L20,14M8,15L9,15M8,14L8,15M20,14L20,15M9,15L9,16M19,16L20,16M20,15L20,16M9,17L10,17M9,16L9,17M19,16L19,17M10,18L11,18M10,17L10,18M18,18L19,18M19,17L19,18M11,19L12,19M11,18L11,19M16,19L17,19M17,19L18,19M18,18L18,19M12,20L13,20M12,19L12,20M13,20L14,20M14,20L15,20M15,20L16,20M16,19L16,20" stroke="currentColor" stroke-width="0.18" fill="none" opacity="0.52" shape-rendering="crispEdges"/><rect x="2.48" y="3.08" width="1.04" height="1.04" fill="currentColor" opacity="0.40"/><rect x="7.35" y="3.05" width="3.30" height="1.10" fill="currentColor" opacity="0.43"/><rect x="13.14" y="2.98" width="3.73" height="1.24" fill="currentColor" opacity="0.51"/><rect x="20.38" y="2.98" width="1.24" height="1.24" fill="currentColor" opacity="0.51"/><rect x="26.45" y="3.05" width="1.10" height="1.10" fill="currentColor" opacity="0.43"/><rect x="32.48" y="3.08" width="1.04" height="1.04" fill="currentColor" opacity="0.40"/><rect x="1.32" y="10.24" width="3.37" height="1.12" fill="currentColor" opacity="0.45"/><rect x="8.28" y="10.08" width="1.44" height="1.44" fill="currentColor" opacity="0.62"/><rect x="12.49" y="9.96" width="5.02" height="1.67" fill="currentColor" opacity="0.74"/><rect x="20.16" y="9.96" width="1.67" height="1.67" fill="currentColor" opacity="0.74"/><rect x="24.84" y="10.08" width="4.32" height="1.44" fill="currentColor" opacity="0.62"/><rect x="32.44" y="10.24" width="1.12" height="1.12" fill="currentColor" opacity="0.45"/><rect x="1.16" y="17.39" width="3.67" height="1.22" fill="currentColor" opacity="0.50"/><rect x="6.60" y="17.20" width="4.80" height="1.60" fill="currentColor" opacity="0.70"/><rect x="12.04" y="17.01" width="5.92" height="1.97" fill="currentColor" opacity="0.90"/><rect x="18.04" y="17.01" width="5.92" height="1.97" fill="currentColor" opacity="0.90"/><rect x="26.20" y="17.20" width="1.60" height="1.60" fill="currentColor" opacity="0.70"/><rect x="32.39" y="17.39" width="1.22" height="1.22" fill="currentColor" opacity="0.50"/><rect x="2.44" y="24.64" width="1.12" height="1.12" fill="currentColor" opacity="0.45"/><rect x="8.28" y="24.48" width="1.44" height="1.44" fill="currentColor" opacity="0.62"/><rect x="14.16" y="24.36" width="1.67" height="1.67" fill="currentColor" opacity="0.74"/><rect x="20.16" y="24.36" width="1.67" height="1.67" fill="currentColor" opacity="0.74"/><rect x="26.28" y="24.48" width="1.44" height="1.44" fill="currentColor" opacity="0.62"/><rect x="32.44" y="24.64" width="1.12" height="1.12" fill="currentColor" opacity="0.45"/><rect x="1.44" y="31.88" width="3.11" height="1.04" fill="currentColor" opacity="0.40"/><rect x="8.45" y="31.85" width="1.10" height="1.10" fill="currentColor" opacity="0.43"/><rect x="14.38" y="31.78" width="1.24" height="1.24" fill="currentColor" opacity="0.51"/><rect x="19.14" y="31.78" width="3.73" height="1.24" fill="currentColor" opacity="0.51"/><rect x="26.45" y="31.85" width="1.10" height="1.10" fill="currentColor" opacity="0.43"/><rect x="31.44" y="31.88" width="3.11" height="1.04" fill="currentColor" opacity="0.40"/></svg>