<svg xmlns="http://www.w3.org/2000/svg" viewBox="0 0 36 36" preserveAspectRatio="xMidYMid slice"><path d="M34,1L35,1M34,0L34,1M35,2L36,2M35,1L35,2M35,30L36,30M35,30L35,31M34,31L35,31M34,31L34,32M33,32L34,32M33,32L33,33M31,33L32,33M31,33L31,34M32,33L33,33M29,34L30,34M29,34L29,35M30,34L31,34M27,35L28,35M27,35L27,36M28,35L29,35" stroke="currentColor" stroke-width="0.18" fill="none" opacity="0.10" shape-rendering="crispEdges"/><path d="M2,1L3,1M3,1L4,1M4,0L4,1M28,1L29,1M28,0L28,1M29,1L30,1M34,0L34,1M2,1L2,2M30,2L31,2M30,1L30,2M34,1L35,1M35,1L35,2M1,3L2,3M2,2L2,3M31,3L32,3M31,2L31,3M35,2L36,2M0,4L1,4M1,3L1,4M32,4L33,4M32,3L32,4M33,4L33,5M33,6L34,6M33,5L33,6M34,7L35,7M34,6L34,7M35,7L35,8M35,9L36,9M35,8L35,9M35,24L36,24M35,24L35,25M35,25L35,26M34,26L35,26M34,26L34,27M34,27L34,28M33,28L34,28M33,28L33,29M32,29L33,29M32,29L32,30M35,30L36,30M30,30L31,30M30,30L30,31M31,30L32,30M34,31L35,31M35,30L35,31M29,31L30,31M29,31L29,32M33,32L34,32M34,31L34,32M27,32L28,32M27,32L27,33M28,32L29,32M31,33L32,33M32,33L33,33M33,32L33,33M24,33L25,33M24,33L24,34M25,33L26,33M26,33L27,33M29,34L30,34M30,34L31,34M31,33L31,34M23,34L24,34M23,34L23,35M27,35L28,35M28,35L29,35M29,34L29,35M21,35L22,35M21,35L21,36M22,35L23,35M27,35L27,36" stroke="currentColor" stroke-width="0.18" fill="none" opacity="0.12" shape-rendering="crispEdges"/><path d="M4,0L4,1M7,1L8,1M8,1L9,1M9,1L10,1M10,0L10,1M20,1L21,1M20,0L20,1M21,1L22,1M22,1L23,1M23,1L24,1M28,0L28,1M2,1L3,1M2,1L2,2M3,1L4,1M5,2L6,2M6,2L7,2M7,1L7,2M24,2L25,2M24,1L24,2M25,2L26,2M26,2L27,2M28,1L29,1M29,1L30,1M30,1L30,2M2,2L2,3M3,3L4,3M4,3L5,3M5,2L5,3M27,3L28,3M27,2L27,3M30,2L31,2M31,2L31,3M1,3L2,3M1,3L1,4M3,3L3,4M28,4L29,4M28,3L28,4M31,3L32,3M32,3L32,4M0,4L1,4M2,5L3,5M3,4L3,5M29,5L30,5M29,4L29,5M32,4L33,4M33,4L33,5M2,5L2,6M30,6L31,6M30,5L30,6M33,5L33,6M1,7L2,7M2,6L2,7M31,7L32,7M31,6L31,7M33,6L34,6M34,6L34,7M1,7L1,8M32,8L33,8M32,7L32,8M34,7L35,7M35,7L35,8M0,9L1,9M1,8L1,9M33,8L33,9M35,8L35,9M33,10L34,10M33,9L33,10M35,9L36,9M34,10L34,11M34,11L34,12M34,12L34,13M34,13L34,14M34,14L34,15M34,16L35,16M34,15L34,16M35,16L35,17M35,17L35,18M35,18L35,19M34,19L35,19M34,19L34,20M34,20L34,21M34,21L34,22M33,22L34,22M33,22L33,23M33,23L33,24M35,24L36,24M32,24L33,24M32,24L32,25M35,24L35,25M32,25L32,26M34,26L35,26M35,25L35,26M31,26L32,26M31,26L31,27M34,26L34,27M31,27L31,28M33,28L34,28M34,27L34,28M29,28L30,28M29,28L29,29M30,28L31,28M32,29L33,29M33,28L33,29M28,29L29,29M28,29L28,30M30,30L31,30M31,30L32,30M32,29L32,30M26,30L27,30M26,30L26,31M27,30L28,30M29,31L30,31M30,30L30,31M24,31L25,31M24,31L24,32M25,31L26,31M27,32L28,32M28,32L29,32M29,31L29,32M21,32L22,32M21,32L21,33M22,32L23,32M23,32L24,32M24,33L25,33M25,33L26,33M26,33L27,33M27,32L27,33M19,33L20,33M19,33L19,34M20,33L21,33M23,34L24,34M24,33L24,34M0,34L1,34M1,34L2,34M2,34L2,35M18,34L19,34M18,34L18,35M21,35L22,35M22,35L23,35M23,34L23,35M2,35L3,35M3,35L3,36M16,35L17,35M16,35L16,36M17,35L18,35M21,35L21,36" stroke="currentColor" stroke-width="0.18" fill="none" opacity="0.16" shape-rendering="crispEdges"/><path d="M10,0L10,1M13,1L14,1M14,1L15,1M15,1L16,1M16,1L17,1M20,0L20,1M7,1L8,1M7,1L7,2M8,1L9,1M9,1L10,1M10,2L11,2M11,2L12,2M12,2L13,2M13,1L13,2M17,2L18,2M17,1L17,2M18,2L19,2M19,2L20,2M20,1L21,1M20,2L21,2M21,1L22,1M21,2L22,2M22,1L23,1M23,1L24,1M24,1L24,2M5,2L6,2M5,2L5,3M6,2L7,2M8,3L9,3M9,3L10,3M10,2L10,3M22,3L23,3M22,2L22,3M23,3L24,3M24,2L25,2M25,2L26,2M26,2L27,2M27,2L27,3M3,3L4,3M3,3L3,4M4,3L5,3M6,4L7,4M7,4L8,4M8,3L8,4M24,4L25,4M24,3L24,4M25,4L26,4M27,3L28,3M28,3L28,4M3,4L3,5M4,5L5,5M5,5L6,5M6,4L6,5M26,5L27,5M26,4L26,5M28,4L29,4M29,4L29,5M2,5L3,5M2,5L2,6M4,5L4,6M27,6L28,6M27,5L27,6M29,5L30,5M30,5L30,6M2,6L2,7M3,7L4,7M4,6L4,7M28,7L29,7M28,6L28,7M30,6L31,6M31,6L31,7M1,7L2,7M1,7L1,8M2,8L3,8M3,7L3,8M29,8L30,8M29,7L29,8M31,7L32,7M32,7L32,8M1,8L1,9M2,8L2,9M30,8L30,9M32,8L33,8M33,8L33,9M0,9L1,9M2,9L2,10M30,10L31,10M30,9L30,10M33,9L33,10M1,11L2,11M2,10L2,11M31,10L31,11M33,10L34,10M34,10L34,11M1,11L1,12M31,12L32,12M31,11L31,12M34,11L34,12M1,12L1,13M32,12L32,13M34,12L34,13M1,13L1,14M32,13L32,14M34,13L34,14M0,15L1,15M1,14L1,15M32,14L32,15M34,14L34,15M32,15L32,16M34,15L34,16M32,17L33,17M32,16L32,17M34,16L35,16M35,16L35,17M33,17L33,18M35,17L35,18M33,18L33,19M34,19L35,19M35,18L35,19M32,19L33,19M32,19L32,20M34,19L34,20M32,20L32,21M34,20L34,21M32,21L32,22M33,22L34,22M34,21L34,22M31,22L32,22M31,22L31,23M33,22L33,23M31,23L31,24M32,24L33,24M33,23L33,24M30,24L31,24M30,24L30,25M32,24L32,25M30,25L30,26M31,26L32,26M32,25L32,26M29,26L30,26M29,26L29,27M31,26L31,27M28,27L29,27M28,27L28,28M29,28L30,28M30,28L31,28M31,27L31,28M26,28L27,28M26,28L26,29M27,28L28,28M28,29L29,29M29,28L29,29M0,29L1,29M1,29L1,30M24,29L25,29M24,29L24,30M25,29L26,29M26,30L27,30M27,30L28,30M28,29L28,30M1,30L1,31M21,30L22,30M21,30L21,31M22,30L23,30M23,30L24,30M24,31L25,31M25,31L26,31M26,30L26,31M1,31L2,31M2,31L2,32M19,31L20,31M19,31L19,32M20,31L21,31M21,32L22,32M22,32L23,32M23,32L24,32M24,31L24,32M2,32L3,32M3,32L3,33M17,32L18,32M17,32L17,33M18,32L19,32M19,33L20,33M20,33L21,33M21,32L21,33M0,34L1,34M1,34L2,34M3,33L4,33M4,33L4,34M15,33L16,33M15,33L15,34M16,33L17,33M18,34L19,34M19,33L19,34M2,35L3,35M2,34L2,35M4,34L5,34M5,34L5,35M13,34L14,34M13,34L13,35M14,34L15,34M16,35L17,35M17,35L18,35M18,34L18,35M3,35L3,36M5,35L6,35M6,35L7,35M7,35L8,35M8,35L9,35M9,35L10,35M10,35L11,35M11,35L12,35M12,35L13,35M16,35L16,36" stroke="currentColor" stroke-width="0.18" fill="none" opacity="0.20" shape-rendering="crispEdges"/><path d="M13,1L14,1M13,1L13,2M14,1L15,1M15,1L16,1M16,1L17,1M17,1L17,2M10,2L11,2M10,2L10,3M11,2L12,2M12,2L13,2M12,3L13,3M13,3L14,3M14,3L15,3M15,3L16,3M16,3L17,3M17,2L18,2M17,3L18,3M18,2L19,2M18,3L19,3M19,2L20,2M20,2L21,2M21,2L22,2M22,2L22,3M8,3L9,3M8,3L8,4M9,3L10,3M10,4L11,4M11,4L12,4M12,3L12,4M19,4L20,4M19,3L19,4M20,4L21,4M21,4L22,4M22,3L23,3M23,3L24,3M24,3L24,4M6,4L7,4M6,4L6,5M7,4L8,4M8,5L9,5M9,5L10,5M10,4L10,5M22,5L23,5M22,4L22,5M24,4L25,4M25,4L26,4M26,4L26,5M4,5L5,5M4,5L4,6M5,5L6,5M6,6L7,6M7,6L8,6M8,5L8,6M23,6L24,6M23,5L23,6M24,6L25,6M26,5L27,5M27,5L27,6M4,6L4,7M5,7L6,7M6,6L6,7M25,7L26,7M25,6L25,7M27,6L28,6M28,6L28,7M3,7L4,7M3,7L3,8M4,8L5,8M5,7L5,8M26,8L27,8M26,7L26,8M28,7L29,7M29,7L29,8M2,8L3,8M2,8L2,9M4,8L4,9M27,9L28,9M27,8L27,9M29,8L30,8M30,8L30,9M2,9L2,10M3,10L4,10M4,9L4,10M28,10L29,10M28,9L28,10M30,9L30,10M2,10L2,11M3,10L3,11M29,10L29,11M30,10L31,10M31,10L31,11M1,11L2,11M1,11L1,12M3,11L3,12M29,11L29,12M31,11L31,12M1,12L1,13M2,13L3,13M3,12L3,13M29,13L30,13M29,12L29,13M31,12L32,12M32,12L32,13M1,13L1,14M2,13L2,14M30,13L30,14M32,13L32,14M1,14L1,15M2,14L2,15M30,14L30,15M32,14L32,15M0,15L1,15M1,16L2,16M2,15L2,16M30,15L30,16M32,15L32,16M1,16L1,17M30,16L30,17M32,16L32,17M1,17L1,18M30,17L30,18M32,17L33,17M33,17L33,18M1,18L1,19M30,18L30,19M32,19L33,19M33,18L33,19M1,19L1,20M30,19L30,20M32,19L32,20M1,20L1,21M30,20L30,21M32,20L32,21M1,21L1,22M29,21L30,21M29,21L29,22M31,22L32,22M32,21L32,22M1,22L1,23M29,22L29,23M31,22L31,23M1,23L1,24M29,23L29,24M30,24L31,24M31,23L31,24M1,24L2,24M2,24L2,25M28,24L29,24M28,24L28,25M30,24L30,25M2,25L2,26M27,25L28,25M27,25L27,26M29,26L30,26M30,25L30,26M2,26L2,27M26,26L27,26M26,26L26,27M28,27L29,27M29,26L29,27M2,27L2,28M25,27L26,27M25,27L25,28M26,28L27,28M27,28L28,28M28,27L28,28M0,29L1,29M2,28L3,28M3,28L3,29M22,28L23,28M22,28L22,29M23,28L24,28M24,28L25,28M24,29L25,29M25,29L26,29M26,28L26,29M1,29L1,30M3,29L3,30M20,29L21,29M20,29L20,30M21,29L22,29M21,30L22,30M22,30L23,30M23,30L24,30M24,29L24,30M1,31L2,31M1,30L1,31M3,30L4,30M4,30L4,31M17,30L18,30M17,30L17,31M18,30L19,30M19,30L20,30M19,31L20,31M20,31L21,31M21,30L21,31M2,32L3,32M2,31L2,32M4,31L5,31M5,31L5,32M15,31L16,31M15,31L15,32M16,31L17,31M17,32L18,32M18,32L19,32M19,31L19,32M3,33L4,33M3,32L3,33M5,32L6,32M6,32L6,33M13,32L14,32M13,32L13,33M14,32L15,32M15,33L16,33M16,33L17,33M17,32L17,33M4,34L5,34M4,33L4,34M6,33L7,33M7,33L8,33M8,33L8,34M10,33L11,33M10,33L10,34M11,33L12,33M12,33L13,33M13,34L14,34M14,34L15,34M15,33L15,34M5,35L6,35M5,34L5,35M6,35L7,35M7,35L8,35M8,34L9,34M8,35L9,35M9,34L10,34M9,35L10,35M10,35L11,35M11,35L12,35M12,35L13,35M13,34L13,35" stroke="currentColor" stroke-width="0.18" fill="none" opacity="0.25" shape-rendering="crispEdges"/><path d="M12,3L13,3M12,3L12,4M13,3L14,3M14,3L15,3M15,3L16,3M16,3L17,3M17,3L18,3M18,3L19,3M19,3L19,4M10,4L11,4M10,4L10,5M11,4L12,4M12,5L13,5M13,5L14,5M14,5L15,5M15,5L16,5M16,5L17,5M17,5L18,5M18,5L19,5M19,4L20,4M20,4L21,4M21,4L22,4M22,4L22,5M8,5L9,5M8,5L8,6M9,5L10,5M10,6L11,6M11,6L12,6M12,5L12,6M19,6L20,6M19,5L19,6M20,6L21,6M22,5L23,5M23,5L23,6M6,6L7,6M6,6L6,7M7,6L8,6M8,7L9,7M9,7L10,7M10,6L10,7M21,7L22,7M21,6L21,7M22,7L23,7M23,6L24,6M24,6L25,6M25,6L25,7M5,7L6,7M5,7L5,8M6,8L7,8M7,8L8,8M8,7L8,8M23,8L24,8M23,7L23,8M25,7L26,7M26,7L26,8M4,8L5,8M4,8L4,9M6,8L6,9M24,9L25,9M24,8L24,9M26,8L27,8M27,8L27,9M4,9L4,10M5,10L6,10M6,9L6,10M25,10L26,10M25,9L25,10M27,9L28,9M28,9L28,10M3,10L4,10M3,10L3,11M4,11L5,11M5,10L5,11M26,11L27,11M26,10L26,11M28,10L29,10M29,10L29,11M3,11L3,12M4,11L4,12M27,11L27,12M29,11L29,12M3,12L3,13M4,12L4,13M27,12L27,13M29,12L29,13M2,13L3,13M2,13L2,14M4,13L4,14M27,13L27,14M29,13L30,13M30,13L30,14M2,14L2,15M3,15L4,15M4,14L4,15M27,15L28,15M27,14L27,15M30,14L30,15M2,15L2,16M3,15L3,16M28,15L28,16M30,15L30,16M1,16L2,16M1,16L1,17M3,16L3,17M28,16L28,17M30,16L30,17M1,17L1,18M3,17L3,18M28,17L28,18M30,17L30,18M1,18L1,19M3,18L3,19M28,18L28,19M30,18L30,19M1,19L1,20M3,19L3,20M28,19L28,20M30,19L30,20M1,20L1,21M3,20L3,21M27,20L28,20M27,20L27,21M29,21L30,21M30,20L30,21M1,21L1,22M3,21L3,22M27,21L27,22M29,21L29,22M1,22L1,23M3,22L3,23M27,22L27,23M29,22L29,23M1,24L2,24M1,23L1,24M3,23L3,24M26,23L27,23M26,23L26,24M28,24L29,24M29,23L29,24M2,24L2,25M3,24L3,25M26,24L26,25M27,25L28,25M28,24L28,25M2,25L2,26M3,25L4,25M4,25L4,26M25,25L26,25M25,25L25,26M26,26L27,26M27,25L27,26M2,26L2,27M4,26L4,27M23,26L24,26M23,26L23,27M24,26L25,26M25,27L26,27M26,26L26,27M2,28L3,28M2,27L2,28M4,27L5,27M5,27L5,28M21,27L22,27M21,27L21,28M22,27L23,27M22,28L23,28M23,28L24,28M24,28L25,28M25,27L25,28M3,28L3,29M5,28L5,29M18,28L19,28M18,28L18,29M19,28L20,28M20,28L21,28M20,29L21,29M21,29L22,29M22,28L22,29M3,30L4,30M3,29L3,30M5,29L6,29M6,29L6,30M15,29L16,29M15,29L15,30M16,29L17,29M17,29L18,29M17,30L18,30M18,30L19,30M19,30L20,30M20,29L20,30M4,31L5,31M4,30L4,31M6,30L7,30M7,30L7,31M13,30L14,30M13,30L13,31M14,30L15,30M15,31L16,31M16,31L17,31M17,30L17,31M5,32L6,32M5,31L5,32M7,31L8,31M8,31L9,31M9,31L10,31M10,31L11,31M11,31L12,31M12,31L13,31M13,32L14,32M14,32L15,32M15,31L15,32M6,33L7,33M6,32L6,33M7,33L8,33M10,33L11,33M11,33L12,33M12,33L13,33M13,32L13,33M8,34L9,34M8,33L8,34M9,34L10,34M10,33L10,34" stroke="currentColor" stroke-width="0.18" fill="none" opacity="0.30" shape-rendering="crispEdges"/><path d="M12,5L13,5M12,5L12,6M13,5L14,5M14,5L15,5M15,5L16,5M16,5L17,5M17,5L18,5M18,5L19,5M19,5L19,6M10,6L11,6M10,6L10,7M11,6L12,6M14,7L15,7M15,7L16,7M19,6L20,6M20,6L21,6M21,6L21,7M8,7L9,7M8,7L8,8M9,7L10,7M10,8L11,8M11,8L12,8M12,8L13,8M13,8L14,8M14,7L14,8M16,8L17,8M16,7L16,8M17,8L18,8M18,8L19,8M19,8L20,8M20,8L21,8M21,7L22,7M22,7L23,7M23,7L23,8M6,8L7,8M6,8L6,9M7,8L8,8M8,9L9,9M9,9L10,9M10,8L10,9M21,9L22,9M21,8L21,9M23,8L24,8M24,8L24,9M6,9L6,10M7,10L8,10M8,9L8,10M22,10L23,10M22,9L22,10M24,9L25,9M25,9L25,10M5,10L6,10M5,10L5,11M6,11L7,11M7,10L7,11M23,11L24,11M23,10L23,11M25,10L26,10M26,10L26,11M4,11L5,11M4,11L4,12M6,11L6,12M24,11L24,12M26,11L27,11M27,11L27,12M4,12L4,13M6,12L6,13M24,13L25,13M24,12L24,13M27,12L27,13M4,13L4,14M6,13L6,14M25,13L25,14M27,13L27,14M4,14L4,15M5,15L6,15M6,14L6,15M25,14L25,15M27,14L27,15M3,15L4,15M3,15L3,16M5,15L5,16M25,15L25,16M27,15L28,15M28,15L28,16M3,16L3,17M5,16L5,17M25,16L25,17M28,16L28,17M3,17L3,18M5,17L5,18M25,17L25,18M28,17L28,18M3,18L3,19M5,18L5,19M25,18L25,19M28,18L28,19M3,19L3,20M5,19L5,20M24,19L25,19M24,19L24,20M27,20L28,20M28,19L28,20M3,20L3,21M5,20L5,21M24,20L24,21M27,20L27,21M3,21L3,22M5,21L5,22M24,21L24,22M27,21L27,22M3,22L3,23M5,22L5,23M23,22L24,22M23,22L23,23M26,23L27,23M27,22L27,23M3,23L3,24M5,23L5,24M23,23L23,24M26,23L26,24M3,25L4,25M3,24L3,25M5,24L6,24M6,24L6,25M22,24L23,24M22,24L22,25M25,25L26,25M26,24L26,25M4,25L4,26M6,25L6,26M21,25L22,25M21,25L21,26M23,26L24,26M24,26L25,26M25,25L25,26M4,27L5,27M4,26L4,27M6,26L6,27M19,26L20,26M19,26L19,27M20,26L21,26M21,27L22,27M22,27L23,27M23,26L23,27M5,27L5,28M6,27L7,27M7,27L7,28M17,27L18,27M17,27L17,28M18,27L19,27M18,28L19,28M19,28L20,28M20,28L21,28M21,27L21,28M5,29L6,29M5,28L5,29M7,28L8,28M8,28L8,29M13,28L14,28M13,28L13,29M14,28L15,28M15,28L16,28M15,29L16,29M16,28L17,28M16,29L17,29M17,29L18,29M18,28L18,29M6,30L7,30M6,29L6,30M8,29L9,29M9,29L10,29M10,29L11,29M11,29L12,29M12,29L13,29M13,30L14,30M14,30L15,30M15,29L15,30M7,31L8,31M7,30L7,31M8,31L9,31M9,31L10,31M10,31L11,31M11,31L12,31M12,31L13,31M13,30L13,31" stroke="currentColor" stroke-width="0.18" fill="none" opacity="0.35" shape-rendering="crispEdges"/><path d="M14,7L15,7M14,7L14,8M15,7L16,7M16,7L16,8M10,8L11,8M10,8L10,9M11,8L12,8M12,8L13,8M13,8L14,8M16,8L17,8M17,8L18,8M18,8L19,8M19,8L20,8M20,8L21,8M21,8L21,9M8,9L9,9M8,9L8,10M9,9L10,9M10,10L11,10M11,10L12,10M12,10L13,10M13,10L14,10M14,10L15,10M15,10L16,10M16,10L17,10M17,10L18,10M18,10L19,10M21,9L22,9M22,9L22,10M7,10L8,10M7,10L7,11M9,11L10,11M10,10L10,11M19,11L20,11M19,10L19,11M20,11L21,11M22,10L23,10M23,10L23,11M6,11L7,11M6,11L6,12M8,12L9,12M9,11L9,12M21,11L21,12M23,11L24,11M24,11L24,12M6,12L6,13M8,12L8,13M21,12L21,13M24,12L24,13M6,13L6,14M8,13L8,14M21,13L21,14M24,13L25,13M25,13L25,14M6,14L6,15M8,14L8,15M21,14L21,15M25,14L25,15M5,15L6,15M5,15L5,16M8,15L8,16M21,15L21,16M25,15L25,16M5,16L5,17M8,16L8,17M21,16L21,17M25,16L25,17M5,17L5,18M8,17L8,18M21,17L21,18M25,17L25,18M5,18L5,19M8,18L8,19M21,18L21,19M24,19L25,19M25,18L25,19M5,19L5,20M8,19L8,20M21,19L21,20M24,19L24,20M5,20L5,21M8,20L8,21M21,20L21,21M24,20L24,21M5,21L5,22M8,21L8,22M20,21L21,21M20,21L20,22M23,22L24,22M24,21L24,22M5,22L5,23M8,22L8,23M20,22L20,23M23,22L23,23M5,24L6,24M5,23L5,24M8,23L8,24M20,23L20,24M22,24L23,24M23,23L23,24M6,24L6,25M8,24L8,25M19,24L20,24M19,24L19,25M21,25L22,25M22,24L22,25M6,25L6,26M8,25L8,26M17,25L18,25M17,25L17,26M18,25L19,25M19,26L20,26M20,26L21,26M21,25L21,26M6,27L7,27M6,26L6,27M8,26L9,26M9,26L10,26M10,26L10,27M14,26L15,26M14,26L14,27M15,26L16,26M16,26L17,26M17,27L18,27M18,27L19,27M19,26L19,27M7,28L8,28M7,27L7,28M10,27L11,27M11,27L12,27M12,27L13,27M13,27L14,27M13,28L14,28M14,28L15,28M15,28L16,28M16,28L17,28M17,27L17,28M8,29L9,29M8,28L8,29M9,29L10,29M10,29L11,29M11,29L12,29M12,29L13,29M13,28L13,29" stroke="currentColor" stroke-width="0.18" fill="none" opacity="0.40" shape-rendering="crispEdges"/><path d="M10,10L11,10M10,10L10,11M11,10L12,10M12,10L13,10M13,10L14,10M14,10L15,10M15,10L16,10M16,10L17,10M17,10L18,10M18,10L19,10M19,10L19,11M9,11L10,11M9,11L9,12M19,11L20,11M20,11L21,11M21,11L21,12M8,12L9,12M8,12L8,13M12,13L13,13M13,13L14,13M14,13L15,13M15,13L16,13M16,13L17,13M21,12L21,13M8,13L8,14M11,14L12,14M12,13L12,14M17,14L18,14M17,13L17,14M21,13L21,14M8,14L8,15M11,14L11,15M18,14L18,15M21,14L21,15M8,15L8,16M11,15L11,16M18,16L19,16M18,15L18,16M21,15L21,16M8,16L8,17M11,16L11,17M19,16L19,17M21,16L21,17M8,17L8,18M11,17L11,18M19,17L19,18M21,17L21,18M8,18L8,19M11,18L11,19M18,18L19,18M18,18L18,19M21,18L21,19M8,19L8,20M11,19L11,20M18,19L18,20M21,19L21,20M8,20L8,21M11,20L11,21M18,20L18,21M20,21L21,21M21,20L21,21M8,21L8,22M11,21L11,22M17,21L18,21M17,21L17,22M20,21L20,22M8,22L8,23M11,22L11,23M17,22L17,23M20,22L20,23M8,23L8,24M11,23L12,23M12,23L12,24M15,23L16,23M15,23L15,24M16,23L17,23M19,24L20,24M20,23L20,24M8,24L8,25M12,24L13,24M13,24L14,24M14,24L15,24M17,25L18,25M18,25L19,25M19,24L19,25M8,26L9,26M8,25L8,26M9,26L10,26M14,26L15,26M15,26L16,26M16,26L17,26M17,25L17,26M10,27L11,27M10,26L10,27M11,27L12,27M12,27L13,27M13,27L14,27M14,26L14,27" stroke="currentColor" stroke-width="0.18" fill="none" opacity="0.46" shape-rendering="crispEdges"/><path d="M12,13L13,13M12,13L12,14M13,13L14,13M14,13L15,13M15,13L16,13M16,13L17,13M17,13L17,14M11,14L12,14M11,14L11,15M17,14L18,14M18,14L18,15M11,15L11,16M18,15L18,16M11,16L11,17M18,16L19,16M19,16L19,17M11,17L11,18M18,18L19,18M19,17L19,18M11,18L11,19M18,18L18,19M11,19L11,20M18,19L18,20M11,20L11,21M17,21L18,21M18,20L18,21M11,21L11,22M17,21L17,22M11,23L12,23M11,22L11,23M15,23L16,23M16,23L17,23M17,22L17,23M12,24L13,24M12,23L12,24M13,24L14,24M14,24L15,24M15,23L15,24" stroke="currentColor" stroke-width="0.18" fill="none" opacity="0.52" shape-rendering="crispEdges"/><rect x="2.48" y="3.08" width="1.04" height="1.04" fill="currentColor" opacity="0.40"/><rect x="7.35" y="3.05" width="3.30" height="1.10" fill="currentColor" opacity="0.43"/><rect x="14.38" y="2.98" width="1.24" height="1.24" fill="currentColor" opacity="0.51"/><rect x="20.38" y="2.98" width="1.24" height="1.24" fill="currentColor" opacity="0.51"/><rect x="26.45" y="3.05" width="1.10" height="1.10" fill="currentColor" opacity="0.43"/><rect x="31.44" y="3.08" width="3.11" height="1.04" fill="currentColor" opacity="0.40"/><rect x="2.44" y="10.24" width="1.12" height="1.12" fill="currentColor" opacity="0.45"/><rect x="8.28" y="10.08" width="1.44" height="1.44" fill="currentColor" opacity="0.62"/><rect x="12.49" y="9.96" width="5.02" height="1.67" fill="currentColor" opacity="0.74"/><rect x="20.16" y="9.96" width="1.67" height="1.67" fill="currentColor" opacity="0.74"/><rect x="26.28" y="10.08" width="1.44" height="1.44" fill="currentColor" opacity="0.62"/><rect x="32.44" y="10.24" width="1.12" height="1.12" fill="currentColor" opacity="0.45"/><rect x="2.39" y="17.39" width="1.22" height="1.22" fill="currentColor" opacity="0.50"/><rect x="6.60" y="17.20" width="4.80" height="1.60" fill="currentColor" opacity="0.70"/><rect x="14.01" y="17.01" width="1.97" height="1.97" fill="currentColor" opacity="0.90"/><rect x="18.04" y="17.01" width="5.92" height="1.97" fill="currentColor" opacity="0.90"/><rect x="26.20" y="17.20" width="1.60" height="1.60" fill="currentColor" opacity="0.70"/><rect x="32.39" y="17.39" width="1.22" height="1.22" fill="currentColor" opacity="0.50"/><rect x="1.32" y="24.64" width="3.37" height="1.12" fill="currentColor" opacity="0.45"/><rect x="8.28" y="24.48" width="1.44" height="1.44" fill="currentColor" opacity="0.62"/><rect x="14.16" y="24.36" width="1.67" height="1.67" fill="currentColor" opacity="0.74"/><rect x="20.16" y="24.36" width="1.67" height="1.67" fill="currentColor" opacity="0.74"/><rect x="26.28" y="24.48" width="1.44" height="1.44" fill="currentColor" opacity="0.62"/><rect x="31.32" y="24.64" width="3.37" height="1.12" fill="currentColor" opacity="0.45"/><rect x="1.44" y="31.88" width="3.11" height="1.04" fill="currentColor" opacity="0.40"/><rect x="8.45" y="31.85" width="1.10" height="1.10" fill="currentColor" opacity="0.43"/><rect x="13.14" y="31.78" width="3.73" height="1.24" fill="currentColor" opacity="0.51"/></svg>