<svg xmlns="http://www.w3.org/2000/svg" viewBox="0 0 36 36" preserveAspectRatio="xMidYMid slice"><path d="M5,1L6,1M6,1L7,1M7,0L7,1M4,2L5,2M5,1L5,2M3,3L4,3M4,2L4,3M2,4L3,4M3,3L3,4M1,5L2,5M2,4L2,5M1,5L1,6M1,6L1,7M0,8L1,8M1,7L1,8" stroke="currentColor" stroke-width="0.18" fill="none" opacity="0.10" shape-rendering="crispEdges"/><path d="M7,0L7,1M10,1L11,1M11,1L12,1M12,0L12,1M32,1L33,1M32,0L32,1M5,1L6,1M5,1L5,2M6,1L7,1M8,2L9,2M9,2L10,2M10,1L10,2M33,2L34,2M33,1L33,2M4,2L5,2M4,2L4,3M7,3L8,3M8,2L8,3M34,2L34,3M3,3L4,3M3,3L3,4M6,4L7,4M7,3L7,4M34,4L35,4M34,3L34,4M2,4L3,4M2,4L2,5M5,5L6,5M6,4L6,5M35,5L36,5M35,4L35,5M1,5L2,5M1,5L1,6M4,6L5,6M5,5L5,6M1,6L1,7M4,6L4,7M1,7L1,8M3,8L4,8M4,7L4,8M0,8L1,8M2,9L3,9M3,8L3,9M2,9L2,10M1,11L2,11M2,10L2,11M1,11L1,12M0,13L1,13M1,12L1,13M35,31L36,31M35,31L35,32M35,32L35,33M34,33L35,33M34,33L34,34M33,34L34,34M33,34L33,35M31,35L32,35M31,35L31,36M32,35L33,35" stroke="currentColor" stroke-width="0.18" fill="none" opacity="0.12" shape-rendering="crispEdges"/><path d="M12,0L12,1M16,1L17,1M17,1L18,1M18,1L19,1M19,1L20,1M20,1L21,1M21,1L22,1M22,1L23,1M23,1L24,1M24,1L25,1M25,1L26,1M26,1L27,1M27,1L28,1M32,0L32,1M10,1L11,1M10,1L10,2M11,1L12,1M13,2L14,2M14,2L15,2M15,2L16,2M16,1L16,2M28,2L29,2M28,1L28,2M29,2L30,2M32,1L33,1M33,1L33,2M8,2L9,2M8,2L8,3M9,2L10,2M11,3L12,3M12,3L13,3M13,2L13,3M30,3L31,3M30,2L30,3M33,2L34,2M34,2L34,3M7,3L8,3M7,3L7,4M9,4L10,4M10,4L11,4M11,3L11,4M31,3L31,4M34,3L34,4M6,4L7,4M6,4L6,5M8,5L9,5M9,4L9,5M31,5L32,5M31,4L31,5M34,4L35,4M35,4L35,5M5,5L6,5M5,5L5,6M7,6L8,6M8,5L8,6M32,5L32,6M35,5L36,5M4,6L5,6M4,6L4,7M7,6L7,7M32,7L33,7M32,6L32,7M4,7L4,8M6,8L7,8M7,7L7,8M33,8L34,8M33,7L33,8M3,8L4,8M3,8L3,9M5,9L6,9M6,8L6,9M34,8L34,9M2,9L3,9M2,9L2,10M4,10L5,10M5,9L5,10M34,10L35,10M34,9L34,10M2,10L2,11M3,11L4,11M4,10L4,11M35,10L35,11M1,11L2,11M1,11L1,12M3,11L3,12M35,12L36,12M35,11L35,12M1,12L1,13M2,13L3,13M3,12L3,13M0,13L1,13M2,13L2,14M1,15L2,15M2,14L2,15M1,15L1,16M1,16L1,17M0,18L1,18M1,17L1,18M35,27L36,27M35,27L35,28M35,28L35,29M34,29L35,29M34,29L34,30M33,30L34,30M33,30L33,31M35,31L36,31M0,31L1,31M1,31L1,32M32,31L33,31M32,31L32,32M35,31L35,32M1,32L1,33M31,32L32,32M31,32L31,33M34,33L35,33M35,32L35,33M1,33L2,33M2,33L2,34M30,33L31,33M30,33L30,34M33,34L34,34M34,33L34,34M2,34L3,34M3,34L3,35M29,34L30,34M29,34L29,35M31,35L32,35M32,35L33,35M33,34L33,35M3,35L4,35M4,35L4,36M28,35L29,35M28,35L28,36M31,35L31,36" stroke="currentColor" stroke-width="0.18" fill="none" opacity="0.16" shape-rendering="crispEdges"/><path d="M16,1L17,1M16,1L16,2M17,1L18,1M18,1L19,1M19,1L20,1M20,1L21,1M21,1L22,1M22,1L23,1M23,1L24,1M24,1L25,1M25,1L26,1M26,1L27,1M27,1L28,1M28,1L28,2M13,2L14,2M13,2L13,3M14,2L15,2M15,2L16,2M28,2L29,2M29,2L30,2M30,2L30,3M11,3L12,3M11,3L11,4M12,3L13,3M13,4L14,4M14,4L15,4M15,4L16,4M16,4L17,4M17,4L18,4M18,4L19,4M19,4L20,4M20,4L21,4M21,4L22,4M22,4L23,4M23,4L24,4M24,4L25,4M25,4L26,4M26,4L27,4M30,3L31,3M31,3L31,4M9,4L10,4M9,4L9,5M10,4L11,4M12,5L13,5M13,4L13,5M27,5L28,5M27,4L27,5M31,4L31,5M8,5L9,5M8,5L8,6M11,6L12,6M12,5L12,6M28,6L29,6M28,5L28,6M31,5L32,5M32,5L32,6M7,6L8,6M7,6L7,7M10,7L11,7M11,6L11,7M29,7L30,7M29,6L29,7M32,6L32,7M7,7L7,8M9,8L10,8M10,7L10,8M30,7L30,8M32,7L33,7M33,7L33,8M6,8L7,8M6,8L6,9M8,9L9,9M9,8L9,9M30,9L31,9M30,8L30,9M33,8L34,8M34,8L34,9M5,9L6,9M5,9L5,10M7,10L8,10M8,9L8,10M31,10L32,10M31,9L31,10M34,9L34,10M4,10L5,10M4,10L4,11M6,11L7,11M7,10L7,11M32,11L33,11M32,10L32,11M34,10L35,10M35,10L35,11M3,11L4,11M3,11L3,12M5,12L6,12M6,11L6,12M33,11L33,12M35,11L35,12M3,12L3,13M4,13L5,13M5,12L5,13M33,13L34,13M33,12L33,13M35,12L36,12M2,13L3,13M2,13L2,14M4,13L4,14M34,13L34,14M2,14L2,15M3,15L4,15M4,14L4,15M34,14L34,15M1,15L2,15M1,15L1,16M3,15L3,16M34,15L34,16M1,16L1,17M3,16L3,17M34,16L34,17M1,17L1,18M2,18L3,18M3,17L3,18M34,17L34,18M0,18L1,18M2,18L2,19M34,18L34,19M2,19L2,20M34,19L34,20M1,21L2,21M2,20L2,21M34,20L34,21M1,21L1,22M34,21L34,22M1,22L1,23M34,22L34,23M1,23L1,24M34,23L34,24M1,24L1,25M34,24L34,25M1,25L1,26M33,25L34,25M33,25L33,26M1,26L1,27M33,26L33,27M35,27L36,27M1,27L2,27M2,27L2,28M33,27L33,28M35,27L35,28M2,28L2,29M32,28L33,28M32,28L32,29M34,29L35,29M35,28L35,29M2,29L2,30M31,29L32,29M31,29L31,30M33,30L34,30M34,29L34,30M0,31L1,31M2,30L3,30M3,30L3,31M30,30L31,30M30,30L30,31M32,31L33,31M33,30L33,31M1,31L1,32M3,31L3,32M29,31L30,31M29,31L29,32M31,32L32,32M32,31L32,32M1,33L2,33M1,32L1,33M3,32L4,32M4,32L4,33M28,32L29,32M28,32L28,33M30,33L31,33M31,32L31,33M2,34L3,34M2,33L2,34M4,33L5,33M5,33L5,34M27,33L28,33M27,33L27,34M29,34L30,34M30,33L30,34M3,35L4,35M3,34L3,35M5,34L6,34M6,34L6,35M26,34L27,34M26,34L26,35M28,35L29,35M29,34L29,35M4,35L4,36M6,35L7,35M7,35L7,36M24,35L25,35M24,35L24,36M25,35L26,35M28,35L28,36" stroke="currentColor" stroke-width="0.18" fill="none" opacity="0.20" shape-rendering="crispEdges"/><path d="M13,4L14,4M13,4L13,5M14,4L15,4M15,4L16,4M16,4L17,4M17,4L18,4M18,4L19,4M19,4L20,4M20,4L21,4M21,4L22,4M22,4L23,4M23,4L24,4M24,4L25,4M25,4L26,4M26,4L27,4M27,4L27,5M12,5L13,5M12,5L12,6M16,6L17,6M17,6L18,6M18,6L19,6M27,5L28,5M28,5L28,6M11,6L12,6M11,6L11,7M14,7L15,7M15,7L16,7M16,6L16,7M19,7L20,7M19,6L19,7M20,7L21,7M21,7L22,7M22,7L23,7M23,7L24,7M24,7L25,7M28,6L29,6M29,6L29,7M10,7L11,7M10,7L10,8M12,8L13,8M13,8L14,8M14,7L14,8M25,8L26,8M25,7L25,8M26,8L27,8M29,7L30,7M30,7L30,8M9,8L10,8M9,8L9,9M11,9L12,9M12,8L12,9M27,9L28,9M27,8L27,9M30,8L30,9M8,9L9,9M8,9L8,10M9,10L10,10M10,10L11,10M11,9L11,10M28,10L29,10M28,9L28,10M30,9L31,9M31,9L31,10M7,10L8,10M7,10L7,11M8,11L9,11M9,10L9,11M29,11L30,11M29,10L29,11M31,10L32,10M32,10L32,11M6,11L7,11M6,11L6,12M7,12L8,12M8,11L8,12M30,12L31,12M30,11L30,12M32,11L33,11M33,11L33,12M5,12L6,12M5,12L5,13M6,13L7,13M7,12L7,13M31,12L31,13M33,12L33,13M4,13L5,13M4,13L4,14M6,13L6,14M31,14L32,14M31,13L31,14M33,13L34,13M34,13L34,14M4,14L4,15M5,15L6,15M6,14L6,15M32,14L32,15M34,14L34,15M3,15L4,15M3,15L3,16M5,15L5,16M32,15L32,16M34,15L34,16M3,16L3,17M4,17L5,17M5,16L5,17M32,16L32,17M34,16L34,17M3,17L3,18M4,17L4,18M32,17L32,18M34,17L34,18M2,18L3,18M2,18L2,19M4,18L4,19M32,18L32,19M34,18L34,19M2,19L2,20M3,20L4,20M4,19L4,20M32,19L32,20M34,19L34,20M2,20L2,21M3,20L3,21M32,20L32,21M34,20L34,21M1,21L2,21M1,21L1,22M3,21L3,22M32,21L32,22M34,21L34,22M1,22L1,23M3,22L3,23M32,22L32,23M34,22L34,23M1,23L1,24M3,23L3,24M32,23L32,24M34,23L34,24M1,24L1,25M3,24L3,25M31,24L32,24M31,24L31,25M33,25L34,25M34,24L34,25M1,25L1,26M3,25L3,26M31,25L31,26M33,25L33,26M1,27L2,27M1,26L1,27M3,26L3,27M31,26L31,27M33,26L33,27M2,27L2,28M3,27L3,28M30,27L31,27M30,27L30,28M32,28L33,28M33,27L33,28M2,28L2,29M3,28L4,28M4,28L4,29M29,28L30,28M29,28L29,29M31,29L32,29M32,28L32,29M2,30L3,30M2,29L2,30M4,29L4,30M29,29L29,30M30,30L31,30M31,29L31,30M3,30L3,31M4,30L5,30M5,30L5,31M28,30L29,30M28,30L28,31M29,31L30,31M30,30L30,31M3,32L4,32M3,31L3,32M5,31L5,32M27,31L28,31M27,31L27,32M28,32L29,32M29,31L29,32M4,33L5,33M4,32L4,33M5,32L6,32M6,32L6,33M25,32L26,32M25,32L25,33M26,32L27,32M27,33L28,33M28,32L28,33M5,34L6,34M5,33L5,34M6,33L7,33M7,33L7,34M24,33L25,33M24,33L24,34M26,34L27,34M27,33L27,34M6,35L7,35M6,34L6,35M7,34L8,34M8,34L9,34M9,34L9,35M22,34L23,34M22,34L22,35M23,34L24,34M24,35L25,35M25,35L26,35M26,34L26,35M7,35L7,36M9,35L10,35M10,35L11,35M11,35L12,35M12,35L12,36M18,35L19,35M18,35L18,36M19,35L20,35M20,35L21,35M21,35L22,35M24,35L24,36" stroke="currentColor" stroke-width="0.18" fill="none" opacity="0.25" shape-rendering="crispEdges"/><path d="M16,6L17,6M16,6L16,7M17,6L18,6M18,6L19,6M19,6L19,7M14,7L15,7M14,7L14,8M15,7L16,7M19,7L20,7M20,7L21,7M21,7L22,7M22,7L23,7M23,7L24,7M24,7L25,7M25,7L25,8M12,8L13,8M12,8L12,9M13,8L14,8M16,9L17,9M17,9L18,9M18,9L19,9M19,9L20,9M20,9L21,9M21,9L22,9M22,9L23,9M25,8L26,8M26,8L27,8M27,8L27,9M11,9L12,9M11,9L11,10M14,10L15,10M15,10L16,10M16,9L16,10M23,10L24,10M23,9L23,10M24,10L25,10M27,9L28,9M28,9L28,10M9,10L10,10M9,10L9,11M10,10L11,10M11,11L12,11M12,11L13,11M13,11L14,11M14,10L14,11M25,11L26,11M25,10L25,11M26,11L27,11M28,10L29,10M29,10L29,11M8,11L9,11M8,11L8,12M9,12L10,12M10,12L11,12M11,11L11,12M27,12L28,12M27,11L27,12M29,11L30,11M30,11L30,12M7,12L8,12M7,12L7,13M8,13L9,13M9,12L9,13M28,12L28,13M30,12L31,12M31,12L31,13M6,13L7,13M6,13L6,14M8,13L8,14M28,14L29,14M28,13L28,14M31,13L31,14M6,14L6,15M7,15L8,15M8,14L8,15M29,14L29,15M31,14L32,14M32,14L32,15M5,15L6,15M5,15L5,16M7,15L7,16M29,15L29,16M32,15L32,16M5,16L5,17M6,17L7,17M7,16L7,17M29,16L29,17M32,16L32,17M4,17L5,17M4,17L4,18M6,17L6,18M29,17L29,18M32,17L32,18M4,18L4,19M6,18L6,19M29,18L29,19M32,18L32,19M4,19L4,20M5,20L6,20M6,19L6,20M29,19L29,20M32,19L32,20M3,20L4,20M3,20L3,21M5,20L5,21M29,20L29,21M32,20L32,21M3,21L3,22M5,21L5,22M29,21L29,22M32,21L32,22M3,22L3,23M5,22L5,23M29,22L29,23M32,22L32,23M3,23L3,24M5,23L5,24M29,23L29,24M31,24L32,24M32,23L32,24M3,24L3,25M5,24L5,25M29,24L29,25M31,24L31,25M3,25L3,26M5,25L5,26M29,25L29,26M31,25L31,26M3,26L3,27M5,26L5,27M28,26L29,26M28,26L28,27M30,27L31,27M31,26L31,27M3,28L4,28M3,27L3,28M5,27L5,28M28,27L28,28M29,28L30,28M30,27L30,28M4,28L4,29M5,28L6,28M6,28L6,29M27,28L28,28M27,28L27,29M29,28L29,29M4,30L5,30M4,29L4,30M6,29L6,30M26,29L27,29M26,29L26,30M28,30L29,30M29,29L29,30M5,30L5,31M6,30L7,30M7,30L7,31M25,30L26,30M25,30L25,31M27,31L28,31M28,30L28,31M5,32L6,32M5,31L5,32M7,31L7,32M24,31L25,31M24,31L24,32M25,32L26,32M26,32L27,32M27,31L27,32M6,33L7,33M6,32L6,33M7,32L8,32M8,32L8,33M22,32L23,32M22,32L22,33M23,32L24,32M24,33L25,33M25,32L25,33M7,34L8,34M7,33L7,34M8,33L9,33M8,34L9,34M9,33L10,33M10,33L10,34M19,33L20,33M19,33L19,34M20,33L21,33M21,33L22,33M22,34L23,34M23,34L24,34M24,33L24,34M9,35L10,35M9,34L9,35M10,34L11,34M10,35L11,35M11,34L12,34M11,35L12,35M12,34L13,34M13,34L14,34M14,34L15,34M15,34L16,34M16,34L17,34M17,34L18,34M18,34L19,34M18,35L19,35M19,35L20,35M20,35L21,35M21,35L22,35M22,34L22,35M12,35L12,36M18,35L18,36" stroke="currentColor" stroke-width="0.18" fill="none" opacity="0.30" shape-rendering="crispEdges"/><path d="M16,9L17,9M16,9L16,10M17,9L18,9M18,9L19,9M19,9L20,9M20,9L21,9M21,9L22,9M22,9L23,9M23,9L23,10M14,10L15,10M14,10L14,11M15,10L16,10M18,11L19,11M19,11L20,11M20,11L21,11M21,11L22,11M23,10L24,10M24,10L25,10M25,10L25,11M11,11L12,11M11,11L11,12M12,11L13,11M13,11L14,11M15,12L16,12M16,12L17,12M17,12L18,12M18,11L18,12M22,12L23,12M22,11L22,12M23,12L24,12M25,11L26,11M26,11L27,11M27,11L27,12M9,12L10,12M9,12L9,13M10,12L11,12M12,13L13,13M13,13L14,13M14,13L15,13M15,12L15,13M24,13L25,13M24,12L24,13M27,12L28,12M28,12L28,13M8,13L9,13M8,13L8,14M10,14L11,14M11,14L12,14M12,13L12,14M25,14L26,14M25,13L25,14M28,13L28,14M8,14L8,15M10,14L10,15M26,14L26,15M28,14L29,14M29,14L29,15M7,15L8,15M7,15L7,16M9,16L10,16M10,15L10,16M26,16L27,16M26,15L26,16M29,15L29,16M7,16L7,17M9,16L9,17M27,16L27,17M29,16L29,17M6,17L7,17M6,17L6,18M8,18L9,18M9,17L9,18M27,17L27,18M29,17L29,18M6,18L6,19M8,18L8,19M27,18L27,19M29,18L29,19M6,19L6,20M7,20L8,20M8,19L8,20M27,19L27,20M29,19L29,20M5,20L6,20M5,20L5,21M7,20L7,21M27,20L27,21M29,20L29,21M5,21L5,22M7,21L7,22M27,21L27,22M29,21L29,22M5,22L5,23M7,22L7,23M27,22L27,23M29,22L29,23M5,23L5,24M7,23L7,24M27,23L27,24M29,23L29,24M5,24L5,25M7,24L7,25M27,24L27,25M29,24L29,25M5,25L5,26M7,25L7,26M26,25L27,25M26,25L26,26M28,26L29,26M29,25L29,26M5,26L5,27M7,26L7,27M26,26L26,27M28,26L28,27M5,28L6,28M5,27L5,28M7,27L7,28M25,27L26,27M25,27L25,28M27,28L28,28M28,27L28,28M6,28L6,29M7,28L8,28M8,28L8,29M24,28L25,28M24,28L24,29M26,29L27,29M27,28L27,29M6,30L7,30M6,29L6,30M8,29L8,30M23,29L24,29M23,29L23,30M25,30L26,30M26,29L26,30M7,30L7,31M8,30L9,30M9,30L9,31M22,30L23,30M22,30L22,31M24,31L25,31M25,30L25,31M7,32L8,32M7,31L7,32M9,31L10,31M10,31L10,32M19,31L20,31M19,31L19,32M20,31L21,31M21,31L22,31M22,32L23,32M23,32L24,32M24,31L24,32M8,33L9,33M8,32L8,33M9,33L10,33M10,32L11,32M11,32L12,32M12,32L13,32M13,32L14,32M14,32L15,32M15,32L16,32M16,32L17,32M17,32L18,32M18,32L19,32M19,33L20,33M20,33L21,33M21,33L22,33M22,32L22,33M10,34L11,34M10,33L10,34M11,34L12,34M12,34L13,34M13,34L14,34M14,34L15,34M15,34L16,34M16,34L17,34M17,34L18,34M18,34L19,34M19,33L19,34" stroke="currentColor" stroke-width="0.18" fill="none" opacity="0.35" shape-rendering="crispEdges"/><path d="M18,11L19,11M18,11L18,12M19,11L20,11M20,11L21,11M21,11L22,11M22,11L22,12M15,12L16,12M15,12L15,13M16,12L17,12M17,12L18,12M19,13L20,13M20,13L21,13M22,12L23,12M23,12L24,12M24,12L24,13M12,13L13,13M12,13L12,14M13,13L14,13M14,13L15,13M17,14L18,14M18,14L19,14M19,13L19,14M21,14L22,14M21,13L21,14M22,14L23,14M24,13L25,13M25,13L25,14M10,14L11,14M10,14L10,15M11,14L12,14M14,15L15,15M15,15L16,15M16,15L17,15M17,14L17,15M23,14L23,15M25,14L26,14M26,14L26,15M10,15L10,16M13,16L14,16M14,15L14,16M23,16L24,16M23,15L23,16M26,15L26,16M9,16L10,16M9,16L9,17M12,17L13,17M13,16L13,17M24,16L24,17M26,16L27,16M27,16L27,17M9,17L9,18M11,18L12,18M12,17L12,18M24,17L24,18M27,17L27,18M8,18L9,18M8,18L8,19M10,19L11,19M11,18L11,19M24,19L25,19M24,18L24,19M27,18L27,19M8,19L8,20M10,19L10,20M25,19L25,20M27,19L27,20M7,20L8,20M7,20L7,21M10,20L10,21M25,20L25,21M27,20L27,21M7,21L7,22M9,22L10,22M10,21L10,22M25,21L25,22M27,21L27,22M7,22L7,23M9,22L9,23M25,22L25,23M27,22L27,23M7,23L7,24M9,23L9,24M25,23L25,24M27,23L27,24M7,24L7,25M9,24L9,25M25,24L25,25M26,25L27,25M27,24L27,25M7,25L7,26M9,25L9,26M24,25L25,25M24,25L24,26M26,25L26,26M7,26L7,27M9,26L10,26M10,26L10,27M24,26L24,27M25,27L26,27M26,26L26,27M7,28L8,28M7,27L7,28M10,27L10,28M23,27L24,27M23,27L23,28M24,28L25,28M25,27L25,28M8,28L8,29M10,28L11,28M11,28L11,29M21,28L22,28M21,28L21,29M22,28L23,28M23,29L24,29M24,28L24,29M8,30L9,30M8,29L8,30M11,29L12,29M12,29L12,30M19,29L20,29M19,29L19,30M20,29L21,29M22,30L23,30M23,29L23,30M9,31L10,31M9,30L9,31M12,30L13,30M13,30L14,30M14,30L15,30M15,30L16,30M16,30L17,30M17,30L18,30M18,30L19,30M19,31L20,31M20,31L21,31M21,31L22,31M22,30L22,31M10,32L11,32M10,31L10,32M11,32L12,32M12,32L13,32M13,32L14,32M14,32L15,32M15,32L16,32M16,32L17,32M17,32L18,32M18,32L19,32M19,31L19,32" stroke="currentColor" stroke-width="0.18" fill="none" opacity="0.40" shape-rendering="crispEdges"/><path d="M19,13L20,13M19,13L19,14M20,13L21,13M21,13L21,14M17,14L18,14M17,14L17,15M18,14L19,14M21,14L22,14M22,14L23,14M23,14L23,15M14,15L15,15M14,15L14,16M15,15L16,15M16,15L17,15M23,15L23,16M13,16L14,16M13,16L13,17M18,17L19,17M19,17L20,17M23,16L24,16M24,16L24,17M12,17L13,17M12,17L12,18M16,18L17,18M17,18L18,18M18,17L18,18M20,18L21,18M20,17L20,18M24,17L24,18M11,18L12,18M11,18L11,19M14,19L15,19M15,19L16,19M16,18L16,19M21,19L22,19M21,18L21,19M24,18L24,19M10,19L11,19M10,19L10,20M13,20L14,20M14,19L14,20M22,20L23,20M22,19L22,20M24,19L25,19M25,19L25,20M10,20L10,21M13,20L13,21M23,20L23,21M25,20L25,21M10,21L10,22M13,21L13,22M23,21L23,22M25,21L25,22M9,22L10,22M9,22L9,23M12,23L13,23M13,22L13,23M23,22L23,23M25,22L25,23M9,23L9,24M12,23L12,24M23,23L23,24M25,23L25,24M9,24L9,25M12,24L13,24M13,24L13,25M23,24L23,25M24,25L25,25M25,24L25,25M9,26L10,26M9,25L9,26M13,25L13,26M22,25L23,25M22,25L22,26M24,25L24,26M10,26L10,27M13,26L14,26M14,26L14,27M20,26L21,26M20,26L20,27M21,26L22,26M23,27L24,27M24,26L24,27M10,28L11,28M10,27L10,28M14,27L15,27M15,27L16,27M16,27L17,27M17,27L18,27M18,27L19,27M19,27L20,27M21,28L22,28M22,28L23,28M23,27L23,28M11,29L12,29M11,28L11,29M19,29L20,29M20,29L21,29M21,28L21,29M12,30L13,30M12,29L12,30M13,30L14,30M14,30L15,30M15,30L16,30M16,30L17,30M17,30L18,30M18,30L19,30M19,29L19,30" stroke="currentColor" stroke-width="0.18" fill="none" opacity="0.46" shape-rendering="crispEdges"/><path d="M18,17L19,17M18,17L18,18M19,17L20,17M20,17L20,18M16,18L17,18M16,18L16,19M17,18L18,18M20,18L21,18M21,18L21,19M14,19L15,19M14,19L14,20M15,19L16,19M21,19L22,19M22,19L22,20M13,20L14,20M13,20L13,21M22,20L23,20M23,20L23,21M13,21L13,22M23,21L23,22M13,22L13,23M23,22L23,23M12,23L13,23M12,24L13,24M12,23L12,24M23,23L23,24M13,24L13,25M22,25L23,25M23,24L23,25M13,26L14,26M13,25L13,26M20,26L21,26M21,26L22,26M22,25L22,26M14,27L15,27M14,26L14,27M15,27L16,27M16,27L17,27M17,27L18,27M18,27L19,27M19,27L20,27M20,26L20,27" stroke="currentColor" stroke-width="0.18" fill="none" opacity="0.52" shape-rendering="crispEdges"/><rect x="2.35" y="3.85" width="1.30" height="1.30" fill="currentColor" opacity="0.40"/><rect x="8.28" y="3.78" width="1.43" height="1.43" fill="currentColor" opacity="0.46"/><rect x="14.19" y="3.69" width="1.62" height="1.62" fill="currentColor" opacity="0.54"/><rect x="18.57" y="3.69" width="4.86" height="1.62" fill="currentColor" opacity="0.54"/><rect x="26.28" y="3.78" width="1.43" height="1.43" fill="currentColor" opacity="0.46"/><rect x="31.06" y="3.85" width="3.89" height="1.30" fill="currentColor" opacity="0.40"/><rect x="2.26" y="12.76" width="1.48" height="1.48" fill="currentColor" opacity="0.48"/><rect x="8.04" y="12.54" width="1.92" height="1.92" fill="currentColor" opacity="0.66"/><rect x="11.58" y="12.36" width="6.83" height="2.28" fill="currentColor" opacity="0.82"/><rect x="19.86" y="12.36" width="2.28" height="2.28" fill="currentColor" opacity="0.82"/><rect x="26.04" y="12.54" width="1.92" height="1.92" fill="currentColor" opacity="0.66"/><rect x="32.26" y="12.76" width="1.48" height="1.48" fill="currentColor" opacity="0.48"/><rect x="2.26" y="21.76" width="1.48" height="1.48" fill="currentColor" opacity="0.48"/><rect x="6.13" y="21.54" width="5.75" height="1.92" fill="currentColor" opacity="0.66"/><rect x="11.58" y="21.36" width="6.83" height="2.28" fill="currentColor" opacity="0.82"/><rect x="19.86" y="21.36" width="2.28" height="2.28" fill="currentColor" opacity="0.82"/><rect x="24.13" y="21.54" width="5.75" height="1.92" fill="currentColor" opacity="0.66"/><rect x="30.78" y="21.76" width="4.44" height="1.48" fill="currentColor" opacity="0.48"/><rect x="1.06" y="30.85" width="3.89" height="1.30" fill="currentColor" opacity="0.40"/><rect x="8.28" y="30.78" width="1.43" height="1.43" fill="currentColor" opacity="0.46"/><rect x="12.57" y="30.69" width="4.86" height="1.62" fill="currentColor" opacity="0.54"/><rect x="18.57" y="30.69" width="4.86" height="1.62" fill="currentColor" opacity="0.54"/></svg>