<svg xmlns="http://www.w3.org/2000/svg" viewBox="0 0 36 36" preserveAspectRatio="xMidYMid slice"><path d="M4,1L5,1M5,0L5,1M3,2L4,2M4,1L4,2M2,3L3,3M3,2L3,3M2,3L2,4M1,5L2,5M2,4L2,5M1,5L1,6M0,7L1,7M1,6L1,7" stroke="currentColor" stroke-width="0.18" fill="none" opacity="0.10" shape-rendering="crispEdges"/><path d="M5,0L5,1M8,1L9,1M9,1L10,1M10,0L10,1M35,1L36,1M35,0L35,1M4,1L5,1M4,1L4,2M7,2L8,2M8,1L8,2M3,2L4,2M3,2L3,3M6,3L7,3M7,2L7,3M2,3L3,3M2,3L2,4M5,4L6,4M6,3L6,4M2,4L2,5M4,5L5,5M5,4L5,5M1,5L2,5M1,5L1,6M3,6L4,6M4,5L4,6M1,6L1,7M3,6L3,7M0,7L1,7M2,8L3,8M3,7L3,8M2,8L2,9M1,10L2,10M2,9L2,10M0,11L1,11M1,10L1,11M35,33L36,33M35,33L35,34M34,34L35,34M34,34L34,35M0,35L1,35M1,35L1,36M32,35L33,35M32,35L32,36M33,35L34,35" stroke="currentColor" stroke-width="0.18" fill="none" opacity="0.12" shape-rendering="crispEdges"/><path d="M10,0L10,1M12,1L13,1M13,1L14,1M14,1L15,1M15,0L15,1M28,1L29,1M28,0L28,1M29,1L30,1M30,1L31,1M31,1L32,1M35,0L35,1M8,1L9,1M8,1L8,2M9,1L10,1M10,2L11,2M11,2L12,2M12,1L12,2M32,2L33,2M32,1L32,2M33,2L34,2M35,1L36,1M7,2L8,2M7,2L7,3M9,3L10,3M10,2L10,3M34,3L35,3M34,2L34,3M6,3L7,3M6,3L6,4M8,4L9,4M9,3L9,4M35,3L35,4M5,4L6,4M5,4L5,5M7,5L8,5M8,4L8,5M35,5L36,5M35,4L35,5M4,5L5,5M4,5L4,6M6,6L7,6M7,5L7,6M3,6L4,6M3,6L3,7M5,7L6,7M6,6L6,7M3,7L3,8M5,7L5,8M2,8L3,8M2,8L2,9M4,9L5,9M5,8L5,9M2,9L2,10M3,10L4,10M4,9L4,10M1,10L2,10M1,10L1,11M3,10L3,11M0,11L1,11M2,12L3,12M3,11L3,12M1,13L2,13M2,12L2,13M1,13L1,14M0,15L1,15M1,14L1,15M35,29L36,29M35,29L35,30M35,30L35,31M34,31L35,31M34,31L34,32M0,32L1,32M1,32L1,33M32,32L33,32M32,32L32,33M33,32L34,32M35,33L36,33M1,33L2,33M2,33L2,34M31,33L32,33M31,33L31,34M34,34L35,34M35,33L35,34M0,35L1,35M2,34L3,34M3,34L4,34M4,34L4,35M28,34L29,34M28,34L28,35M29,34L30,34M30,34L31,34M32,35L33,35M33,35L34,35M34,34L34,35M1,35L1,36M4,35L5,35M5,35L6,35M6,35L7,35M7,35L8,35M8,35L9,35M9,35L10,35M10,35L10,36M25,35L26,35M25,35L25,36M26,35L27,35M27,35L28,35M32,35L32,36" stroke="currentColor" stroke-width="0.18" fill="none" opacity="0.16" shape-rendering="crispEdges"/><path d="M15,0L15,1M21,1L22,1M22,1L23,1M23,1L24,1M24,1L25,1M28,0L28,1M12,1L13,1M12,1L12,2M13,1L14,1M14,1L15,1M16,2L17,2M17,2L18,2M18,2L19,2M19,2L20,2M20,2L21,2M21,1L21,2M25,2L26,2M25,1L25,2M26,2L27,2M28,1L29,1M29,1L30,1M30,1L31,1M31,1L32,1M32,1L32,2M10,2L11,2M10,2L10,3M11,2L12,2M13,3L14,3M14,3L15,3M15,3L16,3M16,2L16,3M27,3L28,3M27,2L27,3M28,3L29,3M29,3L30,3M32,2L33,2M33,2L34,2M34,2L34,3M9,3L10,3M9,3L9,4M11,4L12,4M12,4L13,4M13,3L13,4M30,4L31,4M30,3L30,4M31,4L32,4M32,4L33,4M34,3L35,3M35,3L35,4M8,4L9,4M8,4L8,5M11,4L11,5M33,4L33,5M35,4L35,5M7,5L8,5M7,5L7,6M10,6L11,6M11,5L11,6M33,6L34,6M33,5L33,6M35,5L36,5M6,6L7,6M6,6L6,7M9,7L10,7M10,6L10,7M34,7L35,7M34,6L34,7M5,7L6,7M5,7L5,8M7,8L8,8M8,8L9,8M9,7L9,8M35,7L35,8M5,8L5,9M7,8L7,9M35,8L35,9M4,9L5,9M4,9L4,10M6,10L7,10M7,9L7,10M35,10L36,10M35,9L35,10M3,10L4,10M3,10L3,11M5,11L6,11M6,10L6,11M3,11L3,12M4,12L5,12M5,11L5,12M2,12L3,12M2,12L2,13M3,13L4,13M4,12L4,13M1,13L2,13M1,13L1,14M2,14L3,14M3,13L3,14M1,14L1,15M2,14L2,15M0,15L1,15M1,16L2,16M2,15L2,16M1,16L1,17M1,17L1,18M0,19L1,19M1,18L1,19M35,25L36,25M35,25L35,26M35,26L35,27M34,27L35,27M34,27L34,28M0,28L1,28M1,28L1,29M34,28L34,29M35,29L36,29M1,29L1,30M33,29L34,29M33,29L33,30M35,29L35,30M1,30L2,30M2,30L2,31M32,30L33,30M32,30L32,31M34,31L35,31M35,30L35,31M0,32L1,32M2,31L3,31M3,31L3,32M30,31L31,31M30,31L30,32M31,31L32,31M32,32L33,32M33,32L34,32M34,31L34,32M1,33L2,33M1,32L1,33M3,32L4,32M4,32L5,32M5,32L5,33M28,32L29,32M28,32L28,33M29,32L30,32M31,33L32,33M32,32L32,33M2,34L3,34M2,33L2,34M3,34L4,34M5,33L6,33M6,33L7,33M7,33L8,33M8,33L9,33M9,33L9,34M26,33L27,33M26,33L26,34M27,33L28,33M28,34L29,34M29,34L30,34M30,34L31,34M31,33L31,34M4,35L5,35M4,34L4,35M5,35L6,35M6,35L7,35M7,35L8,35M8,35L9,35M9,34L10,34M9,35L10,35M10,34L11,34M11,34L12,34M12,34L13,34M13,34L14,34M14,34L15,34M15,34L16,34M16,34L17,34M17,34L18,34M18,34L19,34M19,34L20,34M20,34L21,34M21,34L22,34M22,34L23,34M23,34L24,34M24,34L25,34M25,34L26,34M25,35L26,35M26,35L27,35M27,35L28,35M28,34L28,35M10,35L10,36M25,35L25,36" stroke="currentColor" stroke-width="0.18" fill="none" opacity="0.20" shape-rendering="crispEdges"/><path d="M21,1L22,1M21,1L21,2M22,1L23,1M23,1L24,1M24,1L25,1M25,1L25,2M16,2L17,2M16,2L16,3M17,2L18,2M18,2L19,2M19,2L20,2M20,2L21,2M21,3L22,3M22,3L23,3M23,3L24,3M24,3L25,3M25,2L26,2M26,2L27,2M27,2L27,3M13,3L14,3M13,3L13,4M14,3L15,3M15,3L16,3M17,4L18,4M18,4L19,4M19,4L20,4M20,4L21,4M21,3L21,4M25,4L26,4M25,3L25,4M26,4L27,4M27,3L28,3M28,3L29,3M29,3L30,3M30,3L30,4M11,4L12,4M11,4L11,5M12,4L13,4M15,5L16,5M16,5L17,5M17,4L17,5M27,5L28,5M27,4L27,5M28,5L29,5M29,5L30,5M30,4L31,4M31,4L32,4M32,4L33,4M33,4L33,5M11,5L11,6M14,6L15,6M15,5L15,6M30,6L31,6M30,5L30,6M33,5L33,6M10,6L11,6M10,6L10,7M13,7L14,7M14,6L14,7M31,7L32,7M31,6L31,7M33,6L34,6M34,6L34,7M9,7L10,7M9,7L9,8M11,8L12,8M12,8L13,8M13,7L13,8M32,8L33,8M32,7L32,8M34,7L35,7M35,7L35,8M7,8L8,8M7,8L7,9M8,8L9,8M10,9L11,9M11,8L11,9M33,8L33,9M35,8L35,9M7,9L7,10M9,10L10,10M10,9L10,10M33,10L34,10M33,9L33,10M35,9L35,10M6,10L7,10M6,10L6,11M7,11L8,11M8,11L9,11M9,10L9,11M34,10L34,11M35,10L36,10M5,11L6,11M5,11L5,12M6,12L7,12M7,11L7,12M34,12L35,12M34,11L34,12M4,12L5,12M4,12L4,13M5,13L6,13M6,12L6,13M35,12L35,13M3,13L4,13M3,13L3,14M5,13L5,14M35,13L35,14M2,14L3,14M2,14L2,15M4,15L5,15M5,14L5,15M35,14L35,15M2,15L2,16M3,16L4,16M4,15L4,16M35,15L35,16M1,16L2,16M1,16L1,17M3,16L3,17M35,16L35,17M1,17L1,18M3,17L3,18M35,18L36,18M35,17L35,18M1,18L1,19M3,18L3,19M0,19L1,19M2,20L3,20M3,19L3,20M2,20L2,21M2,21L2,22M35,21L36,21M35,21L35,22M2,22L2,23M35,22L35,23M2,23L2,24M35,23L35,24M2,24L2,25M34,24L35,24M34,24L34,25M35,25L36,25M2,25L2,26M34,25L34,26M35,25L35,26M2,26L2,27M33,26L34,26M33,26L33,27M34,27L35,27M35,26L35,27M0,28L1,28M2,27L3,27M3,27L3,28M32,27L33,27M32,27L32,28M34,27L34,28M1,28L1,29M3,28L3,29M31,28L32,28M31,28L31,29M33,29L34,29M34,28L34,29M1,30L2,30M1,29L1,30M3,29L4,29M4,29L4,30M30,29L31,29M30,29L30,30M32,30L33,30M33,29L33,30M2,31L3,31M2,30L2,31M4,30L5,30M5,30L5,31M29,30L30,30M29,30L29,31M30,31L31,31M31,31L32,31M32,30L32,31M3,32L4,32M3,31L3,32M4,32L5,32M5,31L6,31M6,31L7,31M7,31L8,31M8,31L8,32M26,31L27,31M26,31L26,32M27,31L28,31M28,31L29,31M28,32L29,32M29,32L30,32M30,31L30,32M5,33L6,33M5,32L5,33M6,33L7,33M7,33L8,33M8,32L9,32M8,33L9,33M9,32L10,32M10,32L11,32M11,32L12,32M12,32L12,33M23,32L24,32M23,32L23,33M24,32L25,32M25,32L26,32M26,33L27,33M27,33L28,33M28,32L28,33M9,34L10,34M9,33L9,34M10,34L11,34M11,34L12,34M12,33L13,33M12,34L13,34M13,33L14,33M13,34L14,34M14,33L15,33M14,34L15,34M15,33L16,33M15,34L16,34M16,33L17,33M16,34L17,34M17,33L18,33M17,34L18,34M18,33L19,33M18,34L19,34M19,33L20,33M19,34L20,34M20,33L21,33M20,34L21,34M21,33L22,33M21,34L22,34M22,33L23,33M22,34L23,34M23,34L24,34M24,34L25,34M25,34L26,34M26,33L26,34" stroke="currentColor" stroke-width="0.18" fill="none" opacity="0.25" shape-rendering="crispEdges"/><path d="M21,3L22,3M21,3L21,4M22,3L23,3M23,3L24,3M24,3L25,3M25,3L25,4M17,4L18,4M17,4L17,5M18,4L19,4M19,4L20,4M20,4L21,4M21,5L22,5M22,5L23,5M23,5L24,5M25,4L26,4M26,4L27,4M27,4L27,5M15,5L16,5M15,5L15,6M16,5L17,5M17,6L18,6M18,6L19,6M19,6L20,6M20,6L21,6M21,5L21,6M24,6L25,6M24,5L24,6M25,6L26,6M26,6L27,6M27,5L28,5M28,5L29,5M29,5L30,5M30,5L30,6M14,6L15,6M14,6L14,7M16,7L17,7M17,6L17,7M27,7L28,7M27,6L27,7M28,7L29,7M30,6L31,6M31,6L31,7M13,7L14,7M13,7L13,8M15,8L16,8M16,7L16,8M29,8L30,8M29,7L29,8M31,7L32,7M32,7L32,8M11,8L12,8M11,8L11,9M12,8L13,8M14,9L15,9M15,8L15,9M30,9L31,9M30,8L30,9M32,8L33,8M33,8L33,9M10,9L11,9M10,9L10,10M12,10L13,10M13,10L14,10M14,9L14,10M31,10L32,10M31,9L31,10M33,9L33,10M9,10L10,10M9,10L9,11M11,11L12,11M12,10L12,11M32,10L32,11M33,10L34,10M34,10L34,11M7,11L8,11M7,11L7,12M8,11L9,11M9,12L10,12M10,12L11,12M11,11L11,12M32,12L33,12M32,11L32,12M34,11L34,12M6,12L7,12M6,12L6,13M8,13L9,13M9,12L9,13M33,12L33,13M34,12L35,12M35,12L35,13M5,13L6,13M5,13L5,14M7,14L8,14M8,13L8,14M33,13L33,14M35,13L35,14M5,14L5,15M6,15L7,15M7,14L7,15M33,14L33,15M35,14L35,15M4,15L5,15M4,15L4,16M6,15L6,16M33,16L34,16M33,15L33,16M35,15L35,16M3,16L4,16M3,16L3,17M5,17L6,17M6,16L6,17M34,16L34,17M35,16L35,17M3,17L3,18M5,17L5,18M34,17L34,18M35,17L35,18M3,18L3,19M5,18L5,19M34,18L34,19M35,18L36,18M3,19L3,20M5,19L5,20M34,19L34,20M2,20L3,20M2,20L2,21M4,21L5,21M5,20L5,21M34,20L34,21M35,21L36,21M2,21L2,22M4,21L4,22M34,21L34,22M35,21L35,22M2,22L2,23M4,22L4,23M33,22L34,22M33,22L33,23M35,22L35,23M2,23L2,24M4,23L4,24M33,23L33,24M34,24L35,24M35,23L35,24M2,24L2,25M4,24L4,25M32,24L33,24M32,24L32,25M34,24L34,25M2,25L2,26M4,25L4,26M32,25L32,26M33,26L34,26M34,25L34,26M2,27L3,27M2,26L2,27M4,26L4,27M31,26L32,26M31,26L31,27M32,27L33,27M33,26L33,27M3,27L3,28M4,27L5,27M5,27L5,28M30,27L31,27M30,27L30,28M31,28L32,28M32,27L32,28M3,29L4,29M3,28L3,29M5,28L6,28M6,28L6,29M29,28L30,28M29,28L29,29M30,29L31,29M31,28L31,29M4,30L5,30M4,29L4,30M6,29L7,29M7,29L8,29M8,29L8,30M27,29L28,29M27,29L27,30M28,29L29,29M29,30L30,30M30,29L30,30M5,31L6,31M5,30L5,31M6,31L7,31M7,31L8,31M8,30L9,30M9,30L10,30M10,30L11,30M11,30L11,31M24,30L25,30M24,30L24,31M25,30L26,30M26,30L27,30M26,31L27,31M27,31L28,31M28,31L29,31M29,30L29,31M8,32L9,32M8,31L8,32M9,32L10,32M10,32L11,32M11,31L12,31M11,32L12,32M12,31L13,31M13,31L14,31M14,31L15,31M15,31L16,31M16,31L17,31M17,31L18,31M18,31L19,31M19,31L20,31M20,31L21,31M21,31L22,31M22,31L23,31M23,31L24,31M23,32L24,32M24,32L25,32M25,32L26,32M26,31L26,32M12,33L13,33M12,32L12,33M13,33L14,33M14,33L15,33M15,33L16,33M16,33L17,33M17,33L18,33M18,33L19,33M19,33L20,33M20,33L21,33M21,33L22,33M22,33L23,33M23,32L23,33" stroke="currentColor" stroke-width="0.18" fill="none" opacity="0.30" shape-rendering="crispEdges"/><path d="M21,5L22,5M21,5L21,6M22,5L23,5M23,5L24,5M24,5L24,6M17,6L18,6M17,6L17,7M18,6L19,6M19,6L20,6M20,6L21,6M21,7L22,7M22,7L23,7M23,7L24,7M24,6L25,6M25,6L26,6M26,6L27,6M27,6L27,7M16,7L17,7M16,7L16,8M18,8L19,8M19,8L20,8M20,8L21,8M21,7L21,8M24,8L25,8M24,7L24,8M25,8L26,8M26,8L27,8M27,7L28,7M28,7L29,7M29,7L29,8M15,8L16,8M15,8L15,9M16,9L17,9M17,9L18,9M18,8L18,9M27,9L28,9M27,8L27,9M28,9L29,9M29,8L30,8M30,8L30,9M14,9L15,9M14,9L14,10M15,10L16,10M16,9L16,10M29,10L30,10M29,9L29,10M30,9L31,9M31,9L31,10M12,10L13,10M12,10L12,11M13,10L14,10M14,11L15,11M15,10L15,11M30,10L30,11M31,10L32,10M32,10L32,11M11,11L12,11M11,11L11,12M12,12L13,12M13,12L14,12M14,11L14,12M30,12L31,12M30,11L30,12M32,11L32,12M9,12L10,12M9,12L9,13M10,12L11,12M11,13L12,13M12,12L12,13M31,12L31,13M32,12L33,12M33,12L33,13M8,13L9,13M8,13L8,14M10,14L11,14M11,13L11,14M31,14L32,14M31,13L31,14M33,13L33,14M7,14L8,14M7,14L7,15M9,15L10,15M10,14L10,15M32,14L32,15M33,14L33,15M6,15L7,15M6,15L6,16M8,16L9,16M9,15L9,16M32,15L32,16M33,15L33,16M6,16L6,17M8,16L8,17M32,16L32,17M33,16L34,16M34,16L34,17M5,17L6,17M5,17L5,18M8,17L8,18M32,17L32,18M34,17L34,18M5,18L5,19M7,19L8,19M8,18L8,19M32,18L32,19M34,18L34,19M5,19L5,20M7,19L7,20M32,19L32,20M34,19L34,20M5,20L5,21M7,20L7,21M32,20L32,21M34,20L34,21M4,21L5,21M4,21L4,22M7,21L7,22M32,21L32,22M33,22L34,22M34,21L34,22M4,22L4,23M6,23L7,23M7,22L7,23M31,22L32,22M31,22L31,23M33,22L33,23M4,23L4,24M6,23L6,24M31,23L31,24M32,24L33,24M33,23L33,24M4,24L4,25M6,24L6,25M30,24L31,24M30,24L30,25M32,24L32,25M4,25L4,26M6,25L7,25M7,25L7,26M29,25L30,25M29,25L29,26M31,26L32,26M32,25L32,26M4,27L5,27M4,26L4,27M7,26L7,27M29,26L29,27M30,27L31,27M31,26L31,27M5,28L6,28M5,27L5,28M7,27L8,27M8,27L8,28M28,27L29,27M28,27L28,28M29,28L30,28M30,27L30,28M6,29L7,29M6,28L6,29M7,29L8,29M8,28L9,28M9,28L10,28M10,28L10,29M17,28L18,28M17,28L17,29M18,28L19,28M19,28L19,29M26,28L27,28M26,28L26,29M27,28L28,28M27,29L28,29M28,29L29,29M29,28L29,29M8,30L9,30M8,29L8,30M9,30L10,30M10,29L11,29M10,30L11,30M11,29L12,29M12,29L13,29M13,29L14,29M14,29L15,29M15,29L16,29M16,29L17,29M19,29L20,29M20,29L21,29M21,29L22,29M22,29L23,29M23,29L24,29M24,29L25,29M24,30L25,30M25,29L26,29M25,30L26,30M26,30L27,30M27,29L27,30M11,31L12,31M11,30L11,31M12,31L13,31M13,31L14,31M14,31L15,31M15,31L16,31M16,31L17,31M17,31L18,31M18,31L19,31M19,31L20,31M20,31L21,31M21,31L22,31M22,31L23,31M23,31L24,31M24,30L24,31" stroke="currentColor" stroke-width="0.18" fill="none" opacity="0.35" shape-rendering="crispEdges"/><path d="M21,7L22,7M21,7L21,8M22,7L23,7M23,7L24,7M24,7L24,8M18,8L19,8M18,8L18,9M19,8L20,8M20,8L21,8M24,8L25,8M25,8L26,8M26,8L27,8M27,8L27,9M16,9L17,9M16,9L16,10M17,9L18,9M19,10L20,10M20,10L21,10M21,10L22,10M22,10L23,10M23,10L24,10M24,10L25,10M27,9L28,9M28,9L29,9M29,9L29,10M15,10L16,10M15,10L15,11M17,11L18,11M18,11L19,11M19,10L19,11M25,11L26,11M25,10L25,11M26,11L27,11M29,10L30,10M30,10L30,11M14,11L15,11M14,11L14,12M15,12L16,12M16,12L17,12M17,11L17,12M27,12L28,12M27,11L27,12M30,11L30,12M12,12L13,12M12,12L12,13M13,12L14,12M14,13L15,13M15,12L15,13M28,13L29,13M28,12L28,13M30,12L31,12M31,12L31,13M11,13L12,13M11,13L11,14M12,14L13,14M13,14L14,14M14,13L14,14M29,14L30,14M29,13L29,14M31,13L31,14M10,14L11,14M10,14L10,15M11,15L12,15M12,14L12,15M30,14L30,15M31,14L32,14M32,14L32,15M9,15L10,15M9,15L9,16M11,15L11,16M30,15L30,16M32,15L32,16M8,16L9,16M8,16L8,17M10,17L11,17M11,16L11,17M30,16L30,17M32,16L32,17M8,17L8,18M10,17L10,18M30,17L30,18M32,17L32,18M8,18L8,19M10,18L10,19M30,18L30,19M32,18L32,19M7,19L8,19M7,19L7,20M10,19L10,20M30,19L30,20M32,19L32,20M7,20L7,21M9,21L10,21M10,20L10,21M29,20L30,20M29,20L29,21M32,20L32,21M7,21L7,22M9,21L9,22M29,21L29,22M31,22L32,22M32,21L32,22M7,22L7,23M9,22L9,23M28,22L29,22M28,22L28,23M31,22L31,23M6,23L7,23M6,23L6,24M9,23L9,24M28,23L28,24M30,24L31,24M31,23L31,24M6,25L7,25M6,24L6,25M9,24L9,25M27,24L28,24M27,24L27,25M29,25L30,25M30,24L30,25M7,25L7,26M9,25L10,25M10,25L10,26M27,25L27,26M29,25L29,26M7,27L8,27M7,26L7,27M10,26L11,26M11,26L11,27M16,26L17,26M16,26L16,27M17,26L18,26M18,26L19,26M19,26L20,26M20,26L20,27M26,26L27,26M26,26L26,27M28,27L29,27M29,26L29,27M8,28L9,28M8,27L8,28M9,28L10,28M11,27L12,27M12,27L13,27M13,27L14,27M14,27L15,27M15,27L16,27M17,28L18,28M18,28L19,28M20,27L21,27M21,27L22,27M22,27L23,27M23,27L24,27M24,27L25,27M25,27L26,27M26,28L27,28M27,28L28,28M28,27L28,28M10,29L11,29M10,28L10,29M11,29L12,29M12,29L13,29M13,29L14,29M14,29L15,29M15,29L16,29M16,29L17,29M17,28L17,29M19,29L20,29M19,28L19,29M20,29L21,29M21,29L22,29M22,29L23,29M23,29L24,29M24,29L25,29M25,29L26,29M26,28L26,29" stroke="currentColor" stroke-width="0.18" fill="none" opacity="0.40" shape-rendering="crispEdges"/><path d="M19,10L20,10M19,10L19,11M20,10L21,10M21,10L22,10M22,10L23,10M23,10L24,10M24,10L25,10M25,10L25,11M17,11L18,11M17,11L17,12M18,11L19,11M25,11L26,11M26,11L27,11M27,11L27,12M15,12L16,12M15,12L15,13M16,12L17,12M18,13L19,13M19,13L20,13M27,12L28,12M28,12L28,13M14,13L15,13M14,13L14,14M16,14L17,14M17,14L18,14M18,13L18,14M20,14L21,14M20,13L20,14M21,14L22,14M28,13L29,13M29,13L29,14M12,14L13,14M12,14L12,15M13,14L14,14M15,15L16,15M16,14L16,15M22,15L23,15M22,14L22,15M23,15L24,15M24,15L25,15M29,14L30,14M30,14L30,15M11,15L12,15M11,15L11,16M14,16L15,16M15,15L15,16M25,16L26,16M25,15L25,16M26,16L27,16M30,15L30,16M11,16L11,17M13,17L14,17M14,16L14,17M27,16L27,17M30,16L30,17M10,17L11,17M10,17L10,18M13,17L13,18M27,17L27,18M30,17L30,18M10,18L10,19M12,19L13,19M13,18L13,19M27,18L27,19M30,18L30,19M10,19L10,20M12,19L12,20M27,19L27,20M29,20L30,20M30,19L30,20M10,20L10,21M12,20L12,21M27,20L27,21M29,20L29,21M9,21L10,21M9,21L9,22M12,21L12,22M26,21L27,21M26,21L26,22M28,22L29,22M29,21L29,22M9,22L9,23M12,22L12,23M26,22L26,23M28,22L28,23M9,23L9,24M12,23L13,23M13,23L13,24M15,23L16,23M15,23L15,24M16,23L17,23M17,23L18,23M18,23L19,23M19,23L19,24M25,23L26,23M25,23L25,24M27,24L28,24M28,23L28,24M9,25L10,25M9,24L9,25M13,24L14,24M14,24L15,24M19,24L20,24M20,24L21,24M21,24L21,25M24,24L25,24M24,24L24,25M27,24L27,25M10,26L11,26M10,25L10,26M16,26L17,26M17,26L18,26M18,26L19,26M19,26L20,26M21,25L22,25M22,25L23,25M23,25L24,25M26,26L27,26M27,25L27,26M11,27L12,27M11,26L11,27M12,27L13,27M13,27L14,27M14,27L15,27M15,27L16,27M16,26L16,27M20,27L21,27M20,26L20,27M21,27L22,27M22,27L23,27M23,27L24,27M24,27L25,27M25,27L26,27M26,26L26,27" stroke="currentColor" stroke-width="0.18" fill="none" opacity="0.46" shape-rendering="crispEdges"/><path d="M18,13L19,13M18,13L18,14M19,13L20,13M20,13L20,14M16,14L17,14M16,14L16,15M17,14L18,14M20,14L21,14M21,14L22,14M22,14L22,15M15,15L16,15M15,15L15,16M22,15L23,15M23,15L24,15M24,15L25,15M25,15L25,16M14,16L15,16M14,16L14,17M25,16L26,16M26,16L27,16M27,16L27,17M13,17L14,17M13,17L13,18M27,17L27,18M13,18L13,19M27,18L27,19M12,19L13,19M12,19L12,20M27,19L27,20M12,20L12,21M26,21L27,21M27,20L27,21M12,21L12,22M26,21L26,22M12,23L13,23M12,22L12,23M15,23L16,23M16,23L17,23M17,23L18,23M18,23L19,23M25,23L26,23M26,22L26,23M13,24L14,24M13,23L13,24M14,24L15,24M15,23L15,24M19,24L20,24M19,23L19,24M20,24L21,24M24,24L25,24M25,23L25,24M21,25L22,25M21,24L21,25M22,25L23,25M23,25L24,25M24,24L24,25" stroke="currentColor" stroke-width="0.18" fill="none" opacity="0.52" shape-rendering="crispEdges"/><rect x="2.14" y="2.57" width="0.86" height="0.86" fill="currentColor" opacity="0.40"/><rect x="7.28" y="2.57" width="0.86" height="0.86" fill="currentColor" opacity="0.40"/><rect x="12.37" y="2.51" width="0.98" height="0.98" fill="currentColor" opacity="0.47"/><rect x="16.47" y="2.49" width="3.06" height="1.02" fill="currentColor" opacity="0.50"/><rect x="22.66" y="2.51" width="0.98" height="0.98" fill="currentColor" opacity="0.47"/><rect x="26.99" y="2.57" width="2.59" height="0.86" fill="currentColor" opacity="0.40"/><rect x="33.00" y="2.57" width="0.86" height="0.86" fill="currentColor" opacity="0.40"/><rect x="2.14" y="8.56" width="0.87" height="0.87" fill="currentColor" opacity="0.40"/><rect x="7.17" y="8.46" width="1.09" height="1.09" fill="currentColor" opacity="0.54"/><rect x="10.97" y="8.37" width="3.78" height="1.26" fill="currentColor" opacity="0.65"/><rect x="17.33" y="8.33" width="1.33" height="1.33" fill="currentColor" opacity="0.70"/><rect x="22.51" y="8.37" width="1.26" height="1.26" fill="currentColor" opacity="0.65"/><rect x="27.74" y="8.46" width="1.09" height="1.09" fill="currentColor" opacity="0.54"/><rect x="32.12" y="8.56" width="2.61" height="0.87" fill="currentColor" opacity="0.40"/><rect x="2.08" y="14.51" width="0.98" height="0.98" fill="currentColor" opacity="0.48"/><rect x="7.09" y="14.38" width="1.24" height="1.24" fill="currentColor" opacity="0.64"/><rect x="12.11" y="14.25" width="1.49" height="1.49" fill="currentColor" opacity="0.80"/><rect x="17.18" y="14.18" width="1.64" height="1.64" fill="currentColor" opacity="0.90"/><rect x="20.91" y="14.25" width="4.47" height="1.49" fill="currentColor" opacity="0.80"/><rect x="27.66" y="14.38" width="1.24" height="1.24" fill="currentColor" opacity="0.64"/><rect x="31.95" y="14.51" width="2.95" height="0.98" fill="currentColor" opacity="0.48"/><rect x="1.10" y="20.51" width="2.95" height="0.98" fill="currentColor" opacity="0.48"/><rect x="5.85" y="20.38" width="3.73" height="1.24" fill="currentColor" opacity="0.64"/><rect x="12.11" y="20.25" width="1.49" height="1.49" fill="currentColor" opacity="0.80"/><rect x="15.53" y="20.18" width="4.93" height="1.64" fill="currentColor" opacity="0.90"/><rect x="22.40" y="20.25" width="1.49" height="1.49" fill="currentColor" opacity="0.80"/><rect x="26.42" y="20.38" width="3.73" height="1.24" fill="currentColor" opacity="0.64"/><rect x="32.94" y="20.51" width="0.98" height="0.98" fill="currentColor" opacity="0.48"/><rect x="1.26" y="26.56" width="2.61" height="0.87" fill="currentColor" opacity="0.40"/><rect x="7.17" y="26.46" width="1.09" height="1.09" fill="currentColor" opacity="0.54"/><rect x="12.23" y="26.37" width="1.26" height="1.26" fill="currentColor" opacity="0.65"/><rect x="16.00" y="26.33" width="4.00" height="1.33" fill="currentColor" opacity="0.70"/><rect x="22.51" y="26.37" width="1.26" height="1.26" fill="currentColor" opacity="0.65"/><rect x="27.74" y="26.46" width="1.09" height="1.09" fill="currentColor" opacity="0.54"/><rect x="32.12" y="26.56" width="2.61" height="0.87" fill="currentColor" opacity="0.40"/><rect x="2.14" y="32.57" width="0.86" height="0.86" fill="currentColor" opacity="0.40"/><rect x="6.42" y="32.57" width="2.59" height="0.86" fill="currentColor" opacity="0.40"/><rect x="12.37" y="32.51" width="0.98" height="0.98" fill="currentColor" opacity="0.47"/><rect x="17.49" y="32.49" width="1.02" height="1.02" fill="currentColor" opacity="0.50"/><rect x="22.66" y="32.51" width="0.98" height="0.98" fill="currentColor" opacity="0.47"/><rect x="26.99" y="32.57" width="2.59" height="0.86" fill="currentColor" opacity="0.40"/></svg>