<svg width="40" height="40" viewBox="0 0 40 40" fill="none" xmlns="http://www.w3.org/2000/svg">
<rect width="40" height="40" />
<path d="M9 19V10.4634C9 8.57751 10.6416 7.04878 12.6667 7.04878C14.6918 7.04878 16.3333 8.57751 16.3333 10.4634V17.2927H23.3V8.7561C23.3 6.69024 25.115 5 27.3333 5C29.3584 5 31 6.52873 31 8.41463V19" stroke="var(--accent)" stroke-width="1.6"/>
<path opacity="0.7" d="M9 21V29.5366C9 31.4225 10.6416 32.9512 12.6667 32.9512C14.6918 32.9512 16.3333 31.4225 16.3333 29.5366V22.7073H23.3V31.2439C23.3 33.3098 25.115 35 27.3333 35C29.3584 35 31 33.4713 31 31.5854V21" stroke="var(--accent)" stroke-width="1.6"/>
</svg>