<svg width="600" height="600" viewBox="0 0 600 600" fill="none" xmlns="http://www.w3.org/2000/svg">
<mask id="path-1-outside-1_4402_4042" maskUnits="userSpaceOnUse" x="126" y="42" width="348" height="516" fill="black">
<rect fill="white" x="126" y="42" width="348" height="516"/>
<path d="M331.773 547.388C307.391 552.167 279.19 546.341 245.721 529.62C208.555 511.043 176.306 483.207 164.383 459.402C160.247 451.147 156.964 440.868 155.489 431.584C153.592 419.624 154.461 391.005 156.972 382.522C157.35 381.228 156.841 380.982 153.829 380.982C139.421 380.982 135.084 367.57 143.258 348.297L145.734 342.454L142.749 332.087C137.165 312.664 135.066 300.74 135.005 288.138C134.961 277.938 135.18 276.196 137.024 272.059C139.342 266.876 143.109 263.215 146.911 262.458C148.307 262.177 149.597 261.693 149.79 261.376C149.984 261.068 149.588 258.445 148.912 255.55C146.603 245.746 142.529 219.548 141.449 207.685C140.018 191.87 140.844 165.988 143.135 154.777C147.947 131.174 155.269 118.246 175.674 97.2926C198.528 73.8308 222.743 60.111 252.938 53.5019C263.483 51.1962 298.032 50.1754 311.588 51.777C332.397 54.2323 350.15 59.451 368.816 68.5858C396.341 82.0592 410.899 94.5909 419.398 112.13C421.505 116.486 423.726 122.471 424.315 125.436L425.403 130.822L427.519 128.296C430.425 124.838 432.778 125.102 438.828 129.572C450.769 138.39 459.742 151.494 462.042 163.48C464.281 175.141 460.216 212.058 451.972 254.978C450.848 260.857 450.865 261.455 452.182 261.842C457.301 263.329 459.847 265.486 462.385 270.475C464.992 275.588 465.045 275.967 465.027 288.516C465.001 302.755 464.105 308.203 458.328 329.218L454.772 342.137L457.617 349.459C460.497 356.869 461.928 366.963 460.769 371.609C459.9 375.077 455.993 379.099 452.472 380.163L449.241 381.131L449.136 393.153C448.978 411.352 446.519 424.588 439.074 447.293C429.539 476.422 416.096 496.179 392.487 515.795C370.862 533.765 352.477 543.331 331.773 547.388ZM303.054 546.438C310.359 547.406 324.574 546.755 332.458 545.091C350.949 541.184 370.23 531.407 387.781 517.045C398.054 508.631 412.33 493.952 417.975 485.997C430.785 467.956 443.025 434.471 446.221 408.765C447.476 398.635 446.8 373.774 444.991 363.381C443.859 356.922 443.841 357.159 443.876 374.382C443.92 389.993 443.701 392.774 441.962 398.97C435.632 421.587 420.328 436.855 402.865 437.982L396.429 438.395L396.438 427.069C396.447 417.556 396.131 414.828 394.463 410.023C392.066 403.141 388.598 397.5 384.093 393.179C376.709 386.086 358.737 375.702 353.838 375.702C352.547 375.702 346.814 378.069 341.107 380.964C335.391 383.868 327.998 386.904 324.679 387.723C316.373 389.765 310.912 388.577 296.908 381.651C284.818 375.666 284.695 375.649 273.667 378.447C264.29 380.815 254.079 386.28 248.232 392.044C238.881 401.267 231.313 415.145 229.214 426.893C228.626 430.202 227.801 432.904 227.388 432.904C226.027 432.904 215.807 427.958 210.53 424.746C186.017 409.821 172.048 389.228 167.702 361.603C166.042 351.052 166.069 292.441 167.745 279.813L168.966 270.607L173.997 265.732C176.763 263.048 179.897 259.132 180.968 257.02C182.189 254.6 184.173 246.178 186.35 234.139C193.128 196.79 200.003 180.535 211.365 175.026C217.449 172.069 221.672 172.862 236.01 179.655C242.709 182.832 250.155 186.045 252.569 186.801C266.319 191.131 281.964 190.938 305.793 186.168C332.01 180.905 358.798 178.767 379.563 180.263C400.266 181.768 409.889 184.328 412.295 189.001C413.041 190.453 415.429 197.731 417.607 205.168C421.882 219.838 439.126 288.921 439.135 291.438C439.144 292.283 439.478 292.978 439.873 292.978C440.277 292.978 441.251 289.511 442.041 285.278C454.412 218.588 457.433 198.858 458.188 179.884C458.776 165.073 457.933 160.4 452.99 151.063C449.996 145.404 441.646 136.384 435.474 132.125C430.671 128.807 430.311 129.044 427.273 137.44C425.807 141.497 424.868 142.931 423.656 142.931C422.234 142.931 421.944 141.946 421.435 135.222C420.285 120.033 414.542 108.012 402.786 96.1926C394.094 87.445 382.899 79.9559 366.709 72.0443C347.63 62.7247 330.808 57.7789 309.736 55.2884C296.46 53.7219 264.501 54.7252 253.746 57.0573C219.249 64.52 187.158 85.4737 164.576 115.298C154.479 128.622 149.588 139.974 146.226 157.892C143.978 169.878 143.978 202.959 146.226 219.055C148.816 237.632 151.889 253.042 156.674 271.417L161.257 289.018L161.503 332.58C161.722 371.345 161.582 377.066 160.186 384.502C158.983 390.917 158.623 397.359 158.623 412.223C158.623 429.727 158.816 432.297 160.66 439.047C163.329 448.85 167.184 458.02 171.372 464.515C173.426 467.683 174.225 469.566 173.4 469.25C171.231 468.414 173.075 471.159 179.888 478.877C209.266 512.169 261.735 540.955 303.054 546.438ZM399.871 426.621L399.853 435.738L404.358 435.157C410.038 434.427 418.3 430.554 423.077 426.383C428.713 421.455 435.246 411.018 437.862 402.728C442.278 388.735 442.322 386.755 439.32 336.54L436.589 290.778L426.466 250.296C414.613 202.853 410.951 190.568 408.151 188.729C402.461 184.988 378.316 182.472 356.63 183.36C337.902 184.126 324.846 185.745 304.81 189.793C290.332 192.715 287.189 193.067 275.836 193.014C259.909 192.935 253.798 191.404 236.897 183.246C222.111 176.118 217.511 175.317 211.496 178.855C201.987 184.443 196.035 199.623 189.695 234.455C187.65 245.729 185.393 255.471 184.305 257.776C183.269 259.959 180.152 264.025 177.377 266.823C172.416 271.813 172.302 272.051 171.178 279.144C170.379 284.213 170.037 297.061 170.037 322.019C170.037 360.512 170.397 364.419 175.296 378.614C181.846 397.615 199.029 415.867 220.663 426.814L225.755 429.393L226.291 426.964C229.609 411.871 237.81 397.359 248.188 388.198C256.081 381.237 270.155 375.446 283.808 373.554C287.426 373.053 288.435 373.361 293.905 376.555C304.248 382.619 312.457 385.664 318.419 385.664C324.425 385.672 333.687 382.319 343.741 376.529C353.627 370.817 359.746 372.076 376.49 383.243C393.198 394.385 399.906 406.82 399.871 426.621ZM148.816 376.203C150.344 376.881 152.986 377.338 154.672 377.233L157.745 377.022L157.956 334.78L158.175 292.538L154.813 279.777C151.625 267.686 151.327 266.999 149.149 266.744C145.813 266.348 143.53 267.906 141.283 272.103C139.474 275.5 139.307 276.952 139.36 289.018C139.412 303.222 140.8 311.107 147.113 333.02L149.896 342.7L146.858 349.74C144.531 355.144 143.732 358.356 143.425 363.583C142.977 371.398 144.145 374.126 148.816 376.203ZM448.802 375.631C448.802 377.004 451.62 376.793 453.807 375.262C458.644 371.865 458.592 362.607 453.666 350.268L450.488 342.304L452.691 335.026C459.101 313.835 462.595 293.823 461.717 283.324C460.892 273.485 457.002 266.577 452.288 266.577H449.935L445.606 288.358L441.277 310.139L443.192 330.38C444.236 341.512 445.931 356.033 446.949 362.651C447.968 369.268 448.802 375.112 448.802 375.631Z"/>
</mask>
<path d="M331.773 547.388C307.391 552.167 279.19 546.341 245.721 529.62C208.555 511.043 176.306 483.207 164.383 459.402C160.247 451.147 156.964 440.868 155.489 431.584C153.592 419.624 154.461 391.005 156.972 382.522C157.35 381.228 156.841 380.982 153.829 380.982C139.421 380.982 135.084 367.57 143.258 348.297L145.734 342.454L142.749 332.087C137.165 312.664 135.066 300.74 135.005 288.138C134.961 277.938 135.18 276.196 137.024 272.059C139.342 266.876 143.109 263.215 146.911 262.458C148.307 262.177 149.597 261.693 149.79 261.376C149.984 261.068 149.588 258.445 148.912 255.55C146.603 245.746 142.529 219.548 141.449 207.685C140.018 191.87 140.844 165.988 143.135 154.777C147.947 131.174 155.269 118.246 175.674 97.2926C198.528 73.8308 222.743 60.111 252.938 53.5019C263.483 51.1962 298.032 50.1754 311.588 51.777C332.397 54.2323 350.15 59.451 368.816 68.5858C396.341 82.0592 410.899 94.5909 419.398 112.13C421.505 116.486 423.726 122.471 424.315 125.436L425.403 130.822L427.519 128.296C430.425 124.838 432.778 125.102 438.828 129.572C450.769 138.39 459.742 151.494 462.042 163.48C464.281 175.141 460.216 212.058 451.972 254.978C450.848 260.857 450.865 261.455 452.182 261.842C457.301 263.329 459.847 265.486 462.385 270.475C464.992 275.588 465.045 275.967 465.027 288.516C465.001 302.755 464.105 308.203 458.328 329.218L454.772 342.137L457.617 349.459C460.497 356.869 461.928 366.963 460.769 371.609C459.9 375.077 455.993 379.099 452.472 380.163L449.241 381.131L449.136 393.153C448.978 411.352 446.519 424.588 439.074 447.293C429.539 476.422 416.096 496.179 392.487 515.795C370.862 533.765 352.477 543.331 331.773 547.388ZM303.054 546.438C310.359 547.406 324.574 546.755 332.458 545.091C350.949 541.184 370.23 531.407 387.781 517.045C398.054 508.631 412.33 493.952 417.975 485.997C430.785 467.956 443.025 434.471 446.221 408.765C447.476 398.635 446.8 373.774 444.991 363.381C443.859 356.922 443.841 357.159 443.876 374.382C443.92 389.993 443.701 392.774 441.962 398.97C435.632 421.587 420.328 436.855 402.865 437.982L396.429 438.395L396.438 427.069C396.447 417.556 396.131 414.828 394.463 410.023C392.066 403.141 388.598 397.5 384.093 393.179C376.709 386.086 358.737 375.702 353.838 375.702C352.547 375.702 346.814 378.069 341.107 380.964C335.391 383.868 327.998 386.904 324.679 387.723C316.373 389.765 310.912 388.577 296.908 381.651C284.818 375.666 284.695 375.649 273.667 378.447C264.29 380.815 254.079 386.28 248.232 392.044C238.881 401.267 231.313 415.145 229.214 426.893C228.626 430.202 227.801 432.904 227.388 432.904C226.027 432.904 215.807 427.958 210.53 424.746C186.017 409.821 172.048 389.228 167.702 361.603C166.042 351.052 166.069 292.441 167.745 279.813L168.966 270.607L173.997 265.732C176.763 263.048 179.897 259.132 180.968 257.02C182.189 254.6 184.173 246.178 186.35 234.139C193.128 196.79 200.003 180.535 211.365 175.026C217.449 172.069 221.672 172.862 236.01 179.655C242.709 182.832 250.155 186.045 252.569 186.801C266.319 191.131 281.964 190.938 305.793 186.168C332.01 180.905 358.798 178.767 379.563 180.263C400.266 181.768 409.889 184.328 412.295 189.001C413.041 190.453 415.429 197.731 417.607 205.168C421.882 219.838 439.126 288.921 439.135 291.438C439.144 292.283 439.478 292.978 439.873 292.978C440.277 292.978 441.251 289.511 442.041 285.278C454.412 218.588 457.433 198.858 458.188 179.884C458.776 165.073 457.933 160.4 452.99 151.063C449.996 145.404 441.646 136.384 435.474 132.125C430.671 128.807 430.311 129.044 427.273 137.44C425.807 141.497 424.868 142.931 423.656 142.931C422.234 142.931 421.944 141.946 421.435 135.222C420.285 120.033 414.542 108.012 402.786 96.1926C394.094 87.445 382.899 79.9559 366.709 72.0443C347.63 62.7247 330.808 57.7789 309.736 55.2884C296.46 53.7219 264.501 54.7252 253.746 57.0573C219.249 64.52 187.158 85.4737 164.576 115.298C154.479 128.622 149.588 139.974 146.226 157.892C143.978 169.878 143.978 202.959 146.226 219.055C148.816 237.632 151.889 253.042 156.674 271.417L161.257 289.018L161.503 332.58C161.722 371.345 161.582 377.066 160.186 384.502C158.983 390.917 158.623 397.359 158.623 412.223C158.623 429.727 158.816 432.297 160.66 439.047C163.329 448.85 167.184 458.02 171.372 464.515C173.426 467.683 174.225 469.566 173.4 469.25C171.231 468.414 173.075 471.159 179.888 478.877C209.266 512.169 261.735 540.955 303.054 546.438ZM399.871 426.621L399.853 435.738L404.358 435.157C410.038 434.427 418.3 430.554 423.077 426.383C428.713 421.455 435.246 411.018 437.862 402.728C442.278 388.735 442.322 386.755 439.32 336.54L436.589 290.778L426.466 250.296C414.613 202.853 410.951 190.568 408.151 188.729C402.461 184.988 378.316 182.472 356.63 183.36C337.902 184.126 324.846 185.745 304.81 189.793C290.332 192.715 287.189 193.067 275.836 193.014C259.909 192.935 253.798 191.404 236.897 183.246C222.111 176.118 217.511 175.317 211.496 178.855C201.987 184.443 196.035 199.623 189.695 234.455C187.65 245.729 185.393 255.471 184.305 257.776C183.269 259.959 180.152 264.025 177.377 266.823C172.416 271.813 172.302 272.051 171.178 279.144C170.379 284.213 170.037 297.061 170.037 322.019C170.037 360.512 170.397 364.419 175.296 378.614C181.846 397.615 199.029 415.867 220.663 426.814L225.755 429.393L226.291 426.964C229.609 411.871 237.81 397.359 248.188 388.198C256.081 381.237 270.155 375.446 283.808 373.554C287.426 373.053 288.435 373.361 293.905 376.555C304.248 382.619 312.457 385.664 318.419 385.664C324.425 385.672 333.687 382.319 343.741 376.529C353.627 370.817 359.746 372.076 376.49 383.243C393.198 394.385 399.906 406.82 399.871 426.621ZM148.816 376.203C150.344 376.881 152.986 377.338 154.672 377.233L157.745 377.022L157.956 334.78L158.175 292.538L154.813 279.777C151.625 267.686 151.327 266.999 149.149 266.744C145.813 266.348 143.53 267.906 141.283 272.103C139.474 275.5 139.307 276.952 139.36 289.018C139.412 303.222 140.8 311.107 147.113 333.02L149.896 342.7L146.858 349.74C144.531 355.144 143.732 358.356 143.425 363.583C142.977 371.398 144.145 374.126 148.816 376.203ZM448.802 375.631C448.802 377.004 451.62 376.793 453.807 375.262C458.644 371.865 458.592 362.607 453.666 350.268L450.488 342.304L452.691 335.026C459.101 313.835 462.595 293.823 461.717 283.324C460.892 273.485 457.002 266.577 452.288 266.577H449.935L445.606 288.358L441.277 310.139L443.192 330.38C444.236 341.512 445.931 356.033 446.949 362.651C447.968 369.268 448.802 375.112 448.802 375.631Z" fill="#221F1F"/>
<path d="M331.773 547.388C307.391 552.167 279.19 546.341 245.721 529.62C208.555 511.043 176.306 483.207 164.383 459.402C160.247 451.147 156.964 440.868 155.489 431.584C153.592 419.624 154.461 391.005 156.972 382.522C157.35 381.228 156.841 380.982 153.829 380.982C139.421 380.982 135.084 367.57 143.258 348.297L145.734 342.454L142.749 332.087C137.165 312.664 135.066 300.74 135.005 288.138C134.961 277.938 135.18 276.196 137.024 272.059C139.342 266.876 143.109 263.215 146.911 262.458C148.307 262.177 149.597 261.693 149.79 261.376C149.984 261.068 149.588 258.445 148.912 255.55C146.603 245.746 142.529 219.548 141.449 207.685C140.018 191.87 140.844 165.988 143.135 154.777C147.947 131.174 155.269 118.246 175.674 97.2926C198.528 73.8308 222.743 60.111 252.938 53.5019C263.483 51.1962 298.032 50.1754 311.588 51.777C332.397 54.2323 350.15 59.451 368.816 68.5858C396.341 82.0592 410.899 94.5909 419.398 112.13C421.505 116.486 423.726 122.471 424.315 125.436L425.403 130.822L427.519 128.296C430.425 124.838 432.778 125.102 438.828 129.572C450.769 138.39 459.742 151.494 462.042 163.48C464.281 175.141 460.216 212.058 451.972 254.978C450.848 260.857 450.865 261.455 452.182 261.842C457.301 263.329 459.847 265.486 462.385 270.475C464.992 275.588 465.045 275.967 465.027 288.516C465.001 302.755 464.105 308.203 458.328 329.218L454.772 342.137L457.617 349.459C460.497 356.869 461.928 366.963 460.769 371.609C459.9 375.077 455.993 379.099 452.472 380.163L449.241 381.131L449.136 393.153C448.978 411.352 446.519 424.588 439.074 447.293C429.539 476.422 416.096 496.179 392.487 515.795C370.862 533.765 352.477 543.331 331.773 547.388ZM303.054 546.438C310.359 547.406 324.574 546.755 332.458 545.091C350.949 541.184 370.23 531.407 387.781 517.045C398.054 508.631 412.33 493.952 417.975 485.997C430.785 467.956 443.025 434.471 446.221 408.765C447.476 398.635 446.8 373.774 444.991 363.381C443.859 356.922 443.841 357.159 443.876 374.382C443.92 389.993 443.701 392.774 441.962 398.97C435.632 421.587 420.328 436.855 402.865 437.982L396.429 438.395L396.438 427.069C396.447 417.556 396.131 414.828 394.463 410.023C392.066 403.141 388.598 397.5 384.093 393.179C376.709 386.086 358.737 375.702 353.838 375.702C352.547 375.702 346.814 378.069 341.107 380.964C335.391 383.868 327.998 386.904 324.679 387.723C316.373 389.765 310.912 388.577 296.908 381.651C284.818 375.666 284.695 375.649 273.667 378.447C264.29 380.815 254.079 386.28 248.232 392.044C238.881 401.267 231.313 415.145 229.214 426.893C228.626 430.202 227.801 432.904 227.388 432.904C226.027 432.904 215.807 427.958 210.53 424.746C186.017 409.821 172.048 389.228 167.702 361.603C166.042 351.052 166.069 292.441 167.745 279.813L168.966 270.607L173.997 265.732C176.763 263.048 179.897 259.132 180.968 257.02C182.189 254.6 184.173 246.178 186.35 234.139C193.128 196.79 200.003 180.535 211.365 175.026C217.449 172.069 221.672 172.862 236.01 179.655C242.709 182.832 250.155 186.045 252.569 186.801C266.319 191.131 281.964 190.938 305.793 186.168C332.01 180.905 358.798 178.767 379.563 180.263C400.266 181.768 409.889 184.328 412.295 189.001C413.041 190.453 415.429 197.731 417.607 205.168C421.882 219.838 439.126 288.921 439.135 291.438C439.144 292.283 439.478 292.978 439.873 292.978C440.277 292.978 441.251 289.511 442.041 285.278C454.412 218.588 457.433 198.858 458.188 179.884C458.776 165.073 457.933 160.4 452.99 151.063C449.996 145.404 441.646 136.384 435.474 132.125C430.671 128.807 430.311 129.044 427.273 137.44C425.807 141.497 424.868 142.931 423.656 142.931C422.234 142.931 421.944 141.946 421.435 135.222C420.285 120.033 414.542 108.012 402.786 96.1926C394.094 87.445 382.899 79.9559 366.709 72.0443C347.63 62.7247 330.808 57.7789 309.736 55.2884C296.46 53.7219 264.501 54.7252 253.746 57.0573C219.249 64.52 187.158 85.4737 164.576 115.298C154.479 128.622 149.588 139.974 146.226 157.892C143.978 169.878 143.978 202.959 146.226 219.055C148.816 237.632 151.889 253.042 156.674 271.417L161.257 289.018L161.503 332.58C161.722 371.345 161.582 377.066 160.186 384.502C158.983 390.917 158.623 397.359 158.623 412.223C158.623 429.727 158.816 432.297 160.66 439.047C163.329 448.85 167.184 458.02 171.372 464.515C173.426 467.683 174.225 469.566 173.4 469.25C171.231 468.414 173.075 471.159 179.888 478.877C209.266 512.169 261.735 540.955 303.054 546.438ZM399.871 426.621L399.853 435.738L404.358 435.157C410.038 434.427 418.3 430.554 423.077 426.383C428.713 421.455 435.246 411.018 437.862 402.728C442.278 388.735 442.322 386.755 439.32 336.54L436.589 290.778L426.466 250.296C414.613 202.853 410.951 190.568 408.151 188.729C402.461 184.988 378.316 182.472 356.63 183.36C337.902 184.126 324.846 185.745 304.81 189.793C290.332 192.715 287.189 193.067 275.836 193.014C259.909 192.935 253.798 191.404 236.897 183.246C222.111 176.118 217.511 175.317 211.496 178.855C201.987 184.443 196.035 199.623 189.695 234.455C187.65 245.729 185.393 255.471 184.305 257.776C183.269 259.959 180.152 264.025 177.377 266.823C172.416 271.813 172.302 272.051 171.178 279.144C170.379 284.213 170.037 297.061 170.037 322.019C170.037 360.512 170.397 364.419 175.296 378.614C181.846 397.615 199.029 415.867 220.663 426.814L225.755 429.393L226.291 426.964C229.609 411.871 237.81 397.359 248.188 388.198C256.081 381.237 270.155 375.446 283.808 373.554C287.426 373.053 288.435 373.361 293.905 376.555C304.248 382.619 312.457 385.664 318.419 385.664C324.425 385.672 333.687 382.319 343.741 376.529C353.627 370.817 359.746 372.076 376.49 383.243C393.198 394.385 399.906 406.82 399.871 426.621ZM148.816 376.203C150.344 376.881 152.986 377.338 154.672 377.233L157.745 377.022L157.956 334.78L158.175 292.538L154.813 279.777C151.625 267.686 151.327 266.999 149.149 266.744C145.813 266.348 143.53 267.906 141.283 272.103C139.474 275.5 139.307 276.952 139.36 289.018C139.412 303.222 140.8 311.107 147.113 333.02L149.896 342.7L146.858 349.74C144.531 355.144 143.732 358.356 143.425 363.583C142.977 371.398 144.145 374.126 148.816 376.203ZM448.802 375.631C448.802 377.004 451.62 376.793 453.807 375.262C458.644 371.865 458.592 362.607 453.666 350.268L450.488 342.304L452.691 335.026C459.101 313.835 462.595 293.823 461.717 283.324C460.892 273.485 457.002 266.577 452.288 266.577H449.935L445.606 288.358L441.277 310.139L443.192 330.38C444.236 341.512 445.931 356.033 446.949 362.651C447.968 369.268 448.802 375.112 448.802 375.631Z" stroke="#FBFBF9" stroke-width="16" mask="url(#path-1-outside-1_4402_4042)"/>
<path d="M303.075 546.55C261.757 541.067 209.287 512.281 179.909 478.989C173.096 471.271 171.252 468.526 173.421 469.362C174.246 469.678 173.447 467.795 171.393 464.627C167.205 458.132 163.35 448.962 160.681 439.159C158.837 432.409 158.644 429.839 158.644 412.335C158.644 397.471 159.004 391.029 160.207 384.614C161.603 377.178 161.744 371.457 161.524 332.692L161.278 289.13L156.695 271.529C151.91 253.154 148.837 237.744 146.247 219.167C143.999 203.071 143.999 169.99 146.247 158.004C149.61 140.086 154.5 128.734 164.597 115.41C187.179 85.5857 219.27 64.632 253.767 57.1693C264.522 54.8372 296.481 53.8339 309.757 55.4004C330.829 57.8909 347.651 62.8367 366.73 72.1563C382.92 80.0679 394.115 87.557 402.807 96.3046C414.564 108.124 420.306 120.145 421.456 135.334C421.965 142.058 422.255 143.043 423.677 143.043C424.889 143.043 425.828 141.609 427.295 137.552C430.332 129.156 430.692 128.919 435.495 132.237C441.667 136.496 450.017 145.516 453.011 151.175C457.954 160.512 458.797 165.185 458.209 179.996C457.454 198.97 454.434 218.7 442.062 285.39C441.272 289.623 440.298 293.09 439.894 293.09C439.499 293.09 439.165 292.395 439.156 291.55C439.148 289.033 421.904 219.95 417.628 205.28C415.45 197.843 413.062 190.565 412.316 189.113C409.91 184.44 400.287 181.88 379.584 180.375C358.819 178.879 332.032 181.017 305.815 186.28C281.986 191.05 266.34 191.243 252.59 186.913C250.176 186.157 242.73 182.944 236.031 179.767C221.693 172.974 217.47 172.181 211.386 175.138C200.024 180.647 193.15 196.902 186.371 234.251C184.194 246.29 182.21 254.712 180.989 257.132C179.918 259.244 176.784 263.16 174.018 265.844L168.987 270.719L167.767 279.925C166.09 292.553 166.063 351.164 167.723 361.715C172.069 389.34 186.038 409.933 210.552 424.858C215.828 428.07 226.048 433.016 227.409 433.016C227.822 433.016 228.647 430.314 229.235 427.005C231.334 415.257 238.902 401.379 248.253 392.156C254.1 386.392 264.311 380.927 273.689 378.559C284.716 375.761 284.839 375.778 296.929 381.763C310.933 388.689 316.394 389.877 324.7 387.835C328.019 387.016 335.412 383.98 341.128 381.076C346.835 378.181 352.568 375.814 353.859 375.814C358.758 375.814 376.731 386.198 384.114 393.291C388.619 397.612 392.087 403.253 394.484 410.135C396.152 414.94 396.468 417.668 396.459 427.181L396.45 438.508L402.886 438.094C420.35 436.967 435.653 421.699 441.984 399.082C443.722 392.886 443.941 390.105 443.898 374.494C443.862 357.271 443.88 357.034 445.013 363.493C446.821 373.886 447.497 398.747 446.242 408.877C443.046 434.583 430.807 468.068 417.997 486.109C412.351 494.064 398.075 508.743 387.802 517.157C370.251 531.519 350.97 541.296 332.479 545.203C324.595 546.867 310.38 547.518 303.075 546.55ZM399.892 426.733C399.927 406.932 393.219 394.497 376.511 383.356C359.768 372.188 353.648 370.929 343.762 376.641C333.709 382.431 324.446 385.784 318.44 385.776C312.479 385.776 304.269 382.731 293.926 376.667C288.456 373.473 287.447 373.165 283.829 373.666C270.177 375.558 256.102 381.349 248.209 388.31C237.831 397.471 229.63 411.983 226.312 427.076L225.776 429.505L220.684 426.926C199.05 415.979 181.867 397.727 175.317 378.727C170.418 364.531 170.058 360.624 170.058 322.131C170.058 297.173 170.401 284.325 171.2 279.256C172.323 272.163 172.438 271.925 177.398 266.935C180.173 264.137 183.29 260.071 184.326 257.888C185.414 255.583 187.671 245.841 189.717 234.567C196.056 199.736 202.009 184.555 211.517 178.967C217.532 175.429 222.132 176.23 236.918 183.358C253.819 191.516 259.93 193.047 275.857 193.126C287.21 193.179 290.353 192.827 304.831 189.905C324.867 185.857 337.923 184.238 356.651 183.472C378.337 182.584 402.482 185.1 408.172 188.841C410.973 190.68 414.634 202.965 426.487 250.408L436.61 290.89L439.341 336.652C442.343 386.867 442.3 388.847 437.883 402.84C435.267 411.13 428.734 421.567 423.098 426.495C418.321 430.666 410.059 434.539 404.379 435.269L399.875 435.85L399.892 426.733ZM148.837 376.315C144.166 374.238 142.998 371.51 143.446 363.695C143.753 358.468 144.552 355.256 146.879 349.852L149.917 342.812L147.134 333.132C140.821 311.219 139.434 303.334 139.381 289.13C139.328 277.064 139.495 275.612 141.304 272.215C143.551 268.018 145.834 266.46 149.171 266.856C151.348 267.111 151.647 267.798 154.834 279.889L158.196 292.65L157.977 334.892L157.766 377.134L154.693 377.345C153.007 377.45 150.365 376.993 148.837 376.315ZM448.823 375.743C448.823 375.224 447.989 369.38 446.971 362.763C445.952 356.145 444.257 341.624 443.213 330.492L441.299 310.251L445.627 288.47L449.956 266.689H452.309C457.024 266.689 460.913 273.597 461.738 283.436C462.616 293.935 459.122 313.947 452.713 335.138L450.509 342.416L453.687 350.38C458.613 362.719 458.665 371.977 453.828 375.374C451.641 376.905 448.823 377.116 448.823 375.743Z" fill="#383838"/>
<path d="M399.892 426.166C399.927 406.365 393.219 393.93 376.511 382.789C359.768 371.621 353.648 370.363 343.762 376.074C333.709 381.865 324.446 385.218 318.44 385.209C312.479 385.209 304.269 382.164 293.926 376.101C288.456 372.906 287.447 372.598 283.829 373.1C270.177 374.992 256.102 380.783 248.209 387.744C237.831 396.905 229.63 411.417 226.312 426.509L225.776 428.938L220.684 426.36C199.05 415.412 181.867 397.16 175.317 378.16C170.418 363.965 170.058 360.058 170.058 321.565C170.058 296.607 170.401 283.758 171.2 278.689C172.323 271.596 172.438 271.359 177.398 266.369C180.173 263.57 183.29 259.505 184.326 257.322C185.414 255.016 187.671 245.274 189.717 234.001C196.056 199.169 202.009 183.988 211.517 178.4C217.532 174.862 222.132 175.663 236.918 182.792C253.819 190.95 259.93 192.481 275.857 192.56C287.21 192.613 290.353 192.261 304.831 189.339C324.867 185.291 337.923 183.672 356.651 182.906C378.337 182.017 402.482 184.534 408.172 188.274C410.973 190.114 414.634 202.399 426.487 249.842L436.61 290.324L439.341 336.085C442.343 386.3 442.3 388.281 437.883 402.273C435.267 410.563 428.734 421 423.098 425.929C418.321 430.1 410.059 433.972 404.379 434.703L399.875 435.283L399.892 426.166ZM148.837 375.749C144.166 373.672 142.998 370.944 143.446 363.129C143.753 357.902 144.552 354.689 146.879 349.286L149.917 342.246L147.134 332.565C140.821 310.652 139.434 302.767 139.381 288.563C139.328 276.498 139.495 275.046 141.304 271.649C143.551 267.451 145.834 265.894 149.171 266.29C151.348 266.545 151.647 267.231 154.834 279.323L158.196 292.084L157.977 334.325L157.766 376.567L154.693 376.778C153.007 376.884 150.365 376.426 148.837 375.749ZM448.823 375.177C448.823 374.658 447.989 368.814 446.971 362.196C445.952 355.578 444.257 341.058 443.213 329.925L441.299 309.684L445.627 287.903L449.956 266.122H452.309C457.024 266.122 460.913 273.031 461.738 282.87C462.616 293.368 459.122 313.381 452.713 334.572L450.509 341.85L453.687 349.814C458.613 362.152 458.665 371.41 453.828 374.807C451.641 376.338 448.823 376.55 448.823 375.177Z" fill="#FBFBF9"/>
</svg>
