<svg width="80" height="80" viewBox="0 0 80 80" fill="none" xmlns="http://www.w3.org/2000/svg">
<rect width="80" height="80" rx="8" fill="white"/>
<path d="M20.3343 46.2819V49.9047H10V46.2819H20.3343ZM12.3462 42.1155H17.1056V58.3279C17.1056 58.7732 17.1726 59.1204 17.3067 59.3695C17.4407 59.611 17.6269 59.7809 17.8653 59.879C18.1111 59.9771 18.3941 60.0262 18.7144 60.0262C18.9378 60.0262 19.1613 60.0073 19.3847 59.9695C19.6081 59.9243 19.7795 59.8903 19.8986 59.8677L20.6472 63.4566C20.4088 63.532 20.0737 63.6188 19.6417 63.717C19.2097 63.8226 18.6846 63.8868 18.0664 63.9094C16.9194 63.9547 15.9139 63.8 15.0499 63.4452C14.1933 63.0905 13.5267 62.5395 13.05 61.7923C12.5733 61.0451 12.3387 60.1016 12.3462 58.9619V42.1155Z" fill="black"/>
<path d="M25.7312 53.6182V63.6717H20.9718V40.4853H25.5972V49.35H25.7983C26.1856 48.3235 26.8112 47.5197 27.6752 46.9385C28.5392 46.3498 29.6229 46.0554 30.9263 46.0554C32.118 46.0554 33.1571 46.3196 34.0434 46.8479C34.9372 47.3687 35.6299 48.1197 36.1214 49.1009C36.6205 50.0746 36.8662 51.2407 36.8588 52.5993V63.6717H32.0994V53.4597C32.1069 52.3879 31.8387 51.5539 31.295 50.9576C30.7587 50.3614 30.0065 50.0632 29.0382 50.0632C28.3902 50.0632 27.8167 50.2029 27.3177 50.4821C26.8261 50.7614 26.4388 51.169 26.1558 51.7049C25.8802 52.2332 25.7387 52.871 25.7312 53.6182Z" fill="black"/>
<path d="M42.6663 64C41.5714 64 40.5957 63.8075 39.7391 63.4226C38.8826 63.0301 38.2048 62.4527 37.7058 61.6904C37.2142 60.9206 36.9684 59.962 36.9684 58.8148C36.9684 57.8487 37.1434 57.0373 37.4935 56.3806C37.8436 55.724 38.3202 55.1956 38.9235 54.7956C39.5268 54.3956 40.2121 54.0937 40.9792 53.8899C41.7539 53.6861 42.5657 53.5427 43.4148 53.4597C44.4129 53.354 45.2173 53.2559 45.828 53.1653C46.4388 53.0672 46.8819 52.9238 47.1575 52.7351C47.4331 52.5464 47.5709 52.2672 47.5709 51.8973V51.8294C47.5709 51.1124 47.3474 50.5576 46.9005 50.1651C46.4611 49.7727 45.8355 49.5764 45.0236 49.5764C44.1671 49.5764 43.4856 49.7689 42.9791 50.1538C42.4726 50.5312 42.1374 51.0067 41.9736 51.5803L37.5717 51.218C37.7951 50.1614 38.2346 49.2481 38.89 48.4782C39.5455 47.7008 40.3908 47.1046 41.4261 46.6894C42.4689 46.2668 43.6755 46.0554 45.0459 46.0554C45.9993 46.0554 46.9117 46.1686 47.7832 46.3951C48.662 46.6215 49.4404 46.9725 50.1182 47.448C50.8034 47.9235 51.3434 48.5348 51.7381 49.2821C52.1329 50.0217 52.3303 50.9086 52.3303 51.9426V63.6717H47.8167V61.2602H47.6826C47.407 61.8036 47.0383 62.2829 46.5765 62.698C46.1148 63.1056 45.5599 63.4264 44.9119 63.6604C44.2639 63.8868 43.5153 64 42.6663 64ZM44.0293 60.6715C44.7294 60.6715 45.3476 60.5318 45.8839 60.2526C46.4201 59.9658 46.841 59.5808 47.1463 59.0978C47.4517 58.6147 47.6044 58.0675 47.6044 57.4562V55.6108C47.4554 55.7089 47.2506 55.7995 46.9899 55.8825C46.7367 55.958 46.4499 56.0297 46.1297 56.0976C45.8094 56.158 45.4891 56.2146 45.1688 56.2674C44.8486 56.3127 44.5581 56.3542 44.2974 56.392C43.7388 56.475 43.2509 56.6071 42.8338 56.7882C42.4167 56.9694 42.0927 57.2146 41.8619 57.5241C41.631 57.826 41.5155 58.2034 41.5155 58.6563C41.5155 59.3129 41.7501 59.8148 42.2194 60.162C42.696 60.5017 43.2994 60.6715 44.0293 60.6715Z" fill="black"/>
<path d="M62.3189 46.2819V49.9047H51.9846V46.2819H62.3189ZM54.3308 42.1155H59.0902V58.3279C59.0902 58.7732 59.1572 59.1204 59.2913 59.3695C59.4253 59.611 59.6115 59.7809 59.8499 59.879C60.0957 59.9771 60.3787 60.0262 60.699 60.0262C60.9224 60.0262 61.1459 60.0073 61.3693 59.9695C61.5927 59.9243 61.7641 59.8903 61.8832 59.8677L62.6318 63.4566C62.3934 63.532 62.0583 63.6188 61.6263 63.717C61.1943 63.8226 60.6692 63.8868 60.051 63.9094C58.904 63.9547 57.8985 63.8 57.0345 63.4452C56.1779 63.0905 55.5113 62.5395 55.0346 61.7923C54.5579 61.0451 54.3233 60.1016 54.3308 58.9619V42.1155Z" fill="black"/>
<path d="M65.3696 63.966C64.6323 63.966 63.9992 63.7019 63.4704 63.1735C62.949 62.6376 62.6883 61.9961 62.6883 61.2489C62.6883 60.5092 62.949 59.8752 63.4704 59.3469C63.9992 58.8185 64.6323 58.5544 65.3696 58.5544C66.0847 58.5544 66.7103 58.8185 67.2466 59.3469C67.7829 59.8752 68.051 60.5092 68.051 61.2489C68.051 61.747 67.9244 62.2037 67.6711 62.6188C67.4253 63.0263 67.1013 63.3547 66.6991 63.6037C66.2969 63.8453 65.8538 63.966 65.3696 63.966Z" fill="black"/>
<path d="M20.3343 21.1212V24.7441H10V21.1212H20.3343ZM12.3462 16.9549H17.1056V33.1673C17.1056 33.6126 17.1726 33.9598 17.3067 34.2089C17.4407 34.4504 17.6269 34.6202 17.8653 34.7183C18.1111 34.8165 18.3941 34.8655 18.7144 34.8655C18.9378 34.8655 19.1613 34.8466 19.3847 34.8089C19.6081 34.7636 19.7795 34.7297 19.8986 34.707L20.6472 38.2959C20.4088 38.3714 20.0737 38.4582 19.6417 38.5563C19.2097 38.662 18.6846 38.7261 18.0664 38.7488C16.9194 38.7941 15.9139 38.6393 15.0499 38.2846C14.1933 37.9299 13.5267 37.3789 13.05 36.6317C12.5733 35.8845 12.3387 34.941 12.3462 33.8013V16.9549Z" fill="black"/>
<path d="M25.7312 28.4576V38.511H20.9718V15.3246H25.5972V24.1893H25.7983C26.1856 23.1629 26.8112 22.359 27.6752 21.7779C28.5392 21.1892 29.6229 20.8948 30.9263 20.8948C32.118 20.8948 33.1571 21.159 34.0434 21.6873C34.9372 22.2081 35.6299 22.9591 36.1214 23.9403C36.6205 24.9139 36.8662 26.08 36.8588 27.4386V38.511H32.0994V28.299C32.1069 27.2273 31.8387 26.3933 31.295 25.797C30.7587 25.2007 30.0065 24.9026 29.0382 24.9026C28.3902 24.9026 27.8167 25.0422 27.3177 25.3215C26.8261 25.6008 26.4388 26.0083 26.1558 26.5442C25.8802 27.0726 25.7387 27.7103 25.7312 28.4576Z" fill="black"/>
<path d="M37.7728 38.511V21.1212H42.5322V38.511H37.7728ZM40.1637 18.8796C39.4561 18.8796 38.8491 18.6418 38.3426 18.1663C37.8436 17.6833 37.594 17.1059 37.594 16.4341C37.594 15.7699 37.8436 15.2001 38.3426 14.7246C38.8491 14.2415 39.4561 14 40.1637 14C40.8712 14 41.4745 14.2415 41.9736 14.7246C42.4801 15.2001 42.7333 15.7699 42.7333 16.4341C42.7333 17.1059 42.4801 17.6833 41.9736 18.1663C41.4745 18.6418 40.8712 18.8796 40.1637 18.8796Z" fill="black"/>
<path d="M57.7914 26.08L53.4342 26.3518C53.3597 25.9744 53.1996 25.6347 52.9538 25.3328C52.708 25.0234 52.384 24.7781 51.9818 24.5969C51.587 24.4082 51.1141 24.3139 50.5629 24.3139C49.8256 24.3139 49.2036 24.4724 48.6972 24.7894C48.1907 25.0988 47.9374 25.514 47.9374 26.0348C47.9374 26.4499 48.1013 26.8008 48.429 27.0876C48.7567 27.3745 49.3191 27.6047 50.116 27.7783L53.2219 28.4123C54.8903 28.7595 56.1342 29.318 56.9535 30.0878C57.7728 30.8577 58.1824 31.8691 58.1824 33.122C58.1824 34.2617 57.851 35.2618 57.1881 36.1222C56.5326 36.9826 55.6314 37.6544 54.4844 38.1374C53.3448 38.6129 52.0302 38.8507 50.5406 38.8507C48.2689 38.8507 46.459 38.3714 45.1109 37.4129C43.7702 36.4468 42.9844 35.1335 42.7535 33.473L47.4347 33.2239C47.5762 33.9258 47.9188 34.4617 48.4625 34.8316C49.0063 35.1938 49.7027 35.375 50.5518 35.375C51.386 35.375 52.0563 35.2127 52.5628 34.8882C53.0767 34.5561 53.3374 34.1296 53.3448 33.6088C53.3374 33.1711 53.1549 32.8126 52.7974 32.5333C52.4399 32.2465 51.8887 32.0276 51.1439 31.8766L48.1721 31.2766C46.4962 30.937 45.2486 30.3482 44.4293 29.5105C43.6175 28.6727 43.2116 27.6047 43.2116 26.3065C43.2116 25.1894 43.5095 24.2271 44.1054 23.4195C44.7087 22.6119 45.554 21.9892 46.6415 21.5514C47.7363 21.1137 49.0174 20.8948 50.4847 20.8948C52.6521 20.8948 54.3578 21.359 55.6016 22.2873C56.8529 23.2157 57.5828 24.4799 57.7914 26.08Z" fill="black"/>
<path d="M67.586 44.8959C67.3561 44.8959 67.1798 44.8494 67.0572 44.7562C65.9383 44.7562 64.9114 44.2669 63.9764 43.2884C63.0568 42.3099 62.3057 40.8343 61.7233 38.8618C61.1715 39.0948 60.5968 39.2812 59.999 39.4209C59.4166 39.5607 58.8265 39.6306 58.2287 39.6306C57.6616 39.6306 57.1175 39.5141 56.5964 39.2812C56.0906 39.0482 55.6767 38.7298 55.3549 38.3259C55.0483 37.9221 54.895 37.4717 54.895 36.9747C54.895 36.7883 54.9104 36.6174 54.941 36.4621C54.9717 36.2913 55.01 36.1359 55.056 35.9962C54.7188 36.0427 54.3739 36.066 54.0214 36.066C53.6382 36.066 53.3393 35.9651 53.1247 35.7632C52.9102 35.5457 52.8029 35.2894 52.8029 34.9943C52.8029 34.7614 52.8718 34.5284 53.0098 34.2954C53.1477 34.0469 53.3623 33.8294 53.6535 33.6431C53.7302 33.5965 53.7915 33.5732 53.8375 33.5732C53.8834 33.5732 53.9064 33.5887 53.9064 33.6198C53.9064 33.6819 53.8451 33.7596 53.7225 33.8527C53.5386 33.9615 53.4006 34.0935 53.3087 34.2488C53.232 34.4041 53.1937 34.5594 53.1937 34.7148C53.1937 34.9322 53.2704 35.1341 53.4236 35.3205C53.5922 35.4914 53.8068 35.5768 54.0674 35.5768C54.4659 35.5768 54.8567 35.5535 55.2399 35.5069C55.5464 34.7769 55.9986 34.0857 56.5964 33.4334C57.2094 32.7655 57.8915 32.1442 58.6425 31.5696C59.4089 30.9793 60.1599 30.4357 60.8956 29.9387C60.9876 29.1466 61.1409 28.4088 61.3555 27.7254C61.5854 27.0265 61.9072 26.4595 62.3211 26.0247C62.7349 25.5898 63.256 25.3723 63.8844 25.3723C64.0224 25.3723 64.0914 25.4111 64.0914 25.4888C64.0914 25.582 63.9994 25.6286 63.8155 25.6286C63.4476 25.6286 63.1411 25.7917 62.8958 26.1178C62.6659 26.444 62.4897 26.8711 62.3671 27.3992C62.2598 27.9273 62.1831 28.5098 62.1371 29.1466L63.3327 28.3777C63.5013 28.2535 63.7312 28.0982 64.0224 27.9118C64.3136 27.7099 64.5742 27.508 64.8041 27.306C65.034 27.0886 65.1489 26.91 65.1489 26.7702C65.1489 26.5838 64.9267 26.4906 64.4822 26.4906C64.283 26.4906 64.1833 26.4362 64.1833 26.3275C64.1833 26.2654 64.2523 26.2343 64.3902 26.2343C64.5129 26.2343 64.6891 26.2499 64.919 26.2809C65.1489 26.2965 65.3559 26.3508 65.5398 26.444C65.739 26.5217 65.831 26.6537 65.8157 26.8401C65.8157 27.1197 65.7697 27.3371 65.6777 27.4924C65.6011 27.6477 65.4248 27.8186 65.1489 28.005C64.8884 28.1914 64.4822 28.4709 63.9304 28.8437C63.6239 29.0456 63.3173 29.2553 63.0108 29.4727C62.7042 29.6747 62.3977 29.8843 62.0912 30.1018C62.0912 30.6609 62.1065 31.2123 62.1371 31.7559C62.1678 32.2996 62.2061 32.8043 62.2521 33.2703C62.5127 33.1771 62.7732 33.0839 63.0338 32.9907C63.3097 32.8975 63.5702 32.8199 63.8155 32.7577C64.0454 32.6801 64.283 32.6257 64.5282 32.5947C64.7887 32.5481 65.0416 32.5248 65.2869 32.5248C65.4095 32.5248 65.5628 32.5481 65.7467 32.5947C65.9306 32.6257 66.0916 32.7111 66.2295 32.8509C66.3675 32.9752 66.4211 33.1771 66.3904 33.4567C66.2832 34.3265 65.9306 35.173 65.3329 35.9962C64.7504 36.8038 64.0071 37.5027 63.1028 38.093C63.3786 39.1957 63.7082 40.2286 64.0914 41.1916C64.4899 42.1701 64.942 42.9545 65.4478 43.5447C65.9536 44.1349 66.5054 44.43 67.1032 44.43C67.5476 44.43 67.9385 44.3368 68.2757 44.1504C68.6129 43.9796 68.9118 43.7854 69.1723 43.568C69.4482 43.3505 69.6858 43.1719 69.885 43.0321C69.9004 43.0166 69.9234 43.0088 69.954 43.0088C69.9847 43.0088 70 43.0321 70 43.0787C70 43.1564 69.9464 43.2729 69.8391 43.4282C69.7778 43.5369 69.6628 43.6922 69.4942 43.8941C69.3409 44.1116 69.1263 44.3057 68.8505 44.4766C68.6052 44.6319 68.3753 44.7406 68.1607 44.8028C67.9462 44.8649 67.7546 44.8959 67.586 44.8959ZM57.3551 35.0409C57.9375 34.8701 58.5123 34.6759 59.0794 34.4585C59.6618 34.241 60.2366 34.0236 60.8037 33.8061C60.7884 33.6042 60.7807 33.3946 60.7807 33.1771C60.7807 32.9597 60.7807 32.7422 60.7807 32.5248C60.7807 32.3073 60.7807 32.0821 60.7807 31.8491C60.7807 31.6006 60.7884 31.3599 60.8037 31.1269C60.1293 31.686 59.4932 32.2918 58.8954 32.9441C58.313 33.5809 57.7995 34.2799 57.3551 35.0409ZM62.8729 37.1144C63.6086 36.5708 64.2446 35.9806 64.7811 35.3438C65.3329 34.6915 65.6394 34.078 65.7007 33.5033V33.4101C65.7007 33.2392 65.6547 33.1305 65.5628 33.0839C65.4708 33.0373 65.3635 33.014 65.2409 33.014C64.9037 33.014 64.4745 33.0839 63.9534 33.2237C63.4323 33.348 62.8805 33.5033 62.2981 33.6897C62.3287 34.0469 62.3671 34.3653 62.413 34.6449C62.459 34.9244 62.4897 35.1341 62.505 35.2739C62.551 35.569 62.6046 35.8719 62.6659 36.1825C62.7426 36.4932 62.8115 36.8038 62.8729 37.1144ZM58.1367 39.1647C58.7345 39.1647 59.4855 38.9705 60.3898 38.5822C60.7577 38.4114 61.1255 38.225 61.4934 38.0231C61.3861 37.6192 61.2865 37.1999 61.1945 36.765C61.1179 36.3146 61.0412 35.8486 60.9646 35.3671C60.9493 35.2118 60.9263 35.0409 60.8956 34.8546C60.8803 34.6526 60.865 34.4352 60.8497 34.2022L58.5506 35.0642C58.3053 35.1419 58.0601 35.2196 57.8149 35.2972C57.585 35.3749 57.3397 35.4525 57.0792 35.5302C56.696 36.2757 56.5044 36.9514 56.5044 37.5571C56.5044 38.0386 56.6347 38.4269 56.8952 38.722C57.1558 39.0171 57.5696 39.1647 58.1367 39.1647Z" fill="#C76429"/>
</svg>
